<svg xmlns="http://www.w3.org/2000/svg" xmlns:xlink="http://www.w3.org/1999/xlink" width="500" zoomAndPan="magnify" viewBox="0 0 375 374.999991" height="500" preserveAspectRatio="xMidYMid meet" version="1.0"><defs><clipPath id="95640e1dfe"><path d="M 186 32.769531 L 216 32.769531 L 216 113 L 186 113 Z M 186 32.769531 " clip-rule="nonzero"/></clipPath><clipPath id="ad2620f9b1"><path d="M 62.398438 74 L 329.398438 74 L 329.398438 337.269531 L 62.398438 337.269531 Z M 62.398438 74 " clip-rule="nonzero"/></clipPath></defs><path fill="#18795b" d="M 168.324219 121.492188 C 166.359375 121.492188 164.753906 119.886719 164.753906 117.921875 L 164.753906 59.011719 C 164.753906 51.160156 171.179688 44.554688 179.214844 44.554688 C 187.246094 44.554688 193.671875 51.160156 193.671875 59.011719 C 193.671875 60.976562 192.066406 62.582031 190.101562 62.582031 C 188.140625 62.582031 186.53125 60.976562 186.53125 59.011719 C 186.53125 55.085938 183.320312 51.695312 179.214844 51.695312 C 175.285156 51.695312 171.894531 55.085938 171.894531 59.011719 L 171.894531 117.921875 C 171.894531 119.886719 170.289062 121.492188 168.324219 121.492188 Z M 168.324219 121.492188 " fill-opacity="1" fill-rule="evenodd"/><g clip-path="url(#95640e1dfe)"><path fill="#18795b" d="M 211.703125 112.03125 C 209.738281 112.03125 208.132812 110.425781 208.132812 108.460938 L 208.132812 47.230469 C 208.132812 43.125 204.917969 39.910156 200.992188 39.910156 C 196.886719 39.910156 193.671875 43.125 193.671875 47.230469 L 193.671875 103.105469 C 193.671875 105.070312 192.066406 106.675781 190.101562 106.675781 C 188.140625 106.675781 186.53125 105.070312 186.53125 103.105469 L 186.53125 47.230469 C 186.53125 39.199219 192.960938 32.769531 200.992188 32.769531 C 208.847656 32.769531 215.273438 39.199219 215.273438 47.230469 L 215.273438 108.460938 C 215.273438 110.425781 213.667969 112.03125 211.703125 112.03125 Z M 211.703125 112.03125 " fill-opacity="1" fill-rule="evenodd"/></g><path fill="#18795b" d="M 233.480469 109.175781 C 231.519531 109.175781 229.910156 107.570312 229.910156 105.605469 L 229.910156 59.011719 C 229.910156 55.085938 226.699219 51.695312 222.59375 51.695312 C 218.664062 51.695312 215.273438 55.085938 215.273438 59.011719 C 215.273438 60.976562 213.667969 62.582031 211.703125 62.582031 C 209.738281 62.582031 208.132812 60.976562 208.132812 59.011719 C 208.132812 51.160156 214.738281 44.554688 222.59375 44.554688 C 230.625 44.554688 237.050781 51.160156 237.050781 59.011719 L 237.050781 105.605469 C 237.050781 107.570312 235.445312 109.175781 233.480469 109.175781 Z M 233.480469 109.175781 " fill-opacity="1" fill-rule="evenodd"/><path fill="#18795b" d="M 241.691406 207.179688 L 186.890625 207.179688 C 184.925781 207.179688 183.320312 205.574219 183.320312 203.609375 L 183.320312 193.078125 C 183.320312 185.402344 183.320312 185.402344 179.925781 180.402344 C 179.390625 179.6875 178.679688 178.796875 178.140625 177.902344 L 133.691406 114.351562 C 133.15625 113.636719 132.800781 112.746094 132.980469 111.851562 C 133.15625 110.78125 133.691406 110.066406 134.585938 109.53125 C 152.792969 96.679688 170.464844 114.171875 183.496094 127.027344 C 186.175781 129.882812 188.675781 132.382812 191.175781 134.523438 C 192.601562 135.773438 192.78125 138.09375 191.351562 139.523438 C 190.101562 140.949219 187.960938 141.128906 186.355469 139.878906 C 183.855469 137.558594 181.175781 134.882812 178.5 132.203125 C 164.753906 118.457031 153.152344 108.460938 141.726562 113.460938 L 183.855469 173.796875 C 184.570312 174.691406 185.105469 175.582031 185.640625 176.296875 C 190.28125 182.722656 190.460938 183.4375 190.460938 192.898438 L 190.460938 200.039062 L 238.125 200.039062 L 238.125 184.152344 C 238.125 182.902344 238.660156 181.832031 239.730469 181.117188 C 250.796875 173.617188 251.691406 163.445312 251.691406 150.949219 L 251.691406 73.292969 C 251.691406 69.367188 248.296875 66.152344 244.371094 66.152344 C 240.265625 66.152344 237.050781 69.367188 237.050781 73.292969 C 237.050781 75.257812 235.445312 76.863281 233.480469 76.863281 C 231.519531 76.863281 229.910156 75.257812 229.910156 73.292969 C 229.910156 65.441406 236.339844 59.011719 244.371094 59.011719 C 252.226562 59.011719 258.832031 65.441406 258.832031 73.292969 L 258.832031 150.949219 C 258.832031 164.15625 257.757812 176.652344 245.261719 185.9375 L 245.261719 203.609375 C 245.261719 205.574219 243.65625 207.179688 241.691406 207.179688 Z M 241.691406 207.179688 " fill-opacity="1" fill-rule="evenodd"/><g clip-path="url(#ad2620f9b1)"><path fill="#18795b" d="M 195.816406 337.492188 C 189.566406 337.492188 183.855469 335.351562 179.035156 331.246094 C 173.5 333.925781 167.433594 334.460938 161.363281 332.851562 C 155.292969 331.246094 150.292969 327.675781 146.722656 322.675781 C 140.65625 323.75 134.585938 322.675781 129.230469 319.464844 C 123.695312 316.429688 119.769531 311.609375 117.625 305.898438 C 111.558594 305.363281 105.84375 302.683594 101.558594 298.398438 C 97.097656 293.9375 94.417969 288.222656 94.0625 282.15625 C 88.171875 280.011719 83.351562 276.085938 80.316406 270.730469 C 77.28125 265.375 76.210938 259.125 77.28125 253.058594 C 72.105469 249.664062 68.535156 244.488281 66.929688 238.597656 C 65.320312 232.527344 65.859375 226.28125 68.535156 220.746094 C 64.609375 216.105469 62.464844 210.214844 62.464844 203.964844 C 62.464844 197.71875 64.609375 191.828125 68.535156 187.1875 C 65.859375 181.652344 65.320312 175.402344 66.929688 169.511719 C 68.535156 163.445312 72.105469 158.265625 77.28125 154.875 C 76.210938 148.804688 77.28125 142.734375 80.316406 137.203125 C 83.351562 131.847656 88.171875 127.917969 94.0625 125.777344 C 94.417969 119.707031 97.097656 113.996094 101.558594 109.710938 C 105.84375 105.246094 111.558594 102.570312 117.625 102.035156 C 119.769531 96.324219 123.695312 91.503906 129.230469 88.46875 C 134.585938 85.253906 140.65625 84.183594 146.722656 85.253906 C 150.292969 80.257812 155.292969 76.6875 161.363281 75.078125 C 163.683594 74.542969 166.003906 74.1875 168.503906 74.1875 C 170.464844 74.1875 171.894531 75.792969 171.894531 77.757812 C 171.894531 79.71875 170.289062 81.328125 168.324219 81.328125 C 168.324219 81.328125 168.144531 81.328125 168.144531 81.328125 C 166.359375 81.328125 164.753906 81.503906 163.148438 82.042969 C 158.148438 83.289062 154.042969 86.503906 151.542969 91.144531 C 150.652344 92.574219 149.042969 93.289062 147.4375 92.753906 C 142.441406 91.324219 137.261719 92.039062 132.800781 94.539062 C 128.160156 97.214844 125.125 101.5 123.875 106.496094 C 123.515625 108.105469 121.910156 109.175781 120.304688 109.175781 C 115.128906 108.996094 110.308594 110.960938 106.558594 114.710938 C 102.988281 118.28125 101.023438 123.277344 101.023438 128.453125 C 101.023438 130.0625 99.953125 131.488281 98.347656 132.023438 C 93.347656 133.273438 89.0625 136.308594 86.566406 140.773438 C 83.886719 145.414062 83.351562 150.589844 84.78125 155.589844 C 85.136719 157.195312 84.421875 158.800781 82.996094 159.695312 C 78.53125 162.195312 75.140625 166.300781 73.890625 171.296875 C 72.460938 176.296875 73.355469 181.472656 76.03125 185.9375 C 76.746094 187.363281 76.566406 189.148438 75.320312 190.398438 C 71.570312 193.96875 69.605469 198.789062 69.605469 203.964844 C 69.605469 209.144531 71.570312 213.960938 75.320312 217.53125 C 76.566406 218.78125 76.746094 220.566406 76.03125 221.996094 C 73.355469 226.457031 72.460938 231.636719 73.890625 236.632812 C 75.140625 241.632812 78.53125 245.738281 82.996094 248.414062 C 84.421875 249.128906 85.136719 250.914062 84.78125 252.523438 C 83.351562 257.519531 83.886719 262.695312 86.566406 267.160156 C 89.0625 271.621094 93.347656 274.835938 98.347656 276.085938 C 99.953125 276.441406 101.023438 277.871094 101.023438 279.65625 C 101.023438 284.832031 102.988281 289.652344 106.558594 293.222656 C 110.308594 296.972656 115.128906 298.933594 120.304688 298.757812 C 121.910156 298.757812 123.515625 300.007812 123.875 301.613281 C 125.125 306.609375 128.160156 310.71875 132.800781 313.394531 C 137.261719 315.894531 142.441406 316.609375 147.4375 315.179688 C 149.042969 314.644531 150.652344 315.359375 151.542969 316.785156 C 154.042969 321.429688 158.148438 324.640625 163.148438 326.070312 C 168.144531 327.320312 173.324219 326.605469 177.785156 323.925781 C 179.214844 323.035156 181.175781 323.390625 182.25 324.460938 C 185.820312 328.210938 190.636719 330.355469 195.816406 330.355469 C 200.992188 330.355469 205.8125 328.210938 209.5625 324.460938 C 210.632812 323.390625 212.417969 323.035156 213.84375 323.925781 C 218.308594 326.605469 223.484375 327.320312 228.484375 326.070312 C 233.480469 324.640625 237.765625 321.429688 240.265625 316.785156 C 240.980469 315.359375 242.765625 314.644531 244.371094 315.179688 C 249.371094 316.609375 254.546875 315.894531 259.007812 313.394531 C 263.472656 310.71875 266.683594 306.609375 267.933594 301.613281 C 268.292969 300.007812 269.71875 298.757812 271.328125 298.757812 C 271.503906 298.757812 271.683594 298.757812 271.863281 298.757812 C 276.859375 298.757812 281.679688 296.792969 285.25 293.222656 C 288.820312 289.652344 290.785156 284.832031 290.785156 279.65625 C 290.605469 277.871094 291.855469 276.441406 293.460938 276.085938 C 298.460938 274.835938 302.746094 271.621094 305.246094 267.160156 C 307.921875 262.695312 308.457031 257.519531 307.027344 252.523438 C 306.671875 250.914062 307.386719 249.128906 308.8125 248.414062 C 313.277344 245.738281 316.492188 241.632812 317.917969 236.632812 C 319.167969 231.636719 318.453125 226.457031 315.777344 221.996094 C 314.882812 220.566406 315.242188 218.78125 316.3125 217.53125 C 320.0625 213.960938 322.203125 209.144531 322.203125 203.964844 C 322.203125 198.789062 320.0625 193.96875 316.3125 190.398438 C 315.242188 189.148438 314.882812 187.363281 315.777344 185.9375 C 318.453125 181.472656 319.167969 176.296875 317.917969 171.296875 C 316.492188 166.300781 313.277344 162.195312 308.8125 159.695312 C 307.207031 158.800781 306.671875 157.195312 307.027344 155.589844 C 308.457031 150.589844 307.921875 145.414062 305.246094 140.773438 C 302.746094 136.308594 298.460938 133.273438 293.460938 132.023438 C 291.855469 131.488281 290.605469 130.0625 290.785156 128.453125 C 290.785156 123.277344 288.820312 118.28125 285.25 114.710938 C 281.679688 111.140625 276.859375 109.175781 271.863281 109.175781 C 271.683594 109.175781 271.503906 109.175781 271.328125 109.175781 C 269.71875 109.175781 268.292969 108.105469 267.933594 106.496094 C 266.683594 101.5 263.472656 97.214844 259.007812 94.539062 C 257.582031 93.824219 255.972656 93.109375 254.367188 92.753906 C 252.402344 92.214844 251.332031 90.253906 251.691406 88.289062 C 252.226562 86.503906 254.1875 85.253906 256.152344 85.789062 C 258.296875 86.324219 260.617188 87.21875 262.578125 88.46875 C 267.933594 91.503906 272.039062 96.324219 274.003906 102.035156 C 280.253906 102.570312 285.785156 105.246094 290.25 109.710938 C 294.710938 113.996094 297.210938 119.707031 297.746094 125.777344 C 303.460938 127.917969 308.277344 131.847656 311.492188 137.203125 C 314.527344 142.734375 315.597656 148.804688 314.527344 154.875 C 319.523438 158.265625 323.09375 163.445312 324.703125 169.511719 C 326.308594 175.402344 325.773438 181.652344 323.273438 187.1875 C 327.203125 191.828125 329.34375 197.71875 329.34375 203.964844 C 329.34375 210.214844 327.203125 216.105469 323.273438 220.746094 C 325.773438 226.28125 326.308594 232.527344 324.703125 238.597656 C 323.09375 244.488281 319.523438 249.664062 314.527344 253.058594 C 315.597656 259.125 314.527344 265.375 311.492188 270.730469 C 308.277344 276.085938 303.460938 280.011719 297.746094 282.15625 C 297.210938 288.222656 294.710938 293.9375 290.25 298.398438 C 285.785156 302.683594 280.074219 305.363281 274.003906 305.898438 C 272.039062 311.609375 267.933594 316.429688 262.578125 319.644531 C 257.222656 322.675781 250.976562 323.75 245.085938 322.675781 C 241.515625 327.675781 236.339844 331.246094 230.445312 332.851562 C 224.378906 334.460938 218.128906 333.925781 212.59375 331.246094 C 207.953125 335.351562 202.0625 337.492188 195.816406 337.492188 Z M 195.816406 337.492188 " fill-opacity="1" fill-rule="evenodd"/></g><path fill="#18795b" d="M 133.691406 253.59375 C 131.730469 253.59375 130.121094 251.984375 130.121094 250.023438 L 130.121094 237.882812 L 118.160156 237.882812 L 118.160156 250.023438 C 118.160156 251.984375 116.554688 253.59375 114.589844 253.59375 C 112.628906 253.59375 111.019531 251.984375 111.019531 250.023438 L 111.019531 218.605469 C 111.019531 216.640625 112.628906 215.035156 114.589844 215.035156 C 116.554688 215.035156 118.160156 216.640625 118.160156 218.605469 L 118.160156 230.742188 L 130.121094 230.742188 L 130.121094 218.605469 C 130.121094 216.640625 131.730469 215.035156 133.691406 215.035156 C 135.65625 215.035156 137.261719 216.640625 137.261719 218.605469 L 137.261719 250.023438 C 137.261719 251.984375 135.65625 253.59375 133.691406 253.59375 Z M 133.691406 253.59375 " fill-opacity="1" fill-rule="evenodd"/><path fill="#18795b" d="M 170.109375 253.59375 C 168.503906 253.59375 167.253906 252.699219 166.71875 251.09375 L 164.21875 243.597656 L 155.113281 243.597656 L 152.613281 251.09375 C 152.078125 253.058594 149.9375 254.128906 148.152344 253.414062 C 146.1875 252.878906 145.296875 250.738281 145.832031 248.953125 L 156.363281 217.355469 C 156.722656 215.925781 158.148438 215.035156 159.753906 215.035156 C 161.183594 215.035156 162.613281 215.925781 162.96875 217.355469 L 170.109375 238.953125 L 173.5 248.953125 C 174.035156 250.738281 173.144531 252.878906 171.179688 253.414062 C 170.824219 253.59375 170.464844 253.59375 170.109375 253.59375 Z M 157.433594 236.457031 L 161.898438 236.457031 L 159.578125 229.851562 Z M 157.433594 236.457031 " fill-opacity="1" fill-rule="evenodd"/><path fill="#18795b" d="M 201.347656 253.59375 C 200.101562 253.59375 198.851562 252.878906 198.136719 251.628906 L 189.210938 233.597656 L 189.210938 250.023438 C 189.210938 251.984375 187.605469 253.59375 185.640625 253.59375 C 183.675781 253.59375 182.070312 251.984375 182.070312 250.023438 L 182.070312 218.605469 C 182.070312 216.820312 183.140625 215.390625 184.925781 215.035156 C 186.53125 214.675781 188.140625 215.390625 188.851562 216.996094 L 197.777344 234.847656 L 197.777344 218.605469 C 197.777344 216.640625 199.386719 215.035156 201.347656 215.035156 C 203.3125 215.035156 204.917969 216.640625 204.917969 218.605469 L 204.917969 250.023438 C 204.917969 251.628906 203.847656 253.058594 202.242188 253.59375 C 201.886719 253.59375 201.707031 253.59375 201.347656 253.59375 Z M 201.347656 253.59375 " fill-opacity="1" fill-rule="evenodd"/><path fill="#18795b" d="M 229.375 253.59375 L 217.058594 253.59375 C 215.09375 253.59375 213.488281 251.984375 213.488281 250.023438 L 213.488281 218.605469 C 213.488281 216.640625 215.09375 215.035156 217.058594 215.035156 L 229.375 215.035156 C 238.125 215.035156 245.441406 222.175781 245.441406 230.921875 L 245.441406 237.703125 C 245.441406 246.453125 238.125 253.59375 229.375 253.59375 Z M 220.628906 246.453125 L 229.375 246.453125 C 234.195312 246.453125 238.300781 242.523438 238.300781 237.703125 L 238.300781 230.921875 C 238.300781 226.101562 234.195312 222.175781 229.375 222.175781 L 220.628906 222.175781 Z M 220.628906 246.453125 " fill-opacity="1" fill-rule="evenodd"/><path fill="#18795b" d="M 161.363281 298.042969 C 159.398438 298.042969 157.792969 296.4375 157.792969 294.472656 L 157.792969 273.941406 L 151.722656 279.835938 C 150.292969 281.261719 147.972656 281.261719 146.722656 279.835938 L 140.476562 273.941406 L 140.476562 294.472656 C 140.476562 296.4375 138.871094 298.042969 136.90625 298.042969 C 134.941406 298.042969 133.335938 296.4375 133.335938 294.472656 L 133.335938 265.375 C 133.335938 263.945312 134.226562 262.695312 135.65625 262.160156 C 136.90625 261.625 138.511719 261.804688 139.40625 262.875 L 149.222656 272.335938 L 158.863281 262.875 C 159.933594 261.804688 161.363281 261.625 162.789062 262.160156 C 164.039062 262.695312 164.933594 263.945312 164.933594 265.375 L 164.933594 294.472656 C 164.933594 296.4375 163.324219 298.042969 161.363281 298.042969 Z M 161.363281 298.042969 " fill-opacity="1" fill-rule="evenodd"/><path fill="#18795b" d="M 194.746094 298.042969 C 193.316406 298.042969 191.886719 296.972656 191.351562 295.542969 L 189.210938 288.761719 L 181.175781 288.761719 L 179.035156 295.542969 C 178.5 297.328125 176.355469 298.398438 174.570312 297.6875 C 172.609375 297.148438 171.714844 295.1875 172.25 293.222656 L 181.890625 264.304688 C 182.25 262.875 183.675781 261.804688 185.28125 261.804688 C 186.710938 261.804688 188.140625 262.875 188.675781 264.304688 L 195.101562 283.941406 C 195.101562 284.117188 195.101562 284.117188 195.101562 284.117188 L 198.136719 293.222656 C 198.851562 295.1875 197.777344 297.148438 195.816406 297.6875 C 195.457031 297.863281 195.101562 298.042969 194.746094 298.042969 Z M 183.675781 281.621094 L 186.890625 281.621094 L 185.28125 276.800781 Z M 183.675781 281.621094 " fill-opacity="1" fill-rule="evenodd"/><path fill="#18795b" d="M 220.449219 298.042969 L 209.023438 298.042969 C 207.0625 298.042969 205.457031 296.4375 205.457031 294.472656 L 205.457031 265.375 C 205.457031 263.410156 207.0625 261.804688 209.023438 261.804688 L 220.449219 261.804688 C 228.660156 261.804688 235.445312 268.585938 235.445312 276.800781 L 235.445312 283.046875 C 235.445312 291.257812 228.660156 298.042969 220.449219 298.042969 Z M 212.59375 290.722656 L 220.449219 290.722656 C 224.734375 290.722656 228.304688 287.332031 228.304688 283.046875 L 228.304688 276.800781 C 228.304688 272.515625 224.734375 268.945312 220.449219 268.945312 L 212.59375 268.945312 Z M 212.59375 290.722656 " fill-opacity="1" fill-rule="evenodd"/><path fill="#18795b" d="M 259.542969 298.042969 L 246.15625 298.042969 C 244.191406 298.042969 242.585938 296.4375 242.585938 294.472656 L 242.585938 265.375 C 242.585938 263.410156 244.191406 261.804688 246.15625 261.804688 L 259.542969 261.804688 C 261.507812 261.804688 263.113281 263.410156 263.113281 265.375 C 263.113281 267.339844 261.507812 268.945312 259.542969 268.945312 L 249.726562 268.945312 L 249.726562 276.265625 L 259.542969 276.265625 C 261.507812 276.265625 263.113281 277.871094 263.113281 279.835938 C 263.113281 281.796875 261.507812 283.40625 259.542969 283.40625 L 249.726562 283.40625 L 249.726562 290.722656 L 259.542969 290.722656 C 261.507812 290.722656 263.113281 292.332031 263.113281 294.292969 C 263.113281 296.4375 261.507812 298.042969 259.542969 298.042969 Z M 259.542969 298.042969 " fill-opacity="1" fill-rule="evenodd"/><path fill="#18795b" d="M 209.023438 160.230469 C 208.132812 160.230469 207.238281 160.050781 206.527344 159.335938 C 191.175781 145.59375 175.109375 131.3125 175.109375 116.136719 C 175.109375 106.675781 183.496094 99 193.851562 99 C 200.992188 99 205.457031 101.855469 209.023438 106.140625 C 212.417969 101.855469 216.878906 99 224.019531 99 C 234.375 99 242.765625 106.675781 242.765625 116.136719 C 242.765625 131.3125 226.875 145.59375 211.347656 159.335938 C 210.632812 160.050781 209.738281 160.230469 209.023438 160.230469 Z M 193.851562 106.140625 C 187.425781 106.140625 182.25 110.601562 182.25 116.136719 C 182.25 127.382812 195.457031 139.878906 209.023438 152.019531 C 222.414062 139.878906 235.625 127.382812 235.625 116.136719 C 235.625 110.601562 230.445312 106.140625 224.019531 106.140625 C 218.488281 106.140625 215.628906 108.105469 212.058594 114.53125 C 211.523438 115.601562 210.273438 116.316406 209.023438 116.316406 C 207.597656 116.316406 206.527344 115.601562 205.8125 114.53125 C 202.242188 108.105469 199.5625 106.140625 193.851562 106.140625 Z M 193.851562 106.140625 " fill-opacity="1" fill-rule="evenodd"/></svg>