<svg xmlns="http://www.w3.org/2000/svg" xmlns:xlink="http://www.w3.org/1999/xlink" width="500" zoomAndPan="magnify" viewBox="0 0 375 374.999991" height="500" preserveAspectRatio="xMidYMid meet" version="1.0"><defs><clipPath id="6e7f253a8b"><path d="M 25.054688 20.894531 L 358.054688 20.894531 L 358.054688 353.894531 L 25.054688 353.894531 Z M 25.054688 20.894531 " clip-rule="nonzero"/></clipPath></defs><g clip-path="url(#6e7f253a8b)"><path fill="#18795b" d="M 342.707031 159.007812 C 335.210938 154.199219 332.628906 144.578125 336.710938 136.644531 C 342 126.355469 341.730469 114.214844 335.917969 104.195312 C 330.128906 94.179688 319.777344 87.847656 308.199219 87.285156 C 299.285156 86.847656 292.269531 79.832031 291.832031 70.917969 C 291.269531 59.359375 284.957031 48.988281 274.921875 43.199219 C 264.882812 37.410156 252.761719 37.117188 242.472656 42.40625 C 234.558594 46.488281 224.9375 43.90625 220.109375 36.410156 C 213.878906 26.703125 203.238281 20.894531 191.660156 20.894531 C 180.082031 20.894531 169.4375 26.703125 163.171875 36.449219 C 158.359375 43.949219 148.738281 46.53125 140.804688 42.449219 C 130.515625 37.136719 118.375 37.429688 108.355469 43.21875 C 98.339844 49.007812 92.007812 59.359375 91.445312 70.9375 C 91.007812 79.851562 83.992188 86.871094 75.078125 87.308594 C 63.519531 87.867188 53.148438 94.179688 47.359375 104.21875 C 41.570312 114.234375 41.277344 126.375 46.566406 136.664062 C 50.648438 144.578125 48.066406 154.199219 40.570312 159.03125 C 30.863281 165.277344 25.054688 175.921875 25.054688 187.5 C 25.054688 199.078125 30.863281 209.71875 40.609375 215.988281 C 48.109375 220.800781 50.691406 230.421875 46.609375 238.355469 C 41.320312 248.644531 41.589844 260.785156 47.398438 270.800781 C 53.191406 280.820312 63.539062 287.148438 75.117188 287.710938 C 84.03125 288.148438 91.050781 295.167969 91.488281 304.082031 C 92.050781 315.640625 98.359375 326.011719 108.398438 331.800781 C 118.4375 337.589844 130.558594 337.882812 140.84375 332.589844 C 148.78125 328.511719 158.378906 331.09375 163.210938 338.589844 C 169.4375 348.292969 180.082031 354.105469 191.660156 354.105469 C 203.238281 354.105469 213.878906 348.292969 220.148438 338.546875 C 224.960938 331.050781 234.582031 328.46875 242.515625 332.550781 C 252.804688 337.859375 264.945312 337.546875 274.960938 331.757812 C 284.980469 325.96875 291.308594 315.617188 291.871094 304.039062 C 292.308594 295.125 299.328125 288.109375 308.242188 287.671875 C 319.800781 287.109375 330.171875 280.796875 335.960938 270.761719 C 341.75 260.742188 342.042969 248.601562 336.753906 238.3125 C 332.671875 230.398438 335.253906 220.777344 342.75 215.945312 C 352.453125 209.71875 358.265625 199.078125 358.265625 187.5 C 358.265625 175.921875 352.453125 165.277344 342.707031 159.007812 Z M 333.710938 201.972656 C 318.96875 211.46875 313.886719 230.378906 321.925781 245.976562 C 324.652344 251.289062 324.507812 257.308594 321.527344 262.472656 C 318.550781 267.636719 313.40625 270.78125 307.449219 271.050781 C 289.9375 271.886719 276.085938 285.734375 275.234375 303.269531 C 274.941406 309.226562 271.816406 314.371094 266.652344 317.347656 C 261.488281 320.324219 255.46875 320.492188 250.160156 317.742188 C 234.5625 309.726562 215.652344 314.785156 206.15625 329.53125 C 202.90625 334.570312 197.636719 337.445312 191.660156 337.445312 C 185.683594 337.445312 180.414062 334.570312 177.1875 329.550781 C 170.730469 319.511719 159.921875 313.972656 148.757812 313.972656 C 143.511719 313.972656 138.179688 315.203125 133.179688 317.765625 C 127.871094 320.492188 121.871094 320.367188 116.6875 317.367188 C 111.523438 314.390625 108.378906 309.246094 108.105469 303.289062 C 107.273438 285.777344 93.425781 271.925781 75.890625 271.074219 C 69.933594 270.78125 64.789062 267.65625 61.8125 262.492188 C 58.832031 257.328125 58.6875 251.308594 61.414062 246 C 69.453125 230.398438 64.375 211.492188 49.628906 201.992188 C 44.589844 198.746094 41.714844 193.476562 41.714844 187.5 C 41.714844 181.523438 44.589844 176.253906 49.609375 173.023438 C 64.351562 163.527344 69.433594 144.617188 61.394531 129.019531 C 58.667969 123.710938 58.8125 117.691406 61.789062 112.527344 C 64.769531 107.363281 69.914062 104.21875 75.867188 103.945312 C 93.382812 103.113281 107.230469 89.265625 108.085938 71.730469 C 108.378906 65.773438 111.5 60.628906 116.667969 57.652344 C 121.851562 54.671875 127.851562 54.527344 133.160156 57.253906 C 148.757812 65.292969 167.667969 60.210938 177.164062 45.46875 C 180.414062 40.429688 185.683594 37.554688 191.660156 37.554688 C 197.636719 37.554688 202.90625 40.429688 206.132812 45.445312 C 215.628906 60.191406 234.539062 65.253906 250.136719 57.234375 C 255.449219 54.507812 261.445312 54.652344 266.632812 57.628906 C 271.796875 60.609375 274.941406 65.753906 275.210938 71.707031 C 276.046875 89.222656 289.894531 103.070312 307.429688 103.925781 C 313.386719 104.21875 318.53125 107.339844 321.507812 112.507812 C 324.484375 117.671875 324.632812 123.6875 321.902344 129 C 313.863281 144.597656 318.945312 163.507812 333.691406 173.003906 C 338.730469 176.253906 341.605469 181.523438 341.605469 187.5 C 341.605469 193.476562 338.730469 198.746094 333.710938 201.972656 Z M 266.632812 142.390625 L 253.429688 129.1875 C 246.929688 122.691406 236.351562 122.691406 229.875 129.1875 L 175 184.042969 L 153.464844 162.507812 C 146.96875 156.011719 136.386719 156.011719 129.910156 162.507812 L 116.6875 175.710938 C 110.191406 182.210938 110.191406 192.769531 116.6875 199.265625 L 157.339844 239.917969 C 162.210938 244.789062 168.605469 247.226562 175 247.226562 C 181.394531 247.226562 187.785156 244.789062 192.660156 239.917969 L 266.632812 165.964844 C 273.128906 159.46875 273.128906 148.886719 266.632812 142.390625 Z M 180.894531 228.152344 C 177.644531 231.398438 172.355469 231.398438 169.105469 228.152344 L 128.472656 187.5 L 141.679688 174.296875 L 169.105469 201.722656 C 172.355469 204.972656 177.625 204.972656 180.894531 201.722656 L 241.640625 140.972656 L 254.84375 154.179688 Z M 164.417969 292.667969 C 163.234375 296.125 160.003906 298.3125 156.546875 298.3125 C 155.652344 298.3125 154.734375 298.167969 153.839844 297.855469 C 106.710938 281.695312 75.035156 237.355469 75.035156 187.5 C 75.035156 130.042969 116.125 81.640625 172.75 72.394531 C 177.332031 71.667969 181.578125 74.726562 182.308594 79.269531 C 183.058594 83.808594 179.976562 88.097656 175.4375 88.828125 C 126.914062 96.761719 91.695312 138.246094 91.695312 187.5 C 91.695312 230.234375 118.851562 268.242188 159.253906 282.089844 C 163.609375 283.589844 165.917969 288.316406 164.417969 292.667969 Z M 191.660156 295.792969 C 191.660156 300.394531 187.933594 304.121094 183.328125 304.121094 C 178.726562 304.121094 175 300.394531 175 295.792969 C 175 291.191406 178.726562 287.460938 183.328125 287.460938 C 187.933594 287.460938 191.660156 291.191406 191.660156 295.792969 Z M 308.285156 187.5 C 308.285156 244.957031 267.195312 293.355469 210.570312 302.601562 C 210.109375 302.6875 209.652344 302.707031 209.214844 302.707031 C 205.195312 302.707031 201.675781 299.8125 201.011719 295.710938 C 200.261719 291.167969 203.34375 286.878906 207.882812 286.152344 C 256.40625 278.238281 291.621094 236.75 291.621094 187.5 C 291.621094 144.765625 264.464844 106.757812 224.0625 92.910156 C 219.710938 91.429688 217.398438 86.683594 218.878906 82.328125 C 220.359375 77.976562 225.105469 75.644531 229.457031 77.144531 C 276.609375 93.304688 308.285156 137.640625 308.285156 187.5 Z M 191.660156 79.207031 C 191.660156 74.601562 195.386719 70.875 199.988281 70.875 C 204.59375 70.875 208.320312 74.601562 208.320312 79.207031 C 208.320312 83.808594 204.59375 87.535156 199.988281 87.535156 C 195.386719 87.535156 191.660156 83.808594 191.660156 79.207031 Z M 191.660156 79.207031 " fill-opacity="1" fill-rule="nonzero"/></g></svg>