<svg xmlns="http://www.w3.org/2000/svg" xmlns:xlink="http://www.w3.org/1999/xlink" width="500" zoomAndPan="magnify" viewBox="0 0 375 374.999991" height="500" preserveAspectRatio="xMidYMid meet" version="1.0"><defs><clipPath id="e7a5686b7b"><path d="M 13 11 L 264 11 L 264 224 L 13 224 Z M 13 11 " clip-rule="nonzero"/></clipPath><clipPath id="25b1c69288"><path d="M 7.101562 99.960938 L 208.847656 5.535156 L 269.890625 135.957031 L 68.144531 230.382812 Z M 7.101562 99.960938 " clip-rule="nonzero"/></clipPath><clipPath id="a78147ed32"><path d="M 7.101562 99.960938 L 208.847656 5.535156 L 269.890625 135.957031 L 68.144531 230.382812 Z M 7.101562 99.960938 " clip-rule="nonzero"/></clipPath><clipPath id="d11cbc335f"><path d="M 11 10 L 266 10 L 266 226 L 11 226 Z M 11 10 " clip-rule="nonzero"/></clipPath><clipPath id="6f2b62f5ca"><path d="M 7.101562 99.960938 L 208.847656 5.535156 L 269.890625 135.957031 L 68.144531 230.382812 Z M 7.101562 99.960938 " clip-rule="nonzero"/></clipPath><clipPath id="abd6f435fd"><path d="M 7.101562 99.960938 L 208.847656 5.535156 L 269.890625 135.957031 L 68.144531 230.382812 Z M 7.101562 99.960938 " clip-rule="nonzero"/></clipPath><clipPath id="382c1b0ea4"><path d="M 7.113281 99.992188 L 208.984375 5.507812 L 269.898438 135.648438 L 68.027344 230.132812 Z M 7.113281 99.992188 " clip-rule="nonzero"/></clipPath><clipPath id="6102b5cc79"><path d="M 15 112 L 134 112 L 134 126 L 15 126 Z M 15 112 " clip-rule="nonzero"/></clipPath><clipPath id="78aa727db8"><path d="M 7.101562 99.960938 L 208.847656 5.535156 L 269.890625 135.957031 L 68.144531 230.382812 Z M 7.101562 99.960938 " clip-rule="nonzero"/></clipPath><clipPath id="b8701ed591"><path d="M 7.101562 99.960938 L 208.847656 5.535156 L 269.890625 135.957031 L 68.144531 230.382812 Z M 7.101562 99.960938 " clip-rule="nonzero"/></clipPath><clipPath id="0dae5cdb5a"><path d="M 145 20 L 215 20 L 215 119 L 145 119 Z M 145 20 " clip-rule="nonzero"/></clipPath><clipPath id="60b811a07e"><path d="M 7.101562 99.960938 L 208.847656 5.535156 L 269.890625 135.957031 L 68.144531 230.382812 Z M 7.101562 99.960938 " clip-rule="nonzero"/></clipPath><clipPath id="0195f9b962"><path d="M 7.101562 99.960938 L 208.847656 5.535156 L 269.890625 135.957031 L 68.144531 230.382812 Z M 7.101562 99.960938 " clip-rule="nonzero"/></clipPath><clipPath id="39d0d6123c"><path d="M 115 96 L 158 96 L 158 136 L 115 136 Z M 115 96 " clip-rule="nonzero"/></clipPath><clipPath id="3fd84601ad"><path d="M 7.101562 99.960938 L 208.847656 5.535156 L 269.890625 135.957031 L 68.144531 230.382812 Z M 7.101562 99.960938 " clip-rule="nonzero"/></clipPath><clipPath id="fa175b5c26"><path d="M 7.101562 99.960938 L 208.847656 5.535156 L 269.890625 135.957031 L 68.144531 230.382812 Z M 7.101562 99.960938 " clip-rule="nonzero"/></clipPath><clipPath id="d1d5ba8a13"><path d="M 114 94 L 159 94 L 159 138 L 114 138 Z M 114 94 " clip-rule="nonzero"/></clipPath><clipPath id="e4b1529cd0"><path d="M 7.101562 99.960938 L 208.847656 5.535156 L 269.890625 135.957031 L 68.144531 230.382812 Z M 7.101562 99.960938 " clip-rule="nonzero"/></clipPath><clipPath id="c77346e8a8"><path d="M 7.101562 99.960938 L 208.847656 5.535156 L 269.890625 135.957031 L 68.144531 230.382812 Z M 7.101562 99.960938 " clip-rule="nonzero"/></clipPath><clipPath id="066154d6ec"><path d="M 168 129 L 250 129 L 250 169 L 168 169 Z M 168 129 " clip-rule="nonzero"/></clipPath><clipPath id="7612c5fa34"><path d="M 7.101562 99.960938 L 208.847656 5.535156 L 269.890625 135.957031 L 68.144531 230.382812 Z M 7.101562 99.960938 " clip-rule="nonzero"/></clipPath><clipPath id="74ff7ec74b"><path d="M 7.101562 99.960938 L 208.847656 5.535156 L 269.890625 135.957031 L 68.144531 230.382812 Z M 7.101562 99.960938 " clip-rule="nonzero"/></clipPath><clipPath id="4d9b9bac54"><path d="M 200 118 L 245 118 L 245 141 L 200 141 Z M 200 118 " clip-rule="nonzero"/></clipPath><clipPath id="0f4ad7a694"><path d="M 7.101562 99.960938 L 208.847656 5.535156 L 269.890625 135.957031 L 68.144531 230.382812 Z M 7.101562 99.960938 " clip-rule="nonzero"/></clipPath><clipPath id="f5f69a02c4"><path d="M 7.101562 99.960938 L 208.847656 5.535156 L 269.890625 135.957031 L 68.144531 230.382812 Z M 7.101562 99.960938 " clip-rule="nonzero"/></clipPath><clipPath id="c7ea29567e"><path d="M 222 151 L 352 151 L 352 280 L 222 280 Z M 222 151 " clip-rule="nonzero"/></clipPath><clipPath id="6f7d216a63"><path d="M 169.996094 239.972656 L 209.636719 126.707031 L 369.621094 182.699219 L 329.980469 295.964844 Z M 169.996094 239.972656 " clip-rule="nonzero"/></clipPath><clipPath id="99e46701f9"><path d="M 169.996094 239.972656 L 209.636719 126.707031 L 369.621094 182.699219 L 329.980469 295.964844 Z M 169.996094 239.972656 " clip-rule="nonzero"/></clipPath><clipPath id="b53cf7ba89"><path d="M 221 150 L 353 150 L 353 282 L 221 282 Z M 221 150 " clip-rule="nonzero"/></clipPath><clipPath id="a75973a31a"><path d="M 169.996094 239.972656 L 209.636719 126.707031 L 369.621094 182.699219 L 329.980469 295.964844 Z M 169.996094 239.972656 " clip-rule="nonzero"/></clipPath><clipPath id="05bdc4c701"><path d="M 169.996094 239.972656 L 209.636719 126.707031 L 369.621094 182.699219 L 329.980469 295.964844 Z M 169.996094 239.972656 " clip-rule="nonzero"/></clipPath><clipPath id="4a39005e81"><path d="M 236 165 L 257 165 L 257 186 L 236 186 Z M 236 165 " clip-rule="nonzero"/></clipPath><clipPath id="2113f9d15c"><path d="M 169.996094 239.972656 L 209.636719 126.707031 L 369.621094 182.699219 L 329.980469 295.964844 Z M 169.996094 239.972656 " clip-rule="nonzero"/></clipPath><clipPath id="16c72661ee"><path d="M 169.996094 239.972656 L 209.636719 126.707031 L 369.621094 182.699219 L 329.980469 295.964844 Z M 169.996094 239.972656 " clip-rule="nonzero"/></clipPath><clipPath id="6184b16b27"><path d="M 206 134 L 253 134 L 253 180 L 206 180 Z M 206 134 " clip-rule="nonzero"/></clipPath><clipPath id="a354a454ec"><path d="M 169.996094 239.972656 L 209.636719 126.707031 L 369.621094 182.699219 L 329.980469 295.964844 Z M 169.996094 239.972656 " clip-rule="nonzero"/></clipPath><clipPath id="8a998f28d7"><path d="M 169.996094 239.972656 L 209.636719 126.707031 L 369.621094 182.699219 L 329.980469 295.964844 Z M 169.996094 239.972656 " clip-rule="nonzero"/></clipPath><clipPath id="94e31d7823"><path d="M 158 191 L 211 191 L 211 244 L 158 244 Z M 158 191 " clip-rule="nonzero"/></clipPath><clipPath id="b86ac8e46c"><path d="M 184.222656 172.269531 L 229.152344 225.617188 L 145.972656 295.671875 L 101.042969 242.324219 Z M 184.222656 172.269531 " clip-rule="nonzero"/></clipPath><clipPath id="3a8333167c"><path d="M 184.222656 172.269531 L 229.152344 225.617188 L 145.972656 295.671875 L 101.042969 242.324219 Z M 184.222656 172.269531 " clip-rule="nonzero"/></clipPath><clipPath id="b1929665d8"><path d="M 152 229 L 169 229 L 169 247 L 152 247 Z M 152 229 " clip-rule="nonzero"/></clipPath><clipPath id="70bbc64787"><path d="M 184.222656 172.269531 L 229.152344 225.617188 L 145.972656 295.671875 L 101.042969 242.324219 Z M 184.222656 172.269531 " clip-rule="nonzero"/></clipPath><clipPath id="54c2b877e4"><path d="M 184.222656 172.269531 L 229.152344 225.617188 L 145.972656 295.671875 L 101.042969 242.324219 Z M 184.222656 172.269531 " clip-rule="nonzero"/></clipPath><clipPath id="6235ee5778"><path d="M 109 240 L 151 240 L 151 288 L 109 288 Z M 109 240 " clip-rule="nonzero"/></clipPath><clipPath id="5c0ddc312b"><path d="M 184.222656 172.269531 L 229.152344 225.617188 L 145.972656 295.671875 L 101.042969 242.324219 Z M 184.222656 172.269531 " clip-rule="nonzero"/></clipPath><clipPath id="87f103c6c9"><path d="M 184.222656 172.269531 L 229.152344 225.617188 L 145.972656 295.671875 L 101.042969 242.324219 Z M 184.222656 172.269531 " clip-rule="nonzero"/></clipPath><clipPath id="ace8d08523"><path d="M 123 232 L 161 232 L 161 275 L 123 275 Z M 123 232 " clip-rule="nonzero"/></clipPath><clipPath id="f56157afa4"><path d="M 184.222656 172.269531 L 229.152344 225.617188 L 145.972656 295.671875 L 101.042969 242.324219 Z M 184.222656 172.269531 " clip-rule="nonzero"/></clipPath><clipPath id="4b47e4f420"><path d="M 184.222656 172.269531 L 229.152344 225.617188 L 145.972656 295.671875 L 101.042969 242.324219 Z M 184.222656 172.269531 " clip-rule="nonzero"/></clipPath><clipPath id="c845044a2f"><path d="M 101 186 L 217 186 L 217 296 L 101 296 Z M 101 186 " clip-rule="nonzero"/></clipPath><clipPath id="eccd1c7841"><path d="M 184.222656 172.269531 L 229.152344 225.617188 L 145.972656 295.671875 L 101.042969 242.324219 Z M 184.222656 172.269531 " clip-rule="nonzero"/></clipPath><clipPath id="392b07b8b5"><path d="M 184.222656 172.269531 L 229.152344 225.617188 L 145.972656 295.671875 L 101.042969 242.324219 Z M 184.222656 172.269531 " clip-rule="nonzero"/></clipPath><clipPath id="63156cdaa4"><path d="M 79 252.816406 L 123 252.816406 L 123 280 L 79 280 Z M 79 252.816406 " clip-rule="nonzero"/></clipPath><clipPath id="71f8a002de"><path d="M 75 252.816406 L 78 252.816406 L 78 255 L 75 255 Z M 75 252.816406 " clip-rule="nonzero"/></clipPath></defs><g clip-path="url(#e7a5686b7b)"><g clip-path="url(#25b1c69288)"><g clip-path="url(#a78147ed32)"><path fill="#f2f2f2" d="M 256.039062 140.699219 L 80.78125 222.726562 C 74.113281 225.847656 66.101562 222.945312 62.980469 216.273438 L 14.523438 112.746094 C 11.402344 106.078125 14.304688 98.066406 20.976562 94.941406 L 196.230469 12.914062 C 202.898438 9.792969 210.910156 12.695312 214.035156 19.367188 L 262.488281 122.894531 C 265.613281 129.566406 262.707031 137.578125 256.039062 140.699219 " fill-opacity="1" fill-rule="nonzero"/></g></g></g><g clip-path="url(#d11cbc335f)"><g clip-path="url(#6f2b62f5ca)"><g clip-path="url(#abd6f435fd)"><g clip-path="url(#382c1b0ea4)"><path fill="#18795b" d="M 21.527344 96.125 C 15.492188 98.949219 12.878906 106.15625 15.703125 112.195312 L 64.160156 215.722656 C 66.984375 221.757812 74.195312 224.371094 80.230469 221.546875 L 255.484375 139.519531 C 261.519531 136.691406 264.132812 129.484375 261.308594 123.445312 L 212.851562 19.917969 C 210.027344 13.882812 202.816406 11.269531 196.78125 14.097656 Z M 256.589844 141.878906 L 81.335938 223.90625 C 73.996094 227.339844 65.234375 224.164062 61.800781 216.828125 L 13.34375 113.296875 C 9.910156 105.960938 13.085938 97.195312 20.421875 93.761719 L 195.675781 11.734375 C 203.015625 8.300781 211.777344 11.476562 215.214844 18.8125 L 263.667969 122.34375 C 267.105469 129.679688 263.929688 138.445312 256.589844 141.878906 " fill-opacity="1" fill-rule="nonzero"/></g></g></g></g><g clip-path="url(#6102b5cc79)"><g clip-path="url(#78aa727db8)"><g clip-path="url(#b8701ed591)"><path fill="#18795b" d="M 133.21875 125.699219 L 15.726562 114.875 L 15.964844 112.28125 L 133.460938 123.105469 L 133.21875 125.699219 " fill-opacity="1" fill-rule="nonzero"/></g></g></g><g clip-path="url(#0dae5cdb5a)"><g clip-path="url(#60b811a07e)"><g clip-path="url(#0195f9b962)"><path fill="#18795b" d="M 147.945312 118.808594 L 145.796875 117.332031 L 212.75 20.175781 L 214.898438 21.65625 L 147.945312 118.808594 " fill-opacity="1" fill-rule="nonzero"/></g></g></g><g clip-path="url(#39d0d6123c)"><g clip-path="url(#3fd84601ad)"><g clip-path="url(#fa175b5c26)"><path fill="#c1ff72" d="M 154.863281 102.628906 C 153.109375 99.070312 147.46875 94.15625 140.753906 96.835938 C 133.117188 99.882812 134.035156 108.265625 134.035156 108.265625 C 134.035156 108.265625 128.183594 102.191406 120.957031 106.101562 C 114.59375 109.542969 114.753906 117.023438 116.363281 120.648438 C 116.960938 122 119.519531 128.976562 129.457031 132.730469 C 137.515625 135.773438 146.96875 135.902344 146.96875 135.902344 C 146.96875 135.902344 152.925781 128.5625 155.753906 120.421875 C 159.234375 110.386719 155.519531 103.957031 154.863281 102.628906 " fill-opacity="1" fill-rule="nonzero"/></g></g></g><g clip-path="url(#d1d5ba8a13)"><g clip-path="url(#e4b1529cd0)"><g clip-path="url(#c77346e8a8)"><path fill="#18795b" d="M 122.125 106.972656 C 121.941406 107.054688 121.761719 107.148438 121.574219 107.25 C 115.703125 110.421875 116.355469 117.417969 117.554688 120.121094 C 117.585938 120.191406 117.621094 120.273438 117.664062 120.371094 C 119.867188 125.523438 123.988281 129.269531 129.917969 131.511719 C 136.484375 133.992188 144.125 134.484375 146.351562 134.578125 C 147.703125 132.808594 152.21875 126.625 154.519531 119.996094 C 156.601562 114.007812 156.363281 108.441406 153.820312 103.449219 C 153.769531 103.355469 153.730469 103.273438 153.695312 103.207031 C 152.386719 100.554688 147.433594 95.574219 141.234375 98.046875 C 134.640625 100.675781 135.300781 107.828125 135.332031 108.128906 C 135.386719 108.679688 135.089844 109.210938 134.585938 109.445312 C 134.585938 109.445312 134.585938 109.445312 134.585938 109.449219 C 134.078125 109.683594 133.484375 109.570312 133.097656 109.171875 C 132.894531 108.960938 128.117188 104.167969 122.125 106.972656 Z M 147.523438 137.082031 C 147.347656 137.164062 147.152344 137.210938 146.953125 137.207031 C 146.558594 137.199219 137.175781 137.039062 128.996094 133.949219 C 122.378906 131.449219 117.757812 127.226562 115.265625 121.398438 L 115.171875 121.179688 C 113.179688 116.679688 113.460938 108.671875 120.335938 104.957031 C 125.230469 102.3125 129.863281 103.738281 132.789062 105.609375 C 133.230469 102.164062 135.101562 97.6875 140.269531 95.625 C 147.527344 92.730469 153.855469 97.640625 156.035156 102.054688 L 156.140625 102.265625 C 159.019531 107.910156 159.304688 114.164062 156.984375 120.851562 C 154.117188 129.109375 148.230469 136.417969 147.980469 136.722656 C 147.855469 136.878906 147.699219 137 147.523438 137.082031 " fill-opacity="1" fill-rule="nonzero"/></g></g></g><g clip-path="url(#066154d6ec)"><g clip-path="url(#7612c5fa34)"><g clip-path="url(#74ff7ec74b)"><path fill="#18795b" d="M 249.003906 131.765625 L 170.046875 168.722656 C 169.394531 169.027344 168.617188 168.746094 168.3125 168.09375 C 168.007812 167.441406 168.289062 166.667969 168.941406 166.363281 L 247.902344 129.40625 C 248.554688 129.101562 249.328125 129.382812 249.636719 130.03125 C 249.941406 130.683594 249.65625 131.460938 249.003906 131.765625 " fill-opacity="1" fill-rule="nonzero"/></g></g></g><g clip-path="url(#4d9b9bac54)"><g clip-path="url(#0f4ad7a694)"><g clip-path="url(#f5f69a02c4)"><path fill="#18795b" d="M 243.785156 120.613281 L 202.5 139.941406 C 201.847656 140.246094 201.070312 139.964844 200.765625 139.3125 C 200.460938 138.660156 200.742188 137.882812 201.394531 137.578125 L 242.683594 118.253906 C 243.335938 117.949219 244.109375 118.230469 244.414062 118.882812 C 244.722656 119.535156 244.4375 120.308594 243.785156 120.613281 " fill-opacity="1" fill-rule="nonzero"/></g></g></g><g clip-path="url(#c7ea29567e)"><g clip-path="url(#6f7d216a63)"><g clip-path="url(#99e46701f9)"><path fill="#f2f2f2" d="M 246.792969 151.878906 L 222.992188 175.421875 L 226.148438 212.992188 L 291.832031 279.398438 L 300.027344 279.429688 L 351.078125 228.929688 L 350.226562 222.070312 L 284.324219 155.445312 Z M 252.140625 179.839844 C 249.390625 183.339844 244.140625 183.3125 241.429688 179.78125 C 239.585938 177.375 239.601562 173.941406 241.476562 171.554688 C 244.222656 168.054688 249.476562 168.082031 252.183594 171.613281 C 254.03125 174.019531 254.011719 177.453125 252.140625 179.839844 Z M 252.140625 179.839844 " fill-opacity="1" fill-rule="nonzero"/></g></g></g><g clip-path="url(#b53cf7ba89)"><g clip-path="url(#a75973a31a)"><g clip-path="url(#05bdc4c701)"><path fill="#18795b" d="M 349.527344 233.066406 L 303.050781 279.035156 C 299.101562 282.945312 292.707031 282.910156 288.796875 278.957031 L 226.933594 216.414062 C 225.273438 214.738281 224.253906 212.519531 224.054688 210.171875 L 221.472656 179.410156 C 221.296875 177.328125 221.769531 175.277344 222.792969 173.515625 C 222.640625 172.773438 223.253906 171.792969 223.988281 171.265625 C 224.691406 170.496094 225.167969 170.667969 225.167969 170.667969 L 242.753906 153.273438 C 244.882812 151.167969 247.816406 150.121094 250.796875 150.402344 L 281.527344 153.324219 C 283.875 153.546875 286.082031 154.589844 287.738281 156.269531 L 349.605469 218.8125 C 353.511719 222.761719 353.476562 229.160156 349.527344 233.066406 Z M 227.027344 174.027344 C 225.679688 175.363281 224.996094 177.210938 225.15625 179.101562 L 227.738281 209.859375 C 227.863281 211.347656 228.511719 212.753906 229.5625 213.816406 L 291.425781 276.359375 C 293.902344 278.863281 297.949219 278.882812 300.453125 276.410156 L 346.925781 230.4375 C 349.429688 227.964844 349.453125 223.914062 346.976562 221.410156 L 285.113281 158.867188 C 284.0625 157.804688 282.664062 157.144531 281.175781 157.003906 L 250.449219 154.082031 C 248.558594 153.902344 246.703125 154.566406 245.355469 155.898438 Z M 227.027344 174.027344 " fill-opacity="1" fill-rule="nonzero"/></g></g></g><g clip-path="url(#4a39005e81)"><g clip-path="url(#2113f9d15c)"><g clip-path="url(#16c72661ee)"><path fill="#70af0c" d="M 253.78125 182.75 C 249.894531 186.59375 243.601562 186.5625 239.753906 182.671875 C 235.910156 178.785156 235.945312 172.492188 239.832031 168.644531 C 243.71875 164.800781 250.011719 164.832031 253.859375 168.722656 C 257.707031 172.609375 257.671875 178.902344 253.78125 182.75 Z M 243.359375 172.210938 C 242.246094 173.3125 241.773438 174.820312 241.941406 176.269531 C 242.664062 176.382812 244.121094 179.371094 243.894531 179.640625 C 245.804688 181.050781 248.515625 180.902344 250.253906 179.183594 C 252.175781 177.28125 252.195312 174.171875 250.292969 172.25 C 248.390625 170.328125 245.28125 170.3125 243.359375 172.210938 Z M 243.359375 172.210938 " fill-opacity="1" fill-rule="nonzero"/></g></g></g><g clip-path="url(#6184b16b27)"><g clip-path="url(#a354a454ec)"><g clip-path="url(#8a998f28d7)"><path fill="#c1ff72" d="M 241.949219 145.140625 C 252.808594 156.121094 255.996094 169.984375 249.203125 176.699219 C 247.742188 178.148438 245.949219 179.125 243.933594 179.664062 C 243.722656 179.507812 243.515625 179.339844 243.324219 179.144531 C 242.523438 178.339844 242.070312 177.324219 241.945312 176.273438 C 243.792969 175.988281 245.394531 175.273438 246.605469 174.074219 C 251.746094 168.988281 248.410156 156.929688 239.320312 147.738281 C 230.230469 138.550781 218.210938 135.082031 213.070312 140.167969 C 207.925781 145.253906 211.261719 157.3125 220.351562 166.5 C 221.890625 168.058594 223.515625 169.445312 225.175781 170.660156 L 224.425781 171.402344 C 223.78125 172.039062 223.238281 172.757812 222.792969 173.523438 C 221.058594 172.226562 219.359375 170.753906 217.722656 169.101562 C 206.863281 158.121094 203.675781 144.257812 210.46875 137.539062 C 217.261719 130.820312 231.089844 134.160156 241.949219 145.140625 Z M 241.949219 145.140625 C 252.808594 156.121094 255.996094 169.984375 249.203125 176.699219 C 247.742188 178.148438 245.949219 179.125 243.933594 179.664062 C 243.722656 179.507812 243.515625 179.339844 243.324219 179.144531 C 242.523438 178.339844 242.070312 177.324219 241.945312 176.273438 C 243.792969 175.988281 245.394531 175.273438 246.605469 174.074219 C 251.746094 168.988281 248.410156 156.929688 239.320312 147.738281 C 230.230469 138.550781 218.210938 135.082031 213.070312 140.167969 C 207.925781 145.253906 211.261719 157.3125 220.351562 166.5 C 221.890625 168.058594 223.515625 169.445312 225.175781 170.660156 L 224.425781 171.402344 C 223.78125 172.039062 223.238281 172.757812 222.792969 173.523438 C 221.058594 172.226562 219.359375 170.753906 217.722656 169.101562 C 206.863281 158.121094 203.675781 144.257812 210.46875 137.539062 C 217.261719 130.820312 231.089844 134.160156 241.949219 145.140625 Z M 241.949219 145.140625 " fill-opacity="1" fill-rule="nonzero"/></g></g></g><g clip-path="url(#94e31d7823)"><g clip-path="url(#b86ac8e46c)"><g clip-path="url(#3a8333167c)"><path fill="#f2f2f2" d="M 193.949219 195.078125 C 192.328125 193.152344 189.953125 192.011719 187.429688 191.953125 C 182.144531 191.824219 182.191406 193.226562 158.523438 218.785156 C 170.554688 233.070312 173.757812 236.875 179.171875 243.304688 C 219.089844 217.363281 218.039062 223.679688 193.949219 195.078125 " fill-opacity="1" fill-rule="nonzero"/></g></g></g><g clip-path="url(#b1929665d8)"><g clip-path="url(#70bbc64787)"><g clip-path="url(#54c2b877e4)"><path fill="#c1ff72" d="M 160.390625 246.664062 L 168.527344 239.8125 L 160.152344 229.871094 L 152.015625 236.722656 L 160.390625 246.664062 " fill-opacity="1" fill-rule="nonzero"/></g></g></g><g clip-path="url(#6235ee5778)"><g clip-path="url(#5c0ddc312b)"><g clip-path="url(#87f103c6c9)"><path fill="#c1ff72" d="M 118.230469 240.855469 L 112.554688 240.367188 L 109.300781 243.109375 L 146.832031 287.667969 L 150.085938 284.925781 L 150.570312 279.253906 L 118.230469 240.855469 " fill-opacity="1" fill-rule="nonzero"/></g></g></g><g clip-path="url(#ace8d08523)"><g clip-path="url(#f56157afa4)"><g clip-path="url(#4b47e4f420)"><path fill="#f2f2f2" d="M 160.632812 268.523438 L 156.25 250.898438 L 147.136719 240.078125 L 130.515625 232.761719 L 123.847656 238.378906 L 153.964844 274.140625 L 160.632812 268.523438 " fill-opacity="1" fill-rule="nonzero"/></g></g></g><g clip-path="url(#c845044a2f)"><g clip-path="url(#eccd1c7841)"><g clip-path="url(#392b07b8b5)"><path fill="#18795b" d="M 146.832031 287.667969 L 109.300781 243.109375 L 112.554688 240.367188 L 118.230469 240.855469 L 150.570312 279.253906 L 150.085938 284.925781 Z M 130.515625 232.761719 L 147.136719 240.078125 L 156.25 250.898438 L 160.632812 268.523438 L 153.964844 274.140625 L 123.847656 238.378906 Z M 168.527344 239.8125 L 160.390625 246.664062 L 152.015625 236.722656 L 160.152344 229.871094 Z M 158.523438 218.785156 C 182.191406 193.226562 182.144531 191.824219 187.429688 191.953125 C 189.953125 192.011719 192.328125 193.152344 193.949219 195.078125 C 218.039062 223.679688 219.089844 217.363281 179.171875 243.304688 C 173.757812 236.875 170.554688 233.070312 158.523438 218.785156 Z M 155.746094 287.859375 L 156.441406 279.757812 L 167.234375 270.664062 L 162.703125 252.425781 L 172.324219 244.320312 L 178.015625 251.078125 L 209.828125 230.40625 C 213.359375 228.117188 215.738281 224.414062 216.359375 220.25 C 217.609375 211.839844 213.167969 208.75 198.457031 191.28125 C 192.769531 184.527344 182.441406 184.289062 176.4375 190.761719 L 150.660156 218.597656 L 156.355469 225.359375 L 146.738281 233.464844 L 129.527344 225.890625 L 118.730469 234.984375 L 110.628906 234.289062 L 101 242.402344 L 146.117188 295.96875 L 155.746094 287.859375 " fill-opacity="1" fill-rule="nonzero"/></g></g></g><path fill="#18795b" d="M 83.386719 288.664062 L 83.316406 288.738281 C 83.351562 288.738281 83.382812 288.726562 83.410156 288.699219 C 83.402344 288.6875 83.394531 288.679688 83.386719 288.664062 Z M 83.386719 288.664062 " fill-opacity="1" fill-rule="nonzero"/><path fill="#18795b" d="M 34.03125 299.917969 C 33.621094 301.992188 36.132812 302.941406 36.132812 302.941406 C 36.132812 302.941406 33.621094 303.886719 34.03125 305.960938 C 34.273438 307.179688 35.804688 308.746094 38.257812 306.421875 C 41.097656 303.742188 42.277344 302.941406 42.28125 302.941406 C 42.28125 302.941406 41.101562 302.148438 38.257812 299.457031 C 35.804688 297.136719 34.273438 298.703125 34.03125 299.917969 Z M 34.03125 299.917969 " fill-opacity="1" fill-rule="nonzero"/><path fill="#18795b" d="M 115.625 302.941406 C 115.625 302.941406 115.675781 302.972656 115.773438 303.046875 C 115.757812 302.992188 115.734375 302.9375 115.710938 302.878906 Z M 115.625 302.941406 " fill-opacity="1" fill-rule="nonzero"/><path fill="#18795b" d="M 122 302.175781 C 122.039062 302.1875 122.074219 302.199219 122.113281 302.207031 C 122.097656 302.207031 122.082031 302.207031 122.0625 302.207031 C 122.261719 302.316406 122.476562 302.386719 122.699219 302.421875 C 123.367188 301.941406 124.113281 301.117188 123.871094 299.910156 C 123.652344 298.78125 122.308594 297.351562 120.152344 299.015625 C 120.605469 300.359375 121.082031 301.632812 122 302.175781 Z M 122 302.175781 " fill-opacity="1" fill-rule="nonzero"/><path fill="#18795b" d="M 119.96875 304.054688 C 120.367188 305.035156 120.292969 305.589844 120.488281 306.078125 C 119.921875 305.011719 119.246094 304.832031 119.003906 305.59375 C 118.996094 305.652344 118.984375 305.714844 118.96875 305.78125 C 119.1875 305.984375 119.414062 306.195312 119.652344 306.421875 C 122.105469 308.746094 123.640625 307.179688 123.878906 305.960938 C 123.972656 305.519531 123.929688 305.089844 123.746094 304.675781 C 122.960938 305.097656 121.019531 303.984375 119.96875 304.054688 Z M 119.96875 304.054688 " fill-opacity="1" fill-rule="nonzero"/><path fill="#18795b" d="M 116.628906 303.507812 L 116.898438 303.949219 C 117.414062 304.378906 118.089844 304.976562 118.953125 305.773438 C 118.964844 305.710938 118.980469 305.652344 119 305.59375 C 119.203125 304.191406 117.746094 304.234375 116.628906 303.507812 Z M 116.628906 303.507812 " fill-opacity="1" fill-rule="nonzero"/><path fill="#18795b" d="M 122.09375 304.089844 C 122.710938 304.097656 122.1875 303.507812 121.875 302.984375 C 121.8125 302.957031 121.773438 302.941406 121.773438 302.941406 L 121.835938 302.914062 C 121.636719 302.558594 121.574219 302.253906 122.0625 302.210938 L 122 302.175781 C 120.511719 301.757812 119.875 300.738281 119.507812 299.585938 C 119.152344 299.925781 118.820312 300.234375 118.515625 300.511719 C 119.671875 301.453125 120.878906 302.816406 122.09375 304.089844 Z M 122.09375 304.089844 " fill-opacity="1" fill-rule="nonzero"/><path fill="#18795b" d="M 116.765625 302.402344 C 116.714844 302.316406 116.667969 302.242188 116.621094 302.164062 C 116.460938 302.296875 116.324219 302.410156 116.203125 302.503906 C 116.398438 302.523438 116.585938 302.488281 116.765625 302.402344 Z M 116.765625 302.402344 " fill-opacity="1" fill-rule="nonzero"/><path fill="#18795b" d="M 66.003906 272.5625 C 66.003906 272.449219 65.988281 272.308594 65.976562 272.167969 C 65.910156 271.429688 65.792969 270.554688 66.527344 272.429688 C 67.8125 271.90625 69.125 271.464844 70.464844 271.109375 C 71.808594 270.75 73.164062 270.480469 74.539062 270.292969 C 75.914062 270.105469 77.296875 270.007812 78.683594 269.996094 C 80.070312 269.984375 81.453125 270.0625 82.828125 270.226562 C 84.207031 270.390625 85.570312 270.640625 86.914062 270.976562 C 88.261719 271.3125 89.582031 271.730469 90.875 272.234375 C 92.167969 272.738281 93.421875 273.320312 94.640625 273.980469 C 95.859375 274.644531 97.035156 275.378906 98.160156 276.1875 L 98.160156 275.960938 C 99.15625 275.988281 99.9375 276.398438 100.699219 277.019531 C 101.460938 277.636719 102.207031 278.472656 103.144531 279.320312 L 102.832031 280.253906 C 103.148438 280.585938 103.457031 280.925781 103.757812 281.265625 L 105.132812 282.335938 C 105.070312 281.125 105.175781 281.109375 105.320312 280.453125 C 104.910156 279.972656 104.484375 279.503906 104.046875 279.042969 C 103.746094 279.015625 103.464844 278.921875 103.207031 278.765625 L 103.375 278.359375 C 99.617188 274.613281 95.230469 271.878906 90.214844 270.15625 L 90.152344 270.40625 L 89.730469 269.996094 C 87.738281 269.351562 85.699219 268.886719 83.621094 268.605469 C 81.539062 268.328125 79.453125 268.238281 77.359375 268.332031 C 75.261719 268.429688 73.191406 268.714844 71.148438 269.183594 C 69.101562 269.65625 67.117188 270.304688 65.191406 271.132812 C 65.445312 271.824219 65.625 272.261719 65.75 272.515625 Z M 66.003906 272.5625 " fill-opacity="1" fill-rule="nonzero"/><path fill="#18795b" d="M 63.917969 273.054688 C 64 273.207031 64.089844 273.347656 64.183594 273.488281 C 64.152344 273.363281 64.117188 273.234375 64.074219 273.101562 C 64.007812 272.910156 63.941406 272.714844 63.878906 272.523438 C 63.953125 272.730469 64.019531 272.917969 64.074219 273.101562 L 64.207031 273.476562 C 64.746094 273.207031 65.292969 272.953125 65.851562 272.710938 C 65.808594 272.644531 65.773438 272.578125 65.742188 272.507812 L 65.558594 272.46875 L 65.160156 271.136719 C 64.632812 271.367188 64.117188 271.605469 63.605469 271.859375 C 63.609375 272.285156 63.710938 272.683594 63.917969 273.054688 Z M 63.917969 273.054688 " fill-opacity="1" fill-rule="nonzero"/><path fill="#18795b" d="M 113.390625 306.78125 C 113.417969 306.527344 113.445312 306.273438 113.464844 306.023438 C 113.214844 305.949219 113.046875 306.007812 113.390625 306.78125 Z M 113.390625 306.78125 " fill-opacity="1" fill-rule="nonzero"/><path fill="#18795b" d="M 78.953125 337.589844 C 80.554688 337.589844 82.148438 337.476562 83.734375 337.253906 C 85.320312 337.03125 86.882812 336.703125 88.421875 336.265625 C 89.960938 335.824219 91.464844 335.285156 92.929688 334.636719 C 94.394531 333.992188 95.808594 333.246094 97.171875 332.40625 C 98.535156 331.5625 99.832031 330.632812 101.066406 329.613281 C 102.300781 328.589844 103.457031 327.488281 104.539062 326.308594 C 105.617188 325.128906 106.613281 323.878906 107.523438 322.558594 C 108.429688 321.242188 109.246094 319.867188 109.960938 318.433594 C 109.40625 317.878906 108.941406 316.203125 109.285156 316.113281 L 110.226562 317.898438 C 111.890625 314.417969 112.941406 310.765625 113.375 306.933594 C 112.753906 306.757812 112.832031 305.742188 112.636719 305.269531 L 113.511719 305.449219 C 113.574219 304.613281 113.601562 303.777344 113.601562 302.9375 C 113.605469 300.183594 113.285156 297.464844 112.640625 294.789062 C 112.503906 294.730469 112.367188 294.667969 112.238281 294.59375 L 112.449219 295.101562 C 111.929688 295.363281 111.507812 295.628906 111.128906 295.828125 C 111.648438 298.167969 111.910156 300.539062 111.910156 302.941406 C 111.910156 321.109375 97.128906 335.890625 78.960938 335.890625 C 60.789062 335.890625 46 321.109375 46 302.941406 C 46 291.554688 51.8125 281.5 60.613281 275.578125 L 59.9375 274.675781 C 60.117188 274.289062 60.464844 274.832031 60.824219 275.433594 C 60.9375 275.359375 61.050781 275.285156 61.164062 275.210938 L 60.984375 274.210938 C 61.074219 274.515625 61.199219 274.8125 61.347656 275.09375 C 62 274.683594 62.664062 274.292969 63.34375 273.925781 C 63.363281 273.636719 63.390625 273.332031 63.417969 273.039062 C 63.441406 272.847656 63.460938 272.65625 63.488281 272.484375 L 63.488281 272.4375 C 63.550781 272.425781 62.960938 272.507812 63.210938 272.472656 L 63.210938 272.464844 L 63.222656 272.402344 L 63.25 272.277344 C 63.269531 272.199219 63.292969 272.125 63.3125 272.054688 C 63.3125 272.035156 63.328125 272.011719 63.335938 271.992188 C 62.472656 272.425781 61.628906 272.898438 60.808594 273.402344 C 59.984375 273.910156 59.183594 274.449219 58.40625 275.023438 C 57.628906 275.59375 56.875 276.199219 56.148438 276.835938 C 55.421875 277.46875 54.722656 278.136719 54.050781 278.828125 C 53.378906 279.523438 52.738281 280.246094 52.125 280.992188 C 51.515625 281.742188 50.9375 282.511719 50.390625 283.308594 C 49.84375 284.105469 49.332031 284.921875 48.851562 285.761719 C 48.375 286.601562 47.929688 287.457031 47.523438 288.335938 C 47.117188 289.210938 46.746094 290.101562 46.414062 291.007812 C 46.082031 291.914062 45.789062 292.835938 45.535156 293.765625 C 45.277344 294.699219 45.0625 295.636719 44.886719 296.589844 C 44.710938 297.539062 44.574219 298.492188 44.476562 299.453125 C 44.378906 300.414062 44.324219 301.378906 44.304688 302.34375 C 44.289062 303.308594 44.3125 304.273438 44.378906 305.238281 C 44.441406 306.203125 44.546875 307.160156 44.691406 308.117188 C 44.835938 309.070312 45.019531 310.019531 45.242188 310.957031 C 45.46875 311.898438 45.730469 312.828125 46.03125 313.742188 C 46.332031 314.660156 46.671875 315.566406 47.046875 316.453125 C 47.425781 317.34375 47.839844 318.214844 48.289062 319.070312 C 48.738281 319.925781 49.222656 320.761719 49.742188 321.574219 C 50.261719 322.386719 50.816406 323.179688 51.398438 323.949219 C 51.984375 324.714844 52.601562 325.457031 53.25 326.175781 C 53.898438 326.890625 54.574219 327.578125 55.28125 328.238281 C 55.984375 328.898438 56.714844 329.527344 57.472656 330.128906 C 58.230469 330.726562 59.015625 331.292969 59.820312 331.824219 C 60.625 332.359375 61.449219 332.859375 62.296875 333.320312 C 63.144531 333.785156 64.007812 334.214844 64.890625 334.605469 C 65.773438 335 66.671875 335.355469 67.585938 335.671875 C 68.496094 335.988281 69.421875 336.265625 70.355469 336.507812 C 71.292969 336.746094 72.234375 336.945312 73.1875 337.105469 C 74.140625 337.269531 75.097656 337.390625 76.0625 337.46875 C 77.023438 337.550781 77.988281 337.589844 78.953125 337.589844 Z M 78.953125 337.589844 " fill-opacity="1" fill-rule="nonzero"/><path fill="#18795b" d="M 66.003906 272.640625 L 66.125 272.585938 L 66.003906 272.5625 Z M 66.003906 272.640625 " fill-opacity="1" fill-rule="nonzero"/><path fill="#18795b" d="M 111.125 291.476562 C 110.894531 291.769531 110.835938 292.253906 111.136719 292.988281 C 111.351562 292.472656 111.691406 292.503906 112.089844 292.753906 C 111.925781 292.226562 111.753906 291.699219 111.558594 291.183594 C 111.386719 291.238281 111.242188 291.335938 111.125 291.476562 Z M 111.125 291.476562 " fill-opacity="1" fill-rule="nonzero"/><path fill="#18795b" d="M 109.976562 287.625 L 109.390625 288.019531 C 109.507812 289.207031 110.183594 289.515625 110.84375 289.757812 L 111.039062 289.832031 C 110.523438 288.5625 109.929688 287.332031 109.261719 286.132812 C 109.035156 286.046875 108.824219 285.9375 108.625 285.804688 C 108.957031 287.324219 109.257812 286.976562 109.976562 287.625 Z M 109.976562 287.625 " fill-opacity="1" fill-rule="nonzero"/><path fill="#18795b" d="M 65.273438 255.308594 C 64.492188 254.304688 65.253906 256.074219 65.40625 256.53125 L 65.789062 256.421875 Z M 65.273438 255.308594 " fill-opacity="1" fill-rule="nonzero"/><path fill="#18795b" d="M 71.234375 255.003906 C 71.316406 255.066406 71.40625 255.125 71.496094 255.171875 L 71.894531 255.113281 C 71.960938 254.929688 71.894531 254.554688 71.769531 254.109375 C 71.710938 253.898438 71.636719 253.671875 71.566406 253.441406 L 70.988281 253.527344 C 70.96875 253.898438 70.761719 254.140625 71.234375 255.003906 Z M 71.234375 255.003906 " fill-opacity="1" fill-rule="nonzero"/><path fill="#18795b" d="M 68.695312 253.953125 C 68.484375 253.996094 68.277344 254.039062 68.066406 254.082031 C 68.355469 254.414062 68.644531 254.746094 68.941406 255.078125 C 68.84375 254.625 68.761719 254.261719 68.695312 253.953125 Z M 68.695312 253.953125 " fill-opacity="1" fill-rule="nonzero"/><path fill="#18795b" d="M 57.367188 348.097656 C 57.839844 348.324219 58.316406 348.542969 58.796875 348.757812 C 58.554688 348.308594 58.300781 347.964844 58.050781 347.894531 L 57.90625 347.886719 C 57.957031 347.878906 58.003906 347.882812 58.050781 347.894531 L 59 347.949219 L 59.273438 348.964844 L 59.476562 349.050781 C 60.410156 349.445312 61.355469 349.8125 62.3125 350.152344 C 63.273438 350.488281 64.238281 350.796875 65.214844 351.078125 C 66.191406 351.355469 67.175781 351.605469 68.167969 351.824219 C 69.15625 352.042969 70.15625 352.234375 71.15625 352.390625 C 72.160156 352.550781 73.167969 352.679688 74.179688 352.777344 C 75.1875 352.875 76.203125 352.941406 77.214844 352.976562 C 78.230469 353.011719 79.246094 353.015625 80.261719 352.988281 C 81.277344 352.964844 82.289062 352.90625 83.300781 352.820312 C 84.3125 352.730469 85.320312 352.613281 86.324219 352.460938 C 87.328125 352.3125 88.328125 352.132812 89.320312 351.921875 C 90.316406 351.714844 91.300781 351.472656 92.28125 351.203125 C 93.257812 350.933594 94.226562 350.632812 95.1875 350.304688 C 96.148438 349.976562 97.097656 349.617188 98.035156 349.230469 C 98.976562 348.84375 99.902344 348.425781 100.816406 347.984375 C 101.730469 347.539062 102.628906 347.070312 103.511719 346.570312 C 104.398438 346.074219 105.265625 345.546875 106.117188 344.996094 C 106.972656 344.445312 107.808594 343.871094 108.625 343.269531 C 109.441406 342.667969 110.242188 342.039062 111.019531 341.390625 C 111.800781 340.738281 112.558594 340.066406 113.296875 339.367188 C 114.035156 338.671875 114.753906 337.953125 115.449219 337.210938 C 116.140625 336.472656 116.8125 335.710938 117.460938 334.929688 C 118.109375 334.148438 118.734375 333.347656 119.335938 332.527344 C 119.933594 331.707031 120.507812 330.871094 121.058594 330.019531 C 121.605469 329.164062 122.128906 328.292969 122.625 327.40625 C 123.121094 326.519531 123.585938 325.621094 124.027344 324.707031 C 124.46875 323.792969 124.882812 322.863281 125.265625 321.925781 C 125.652344 320.984375 126.007812 320.035156 126.332031 319.074219 C 126.660156 318.109375 126.957031 317.140625 127.222656 316.160156 C 127.492188 315.179688 127.730469 314.195312 127.9375 313.199219 C 128.144531 312.207031 128.320312 311.207031 128.464844 310.203125 C 128.613281 309.199219 128.730469 308.191406 128.8125 307.179688 C 128.898438 306.167969 128.953125 305.152344 128.976562 304.136719 C 128.433594 303.875 127.9375 303.539062 127.496094 303.128906 C 127.628906 303.902344 128.730469 305.523438 128.144531 305.636719 L 127.292969 303.050781 C 127.230469 329.652344 105.570312 351.273438 78.953125 351.273438 C 73.851562 351.28125 68.871094 350.5 64.015625 348.925781 C 63.589844 349.269531 63.292969 350.21875 62.8125 348.824219 C 63.175781 348.914062 63.542969 348.9375 63.910156 348.890625 C 61.394531 348.058594 58.960938 347.03125 56.609375 345.800781 C 54.261719 344.570312 52.027344 343.160156 49.910156 341.5625 C 47.792969 339.96875 45.816406 338.210938 43.988281 336.292969 C 42.15625 334.375 40.496094 332.320312 39 330.128906 L 39.203125 330.789062 C 38.570312 329.5 37.144531 328.96875 36.714844 329.789062 C 39.164062 333.628906 42.085938 337.078125 45.472656 340.128906 C 48.863281 343.175781 52.597656 345.71875 56.675781 347.753906 C 56.660156 347.699219 56.644531 347.644531 56.625 347.582031 C 56.996094 347.328125 57.207031 347.628906 57.367188 348.097656 Z M 57.367188 348.097656 " fill-opacity="1" fill-rule="nonzero"/><path fill="#18795b" d="M 75.03125 254.757812 L 75.050781 254.757812 L 75.210938 253.121094 C 75.234375 253.089844 75.257812 253.0625 75.285156 253.035156 C 74.792969 253.070312 74.300781 253.113281 73.808594 253.167969 C 74.128906 253.386719 74.507812 253.839844 75.03125 254.757812 Z M 75.03125 254.757812 " fill-opacity="1" fill-rule="nonzero"/><g clip-path="url(#63156cdaa4)"><path fill="#18795b" d="M 79.515625 252.90625 L 79.328125 252.90625 C 79.34375 253.359375 79.578125 254.046875 79.882812 254.609375 C 81.6875 254.644531 83.484375 254.773438 85.273438 255.007812 C 85.238281 254.96875 85.207031 254.929688 85.179688 254.886719 C 85.300781 254.855469 85.359375 254.90625 85.40625 255.019531 C 86.035156 255.109375 86.660156 255.203125 87.277344 255.308594 C 87.292969 255.253906 87.3125 255.199219 87.332031 255.148438 C 87.359375 255.210938 87.382812 255.273438 87.402344 255.328125 C 101.8125 257.898438 114.042969 266.847656 121.027344 279.15625 C 120.957031 278.59375 120.953125 278.265625 120.640625 277.417969 C 121.667969 278.644531 122.019531 278.210938 122.359375 278.019531 C 121.242188 276.082031 120.003906 274.222656 118.636719 272.453125 L 118.488281 272.523438 C 117.753906 272.847656 116.988281 272.882812 116.515625 271.652344 L 116.175781 269.5 C 115.582031 268.839844 114.96875 268.191406 114.335938 267.558594 C 112.113281 265.328125 109.699219 263.328125 107.097656 261.554688 C 104.492188 259.78125 101.746094 258.269531 98.859375 257.015625 C 95.96875 255.765625 92.988281 254.796875 89.914062 254.109375 C 86.84375 253.421875 83.730469 253.027344 80.585938 252.929688 C 80.613281 252.972656 80.640625 253.011719 80.667969 253.0625 C 80.449219 253.609375 80.050781 253.988281 79.515625 252.90625 Z M 79.515625 252.90625 " fill-opacity="1" fill-rule="nonzero"/></g><path fill="#18795b" d="M 34.625 323.480469 C 34.574219 323.105469 34.46875 322.75 34.300781 322.410156 C 34.152344 322.214844 34.066406 321.992188 34.039062 321.75 C 34.109375 321.976562 34.195312 322.195312 34.300781 322.410156 C 34.441406 322.546875 34.605469 322.613281 34.800781 322.605469 C 32.003906 316.347656 30.609375 309.792969 30.617188 302.941406 C 30.617188 281 45.3125 262.425781 65.375 256.542969 L 65.292969 256.394531 C 65.082031 255.851562 64.902344 255.371094 64.726562 254.953125 C 63.085938 255.441406 61.472656 256.011719 59.890625 256.667969 C 58.304688 257.320312 56.761719 258.054688 55.253906 258.863281 C 53.746094 259.675781 52.28125 260.566406 50.867188 261.527344 C 49.449219 262.488281 48.085938 263.519531 46.773438 264.625 C 45.464844 265.726562 44.210938 266.890625 43.019531 268.121094 C 41.828125 269.351562 40.703125 270.640625 39.644531 271.988281 C 38.585938 273.332031 37.597656 274.730469 36.683594 276.175781 C 35.765625 277.621094 34.925781 279.113281 34.164062 280.644531 C 33.402344 282.179688 32.71875 283.746094 32.117188 285.351562 C 31.511719 286.953125 30.996094 288.585938 30.558594 290.242188 C 30.125 291.898438 29.773438 293.570312 29.511719 295.261719 C 29.25 296.957031 29.070312 298.65625 28.984375 300.367188 C 28.894531 302.078125 28.894531 303.789062 28.980469 305.5 C 29.066406 307.210938 29.238281 308.910156 29.5 310.601562 C 29.761719 312.296875 30.109375 313.972656 30.542969 315.628906 C 30.972656 317.285156 31.492188 318.914062 32.089844 320.519531 C 32.1875 320.34375 32.257812 320.15625 32.292969 319.957031 C 32.457031 321.5 33.90625 323.605469 34.625 323.480469 Z M 34.625 323.480469 " fill-opacity="1" fill-rule="nonzero"/><path fill="#18795b" d="M 66.023438 256.179688 C 65.78125 255.730469 65.558594 255.398438 65.382812 255.125 C 65.578125 255.550781 65.804688 255.960938 66.058594 256.355469 C 67.027344 256.089844 68.011719 255.851562 69.003906 255.640625 C 68.429688 254.496094 68.289062 256.226562 67.707031 254.890625 L 67.574219 254.207031 C 66.859375 254.375 66.148438 254.554688 65.445312 254.753906 C 65.601562 255.015625 65.773438 255.316406 65.960938 255.652344 Z M 66.023438 256.179688 " fill-opacity="1" fill-rule="nonzero"/><path fill="#18795b" d="M 122.789062 279.890625 L 121.222656 279.503906 C 123.21875 283.085938 124.730469 286.863281 125.757812 290.832031 C 126.785156 294.800781 127.296875 298.835938 127.292969 302.9375 C 128.109375 303.363281 128.574219 302.738281 128.984375 302.058594 C 128.886719 296.058594 127.742188 290.265625 125.546875 284.679688 C 124.859375 284.515625 124.292969 284.234375 124.40625 283.269531 C 124.078125 283.335938 123.703125 283.691406 123.011719 282.769531 C 124.558594 283.902344 124.519531 283.109375 124.386719 282.109375 C 124.375 282.039062 124.367188 281.964844 124.355469 281.890625 C 124.027344 281.1875 123.683594 280.488281 123.324219 279.800781 C 123.136719 280.273438 122.949219 280.746094 122.765625 281.21875 Z M 122.789062 279.890625 " fill-opacity="1" fill-rule="nonzero"/><g clip-path="url(#71f8a002de)"><path fill="#18795b" d="M 76.242188 253.671875 C 76.574219 254.199219 76.921875 254.710938 77.441406 254.167969 C 77.027344 253.367188 77.167969 253.277344 77.121094 252.9375 C 76.660156 252.953125 76.199219 252.976562 75.742188 253.007812 C 75.910156 253.140625 76.074219 253.40625 76.242188 253.671875 Z M 76.242188 253.671875 " fill-opacity="1" fill-rule="nonzero"/></g><path fill="#18795b" d="M 44.242188 289.628906 L 39.855469 286.421875 L 45.441406 287.195312 L 46.074219 285.917969 L 42.070312 281.933594 L 47.273438 283.488281 L 47.964844 282.089844 L 39.734375 279.613281 L 39.039062 281.019531 L 43.460938 285.414062 L 37.292969 284.558594 L 36.59375 285.96875 L 43.542969 291.039062 Z M 44.242188 289.628906 " fill-opacity="1" fill-rule="nonzero"/><path fill="#18795b" d="M 49.226562 280.753906 L 48.347656 279.09375 L 50.59375 276.464844 L 52.351562 277.09375 L 53.4375 275.816406 L 44.875 272.796875 L 43.820312 274.039062 L 48.144531 282.027344 Z M 46.058594 274.867188 L 49.003906 275.898438 L 47.53125 277.617188 Z M 46.058594 274.867188 " fill-opacity="1" fill-rule="nonzero"/><path fill="#18795b" d="M 55.664062 274.148438 C 56.539062 273.488281 57.109375 272.964844 57.382812 272.585938 C 57.667969 272.179688 57.847656 271.730469 57.921875 271.242188 C 58.007812 270.691406 57.96875 270.148438 57.8125 269.613281 C 57.601562 268.910156 57.257812 268.28125 56.777344 267.722656 C 56.300781 267.164062 55.730469 266.730469 55.070312 266.414062 C 54.40625 266.101562 53.710938 266.003906 52.988281 266.117188 C 52.328125 266.234375 51.503906 266.667969 50.523438 267.410156 L 49 268.5625 L 54.117188 275.320312 Z M 51.652344 268.507812 C 52.453125 267.902344 53.167969 267.640625 53.796875 267.722656 C 54.503906 267.808594 55.125 268.214844 55.664062 268.933594 C 55.992188 269.339844 56.203125 269.792969 56.300781 270.304688 C 56.382812 270.707031 56.339844 271.097656 56.171875 271.476562 C 56.007812 271.8125 55.632812 272.203125 55.042969 272.648438 L 54.441406 273.101562 L 51.21875 268.835938 Z M 51.652344 268.507812 " fill-opacity="1" fill-rule="nonzero"/><path fill="#18795b" d="M 64.6875 268.6875 L 63.980469 267.269531 L 61.273438 268.621094 L 60.277344 266.625 L 62.980469 265.273438 L 62.289062 263.886719 L 59.582031 265.242188 L 58.898438 263.871094 L 61.601562 262.515625 L 60.898438 261.105469 L 56.757812 263.175781 L 60.550781 270.753906 Z M 64.6875 268.6875 " fill-opacity="1" fill-rule="nonzero"/><path fill="#18795b" d="M 75.976562 265.917969 L 76.351562 259.550781 C 75.890625 259.214844 75.386719 258.96875 74.84375 258.808594 L 74.761719 260.261719 L 75.429688 261.210938 L 74.726562 260.882812 L 74.59375 263.035156 L 73.863281 261.476562 C 73.847656 261.710938 73.796875 261.882812 73.6875 261.960938 C 73.484375 261.785156 73.261719 261.636719 73.015625 261.523438 C 72.714844 261.398438 72.46875 261.464844 72.683594 262.21875 L 72.488281 262.015625 L 74.441406 266.164062 Z M 75.976562 265.917969 " fill-opacity="1" fill-rule="nonzero"/><path fill="#18795b" d="M 69.886719 266.917969 L 71.398438 266.671875 L 71.972656 261.464844 C 71.863281 261.347656 71.75 261.230469 71.640625 261.105469 C 71.320312 260.757812 70.996094 260.382812 70.683594 259.996094 L 70.269531 263.746094 L 68.183594 258.609375 L 66.964844 258.808594 C 67.023438 258.917969 67.085938 259.027344 67.15625 259.128906 L 66.839844 258.828125 L 66.613281 258.867188 Z M 69.886719 266.917969 " fill-opacity="1" fill-rule="nonzero"/><path fill="#18795b" d="M 78.671875 265.921875 L 80.273438 265.949219 L 80.382812 259.109375 C 80.332031 259.078125 80.285156 259.042969 80.238281 259 L 79.28125 258.832031 L 79.28125 257.457031 L 78.800781 257.445312 Z M 78.671875 265.921875 " fill-opacity="1" fill-rule="nonzero"/><path fill="#18795b" d="M 80.394531 258.355469 C 80.222656 258.449219 80.058594 258.558594 79.90625 258.675781 C 79.996094 258.769531 80.121094 258.902344 80.238281 259 L 80.382812 259.027344 Z M 80.394531 258.355469 " fill-opacity="1" fill-rule="nonzero"/><path fill="#18795b" d="M 83.375 259.257812 L 83.277344 260.0625 C 83.808594 259.96875 84.292969 259.828125 84.386719 259.472656 L 84.273438 258.910156 C 84.382812 259.082031 84.421875 259.269531 84.386719 259.472656 L 84.769531 261.390625 L 85 259.453125 L 86.535156 259.632812 L 86.722656 258.054688 L 83.308594 257.648438 C 82.882812 257.664062 82.457031 257.710938 82.035156 257.789062 L 81.882812 259.078125 Z M 83.375 259.257812 " fill-opacity="1" fill-rule="nonzero"/><path fill="#18795b" d="M 82.953125 262.734375 L 82.558594 266.09375 L 84.183594 266.285156 L 84.5625 263.066406 C 84.148438 263.289062 83.65625 263.316406 82.953125 262.734375 Z M 82.953125 262.734375 " fill-opacity="1" fill-rule="nonzero"/><path fill="#18795b" d="M 87.671875 262.511719 L 87.589844 262.796875 C 88.277344 263.636719 88.644531 263.4375 89.007812 263.214844 C 89.417969 262.964844 89.808594 262.6875 90.625 263.910156 L 91.8125 264.261719 L 90.765625 267.828125 L 92.332031 268.289062 L 94.71875 260.15625 L 93.152344 259.695312 L 92.25 262.761719 L 89.535156 261.96875 L 90.4375 258.902344 L 88.867188 258.441406 L 87.769531 262.183594 C 87.796875 262.414062 87.875 262.632812 87.996094 262.832031 Z M 87.671875 262.511719 " fill-opacity="1" fill-rule="nonzero"/><path fill="#18795b" d="M 87.539062 262.960938 L 86.480469 266.566406 L 88.050781 267.027344 L 88.964844 263.925781 C 88.773438 263.902344 88.523438 263.882812 88.171875 263.875 C 87.976562 263.558594 87.765625 263.253906 87.539062 262.960938 Z M 87.539062 262.960938 " fill-opacity="1" fill-rule="nonzero"/><path fill="#18795b" d="M 100.777344 271.074219 L 98.761719 269.863281 L 102.332031 263.917969 L 100.949219 263.085938 L 96.585938 270.351562 L 99.984375 272.394531 Z M 100.777344 271.074219 " fill-opacity="1" fill-rule="nonzero"/><path fill="#18795b" d="M 105.386719 276.074219 C 105.816406 275.511719 106.402344 276.011719 107.042969 276.714844 C 107.476562 276.667969 107.894531 276.554688 108.296875 276.378906 C 108.203125 276.0625 108.183594 275.742188 108.230469 275.417969 C 108.378906 275.71875 108.515625 275.980469 108.648438 276.210938 C 109.089844 275.960938 109.476562 275.644531 109.8125 275.265625 C 110.222656 274.832031 110.527344 274.332031 110.730469 273.769531 C 110.933594 273.207031 111.015625 272.628906 110.976562 272.035156 C 110.960938 271.449219 110.828125 270.894531 110.582031 270.367188 C 110.332031 269.839844 109.988281 269.382812 109.550781 268.996094 C 108.964844 268.464844 108.285156 268.121094 107.511719 267.953125 C 106.738281 267.789062 105.976562 267.828125 105.222656 268.070312 C 104.761719 268.226562 104.335938 268.449219 103.945312 268.742188 C 103.554688 269.035156 103.222656 269.382812 102.941406 269.78125 C 102.664062 270.183594 102.457031 270.617188 102.320312 271.082031 C 102.179688 271.550781 102.121094 272.027344 102.136719 272.515625 C 102.171875 273.730469 102.664062 274.765625 103.605469 275.617188 C 104.308594 276.273438 105.140625 276.644531 106.097656 276.726562 L 106.109375 276.710938 Z M 103.738281 272.777344 C 103.601562 271.921875 103.847656 271.148438 104.476562 270.453125 C 105.039062 269.824219 105.699219 269.488281 106.460938 269.441406 C 106.832031 269.421875 107.191406 269.472656 107.542969 269.597656 C 107.894531 269.722656 108.207031 269.910156 108.480469 270.160156 C 108.757812 270.410156 108.972656 270.707031 109.128906 271.042969 C 109.285156 271.378906 109.371094 271.734375 109.386719 272.105469 C 109.394531 272.488281 109.332031 272.855469 109.199219 273.210938 C 109.066406 273.566406 108.875 273.886719 108.621094 274.167969 C 108.367188 274.453125 108.070312 274.679688 107.730469 274.847656 C 107.390625 275.019531 107.03125 275.117188 106.652344 275.152344 C 105.882812 275.21875 105.210938 274.984375 104.644531 274.457031 C 104.136719 274.007812 103.835938 273.449219 103.738281 272.777344 Z M 103.738281 272.777344 " fill-opacity="1" fill-rule="nonzero"/><path fill="#18795b" d="M 111.675781 279.398438 C 111.304688 279.519531 110.96875 279.867188 110.773438 280.175781 C 111.164062 280.847656 111.675781 281.40625 112.308594 281.855469 L 115.453125 281.019531 L 115.25 280.488281 L 115.453125 281.019531 L 118.535156 280.199219 L 117.59375 278.839844 L 111.410156 280.488281 L 112.195312 279.402344 C 112.023438 279.339844 111.851562 279.339844 111.675781 279.398438 Z M 111.675781 279.398438 " fill-opacity="1" fill-rule="nonzero"/><path fill="#18795b" d="M 112.308594 279.242188 L 115.144531 275.308594 L 114.199219 273.945312 L 111.21875 278.078125 C 111.539062 278.285156 111.894531 278.625 112.308594 279.242188 Z M 112.308594 279.242188 " fill-opacity="1" fill-rule="nonzero"/><path fill="#18795b" d="M 109.628906 282.226562 L 109.832031 282.515625 L 110.359375 282.375 C 110.082031 282.25 109.824219 282.175781 109.628906 282.226562 Z M 109.628906 282.226562 " fill-opacity="1" fill-rule="nonzero"/><path fill="#18795b" d="M 118.554688 282.9375 L 111.890625 285.917969 L 113.78125 290.148438 L 115.234375 289.5 L 114 286.738281 L 116.035156 285.828125 L 117.269531 288.585938 L 118.683594 287.953125 L 117.449219 285.195312 L 118.847656 284.566406 L 120.085938 287.328125 L 121.523438 286.683594 L 119.789062 282.808594 C 119.738281 282.84375 119.683594 282.878906 119.632812 282.910156 C 119.296875 283.109375 118.957031 283.230469 118.554688 282.9375 Z M 118.554688 282.9375 " fill-opacity="1" fill-rule="nonzero"/><path fill="#18795b" d="M 113.664062 316.253906 L 118.050781 319.457031 L 112.460938 318.6875 L 111.832031 319.960938 L 115.832031 323.945312 L 110.632812 322.390625 L 109.941406 323.789062 L 118.167969 326.269531 L 118.867188 324.859375 L 114.445312 320.464844 L 120.613281 321.320312 L 121.308594 319.910156 L 114.363281 314.84375 Z M 113.664062 316.253906 " fill-opacity="1" fill-rule="nonzero"/><path fill="#18795b" d="M 108.679688 325.121094 L 109.558594 326.777344 L 107.3125 329.410156 L 105.554688 328.78125 L 104.464844 330.058594 L 113.027344 333.078125 L 114.085938 331.832031 L 109.757812 323.847656 Z M 111.847656 331.003906 L 108.902344 329.976562 L 110.375 328.253906 Z M 111.847656 331.003906 " fill-opacity="1" fill-rule="nonzero"/><path fill="#18795b" d="M 102.242188 331.730469 C 101.367188 332.394531 100.792969 332.914062 100.523438 333.292969 C 100.242188 333.699219 100.0625 334.148438 99.988281 334.636719 C 99.902344 335.191406 99.9375 335.734375 100.09375 336.269531 C 100.304688 336.96875 100.652344 337.601562 101.128906 338.15625 C 101.609375 338.714844 102.175781 339.152344 102.839844 339.46875 C 103.5 339.777344 104.1875 339.875 104.910156 339.761719 C 105.570312 339.644531 106.394531 339.214844 107.375 338.472656 L 108.898438 337.316406 L 103.789062 330.558594 Z M 106.25 337.375 C 105.453125 337.980469 104.738281 338.242188 104.109375 338.160156 C 103.402344 338.070312 102.78125 337.667969 102.242188 336.945312 C 101.917969 336.542969 101.707031 336.089844 101.605469 335.582031 C 101.523438 335.175781 101.570312 334.785156 101.738281 334.40625 C 101.902344 334.070312 102.277344 333.683594 102.867188 333.238281 L 103.460938 332.785156 L 106.691406 337.046875 Z M 106.25 337.375 " fill-opacity="1" fill-rule="nonzero"/><path fill="#18795b" d="M 96.824219 343.101562 L 96.300781 343.367188 L 97.007812 344.78125 L 98.765625 343.902344 C 98.011719 342.191406 97.605469 343.632812 96.824219 343.101562 Z M 96.824219 343.101562 " fill-opacity="1" fill-rule="nonzero"/><path fill="#18795b" d="M 97.355469 335.125 L 93.21875 337.195312 L 93.925781 338.621094 L 96.632812 337.265625 L 97.628906 339.261719 L 94.925781 340.601562 L 95.054688 340.863281 L 94.992188 340.636719 L 95.144531 341.046875 L 95.621094 341.992188 L 96.257812 341.671875 C 96.238281 341.226562 96.175781 340.789062 96.078125 340.351562 C 96.34375 340.089844 96.839844 340.527344 97.398438 341.101562 L 98.324219 340.632812 L 99.007812 342.003906 L 98.511719 342.253906 C 99.09375 342.792969 99.605469 343.058594 99.832031 342.375 C 99.914062 342.675781 99.957031 342.980469 99.964844 343.292969 L 101.15625 342.703125 Z M 97.355469 335.125 " fill-opacity="1" fill-rule="nonzero"/><path fill="#18795b" d="M 85.933594 345.488281 L 86.230469 346.742188 C 85.714844 346.148438 85.207031 345.554688 84.707031 344.960938 C 84.558594 344.59375 84.789062 343.945312 84.832031 343.203125 C 84.84375 343 84.835938 342.796875 84.8125 342.59375 L 84.167969 341.226562 C 84.0625 341.113281 83.949219 341.003906 83.824219 340.902344 C 84.269531 341.601562 84.269531 342.132812 84.121094 342.332031 C 84.085938 342.382812 84.042969 342.410156 83.980469 342.417969 C 83.921875 342.421875 83.871094 342.40625 83.828125 342.363281 C 83.691406 342.183594 83.605469 341.984375 83.566406 341.761719 L 83.578125 341.582031 C 83.582031 341.519531 83.589844 341.457031 83.601562 341.398438 L 83.671875 341.023438 L 83.773438 340.410156 L 83.445312 339.714844 L 81.921875 339.960938 L 81.410156 348.636719 L 82.976562 348.371094 L 83.300781 342.847656 L 84.980469 346.414062 L 85.03125 346.480469 L 85.449219 346.921875 C 85.386719 346.9375 85.296875 346.910156 85.222656 346.933594 L 85.695312 347.933594 L 87.015625 347.714844 L 87.191406 346.101562 C 86.824219 346.28125 86.371094 346.148438 85.933594 345.488281 Z M 85.933594 345.488281 " fill-opacity="1" fill-rule="nonzero"/><path fill="#18795b" d="M 86.507812 339.210938 L 86.355469 340.5625 C 86.515625 340.761719 86.683594 340.976562 86.855469 341.199219 C 87.105469 341.535156 87.371094 341.886719 87.621094 342.238281 L 87.632812 342.132812 L 87.746094 342.410156 C 88.175781 343.011719 88.570312 343.597656 88.816406 344.015625 C 88.652344 344.054688 88.578125 344.191406 88.550781 344.382812 L 89.714844 347.273438 L 91.28125 347.007812 L 88.019531 338.960938 Z M 88.480469 341.6875 C 88.320312 341.984375 87.855469 342.097656 87.234375 341.007812 C 87.21875 340.984375 87.203125 340.957031 87.191406 340.925781 C 87.203125 340.953125 87.222656 340.980469 87.234375 341.007812 C 87.550781 341.445312 88 339.503906 88.480469 341.6875 Z M 88.480469 341.6875 " fill-opacity="1" fill-rule="nonzero"/><path fill="#18795b" d="M 77.515625 347.132812 C 77.707031 347.082031 77.875 347.164062 77.996094 347.585938 L 77.777344 347.628906 L 78.101562 348.421875 L 79.097656 348.4375 L 79.230469 339.960938 L 77.632812 339.941406 Z M 77.515625 347.132812 " fill-opacity="1" fill-rule="nonzero"/><path fill="#18795b" d="M 75.351562 339.789062 L 73.726562 339.59375 L 72.910156 346.429688 L 71.378906 346.246094 L 71.191406 347.824219 L 75.84375 348.382812 L 76.03125 346.800781 L 74.535156 346.625 Z M 75.351562 339.789062 " fill-opacity="1" fill-rule="nonzero"/><path fill="#18795b" d="M 69.855469 338.851562 L 68.808594 342.417969 L 66.09375 341.621094 L 67.140625 338.054688 L 65.578125 337.59375 L 63.1875 345.726562 L 64.753906 346.183594 L 65.652344 343.117188 L 68.367188 343.914062 L 67.464844 346.984375 L 69.035156 347.445312 L 71.425781 339.3125 Z M 69.855469 338.851562 " fill-opacity="1" fill-rule="nonzero"/><path fill="#18795b" d="M 59.171875 334.238281 L 57.921875 333.488281 L 57.128906 334.808594 L 58.613281 335.699219 C 58.613281 335.40625 58.671875 335.125 58.792969 334.859375 C 58.90625 334.644531 59.03125 334.4375 59.171875 334.238281 Z M 59.171875 334.238281 " fill-opacity="1" fill-rule="nonzero"/><path fill="#18795b" d="M 55.570312 341.960938 L 56.953125 342.792969 L 58.910156 339.535156 L 58.652344 338.292969 L 59.222656 339.015625 L 59.550781 338.46875 C 59.195312 337.914062 58.925781 337.316406 58.746094 336.679688 Z M 55.570312 341.960938 " fill-opacity="1" fill-rule="nonzero"/><path fill="#18795b" d="M 61.320312 335.527344 L 60.527344 335.050781 C 60.628906 335.449219 60.722656 335.894531 60.816406 336.359375 Z M 61.320312 335.527344 " fill-opacity="1" fill-rule="nonzero"/><path fill="#18795b" d="M 55.777344 333.363281 C 55.742188 332.148438 55.25 331.113281 54.304688 330.261719 C 53.878906 329.863281 53.390625 329.566406 52.839844 329.371094 C 52.289062 329.175781 51.722656 329.101562 51.140625 329.140625 C 50.550781 329.167969 49.992188 329.308594 49.460938 329.566406 C 48.929688 329.820312 48.472656 330.171875 48.085938 330.617188 C 47.679688 331.054688 47.375 331.550781 47.171875 332.109375 C 46.972656 332.671875 46.886719 333.25 46.921875 333.84375 C 46.941406 334.425781 47.074219 334.984375 47.320312 335.511719 C 47.566406 336.039062 47.910156 336.496094 48.347656 336.882812 C 48.9375 337.410156 49.617188 337.757812 50.390625 337.921875 C 51.164062 338.085938 51.925781 338.050781 52.679688 337.808594 C 53.140625 337.652344 53.566406 337.429688 53.957031 337.136719 C 54.347656 336.847656 54.683594 336.5 54.960938 336.101562 C 55.242188 335.699219 55.449219 335.265625 55.589844 334.796875 C 55.726562 334.332031 55.789062 333.855469 55.773438 333.367188 Z M 53.429688 335.429688 C 52.863281 336.054688 52.203125 336.390625 51.441406 336.4375 C 51.070312 336.457031 50.707031 336.40625 50.359375 336.28125 C 50.007812 336.15625 49.695312 335.96875 49.417969 335.71875 C 49.144531 335.46875 48.929688 335.175781 48.773438 334.835938 C 48.613281 334.5 48.53125 334.144531 48.515625 333.773438 C 48.507812 333.394531 48.570312 333.027344 48.703125 332.671875 C 48.835938 332.3125 49.027344 331.996094 49.28125 331.710938 C 49.535156 331.429688 49.832031 331.203125 50.171875 331.035156 C 50.515625 330.867188 50.875 330.765625 51.25 330.734375 C 52.023438 330.667969 52.691406 330.902344 53.257812 331.425781 C 53.765625 331.875 54.070312 332.4375 54.167969 333.109375 C 54.300781 333.964844 54.054688 334.738281 53.429688 335.429688 Z M 53.429688 335.429688 " fill-opacity="1" fill-rule="nonzero"/><path fill="#18795b" d="M 40.097656 325.890625 C 40.0625 325.765625 40.023438 325.640625 39.980469 325.515625 L 39.679688 325.597656 C 39.816406 325.695312 39.953125 325.792969 40.097656 325.890625 Z M 40.097656 325.890625 " fill-opacity="1" fill-rule="nonzero"/><path fill="#18795b" d="M 42.757812 330.570312 L 43.703125 331.9375 L 48.960938 324.644531 L 48.074219 323.367188 L 44.285156 324.371094 L 44.296875 325.15625 C 44.132812 324.945312 43.980469 324.6875 43.835938 324.496094 L 40.464844 325.390625 C 40.640625 325.675781 40.800781 325.96875 40.9375 326.277344 C 40.960938 326.472656 40.972656 326.671875 40.972656 326.867188 L 46.492188 325.394531 Z M 42.757812 330.570312 " fill-opacity="1" fill-rule="nonzero"/><path fill="#18795b" d="M 38.804688 323.1875 L 46.011719 319.960938 L 44.121094 315.734375 L 42.675781 316.378906 L 43.914062 319.140625 L 41.875 320.050781 L 40.640625 317.292969 L 39.226562 317.925781 L 40.464844 320.6875 L 39.0625 321.3125 L 37.828125 318.550781 L 37.203125 318.828125 C 37.308594 319.210938 37.328125 319.570312 37.117188 319.886719 L 36.5625 319.59375 L 38.28125 323.425781 L 38.757812 323.210938 C 38.574219 323 38.390625 322.785156 38.21875 322.574219 C 38.355469 322.632812 38.570312 322.859375 38.804688 323.1875 Z M 38.804688 323.1875 " fill-opacity="1" fill-rule="nonzero"/><path fill="#18795b" d="M 94.542969 284.761719 C 91.765625 284.210938 89.390625 284.679688 87.371094 285.667969 C 87.5 285.929688 87.609375 286.199219 87.695312 286.476562 C 87.59375 286.292969 87.445312 286.011719 87.28125 285.710938 C 86.210938 286.257812 85.230469 286.933594 84.339844 287.742188 C 85.035156 288.808594 84.722656 288.890625 84.460938 288.996094 C 84.195312 289.097656 83.964844 289.222656 84.921875 290.464844 C 84.527344 291.191406 83.347656 290.070312 82.585938 289.558594 C 81.21875 291.207031 80.097656 293.011719 79.21875 294.964844 C 79.472656 295.386719 79.800781 295.742188 80.199219 296.03125 C 80.945312 296.609375 81.734375 297.007812 82.445312 299.523438 L 82.847656 298.070312 L 83.453125 300.074219 C 83.164062 300.832031 82.613281 300.367188 81.953125 299.660156 C 81.296875 298.953125 80.535156 298.003906 79.839844 297.78125 C 79.203125 297.144531 80.078125 299.058594 79.773438 298.882812 C 79.257812 297.9375 79.269531 297.59375 79.363281 297.367188 C 79.457031 297.136719 79.636719 297.023438 79.445312 296.527344 C 78.679688 295.246094 77.855469 293.976562 77.191406 293.207031 C 77.042969 293.03125 76.878906 292.863281 76.707031 292.710938 C 76.605469 292.730469 76.496094 292.648438 76.371094 292.5 C 76.132812 292.40625 75.964844 292.507812 75.898438 292.882812 C 75.03125 292.035156 75.386719 291.660156 74.722656 290.214844 C 75.191406 290.082031 75.859375 291.867188 76.371094 292.5 C 76.496094 292.550781 76.605469 292.625 76.707031 292.710938 C 76.757812 292.699219 76.800781 292.667969 76.828125 292.625 C 76.625 291.875 76.324219 291.679688 76.011719 291.222656 C 76.089844 291.066406 76.214844 290.976562 76.386719 290.945312 C 74.6875 288.546875 72.117188 285.917969 68.625 284.929688 C 69.4375 286.515625 69.890625 286.230469 70.4375 286.199219 C 71.035156 286.164062 71.757812 286.433594 73.203125 289.832031 C 72.46875 288.542969 72.265625 288.460938 72.050781 288.421875 C 71.835938 288.378906 71.613281 288.375 70.898438 287.21875 C 71.128906 288.25 71.933594 289.644531 71.664062 289.175781 C 71.199219 289.304688 70.683594 289.386719 70.152344 289.105469 C 69.625 288.820312 69.074219 288.171875 68.496094 286.851562 L 68.757812 288.675781 C 68.628906 288.253906 68.433594 287.863281 68.175781 287.503906 C 68.167969 287.488281 68.152344 287.476562 68.148438 287.460938 L 68.113281 287.320312 L 68.054688 287.082031 C 68.003906 286.894531 67.933594 286.644531 67.816406 286.261719 L 67.941406 286.546875 L 67.527344 285.246094 L 67.507812 285.203125 C 67.484375 285.140625 67.46875 285.082031 67.457031 285.019531 L 67.527344 285.246094 L 67.585938 285.378906 L 67.746094 285.734375 L 68.066406 286.449219 C 68.175781 285.386719 68.871094 287.035156 68.476562 284.894531 C 67.121094 284.53125 65.746094 284.4375 64.351562 284.605469 C 64.535156 285.132812 64.726562 285.632812 64.972656 285.988281 C 65.105469 286.007812 65.285156 286.152344 65.542969 286.496094 C 65.300781 286.386719 65.109375 286.21875 64.972656 285.988281 C 64.574219 285.933594 64.632812 287.007812 64.457031 287.234375 C 64.046875 286.003906 63.820312 285.300781 63.519531 284.734375 L 63.363281 284.761719 C 57.09375 286 49.015625 293.902344 60.984375 306.558594 C 74.859375 321.222656 78.953125 327.300781 78.953125 327.300781 C 78.953125 327.300781 83.046875 321.222656 96.921875 306.558594 C 108.890625 293.902344 100.8125 286 94.542969 284.761719 Z M 60.34375 304.359375 C 60.601562 304.039062 61.777344 304.609375 62.421875 304.476562 C 61.480469 305.195312 61.347656 304.683594 60.34375 304.359375 Z M 64.847656 289.007812 L 65.011719 287.664062 L 65.875 288.804688 Z M 66.785156 287.832031 C 66.441406 287.382812 65.839844 285.65625 66.417969 285.800781 L 67.304688 288.53125 Z M 75.601562 297.832031 L 76.660156 300.128906 C 76.675781 300.167969 76.695312 300.210938 76.714844 300.253906 L 76.660156 300.128906 C 76.386719 299.566406 76.277344 299.804688 76.003906 299.363281 C 75.976562 299.09375 75.511719 298.144531 75.601562 297.832031 Z M 75.050781 301.386719 C 74.976562 301.351562 74.90625 301.304688 74.847656 301.246094 C 74.917969 301.289062 74.988281 301.335938 75.050781 301.386719 Z M 73.121094 289.039062 C 72.800781 288.3125 72.515625 287.851562 72.460938 287.320312 C 72.914062 286.101562 72.785156 289.140625 73.328125 288.707031 Z M 74.214844 297.390625 L 73.390625 297.753906 L 72.9375 297.121094 L 71.921875 296.957031 C 71.203125 295.550781 73.398438 297.082031 74.214844 297.390625 Z M 71.640625 298.203125 L 71.097656 296.636719 L 71.832031 298.726562 L 70.824219 297.886719 Z M 69.757812 298.070312 C 69.613281 297.964844 69.464844 297.863281 69.332031 297.761719 C 69.480469 297.855469 69.625 297.957031 69.757812 298.070312 C 70.335938 298.492188 70.957031 298.980469 71.175781 299.605469 C 69.34375 299.3125 70.832031 298.996094 69.757812 298.074219 Z M 73.496094 317.425781 L 71.089844 315.871094 C 72.34375 316.121094 72.648438 316.859375 73.496094 317.425781 L 73.589844 317.488281 Z M 72.464844 314.46875 C 72.363281 314.664062 72.125 314.742188 71.5625 314.46875 L 72.464844 314.46875 C 72.738281 313.953125 72.105469 312.617188 73.972656 314.46875 Z M 77.285156 319.78125 L 76.539062 319.046875 L 75.800781 318.316406 L 78.109375 319.414062 L 76.539062 319.046875 Z M 77.96875 310.730469 C 77.71875 309.167969 77.742188 309.433594 78.320312 310.355469 C 78.042969 309.21875 77.636719 308.519531 77.289062 308.207031 C 76.9375 307.898438 76.644531 307.972656 76.558594 308.402344 L 76.882812 309.398438 C 76.035156 307.734375 76.089844 309.871094 75.09375 308.511719 C 75.566406 309.378906 76.054688 310.238281 76.546875 311.101562 L 76.300781 310.890625 C 75.679688 309.804688 75.074219 308.710938 74.492188 307.609375 C 73.730469 304.445312 74.339844 305.289062 75.058594 306.207031 C 75.777344 307.128906 76.605469 308.121094 76.058594 305.300781 C 75.777344 305.195312 75.496094 305.09375 75.226562 304.988281 C 74.851562 303.453125 75.40625 303.304688 75.433594 303.574219 C 75.984375 304.5 76.179688 305.328125 76.335938 305.929688 C 76.492188 306.53125 76.613281 306.902344 77.046875 306.925781 C 76.695312 305.675781 77.609375 306.238281 76.410156 303.855469 C 76.867188 304.136719 77.261719 305.042969 77.621094 306.132812 C 77.980469 307.21875 78.308594 308.484375 78.644531 309.476562 C 77.988281 309.378906 78.792969 311.582031 77.96875 310.730469 Z M 82.496094 312.78125 C 82.21875 313.125 81.460938 312.515625 81.441406 312.253906 C 81.746094 312.449219 81.636719 310.847656 82.496094 312.78125 Z M 80.238281 317.296875 C 82.625 317.308594 78.953125 313.652344 82.253906 314.910156 L 82.625 315.953125 C 81.335938 315.683594 81.523438 318.242188 80.238281 317.296875 Z M 82.492188 300.96875 C 82.320312 300.875 82.15625 300.769531 82 300.652344 C 82.175781 300.738281 82.339844 300.84375 82.492188 300.96875 C 82.554688 301 82.625 301.03125 82.675781 301.058594 C 82.675781 301.074219 82.671875 301.089844 82.664062 301.101562 C 83.183594 301.527344 83.582031 301.964844 82.636719 301.132812 C 82.648438 301.125 82.65625 301.113281 82.664062 301.101562 C 82.605469 301.054688 82.550781 301.007812 82.492188 300.96875 Z M 84.921875 306.285156 L 84.628906 306.070312 C 83.988281 305.757812 83.210938 305.449219 83.003906 304.863281 L 84.628906 306.070312 C 84.726562 306.117188 84.820312 306.167969 84.910156 306.21875 L 84.746094 305.09375 L 85.191406 306.394531 C 85.101562 306.328125 85.007812 306.269531 84.910156 306.21875 Z M 86.847656 312.421875 L 85.566406 311.476562 C 87.765625 312.332031 84.742188 309.128906 86.578125 310.308594 C 87.492188 311.546875 86.574219 311.640625 86.847656 312.417969 Z M 88.265625 297.757812 C 87.964844 297.875 87.546875 297.917969 87.765625 298.949219 C 86.640625 297.890625 86.3125 293.910156 88.0625 296.148438 C 88.753906 297.453125 88.570312 297.636719 88.261719 297.75 Z M 91.085938 297.3125 C 91.113281 297.324219 91.140625 297.339844 91.171875 297.363281 Z M 96.050781 305.449219 C 95.953125 305.210938 95.617188 304.972656 95.273438 304.648438 C 94.484375 304.519531 93.734375 304.265625 93.027344 303.890625 C 95.5625 304.449219 93.375 302.242188 94.730469 302.113281 C 95.738281 302.960938 96.292969 303.847656 96.75 304.476562 C 96.617188 304.585938 96.351562 304.671875 95.957031 304.6875 C 96.402344 305.070312 96.769531 305.421875 96.867188 305.78125 C 96.460938 305.617188 96.453125 306.144531 96.050781 305.441406 Z M 96.050781 305.449219 " fill-opacity="1" fill-rule="nonzero"/></svg>