<svg xmlns="http://www.w3.org/2000/svg" xmlns:xlink="http://www.w3.org/1999/xlink" width="500" zoomAndPan="magnify" viewBox="0 0 375 374.999991" height="500" preserveAspectRatio="xMidYMid meet" version="1.0"><defs><clipPath id="15498a39b6"><path d="M 33.578125 11 L 351.578125 11 L 351.578125 351.359375 L 33.578125 351.359375 Z M 33.578125 11 " clip-rule="nonzero"/></clipPath></defs><g clip-path="url(#15498a39b6)"><path fill="#70af0c" d="M 335.871094 88.5 C 346.660156 64.660156 332.941406 47.445312 351.578125 11.023438 C 314.394531 27.199219 293.863281 45.363281 283.078125 69.199219 C 278.820312 78.660156 277.210938 88.121094 277.210938 97.582031 C 281.46875 101.082031 285.253906 105.054688 288.945312 109.40625 C 293.484375 93.890625 299.917969 78 312.882812 62.769531 C 304.367188 78.375 297.175781 98.335938 293.296875 114.890625 C 295.851562 118.203125 298.6875 122.269531 301.433594 126.148438 C 303.609375 129.554688 305.691406 133.054688 307.582031 136.648438 C 308.246094 137.878906 308.90625 139.109375 309.476562 140.339844 C 309.949219 141.378906 310.421875 142.417969 310.894531 143.367188 C 319.316406 161.621094 323.667969 181.582031 323.667969 202.207031 C 323.667969 280.058594 260.277344 343.441406 182.40625 343.441406 C 104.539062 343.441406 41.148438 280.058594 41.148438 202.207031 C 41.148438 124.351562 104.539062 60.972656 182.40625 60.972656 C 208.332031 60.972656 233.308594 67.972656 255.070312 81.027344 C 255.355469 81.121094 255.542969 81.214844 255.828125 81.308594 C 260.9375 83.011719 265.761719 85.28125 270.304688 88.121094 C 270.492188 86.324219 270.777344 84.621094 271.0625 82.917969 C 245.515625 63.902344 214.671875 53.59375 182.40625 53.59375 C 162.347656 53.59375 142.859375 57.566406 124.503906 65.324219 C 106.808594 72.796875 90.914062 83.484375 77.195312 97.203125 C 63.570312 110.824219 52.785156 126.714844 45.3125 144.5 C 37.550781 162.851562 33.578125 182.339844 33.578125 202.394531 C 33.578125 222.449219 37.550781 241.9375 45.3125 260.289062 C 52.785156 277.976562 63.476562 293.871094 77.195312 307.585938 C 90.820312 321.210938 106.714844 331.992188 124.503906 339.464844 C 142.859375 347.222656 162.347656 351.195312 182.40625 351.195312 C 202.464844 351.195312 221.957031 347.222656 240.3125 339.464844 C 258.003906 331.992188 273.898438 321.304688 287.617188 307.585938 C 301.242188 293.964844 312.03125 278.074219 319.503906 260.289062 C 327.261719 241.9375 331.238281 222.449219 331.238281 202.394531 C 331.238281 185.839844 328.492188 169.570312 323.195312 154.054688 C 320.640625 146.488281 317.421875 139.203125 313.636719 132.109375 C 312.40625 129.933594 311.179688 127.664062 309.855469 125.582031 C 320.734375 115.554688 329.4375 102.6875 335.871094 88.5 Z M 335.871094 88.5 " fill-opacity="1" fill-rule="nonzero"/></g><path fill="#70af0c" d="M 253.464844 88.308594 C 228.675781 79.984375 201.425781 82.632812 164.242188 98.714844 C 203.601562 109.878906 206.914062 131.730469 231.605469 140.054688 C 254.125 147.621094 277.402344 147.054688 298.3125 139.867188 C 286.292969 128.417969 254.789062 112.433594 228.390625 105.621094 C 259.046875 107.039062 280.429688 120.566406 300.960938 132.015625 C 288.753906 113.660156 276.078125 95.878906 253.464844 88.308594 Z M 253.464844 88.308594 " fill-opacity="1" fill-rule="nonzero"/></svg>