<svg xmlns="http://www.w3.org/2000/svg" xmlns:xlink="http://www.w3.org/1999/xlink" width="500" zoomAndPan="magnify" viewBox="0 0 375 374.999991" height="500" preserveAspectRatio="xMidYMid meet" version="1.0"><defs><clipPath id="13e910cdc6"><path d="M 29.609375 25.332031 L 345.359375 25.332031 L 345.359375 341.082031 L 29.609375 341.082031 Z M 29.609375 25.332031 " clip-rule="nonzero"/></clipPath></defs><g clip-path="url(#13e910cdc6)"><path fill="#18795b" d="M 238.34375 225.023438 L 307.648438 225.023438 C 309.289062 225.023438 310.796875 224.128906 311.578125 222.6875 C 312.363281 221.246094 312.292969 219.492188 311.402344 218.117188 L 287.886719 181.800781 C 287.0625 180.527344 285.648438 179.761719 284.132812 179.761719 L 238.34375 179.761719 C 235.871094 179.761719 233.871094 181.761719 233.871094 184.234375 L 233.871094 220.550781 C 233.871094 223.019531 235.871094 225.023438 238.34375 225.023438 Z M 242.820312 188.707031 L 281.699219 188.707031 L 299.417969 216.074219 L 242.820312 216.074219 Z M 335.578125 288.230469 L 335.578125 224.699219 C 335.578125 221.015625 334.605469 217.722656 332.605469 214.632812 L 303.316406 169.40625 C 299.839844 164.03125 294.171875 160.949219 287.769531 160.949219 L 224.121094 160.949219 L 224.121094 114.027344 C 224.121094 111.558594 222.117188 109.554688 219.648438 109.554688 L 163.125 109.554688 C 163.476562 106.980469 163.664062 104.363281 163.664062 101.707031 L 163.664062 47.054688 C 163.664062 44.722656 161.871094 42.78125 159.546875 42.59375 C 141.910156 41.191406 126.980469 32.886719 117.5625 26.164062 C 116.804688 25.621094 115.894531 25.332031 114.964844 25.332031 L 78.3125 25.332031 C 77.378906 25.332031 76.472656 25.621094 75.714844 26.164062 C 66.292969 32.886719 51.363281 41.191406 33.730469 42.59375 C 31.40625 42.78125 29.609375 44.722656 29.609375 47.054688 L 29.609375 101.707031 C 29.609375 111.769531 32.25 121.296875 36.636719 130.019531 L 36.636719 288.996094 C 32.511719 290.746094 29.609375 294.835938 29.609375 299.589844 L 29.609375 310.425781 C 29.609375 316.765625 34.769531 321.925781 41.109375 321.925781 L 72.945312 321.925781 C 79.019531 333.324219 91.027344 341.105469 104.820312 341.105469 C 118.613281 341.105469 130.617188 333.324219 136.695312 321.925781 L 235.523438 321.925781 C 241.597656 333.324219 253.601562 341.105469 267.394531 341.105469 C 281.1875 341.105469 293.195312 333.324219 299.269531 321.925781 L 333.886719 321.925781 C 340.226562 321.925781 345.382812 316.765625 345.382812 310.425781 L 345.382812 299.589844 C 345.382812 293.828125 341.117188 289.054688 335.578125 288.230469 Z M 326.628906 272.535156 L 326.023438 272.535156 C 323.054688 272.535156 320.640625 270.121094 320.640625 267.15625 C 320.640625 264.1875 323.054688 261.773438 326.023438 261.773438 L 326.628906 261.773438 Z M 287.765625 169.898438 C 291.175781 169.898438 293.953125 171.410156 295.804688 174.269531 L 325.089844 219.496094 C 326.15625 221.140625 326.628906 222.746094 326.628906 224.703125 L 326.628906 252.824219 L 326.023438 252.824219 C 318.121094 252.824219 311.691406 259.253906 311.691406 267.15625 C 311.691406 275.058594 318.121094 281.488281 326.023438 281.488281 L 326.628906 281.488281 L 326.628906 288.089844 L 299.269531 288.089844 C 293.195312 276.691406 281.1875 268.910156 267.394531 268.910156 C 253.601562 268.910156 241.59375 276.691406 235.519531 288.089844 L 224.121094 288.089844 L 224.121094 169.898438 Z M 104.820312 268.910156 C 91.023438 268.910156 79.019531 276.691406 72.945312 288.089844 L 45.585938 288.089844 L 45.585938 260.503906 L 215.171875 260.503906 L 215.171875 288.089844 L 136.695312 288.089844 C 130.621094 276.691406 118.613281 268.910156 104.820312 268.910156 Z M 38.558594 51.074219 C 52.417969 49.199219 66.542969 43.445312 79.730469 34.28125 L 113.546875 34.28125 C 126.734375 43.445312 140.859375 49.199219 154.714844 51.074219 L 154.714844 101.707031 C 154.714844 134.578125 120.792969 162.082031 96.636719 169.125 C 72.484375 162.082031 38.558594 134.578125 38.558594 101.707031 Z M 95.480469 178.09375 C 95.859375 178.195312 96.25 178.246094 96.636719 178.246094 C 97.027344 178.246094 97.417969 178.195312 97.796875 178.09375 C 121.238281 171.8125 152.339844 148.769531 161.207031 118.503906 L 215.171875 118.503906 L 215.171875 251.554688 L 45.585938 251.554688 L 45.585938 143.96875 C 59.242188 161.292969 79.207031 173.734375 95.480469 178.09375 Z M 41.109375 312.976562 C 39.703125 312.976562 38.558594 311.832031 38.558594 310.425781 L 38.558594 299.589844 C 38.558594 298.183594 39.703125 297.039062 41.109375 297.039062 L 69.621094 297.039062 C 69.039062 299.605469 68.722656 302.269531 68.722656 305.007812 C 68.722656 307.746094 69.039062 310.410156 69.621094 312.976562 Z M 104.820312 332.15625 C 89.851562 332.15625 77.671875 319.976562 77.671875 305.007812 C 77.671875 290.039062 89.851562 277.859375 104.820312 277.859375 C 119.789062 277.859375 131.964844 290.039062 131.964844 305.007812 C 131.964844 319.976562 119.789062 332.15625 104.820312 332.15625 Z M 140.019531 312.976562 C 140.597656 310.410156 140.917969 307.746094 140.917969 305.007812 C 140.917969 302.269531 140.601562 299.605469 140.019531 297.039062 L 232.195312 297.039062 C 231.617188 299.605469 231.300781 302.269531 231.300781 305.007812 C 231.300781 307.746094 231.617188 310.410156 232.195312 312.976562 Z M 267.394531 332.15625 C 252.425781 332.15625 240.25 319.976562 240.25 305.007812 C 240.25 290.039062 252.425781 277.859375 267.394531 277.859375 C 282.367188 277.859375 294.542969 290.039062 294.542969 305.007812 C 294.542969 319.976562 282.367188 332.15625 267.394531 332.15625 Z M 336.4375 310.425781 C 336.4375 311.832031 335.292969 312.976562 333.886719 312.976562 L 302.59375 312.976562 C 303.175781 310.410156 303.492188 307.746094 303.492188 305.007812 C 303.492188 302.269531 303.175781 299.605469 302.59375 297.039062 L 333.882812 297.039062 C 335.289062 297.039062 336.433594 298.183594 336.433594 299.589844 L 336.433594 310.425781 Z M 267.394531 289.808594 C 259.015625 289.808594 252.195312 296.625 252.195312 305.007812 C 252.195312 313.386719 259.015625 320.207031 267.394531 320.207031 C 275.777344 320.207031 282.597656 313.386719 282.597656 305.007812 C 282.59375 296.625 275.777344 289.808594 267.394531 289.808594 Z M 267.394531 311.257812 C 263.949219 311.257812 261.144531 308.453125 261.144531 305.007812 C 261.144531 301.5625 263.949219 298.757812 267.394531 298.757812 C 270.84375 298.757812 273.648438 301.5625 273.648438 305.007812 C 273.648438 308.453125 270.84375 311.257812 267.394531 311.257812 Z M 104.820312 289.808594 C 96.4375 289.808594 89.617188 296.625 89.617188 305.007812 C 89.617188 313.386719 96.4375 320.207031 104.820312 320.207031 C 113.199219 320.207031 120.019531 313.386719 120.019531 305.007812 C 120.019531 296.625 113.199219 289.808594 104.820312 289.808594 Z M 104.820312 311.257812 C 101.371094 311.257812 98.566406 308.453125 98.566406 305.007812 C 98.566406 301.5625 101.371094 298.757812 104.820312 298.757812 C 108.265625 298.757812 111.070312 301.5625 111.070312 305.007812 C 111.070312 308.453125 108.265625 311.257812 104.820312 311.257812 Z M 257.589844 237.859375 C 257.589844 240.332031 255.585938 242.335938 253.117188 242.335938 L 238.34375 242.335938 C 235.871094 242.335938 233.871094 240.332031 233.871094 237.859375 C 233.871094 235.390625 235.871094 233.386719 238.34375 233.386719 L 253.117188 233.386719 C 255.585938 233.386719 257.589844 235.390625 257.589844 237.859375 Z M 60.183594 133.488281 L 70.316406 133.464844 C 72.585938 133.457031 74.710938 132.574219 76.304688 130.972656 C 76.332031 130.945312 76.355469 130.914062 76.382812 130.886719 C 78.171875 132.800781 80.722656 133.964844 83.425781 133.964844 L 120.21875 133.871094 C 120.246094 133.871094 120.277344 133.871094 120.304688 133.871094 C 126.34375 133.738281 131.277344 128.753906 131.308594 122.753906 C 131.316406 121.457031 131.085938 119.917969 130.335938 118.320312 C 133.542969 116.171875 135.070312 112.792969 135.085938 109.558594 C 135.09375 107.964844 134.757812 106.496094 134.175781 105.175781 C 137.457031 103.03125 139.015625 99.625 139.03125 96.367188 C 139.042969 94.527344 138.679688 92.835938 137.988281 91.351562 C 138.050781 91.300781 138.109375 91.246094 138.167969 91.191406 C 140.414062 89.140625 141.710938 86.21875 141.726562 83.179688 C 141.757812 76.816406 137.933594 72.679688 131.5 72.117188 C 131.367188 72.105469 131.242188 72.089844 131.101562 72.097656 L 109.425781 72.128906 C 108.589844 72.125 107.855469 72.121094 107.214844 72.117188 C 106.691406 72.117188 106.191406 72.117188 105.742188 72.113281 L 110.050781 53.839844 C 110.886719 50.394531 110.328125 46.824219 108.476562 43.785156 C 106.625 40.746094 103.710938 38.609375 100.265625 37.773438 C 96.824219 36.9375 93.253906 37.496094 90.214844 39.347656 C 87.175781 41.199219 85.039062 44.117188 84.203125 47.558594 L 79.753906 65.875 C 79.488281 66.691406 77.796875 69.046875 76.566406 70.765625 C 75.410156 72.378906 74.183594 74.089844 73.074219 75.84375 C 72.164062 75.507812 71.179688 75.316406 70.152344 75.316406 C 70.148438 75.316406 70.140625 75.316406 70.132812 75.316406 L 60 75.339844 C 57.730469 75.34375 55.601562 76.230469 54.007812 77.832031 C 52.417969 79.433594 51.546875 81.566406 51.550781 83.835938 L 51.695312 125.050781 C 51.710938 129.707031 55.507812 133.488281 60.164062 133.488281 C 60.171875 133.488281 60.175781 133.488281 60.183594 133.488281 Z M 83.839844 75.980469 C 86.09375 72.832031 87.875 70.347656 88.4375 68.039062 L 92.898438 49.671875 C 93.171875 48.550781 93.871094 47.601562 94.867188 46.992188 C 95.867188 46.382812 97.035156 46.199219 98.152344 46.472656 C 99.273438 46.742188 100.226562 47.445312 100.832031 48.441406 C 101.441406 49.441406 101.625 50.605469 101.347656 51.753906 L 96.621094 71.789062 C 95.972656 74.546875 96.839844 77.324219 98.949219 79.222656 C 100.976562 81.046875 102.667969 81.050781 107.183594 81.066406 C 107.816406 81.070312 108.539062 81.074219 109.402344 81.078125 L 130.902344 81.050781 C 132.71875 81.230469 132.785156 81.597656 132.777344 83.136719 C 132.773438 83.695312 132.542969 84.210938 132.128906 84.589844 C 131.542969 85.125 130.636719 85.355469 129.507812 85.261719 C 127.152344 85.050781 125.054688 86.726562 124.707031 89.058594 C 124.359375 91.394531 125.886719 93.597656 128.195312 94.09375 C 129.800781 94.4375 130.089844 95.113281 130.082031 96.320312 C 130.074219 97.882812 127.816406 98.433594 125.867188 98.433594 C 125.851562 98.433594 125.832031 98.433594 125.8125 98.433594 C 123.679688 98.433594 121.839844 99.941406 121.425781 102.039062 C 121.007812 104.136719 122.136719 106.238281 124.117188 107.050781 C 124.546875 107.226562 126.144531 108.15625 126.140625 109.515625 C 126.132812 111.078125 123.914062 111.628906 122.003906 111.628906 C 121.988281 111.628906 121.96875 111.628906 121.953125 111.628906 C 119.917969 111.628906 118.136719 113.003906 117.621094 114.972656 C 117.105469 116.949219 117.992188 119.023438 119.777344 120.015625 C 121.496094 120.96875 122.367188 121.878906 122.359375 122.710938 C 122.355469 123.851562 121.320312 124.878906 120.140625 124.921875 L 83.417969 125.019531 C 83.09375 125.019531 82.875 124.785156 82.816406 124.636719 C 82.039062 122.738281 80.554688 121.304688 78.746094 120.566406 L 78.625 84.476562 C 79.535156 81.984375 81.90625 78.675781 83.839844 75.980469 Z M 69.671875 84.265625 L 69.8125 124.515625 L 60.640625 124.539062 L 60.503906 84.285156 Z M 69.671875 84.265625 " fill-opacity="1" fill-rule="nonzero"/></g></svg>