<svg xmlns="http://www.w3.org/2000/svg" xmlns:xlink="http://www.w3.org/1999/xlink" width="500" zoomAndPan="magnify" viewBox="0 0 375 374.999991" height="500" preserveAspectRatio="xMidYMid meet" version="1.0"><defs><clipPath id="3467f9b3d6"><path d="M 238 43.550781 L 306 43.550781 L 306 157 L 238 157 Z M 238 43.550781 " clip-rule="nonzero"/></clipPath><clipPath id="c2f4b4b999"><path d="M 69 43.550781 L 137 43.550781 L 137 157 L 69 157 Z M 69 43.550781 " clip-rule="nonzero"/></clipPath><clipPath id="5289804558"><path d="M 213 280 L 245 280 L 245 331.550781 L 213 331.550781 Z M 213 280 " clip-rule="nonzero"/></clipPath><clipPath id="f7dd3b3387"><path d="M 130 280 L 162 280 L 162 331.550781 L 130 331.550781 Z M 130 280 " clip-rule="nonzero"/></clipPath><clipPath id="11ddbf3f1d"><path d="M 269 120 L 346.75 120 L 346.75 331.550781 L 269 331.550781 Z M 269 120 " clip-rule="nonzero"/></clipPath><clipPath id="9ee7411ab0"><path d="M 28 120 L 106 120 L 106 331.550781 L 28 331.550781 Z M 28 120 " clip-rule="nonzero"/></clipPath></defs><path fill="#70af0c" d="M 136.089844 146.371094 C 115.625 146.371094 105.242188 160.207031 105.242188 187.5 C 105.242188 231.78125 173.824219 271.804688 187.5 279.335938 C 201.175781 271.804688 269.753906 231.78125 269.753906 187.5 C 269.753906 160.207031 259.371094 146.371094 238.910156 146.371094 C 210.695312 146.371094 192.179688 179.367188 191.996094 179.6875 C 190.191406 182.980469 184.808594 182.980469 183 179.6875 C 182.820312 179.367188 164.304688 146.371094 136.089844 146.371094 Z M 187.5 290.320312 C 186.695312 290.320312 185.894531 290.117188 185.148438 289.757812 C 181.476562 287.847656 94.960938 242.703125 94.960938 187.5 C 94.960938 154.34375 109.5625 136.089844 136.089844 136.089844 C 161.59375 136.089844 179.585938 156.535156 187.5 167.699219 C 195.410156 156.535156 213.40625 136.089844 238.910156 136.089844 C 265.4375 136.089844 280.035156 154.34375 280.035156 187.5 C 280.035156 242.703125 193.523438 287.847656 189.847656 289.757812 C 189.105469 290.117188 188.300781 290.320312 187.5 290.320312 " fill-opacity="1" fill-rule="nonzero"/><path fill="#70af0c" d="M 198.203125 146.371094 C 195.972656 146.371094 193.90625 144.90625 193.242188 142.65625 C 192.257812 139.203125 190.613281 135.609375 188.886719 131.792969 C 185.671875 124.703125 182.359375 117.394531 182.359375 109.523438 C 182.359375 97.550781 188.402344 89.820312 197.78125 89.820312 C 204.066406 89.820312 208.523438 96.207031 211.316406 101.007812 C 212.742188 103.457031 211.917969 106.609375 209.46875 108.035156 C 207.019531 109.460938 203.867188 108.636719 202.441406 106.1875 C 199.265625 100.746094 197.5 100.0625 197.480469 100.0625 C 193.304688 100.101562 192.640625 106.007812 192.640625 109.523438 C 192.640625 115.164062 195.371094 121.167969 198.261719 127.535156 C 200.070312 131.53125 201.917969 135.648438 203.125 139.804688 C 203.925781 142.535156 202.359375 145.367188 199.628906 146.171875 C 199.148438 146.3125 198.664062 146.371094 198.203125 146.371094 " fill-opacity="1" fill-rule="nonzero"/><path fill="#70af0c" d="M 176.816406 146.371094 C 176.332031 146.371094 175.851562 146.3125 175.371094 146.171875 C 172.640625 145.367188 171.074219 142.535156 171.875 139.804688 C 173.082031 135.648438 174.949219 131.53125 176.734375 127.535156 C 179.628906 121.167969 182.359375 115.164062 182.359375 109.523438 C 182.359375 106.007812 181.695312 100.125 177.238281 100.101562 C 177.359375 100.144531 175.589844 100.988281 172.558594 106.1875 C 171.132812 108.636719 167.980469 109.460938 165.53125 108.035156 C 163.078125 106.609375 162.257812 103.457031 163.683594 101.007812 C 166.472656 96.207031 170.933594 89.820312 177.21875 89.820312 C 186.59375 89.820312 192.640625 97.550781 192.640625 109.523438 C 192.640625 117.394531 189.328125 124.703125 186.113281 131.792969 C 184.386719 135.609375 182.738281 139.203125 181.734375 142.65625 C 181.09375 144.90625 179.042969 146.371094 176.816406 146.371094 " fill-opacity="1" fill-rule="nonzero"/><path fill="#70af0c" d="M 217.921875 133.941406 C 215.59375 133.941406 213.464844 132.335938 212.921875 129.945312 C 211.597656 124.222656 207.960938 116.933594 204.367188 109.964844 C 203.707031 108.617188 203.042969 107.332031 202.359375 106.046875 C 196.476562 94.722656 192.640625 86.890625 192.640625 80.824219 C 192.640625 67.75 198.84375 58.976562 208.0625 58.976562 C 211.796875 58.976562 215.675781 61.765625 221.980469 67.25 C 224.109375 69.117188 224.371094 72.410156 222.503906 74.539062 C 220.632812 76.6875 217.441406 76.929688 215.292969 75.0625 L 215.210938 75 C 213.765625 73.734375 209.507812 70.039062 207.722656 69.277344 C 204.246094 69.679688 202.921875 76.488281 202.921875 80.824219 C 202.921875 84.839844 207.84375 94.320312 211.4375 101.226562 C 212.140625 102.554688 212.84375 103.917969 213.546875 105.304688 C 217.402344 112.792969 221.359375 120.746094 222.945312 127.636719 C 223.585938 130.40625 221.859375 133.15625 219.089844 133.800781 C 218.707031 133.882812 218.304688 133.941406 217.921875 133.941406 " fill-opacity="1" fill-rule="nonzero"/><path fill="#70af0c" d="M 156.332031 71.207031 L 156.390625 71.207031 Z M 157.074219 133.941406 C 156.695312 133.941406 156.292969 133.882812 155.910156 133.800781 C 153.140625 133.15625 151.414062 130.40625 152.054688 127.636719 C 153.640625 120.746094 157.597656 112.792969 161.492188 105.242188 C 162.15625 103.917969 162.839844 102.554688 163.601562 101.167969 C 167.15625 94.320312 172.078125 84.839844 172.078125 80.824219 C 172.078125 76.488281 170.769531 69.679688 167.277344 69.277344 C 165.488281 70.039062 161.230469 73.734375 159.785156 75 L 153.019531 67.25 C 159.324219 61.765625 163.199219 58.976562 166.933594 58.976562 C 176.152344 58.976562 182.359375 67.75 182.359375 80.824219 C 182.359375 86.890625 178.523438 94.722656 172.679688 105.96875 C 171.957031 107.332031 171.292969 108.617188 170.652344 109.902344 C 167.035156 116.933594 163.402344 124.222656 162.074219 129.945312 C 161.535156 132.335938 159.40625 133.941406 157.074219 133.941406 " fill-opacity="1" fill-rule="nonzero"/><g clip-path="url(#3467f9b3d6)"><path fill="#70af0c" d="M 285.179688 156.652344 C 283.007812 156.652344 280.980469 155.269531 280.277344 153.097656 C 273.25 131.289062 261.621094 112.492188 252.261719 97.390625 C 244.230469 84.378906 238.910156 75.785156 238.910156 69.257812 C 238.910156 48.972656 248.609375 43.550781 254.332031 43.550781 C 267.667969 43.550781 290.578125 82.289062 305.359375 118.738281 C 306.445312 121.371094 305.160156 124.363281 302.527344 125.425781 C 299.898438 126.492188 296.90625 125.226562 295.839844 122.59375 C 277.183594 76.605469 258.609375 55.039062 253.992188 53.792969 C 253.308594 53.976562 249.191406 56.988281 249.191406 69.257812 C 249.191406 72.871094 255.195312 82.589844 261.019531 91.96875 C 270.15625 106.730469 282.667969 126.953125 290.078125 149.925781 C 290.941406 152.636719 289.457031 155.527344 286.746094 156.414062 C 286.242188 156.574219 285.699219 156.652344 285.179688 156.652344 " fill-opacity="1" fill-rule="nonzero"/></g><g clip-path="url(#c2f4b4b999)"><path fill="#70af0c" d="M 89.820312 156.652344 C 89.296875 156.652344 88.757812 156.574219 88.234375 156.414062 C 85.542969 155.527344 84.058594 152.636719 84.921875 149.925781 C 92.351562 126.953125 104.84375 106.730469 113.980469 91.96875 C 119.804688 82.589844 125.808594 72.871094 125.808594 69.257812 C 125.808594 56.988281 121.691406 53.976562 120.585938 53.835938 C 116.390625 55.039062 97.8125 76.605469 79.15625 122.59375 C 78.09375 125.226562 75.101562 126.492188 72.46875 125.425781 C 69.839844 124.363281 68.574219 121.371094 69.636719 118.738281 C 84.417969 82.289062 107.332031 43.550781 120.667969 43.550781 C 126.390625 43.550781 136.089844 48.972656 136.089844 69.257812 C 136.089844 75.785156 130.769531 84.378906 122.714844 97.390625 C 113.378906 112.492188 101.75 131.289062 94.722656 153.097656 C 94.019531 155.269531 91.988281 156.652344 89.820312 156.652344 " fill-opacity="1" fill-rule="nonzero"/></g><g clip-path="url(#5289804558)"><path fill="#70af0c" d="M 238.910156 331.445312 C 236.078125 331.445312 233.769531 329.136719 233.769531 326.304688 C 233.769531 322.730469 228.527344 313.996094 224.328125 306.988281 C 220.414062 300.441406 216.335938 293.671875 213.605469 287.167969 C 212.5 284.554688 213.726562 281.542969 216.335938 280.4375 C 218.96875 279.335938 221.980469 280.558594 223.085938 283.191406 C 225.535156 288.992188 229.410156 295.460938 233.144531 301.707031 C 239.007812 311.464844 244.050781 319.878906 244.050781 326.304688 C 244.050781 329.136719 241.742188 331.445312 238.910156 331.445312 " fill-opacity="1" fill-rule="nonzero"/></g><g clip-path="url(#f7dd3b3387)"><path fill="#70af0c" d="M 136.089844 331.445312 C 133.257812 331.445312 130.949219 329.136719 130.949219 326.304688 C 130.949219 319.878906 135.988281 311.464844 141.851562 301.707031 C 145.589844 295.460938 149.464844 288.992188 151.914062 283.191406 C 153.019531 280.558594 156.03125 279.335938 158.640625 280.4375 C 161.273438 281.542969 162.496094 284.554688 161.394531 287.167969 C 158.660156 293.671875 154.585938 300.441406 150.667969 306.988281 C 146.472656 313.996094 141.230469 322.730469 141.230469 326.304688 C 141.230469 329.136719 138.921875 331.445312 136.089844 331.445312 " fill-opacity="1" fill-rule="nonzero"/></g><g clip-path="url(#11ddbf3f1d)"><path fill="#70af0c" d="M 326.304688 331.445312 C 323.976562 331.445312 321.867188 329.859375 321.304688 327.511719 C 321.085938 326.605469 316.023438 305.378906 316.023438 295.460938 C 316.023438 291.382812 318.253906 285.601562 321.625 276.84375 C 327.589844 261.382812 336.585938 238.046875 336.585938 213.203125 C 336.585938 203.285156 333.976562 194.148438 331.886719 186.816406 C 330.28125 181.175781 328.875 176.292969 328.875 172.078125 L 328.894531 169.847656 C 329.035156 141.128906 326.707031 133.179688 325.320312 130.988281 C 315.945312 131.8125 310.882812 144.605469 310.882812 156.652344 C 310.882812 161.792969 310.460938 202.984375 310.460938 202.984375 C 310.441406 204.007812 310.121094 205.011719 309.539062 205.875 C 301.324219 217.644531 280.035156 251.199219 280.035156 264.613281 C 280.035156 267.445312 277.726562 269.753906 274.894531 269.753906 C 272.0625 269.753906 269.753906 267.445312 269.753906 264.613281 C 269.753906 246.78125 294.414062 209.75 300.179688 201.296875 C 300.257812 193.726562 300.601562 161.191406 300.601562 156.652344 C 300.601562 138.78125 309.4375 120.667969 326.304688 120.667969 C 327.851562 120.667969 330.121094 121.109375 332.230469 123.238281 C 337.308594 128.339844 339.320312 141.875 339.179688 169.90625 L 339.15625 172.078125 C 339.15625 174.847656 340.363281 179.085938 341.769531 183.984375 C 344.039062 191.9375 346.871094 201.839844 346.871094 213.203125 C 346.871094 239.972656 337.449219 264.394531 331.226562 280.539062 C 328.796875 286.804688 326.304688 293.292969 326.304688 295.460938 C 326.304688 302.691406 329.921875 319.316406 331.304688 325.101562 C 331.96875 327.871094 330.261719 330.644531 327.511719 331.304688 C 327.109375 331.40625 326.707031 331.445312 326.304688 331.445312 " fill-opacity="1" fill-rule="nonzero"/></g><g clip-path="url(#9ee7411ab0)"><path fill="#70af0c" d="M 48.691406 331.445312 C 48.292969 331.445312 47.890625 331.40625 47.488281 331.304688 C 44.738281 330.644531 43.03125 327.871094 43.691406 325.101562 C 45.078125 319.316406 48.691406 302.691406 48.691406 295.460938 C 48.691406 293.292969 46.183594 286.804688 43.773438 280.539062 C 37.546875 264.394531 28.128906 239.972656 28.128906 213.203125 C 28.128906 201.839844 30.960938 191.9375 33.230469 183.984375 C 34.636719 179.085938 35.839844 174.847656 35.839844 172.078125 L 35.839844 169.90625 C 35.679688 141.875 37.6875 128.339844 42.769531 123.238281 C 44.878906 121.109375 47.148438 120.667969 48.691406 120.667969 C 65.5625 120.667969 74.398438 138.78125 74.398438 156.652344 C 74.398438 161.191406 74.71875 193.726562 74.800781 201.296875 C 80.582031 209.75 105.242188 246.78125 105.242188 264.613281 C 105.242188 267.445312 102.933594 269.753906 100.101562 269.753906 C 97.269531 269.753906 94.960938 267.445312 94.960938 264.613281 C 94.960938 251.179688 73.675781 217.644531 65.460938 205.875 C 64.878906 205.011719 64.558594 204.007812 64.539062 202.984375 C 64.539062 202.984375 64.117188 161.792969 64.117188 156.652344 C 64.117188 144.605469 59.054688 131.8125 49.675781 130.988281 C 48.3125 133.179688 45.960938 141.128906 46.121094 169.847656 L 46.121094 172.078125 C 46.121094 176.292969 44.738281 181.175781 43.109375 186.816406 C 41.023438 194.148438 38.410156 203.285156 38.410156 213.203125 C 38.410156 238.046875 47.40625 261.382812 53.371094 276.84375 C 56.746094 285.601562 58.976562 291.382812 58.976562 295.460938 C 58.976562 305.378906 53.914062 326.605469 53.695312 327.511719 C 53.132812 329.859375 51.023438 331.445312 48.691406 331.445312 " fill-opacity="1" fill-rule="nonzero"/></g><path fill="#70af0c" d="M 244.128906 130.949219 C 242.042969 130.949219 240.074219 129.683594 239.3125 127.617188 C 235.777344 118.195312 230.03125 107.152344 224.972656 97.433594 C 217.460938 82.972656 213.203125 74.539062 213.203125 69.257812 C 213.203125 57.347656 219.691406 48.695312 228.628906 48.695312 C 238.726562 48.695312 246.960938 61.40625 248.507812 63.957031 C 249.996094 66.386719 249.210938 69.539062 246.800781 71.023438 C 244.371094 72.511719 241.21875 71.726562 239.734375 69.316406 C 236.742188 64.417969 231.4375 58.976562 228.628906 58.976562 C 225.414062 58.976562 223.484375 64.195312 223.484375 69.257812 C 223.484375 72.289062 229.371094 83.597656 234.109375 92.671875 C 239.289062 102.671875 245.195312 114 248.929688 124 C 249.933594 126.671875 248.589844 129.625 245.917969 130.628906 C 245.316406 130.847656 244.734375 130.949219 244.128906 130.949219 " fill-opacity="1" fill-rule="nonzero"/><path fill="#70af0c" d="M 130.867188 130.949219 C 130.285156 130.949219 129.664062 130.847656 129.082031 130.628906 C 126.410156 129.625 125.066406 126.671875 126.070312 124 C 129.804688 114 135.707031 102.671875 140.910156 92.671875 C 145.628906 83.597656 151.511719 72.289062 151.511719 69.257812 C 151.511719 64.195312 149.585938 58.976562 146.371094 58.976562 C 143.277344 58.976562 137.835938 65.082031 135.265625 69.316406 C 133.800781 71.726562 130.648438 72.511719 128.21875 71.023438 C 125.789062 69.558594 125.003906 66.386719 126.492188 63.957031 C 128.035156 61.40625 136.269531 48.695312 146.371094 48.695312 C 155.308594 48.695312 161.792969 57.347656 161.792969 69.257812 C 161.792969 74.539062 157.539062 82.972656 150.027344 97.433594 C 144.964844 107.152344 139.222656 118.195312 135.6875 127.617188 C 134.925781 129.683594 132.957031 130.949219 130.867188 130.949219 " fill-opacity="1" fill-rule="nonzero"/></svg>