<svg xmlns="http://www.w3.org/2000/svg" xmlns:xlink="http://www.w3.org/1999/xlink" width="500" zoomAndPan="magnify" viewBox="0 0 375 374.999991" height="500" preserveAspectRatio="xMidYMid meet" version="1.0"><defs><clipPath id="25475c4f1b"><path d="M 37.5 63 L 346 63 L 346 295 L 37.5 295 Z M 37.5 63 " clip-rule="nonzero"/></clipPath><clipPath id="897dd69d78"><path d="M 37.5 255 L 346 255 L 346 269 L 37.5 269 Z M 37.5 255 " clip-rule="nonzero"/></clipPath></defs><g clip-path="url(#25475c4f1b)"><path fill="#18795b" d="M 332.875 281.628906 L 50.75 281.628906 L 50.75 76.449219 L 215.289062 76.449219 C 218.828125 76.449219 221.703125 73.574219 221.703125 70.035156 C 221.703125 66.496094 218.828125 63.625 215.289062 63.625 L 44.339844 63.625 C 40.800781 63.625 37.925781 66.496094 37.925781 70.035156 L 37.925781 288.039062 C 37.925781 291.578125 40.800781 294.453125 44.339844 294.453125 L 339.285156 294.453125 C 342.824219 294.453125 345.699219 291.578125 345.699219 288.039062 L 345.699219 70.035156 C 345.699219 66.496094 342.824219 63.625 339.285156 63.625 C 335.746094 63.625 332.875 66.496094 332.875 70.035156 Z M 332.875 281.628906 " fill-opacity="1" fill-rule="nonzero"/></g><g clip-path="url(#897dd69d78)"><path fill="#18795b" d="M 44.339844 268.804688 L 339.285156 268.804688 C 342.824219 268.804688 345.699219 265.933594 345.699219 262.390625 C 345.699219 258.851562 342.824219 255.980469 339.285156 255.980469 L 44.339844 255.980469 C 40.800781 255.980469 37.925781 258.851562 37.925781 262.390625 C 37.925781 265.933594 40.800781 268.804688 44.339844 268.804688 Z M 44.339844 268.804688 " fill-opacity="1" fill-rule="nonzero"/></g><path fill="#18795b" d="M 134.105469 332.921875 L 249.519531 332.921875 C 253.058594 332.921875 255.929688 330.050781 255.929688 326.511719 C 255.929688 322.972656 253.058594 320.097656 249.519531 320.097656 L 134.105469 320.097656 C 130.566406 320.097656 127.695312 322.972656 127.695312 326.511719 C 127.695312 330.050781 130.566406 332.921875 134.105469 332.921875 Z M 134.105469 332.921875 " fill-opacity="1" fill-rule="nonzero"/><path fill="#18795b" d="M 153.007812 328.546875 L 165.832031 290.078125 C 166.964844 286.703125 165.128906 283.0625 161.789062 281.960938 C 158.417969 280.824219 154.777344 282.664062 153.675781 286.003906 L 140.851562 324.472656 C 139.714844 327.847656 141.550781 331.488281 144.890625 332.589844 C 148.265625 333.722656 151.90625 331.886719 153.007812 328.546875 Z M 153.007812 328.546875 " fill-opacity="1" fill-rule="nonzero"/><path fill="#18795b" d="M 230.617188 328.546875 L 217.792969 290.078125 C 216.660156 286.703125 218.496094 283.0625 221.835938 281.960938 C 225.207031 280.824219 228.847656 282.664062 229.949219 286.003906 L 242.773438 324.472656 C 243.910156 327.847656 242.070312 331.488281 238.734375 332.589844 C 235.359375 333.722656 231.71875 331.886719 230.617188 328.546875 Z M 230.617188 328.546875 " fill-opacity="1" fill-rule="nonzero"/><path fill="#18795b" d="M 312.101562 82.691406 L 180.890625 197.90625 C 179.65625 198.972656 173.8125 190.726562 167.300781 184.3125 C 160.21875 177.335938 152.539062 172.058594 153.707031 170.722656 L 268.921875 39.511719 C 280.8125 26.121094 300.8125 25.519531 313.4375 38.175781 C 326.128906 50.832031 325.492188 70.804688 312.101562 82.691406 Z M 304.386719 47.226562 C 296.941406 39.8125 285.519531 40.148438 278.539062 47.996094 L 167.300781 174.664062 L 176.953125 184.3125 L 303.585938 73.109375 C 311.46875 66.09375 311.835938 54.675781 304.386719 47.226562 Z M 304.386719 47.226562 " fill-opacity="1" fill-rule="nonzero"/><path fill="#18795b" d="M 98.671875 229.097656 C 94.832031 225.992188 95.800781 219.878906 100.410156 218.109375 C 108.660156 214.972656 112.964844 209.125 118.777344 195.703125 C 123.988281 183.679688 125.421875 180.875 129.496094 176.765625 C 142.019531 164.242188 162.324219 164.242188 174.847656 176.765625 C 187.371094 189.289062 187.371094 209.59375 174.847656 222.117188 C 157.984375 238.949219 120.648438 246.730469 98.671875 229.097656 Z M 165.765625 213.035156 C 173.277344 205.519531 173.277344 193.363281 165.765625 185.851562 C 158.25 178.335938 146.09375 178.335938 138.582031 185.851562 C 136.175781 188.253906 134.90625 190.691406 130.566406 200.777344 C 125.855469 211.664062 121.617188 218.910156 115.636719 223.953125 C 132.269531 229.796875 155.179688 223.652344 165.765625 213.035156 Z M 165.765625 213.035156 " fill-opacity="1" fill-rule="nonzero"/><path fill="#18795b" d="M 180.390625 152.6875 L 198.890625 171.089844 C 201.398438 173.59375 205.4375 173.59375 207.941406 171.089844 C 210.445312 168.585938 210.445312 164.511719 207.941406 162.007812 L 189.441406 143.605469 C 186.9375 141.101562 182.863281 141.132812 180.359375 143.636719 C 177.851562 146.144531 177.886719 150.183594 180.390625 152.6875 Z M 180.390625 152.6875 " fill-opacity="1" fill-rule="nonzero"/></svg>