<svg xmlns="http://www.w3.org/2000/svg" xmlns:xlink="http://www.w3.org/1999/xlink" width="500" zoomAndPan="magnify" viewBox="0 0 375 374.999991" height="500" preserveAspectRatio="xMidYMid meet" version="1.0"><defs><clipPath id="caa9a2bba5"><path d="M 80 18.0625 L 205 18.0625 L 205 59 L 80 59 Z M 80 18.0625 " clip-rule="nonzero"/></clipPath><clipPath id="84c7568df0"><path d="M 276 116 L 350.667969 116 L 350.667969 191 L 276 191 Z M 276 116 " clip-rule="nonzero"/></clipPath><clipPath id="1e92bb1516"><path d="M 24.417969 156 L 104 156 L 104 222 L 24.417969 222 Z M 24.417969 156 " clip-rule="nonzero"/></clipPath><clipPath id="e2d2f01cf4"><path d="M 24.417969 64 L 101 64 L 101 131 L 24.417969 131 Z M 24.417969 64 " clip-rule="nonzero"/></clipPath></defs><g clip-path="url(#caa9a2bba5)"><path fill="#18795b" d="M 82.484375 58.292969 C 82 58.292969 81.519531 58.085938 81.1875 57.683594 C 80.59375 56.96875 80.691406 55.90625 81.410156 55.3125 C 86.1875 51.355469 91.242188 47.632812 96.433594 44.253906 C 97.214844 43.746094 98.257812 43.964844 98.765625 44.746094 C 99.273438 45.523438 99.050781 46.570312 98.273438 47.078125 C 93.1875 50.386719 88.238281 54.03125 83.558594 57.90625 C 83.246094 58.167969 82.863281 58.292969 82.484375 58.292969 Z M 113.378906 38.183594 C 112.757812 38.183594 112.164062 37.839844 111.867188 37.25 C 111.453125 36.414062 111.792969 35.402344 112.625 34.988281 C 118.179688 32.222656 123.949219 29.753906 129.777344 27.652344 C 130.652344 27.335938 131.617188 27.789062 131.933594 28.664062 C 132.25 29.539062 131.796875 30.507812 130.921875 30.824219 C 125.214844 32.882812 119.566406 35.296875 114.128906 38.007812 C 113.886719 38.125 113.628906 38.183594 113.378906 38.183594 Z M 148.042969 25.671875 C 147.277344 25.671875 146.585938 25.148438 146.40625 24.371094 C 146.191406 23.46875 146.753906 22.558594 147.660156 22.347656 C 153.683594 20.933594 159.867188 19.855469 166.03125 19.140625 C 166.957031 19.035156 167.792969 19.699219 167.898438 20.621094 C 168.007812 21.546875 167.34375 22.382812 166.417969 22.488281 C 160.382812 23.1875 154.328125 24.242188 148.429688 25.628906 C 148.300781 25.660156 148.171875 25.671875 148.042969 25.671875 Z M 203.09375 22.453125 C 203.03125 22.453125 202.96875 22.449219 202.902344 22.441406 C 196.960938 21.769531 190.894531 21.429688 184.875 21.429688 L 184.65625 21.429688 C 183.726562 21.429688 182.972656 20.675781 182.972656 19.746094 C 182.96875 18.816406 183.722656 18.0625 184.65625 18.058594 L 184.875 18.058594 C 191.019531 18.058594 197.214844 18.40625 203.28125 19.09375 C 204.207031 19.195312 204.871094 20.03125 204.765625 20.957031 C 204.667969 21.816406 203.941406 22.453125 203.09375 22.453125 Z M 203.09375 22.453125 " fill-opacity="1" fill-rule="nonzero"/></g><path fill="#18795b" d="M 98.582031 317.519531 C 98.269531 317.519531 97.957031 317.433594 97.675781 317.253906 C 92.453125 313.921875 87.363281 310.246094 82.550781 306.332031 C 81.828125 305.746094 81.71875 304.683594 82.304688 303.960938 C 82.894531 303.238281 83.953125 303.128906 84.675781 303.71875 C 89.390625 307.550781 94.375 311.148438 99.488281 314.414062 C 100.273438 314.914062 100.503906 315.957031 100.003906 316.742188 C 99.679688 317.246094 99.136719 317.519531 98.582031 317.519531 Z M 69.976562 294.261719 C 69.539062 294.261719 69.101562 294.089844 68.773438 293.753906 C 64.4375 289.316406 60.316406 284.585938 56.519531 279.683594 C 55.949219 278.949219 56.085938 277.890625 56.820312 277.320312 C 57.554688 276.75 58.613281 276.886719 59.183594 277.621094 C 62.902344 282.417969 66.941406 287.054688 71.183594 291.398438 C 71.832031 292.0625 71.820312 293.128906 71.15625 293.78125 C 70.828125 294.101562 70.402344 294.261719 69.976562 294.261719 Z M 47.398438 265.121094 C 46.828125 265.121094 46.273438 264.832031 45.957031 264.308594 C 42.742188 259 39.804688 253.453125 37.226562 247.820312 C 36.839844 246.976562 37.210938 245.976562 38.058594 245.589844 C 38.90625 245.203125 39.902344 245.574219 40.292969 246.417969 C 42.816406 251.933594 45.691406 257.367188 48.839844 262.5625 C 49.320312 263.359375 49.066406 264.394531 48.269531 264.878906 C 47.996094 265.042969 47.695312 265.121094 47.398438 265.121094 Z M 47.398438 265.121094 " fill-opacity="1" fill-rule="nonzero"/><path fill="#18795b" d="M 333.015625 244.191406 C 332.796875 244.191406 332.574219 244.148438 332.363281 244.0625 C 331.503906 243.699219 331.101562 242.710938 331.460938 241.855469 C 333.8125 236.257812 335.863281 230.460938 337.550781 224.628906 C 337.808594 223.734375 338.742188 223.222656 339.636719 223.480469 C 340.53125 223.738281 341.046875 224.671875 340.785156 225.566406 C 339.0625 231.523438 336.972656 237.441406 334.570312 243.160156 C 334.296875 243.804688 333.671875 244.191406 333.015625 244.191406 Z M 343.269531 208.78125 C 343.175781 208.78125 343.082031 208.773438 342.988281 208.757812 C 342.070312 208.601562 341.453125 207.734375 341.605469 206.816406 C 342.605469 200.84375 343.273438 194.730469 343.585938 188.652344 C 343.632812 187.722656 344.429688 187.007812 345.355469 187.058594 C 346.285156 187.105469 347 187.898438 346.953125 188.828125 C 346.632812 195.035156 345.953125 201.273438 344.929688 207.375 C 344.792969 208.199219 344.078125 208.78125 343.269531 208.78125 Z M 343.269531 208.78125 " fill-opacity="1" fill-rule="nonzero"/><path fill="#7db86b" d="M 302.796875 180.355469 C 302.796875 182.285156 302.75 184.210938 302.65625 186.140625 C 302.558594 188.066406 302.417969 189.992188 302.226562 191.910156 C 302.039062 193.832031 301.804688 195.746094 301.519531 197.65625 C 301.238281 199.566406 300.90625 201.464844 300.53125 203.359375 C 300.152344 205.25 299.730469 207.132812 299.261719 209.007812 C 298.792969 210.878906 298.277344 212.738281 297.71875 214.585938 C 297.160156 216.429688 296.554688 218.261719 295.902344 220.078125 C 295.253906 221.898438 294.558594 223.695312 293.820312 225.480469 C 293.082031 227.261719 292.300781 229.027344 291.472656 230.769531 C 290.648438 232.515625 289.78125 234.238281 288.871094 235.941406 C 287.960938 237.644531 287.011719 239.320312 286.019531 240.976562 C 285.027344 242.632812 283.996094 244.261719 282.921875 245.867188 C 281.851562 247.472656 280.738281 249.050781 279.589844 250.597656 C 278.441406 252.148438 277.253906 253.671875 276.03125 255.160156 C 274.804688 256.652344 273.546875 258.113281 272.25 259.542969 C 270.953125 260.972656 269.621094 262.371094 268.257812 263.738281 C 266.894531 265.101562 265.496094 266.429688 264.066406 267.726562 C 262.636719 269.023438 261.175781 270.285156 259.683594 271.507812 C 258.191406 272.730469 256.671875 273.917969 255.121094 275.070312 C 253.570312 276.21875 251.992188 277.328125 250.386719 278.402344 C 248.785156 279.472656 247.152344 280.503906 245.5 281.496094 C 243.84375 282.488281 242.164062 283.441406 240.460938 284.351562 C 238.761719 285.261719 237.039062 286.128906 235.292969 286.953125 C 233.546875 287.777344 231.785156 288.558594 230 289.296875 C 228.21875 290.035156 226.417969 290.730469 224.601562 291.382812 C 222.785156 292.03125 220.953125 292.636719 219.105469 293.195312 C 217.257812 293.757812 215.398438 294.273438 213.527344 294.742188 C 211.65625 295.210938 209.773438 295.632812 207.878906 296.007812 C 205.988281 296.386719 204.085938 296.714844 202.175781 297 C 200.269531 297.28125 198.355469 297.519531 196.433594 297.707031 C 194.511719 297.894531 192.589844 298.039062 190.660156 298.132812 C 188.734375 298.226562 186.804688 298.273438 184.875 298.273438 C 182.945312 298.273438 181.015625 298.226562 179.089844 298.132812 C 177.160156 298.039062 175.238281 297.894531 173.316406 297.707031 C 171.394531 297.519531 169.480469 297.28125 167.574219 297 C 165.664062 296.714844 163.761719 296.386719 161.871094 296.007812 C 159.976562 295.632812 158.09375 295.210938 156.222656 294.742188 C 154.351562 294.273438 152.492188 293.757812 150.644531 293.195312 C 148.796875 292.636719 146.964844 292.03125 145.148438 291.382812 C 143.332031 290.730469 141.53125 290.035156 139.75 289.296875 C 137.964844 288.558594 136.203125 287.777344 134.457031 286.953125 C 132.710938 286.128906 130.988281 285.261719 129.289062 284.351562 C 127.585938 283.441406 125.90625 282.488281 124.25 281.496094 C 122.597656 280.503906 120.964844 279.472656 119.363281 278.402344 C 117.757812 277.328125 116.179688 276.21875 114.628906 275.070312 C 113.078125 273.917969 111.558594 272.730469 110.066406 271.507812 C 108.574219 270.285156 107.113281 269.023438 105.683594 267.726562 C 104.253906 266.429688 102.855469 265.101562 101.492188 263.738281 C 100.128906 262.371094 98.796875 260.972656 97.5 259.542969 C 96.207031 258.113281 94.945312 256.652344 93.722656 255.160156 C 92.496094 253.671875 91.308594 252.148438 90.160156 250.597656 C 89.011719 249.050781 87.898438 247.472656 86.828125 245.867188 C 85.753906 244.261719 84.722656 242.632812 83.730469 240.976562 C 82.738281 239.320312 81.789062 237.644531 80.878906 235.941406 C 79.96875 234.238281 79.101562 232.515625 78.277344 230.769531 C 77.449219 229.027344 76.667969 227.261719 75.929688 225.480469 C 75.191406 223.695312 74.496094 221.898438 73.847656 220.078125 C 73.195312 218.261719 72.589844 216.429688 72.03125 214.585938 C 71.472656 212.738281 70.957031 210.878906 70.488281 209.007812 C 70.019531 207.132812 69.597656 205.25 69.21875 203.359375 C 68.84375 201.464844 68.511719 199.566406 68.230469 197.65625 C 67.945312 195.746094 67.710938 193.832031 67.523438 191.910156 C 67.332031 189.992188 67.191406 188.066406 67.097656 186.140625 C 67 184.210938 66.953125 182.285156 66.953125 180.355469 C 66.953125 178.421875 67 176.496094 67.097656 174.566406 C 67.191406 172.640625 67.332031 170.714844 67.523438 168.796875 C 67.710938 166.875 67.945312 164.960938 68.230469 163.050781 C 68.511719 161.140625 68.84375 159.242188 69.21875 157.347656 C 69.597656 155.457031 70.019531 153.574219 70.488281 151.699219 C 70.957031 149.828125 71.472656 147.96875 72.03125 146.121094 C 72.589844 144.277344 73.195312 142.445312 73.847656 140.628906 C 74.496094 138.808594 75.191406 137.011719 75.929688 135.226562 C 76.667969 133.445312 77.449219 131.679688 78.277344 129.9375 C 79.101562 128.191406 79.96875 126.46875 80.878906 124.765625 C 81.789062 123.0625 82.738281 121.386719 83.730469 119.730469 C 84.722656 118.074219 85.753906 116.445312 86.828125 114.839844 C 87.898438 113.234375 89.011719 111.65625 90.160156 110.109375 C 91.308594 108.558594 92.496094 107.035156 93.722656 105.546875 C 94.945312 104.054688 96.207031 102.59375 97.5 101.164062 C 98.796875 99.734375 100.128906 98.335938 101.492188 96.972656 C 102.855469 95.605469 104.253906 94.277344 105.683594 92.980469 C 107.113281 91.683594 108.574219 90.421875 110.066406 89.199219 C 111.558594 87.976562 113.078125 86.789062 114.628906 85.636719 C 116.179688 84.488281 117.757812 83.378906 119.363281 82.304688 C 120.964844 81.234375 122.597656 80.203125 124.25 79.210938 C 125.90625 78.21875 127.585938 77.265625 129.289062 76.355469 C 130.988281 75.445312 132.710938 74.578125 134.457031 73.753906 C 136.203125 72.929688 137.964844 72.148438 139.75 71.410156 C 141.53125 70.671875 143.332031 69.976562 145.148438 69.324219 C 146.964844 68.675781 148.796875 68.070312 150.644531 67.511719 C 152.492188 66.949219 154.351562 66.433594 156.222656 65.964844 C 158.09375 65.496094 159.976562 65.074219 161.871094 64.699219 C 163.761719 64.320312 165.664062 63.992188 167.574219 63.707031 C 169.480469 63.425781 171.394531 63.1875 173.316406 63 C 175.238281 62.8125 177.160156 62.667969 179.089844 62.574219 C 181.015625 62.480469 182.945312 62.433594 184.875 62.433594 C 186.804688 62.433594 188.734375 62.480469 190.660156 62.574219 C 192.589844 62.667969 194.511719 62.8125 196.433594 63 C 198.355469 63.1875 200.269531 63.425781 202.175781 63.707031 C 204.085938 63.992188 205.988281 64.320312 207.878906 64.699219 C 209.773438 65.074219 211.65625 65.496094 213.527344 65.964844 C 215.398438 66.433594 217.257812 66.949219 219.105469 67.511719 C 220.953125 68.070312 222.785156 68.675781 224.601562 69.324219 C 226.417969 69.976562 228.21875 70.671875 230 71.410156 C 231.785156 72.148438 233.546875 72.929688 235.292969 73.753906 C 237.039062 74.578125 238.761719 75.445312 240.460938 76.355469 C 242.164062 77.265625 243.84375 78.21875 245.5 79.210938 C 247.152344 80.203125 248.785156 81.234375 250.386719 82.304688 C 251.992188 83.378906 253.570312 84.488281 255.121094 85.636719 C 256.671875 86.789062 258.191406 87.976562 259.683594 89.199219 C 261.175781 90.421875 262.636719 91.683594 264.066406 92.980469 C 265.496094 94.277344 266.894531 95.605469 268.257812 96.972656 C 269.621094 98.335938 270.953125 99.734375 272.25 101.164062 C 273.546875 102.59375 274.804688 104.054688 276.03125 105.546875 C 277.253906 107.035156 278.441406 108.558594 279.589844 110.109375 C 280.738281 111.65625 281.851562 113.234375 282.921875 114.839844 C 283.996094 116.445312 285.027344 118.074219 286.019531 119.730469 C 287.011719 121.386719 287.960938 123.0625 288.871094 124.765625 C 289.78125 126.46875 290.648438 128.191406 291.472656 129.9375 C 292.300781 131.679688 293.082031 133.445312 293.820312 135.226562 C 294.558594 137.011719 295.253906 138.808594 295.902344 140.628906 C 296.554688 142.445312 297.160156 144.277344 297.71875 146.121094 C 298.277344 147.96875 298.792969 149.828125 299.261719 151.699219 C 299.730469 153.574219 300.152344 155.457031 300.53125 157.347656 C 300.90625 159.242188 301.238281 161.140625 301.519531 163.050781 C 301.804688 164.960938 302.039062 166.875 302.226562 168.796875 C 302.417969 170.714844 302.558594 172.640625 302.65625 174.566406 C 302.75 176.496094 302.796875 178.421875 302.796875 180.355469 Z M 302.796875 180.355469 " fill-opacity="1" fill-rule="nonzero"/><path fill="#ffffff" d="M 211.726562 177.613281 L 211.726562 35.007812 C 211.726562 33.921875 212.597656 33.039062 213.683594 33.039062 L 289.144531 33.039062 C 290.523438 33.039062 291.773438 33.660156 292.601562 34.625 L 312.34375 54.589844 C 313.03125 55.300781 313.449219 56.257812 313.449219 57.308594 L 313.449219 177.613281 Z M 211.726562 177.613281 " fill-opacity="1" fill-rule="nonzero"/><path fill="#18795b" d="M 313.449219 179.296875 C 312.515625 179.296875 311.761719 178.542969 311.761719 177.613281 L 311.761719 57.308594 C 311.761719 56.734375 311.542969 56.183594 311.136719 55.765625 L 291.40625 35.808594 C 291.378906 35.78125 291.351562 35.753906 291.324219 35.722656 C 290.777344 35.089844 289.984375 34.726562 289.144531 34.726562 L 213.683594 34.726562 C 213.53125 34.726562 213.410156 34.847656 213.410156 35.007812 L 213.410156 177.613281 C 213.410156 178.542969 212.65625 179.296875 211.726562 179.296875 C 210.796875 179.296875 210.039062 178.542969 210.039062 177.613281 L 210.039062 35.007812 C 210.039062 32.992188 211.675781 31.355469 213.683594 31.355469 L 289.144531 31.355469 C 290.945312 31.355469 292.652344 32.128906 293.839844 33.480469 L 313.542969 53.402344 C 313.546875 53.410156 313.554688 53.414062 313.558594 53.417969 C 314.574219 54.472656 315.132812 55.855469 315.132812 57.308594 L 315.132812 177.613281 C 315.132812 178.542969 314.378906 179.296875 313.449219 179.296875 Z M 313.449219 179.296875 " fill-opacity="1" fill-rule="nonzero"/><path fill="#70af0c" d="M 293.730469 53.382812 L 309.511719 53.382812 C 310.5625 53.382812 311.515625 53.78125 312.21875 54.46875 L 312.34375 54.589844 L 292.601562 34.625 L 292.6875 34.710938 C 293.339844 35.507812 293.730469 36.515625 293.730469 37.628906 Z M 293.730469 53.382812 " fill-opacity="1" fill-rule="nonzero"/><path fill="#18795b" d="M 312.34375 56.273438 C 311.933594 56.273438 311.519531 56.121094 311.195312 55.820312 L 311.070312 55.703125 C 311.058594 55.691406 311.050781 55.683594 311.042969 55.675781 C 310.632812 55.277344 310.105469 55.070312 309.511719 55.070312 L 293.730469 55.070312 C 292.800781 55.070312 292.046875 54.316406 292.046875 53.382812 L 292.046875 37.628906 C 292.046875 36.972656 291.832031 36.355469 291.429688 35.835938 L 291.40625 35.808594 C 290.75 35.148438 290.757812 34.085938 291.414062 33.429688 C 292.074219 32.777344 293.136719 32.777344 293.792969 33.433594 L 293.878906 33.519531 C 293.894531 33.53125 293.90625 33.546875 293.917969 33.558594 L 313.542969 53.402344 C 314.1875 54.054688 314.191406 55.105469 313.554688 55.761719 C 313.222656 56.101562 312.785156 56.273438 312.34375 56.273438 Z M 295.414062 51.699219 L 307.117188 51.699219 L 295.414062 39.867188 Z M 295.414062 51.699219 " fill-opacity="1" fill-rule="nonzero"/><path fill="#ffffff" d="M 196.71875 55.238281 L 196.714844 174.222656 C 196.714844 176.09375 198.234375 177.613281 200.109375 177.613281 L 278.769531 177.613281 C 280.644531 177.613281 282.164062 176.09375 282.164062 174.222656 L 282.164062 125.429688 C 282.164062 121.195312 283.84375 117.136719 286.835938 114.144531 L 295.585938 102.84375 C 298.578125 99.851562 300.261719 95.792969 300.261719 91.558594 L 300.261719 64.65625 C 300.261719 62.78125 298.742188 61.261719 296.867188 61.261719 L 208.988281 61.261719 Z M 196.71875 55.238281 " fill-opacity="1" fill-rule="nonzero"/><path fill="#18795b" d="M 278.769531 179.296875 L 200.105469 179.296875 C 197.308594 179.296875 195.03125 177.019531 195.03125 174.222656 L 195.035156 55.238281 C 195.035156 54.308594 195.789062 53.554688 196.71875 53.554688 C 197.648438 53.554688 198.402344 54.308594 198.402344 55.238281 L 198.398438 174.222656 C 198.398438 175.164062 199.164062 175.929688 200.105469 175.929688 L 278.769531 175.929688 C 279.710938 175.929688 280.480469 175.164062 280.480469 174.222656 L 280.480469 125.429688 C 280.480469 120.753906 282.285156 116.355469 285.566406 113.03125 L 294.253906 101.8125 C 294.300781 101.757812 294.347656 101.703125 294.394531 101.652344 C 297.089844 98.957031 298.574219 95.371094 298.574219 91.558594 L 298.574219 64.65625 C 298.574219 63.714844 297.808594 62.949219 296.867188 62.949219 L 208.988281 62.949219 C 208.054688 62.949219 207.300781 62.191406 207.300781 61.261719 C 207.300781 60.332031 208.054688 59.578125 208.988281 59.578125 L 296.867188 59.578125 C 299.667969 59.578125 301.945312 61.855469 301.945312 64.65625 L 301.945312 91.558594 C 301.945312 96.234375 300.140625 100.632812 296.855469 103.957031 L 288.167969 115.175781 C 288.125 115.230469 288.078125 115.285156 288.027344 115.335938 C 285.332031 118.03125 283.847656 121.617188 283.847656 125.429688 L 283.847656 174.222656 C 283.847656 177.019531 281.570312 179.296875 278.769531 179.296875 Z M 278.769531 179.296875 " fill-opacity="1" fill-rule="nonzero"/><path fill="#70af0c" d="M 202.929688 48.8125 C 199.429688 48.8125 196.609375 51.710938 196.71875 55.238281 C 196.824219 58.640625 199.796875 61.261719 203.199219 61.261719 L 211.726562 61.261719 L 211.726562 48.8125 Z M 202.929688 48.8125 " fill-opacity="1" fill-rule="nonzero"/><path fill="#18795b" d="M 211.726562 62.949219 L 203.199219 62.949219 C 198.832031 62.949219 195.167969 59.511719 195.035156 55.289062 C 194.964844 53.128906 195.757812 51.082031 197.261719 49.53125 C 198.761719 47.980469 200.777344 47.128906 202.929688 47.128906 L 211.726562 47.128906 C 212.65625 47.128906 213.410156 47.882812 213.410156 48.8125 L 213.410156 61.261719 C 213.410156 62.191406 212.65625 62.949219 211.726562 62.949219 Z M 202.929688 50.5 C 201.695312 50.5 200.542969 50.988281 199.679688 51.875 C 198.816406 52.765625 198.363281 53.941406 198.402344 55.183594 C 198.480469 57.605469 200.632812 59.578125 203.199219 59.578125 L 210.039062 59.578125 L 210.039062 50.5 Z M 202.929688 50.5 " fill-opacity="1" fill-rule="nonzero"/><path fill="#18795b" d="M 223.507812 108.5 C 222.578125 108.5 221.824219 107.746094 221.824219 106.816406 L 221.824219 78.585938 C 221.824219 76.632812 223.414062 75.042969 225.375 75.042969 L 233.015625 75.042969 C 233.945312 75.042969 234.699219 75.796875 234.699219 76.726562 C 234.699219 77.660156 233.945312 78.414062 233.015625 78.414062 L 225.375 78.414062 C 225.277344 78.414062 225.191406 78.492188 225.191406 78.585938 L 225.191406 106.816406 C 225.191406 107.746094 224.4375 108.5 223.507812 108.5 Z M 223.507812 108.5 " fill-opacity="1" fill-rule="nonzero"/><path fill="#18795b" d="M 271.617188 108 C 270.6875 108 269.933594 107.246094 269.933594 106.316406 L 269.933594 78.585938 C 269.933594 78.488281 269.855469 78.414062 269.761719 78.414062 L 263.09375 78.414062 C 262.164062 78.414062 261.410156 77.660156 261.410156 76.726562 C 261.410156 75.796875 262.164062 75.042969 263.09375 75.042969 L 269.761719 75.042969 C 271.714844 75.042969 273.300781 76.632812 273.300781 78.585938 L 273.300781 106.316406 C 273.300781 107.246094 272.546875 108 271.617188 108 Z M 271.617188 108 " fill-opacity="1" fill-rule="nonzero"/><path fill="#18795b" d="M 234.886719 168.347656 L 228.445312 168.347656 C 220.523438 168.347656 214.082031 161.910156 214.082031 153.992188 C 214.082031 153.0625 214.835938 152.308594 215.765625 152.308594 C 216.695312 152.308594 217.449219 153.0625 217.449219 153.992188 C 217.449219 160.050781 222.382812 164.980469 228.445312 164.980469 L 234.886719 164.980469 C 240.949219 164.980469 245.882812 160.050781 245.882812 153.992188 L 245.882812 133.410156 C 245.882812 132.480469 246.636719 131.726562 247.566406 131.726562 C 248.496094 131.726562 249.25 132.480469 249.25 133.410156 L 249.25 153.992188 C 249.25 161.910156 242.808594 168.347656 234.886719 168.347656 Z M 234.886719 168.347656 " fill-opacity="1" fill-rule="nonzero"/><path fill="#c1ff72" d="M 222.910156 136.417969 C 223.378906 136.886719 223.796875 137.398438 224.167969 137.949219 C 224.535156 138.5 224.847656 139.082031 225.101562 139.695312 C 225.355469 140.308594 225.546875 140.941406 225.675781 141.59375 C 225.804688 142.246094 225.871094 142.902344 225.871094 143.566406 C 225.871094 144.230469 225.804688 144.886719 225.675781 145.539062 C 225.546875 146.1875 225.355469 146.820312 225.101562 147.433594 C 224.847656 148.046875 224.535156 148.628906 224.167969 149.183594 C 223.800781 149.734375 223.378906 150.246094 222.910156 150.714844 C 222.441406 151.183594 221.929688 151.601562 221.378906 151.972656 C 220.828125 152.339844 220.242188 152.652344 219.628906 152.90625 C 219.019531 153.160156 218.386719 153.351562 217.734375 153.480469 C 217.082031 153.609375 216.425781 153.675781 215.761719 153.675781 C 215.097656 153.675781 214.441406 153.609375 213.789062 153.480469 C 213.140625 153.351562 212.507812 153.160156 211.894531 152.90625 C 211.28125 152.652344 210.699219 152.339844 210.144531 151.972656 C 209.59375 151.601562 209.082031 151.183594 208.613281 150.714844 C 208.144531 150.246094 207.726562 149.734375 207.355469 149.183594 C 206.988281 148.628906 206.675781 148.046875 206.421875 147.433594 C 206.167969 146.820312 205.976562 146.1875 205.847656 145.539062 C 205.71875 144.886719 205.652344 144.230469 205.652344 143.566406 C 205.652344 142.902344 205.71875 142.246094 205.847656 141.59375 C 205.976562 140.941406 206.167969 140.3125 206.421875 139.699219 C 206.675781 139.085938 206.988281 138.5 207.355469 137.949219 C 207.726562 137.398438 208.144531 136.886719 208.613281 136.417969 C 209.082031 135.949219 209.59375 135.527344 210.144531 135.160156 C 210.699219 134.792969 211.28125 134.480469 211.894531 134.226562 C 212.507812 133.972656 213.140625 133.78125 213.789062 133.652344 C 214.441406 133.523438 215.097656 133.457031 215.761719 133.457031 C 216.425781 133.457031 217.082031 133.519531 217.734375 133.652344 C 218.386719 133.78125 219.015625 133.972656 219.628906 134.226562 C 220.242188 134.480469 220.828125 134.792969 221.378906 135.160156 C 221.929688 135.527344 222.441406 135.949219 222.910156 136.417969 Z M 222.910156 136.417969 " fill-opacity="1" fill-rule="nonzero"/><path fill="#18795b" d="M 215.765625 155.359375 C 209.261719 155.359375 203.972656 150.070312 203.972656 143.566406 C 203.972656 137.0625 209.261719 131.769531 215.765625 131.769531 C 222.269531 131.769531 227.558594 137.0625 227.558594 143.566406 C 227.558594 150.070312 222.269531 155.359375 215.765625 155.359375 Z M 215.765625 135.140625 C 211.121094 135.140625 207.339844 138.921875 207.339844 143.566406 C 207.339844 148.210938 211.121094 151.988281 215.765625 151.988281 C 220.410156 151.988281 224.191406 148.210938 224.191406 143.566406 C 224.191406 138.921875 220.410156 135.140625 215.765625 135.140625 Z M 215.765625 135.140625 " fill-opacity="1" fill-rule="nonzero"/><path fill="#c1ff72" d="M 238.382812 81.652344 L 233.019531 81.652344 L 233.019531 71.796875 L 238.382812 71.796875 C 240.863281 71.796875 242.871094 73.804688 242.871094 76.285156 L 242.871094 77.164062 C 242.871094 79.640625 240.863281 81.652344 238.382812 81.652344 Z M 238.382812 81.652344 " fill-opacity="1" fill-rule="nonzero"/><path fill="#18795b" d="M 238.382812 83.335938 L 233.019531 83.335938 C 232.085938 83.335938 231.332031 82.582031 231.332031 81.652344 L 231.332031 71.796875 C 231.332031 70.867188 232.085938 70.113281 233.019531 70.113281 L 238.382812 70.113281 C 241.789062 70.113281 244.554688 72.882812 244.554688 76.285156 L 244.554688 77.160156 C 244.554688 80.566406 241.789062 83.335938 238.382812 83.335938 Z M 234.703125 79.964844 L 238.382812 79.964844 C 239.929688 79.964844 241.1875 78.707031 241.1875 77.164062 L 241.1875 76.285156 C 241.1875 74.738281 239.929688 73.480469 238.382812 73.480469 L 234.703125 73.480469 Z M 234.703125 79.964844 " fill-opacity="1" fill-rule="nonzero"/><path fill="#c1ff72" d="M 256.53125 81.652344 L 261.898438 81.652344 L 261.898438 71.796875 L 256.53125 71.796875 C 254.054688 71.796875 252.042969 73.804688 252.042969 76.285156 L 252.042969 77.164062 C 252.042969 79.640625 254.050781 81.652344 256.53125 81.652344 Z M 256.53125 81.652344 " fill-opacity="1" fill-rule="nonzero"/><path fill="#18795b" d="M 261.898438 83.335938 L 256.53125 83.335938 C 253.128906 83.335938 250.359375 80.566406 250.359375 77.164062 L 250.359375 76.285156 C 250.359375 72.882812 253.128906 70.113281 256.53125 70.113281 L 261.898438 70.113281 C 262.828125 70.113281 263.582031 70.867188 263.582031 71.796875 L 263.582031 81.652344 C 263.582031 82.582031 262.828125 83.335938 261.898438 83.335938 Z M 256.53125 73.480469 C 254.984375 73.480469 253.726562 74.738281 253.726562 76.285156 L 253.726562 77.164062 C 253.726562 78.707031 254.984375 79.964844 256.53125 79.964844 L 260.210938 79.964844 L 260.210938 73.480469 Z M 256.53125 73.480469 " fill-opacity="1" fill-rule="nonzero"/><path fill="#70af0c" d="M 274.164062 104.628906 L 269.074219 104.628906 C 268.144531 104.628906 267.390625 105.382812 267.390625 106.316406 C 267.390625 117.226562 258.746094 126.339844 248.121094 126.632812 C 242.730469 126.792969 237.617188 124.796875 233.742188 121.027344 C 229.871094 117.261719 227.738281 112.214844 227.738281 106.816406 C 227.738281 105.882812 226.984375 105.128906 226.054688 105.128906 L 220.96875 105.128906 C 220.035156 105.128906 219.28125 105.882812 219.28125 106.816406 C 219.28125 114.515625 222.324219 121.714844 227.84375 127.089844 C 233.152344 132.253906 240.152344 135.097656 247.558594 135.097656 C 247.824219 135.097656 248.085938 135.09375 248.355469 135.085938 C 263.515625 134.671875 275.847656 121.765625 275.847656 106.316406 C 275.847656 105.382812 275.09375 104.628906 274.164062 104.628906 Z M 274.164062 104.628906 " fill-opacity="1" fill-rule="nonzero"/><path fill="#18795b" d="M 247.558594 136.78125 C 239.714844 136.78125 232.296875 133.769531 226.667969 128.296875 C 220.820312 122.601562 217.597656 114.972656 217.597656 106.816406 C 217.597656 104.957031 219.109375 103.445312 220.96875 103.445312 L 226.054688 103.445312 C 227.914062 103.445312 229.425781 104.957031 229.425781 106.816406 C 229.425781 111.753906 231.375 116.371094 234.917969 119.816406 C 238.46875 123.273438 243.144531 125.097656 248.070312 124.949219 C 257.796875 124.679688 265.703125 116.320312 265.703125 106.316406 C 265.703125 104.457031 267.214844 102.945312 269.074219 102.945312 L 274.164062 102.945312 C 276.019531 102.945312 277.53125 104.457031 277.53125 106.316406 C 277.53125 122.667969 264.464844 136.332031 248.402344 136.773438 C 248.121094 136.78125 247.84375 136.78125 247.558594 136.78125 Z M 226.054688 106.816406 L 220.96875 106.816406 C 220.96875 114.058594 223.828125 120.828125 229.019531 125.878906 C 234.011719 130.738281 240.597656 133.414062 247.558594 133.414062 C 247.816406 133.414062 248.0625 133.410156 248.3125 133.402344 C 262.566406 133.011719 274.164062 120.859375 274.164062 106.316406 L 269.074219 106.316406 C 269.074219 118.128906 259.695312 128 248.167969 128.316406 C 247.949219 128.324219 247.726562 128.328125 247.507812 128.328125 C 241.90625 128.328125 236.621094 126.175781 232.566406 122.234375 C 228.367188 118.148438 226.054688 112.671875 226.054688 106.816406 Z M 226.054688 106.816406 " fill-opacity="1" fill-rule="nonzero"/><path fill="#c1ff72" d="M 348.824219 153.375 C 348.824219 154.535156 348.769531 155.6875 348.652344 156.84375 C 348.539062 157.996094 348.371094 159.140625 348.144531 160.277344 C 347.917969 161.414062 347.636719 162.535156 347.300781 163.644531 C 346.964844 164.753906 346.574219 165.84375 346.132812 166.914062 C 345.6875 167.984375 345.191406 169.03125 344.648438 170.050781 C 344.101562 171.074219 343.507812 172.066406 342.863281 173.027344 C 342.21875 173.992188 341.53125 174.921875 340.792969 175.816406 C 340.058594 176.714844 339.28125 177.570312 338.460938 178.390625 C 337.644531 179.210938 336.785156 179.984375 335.890625 180.722656 C 334.996094 181.457031 334.066406 182.144531 333.101562 182.789062 C 332.136719 183.433594 331.144531 184.027344 330.125 184.574219 C 329.101562 185.121094 328.054688 185.613281 326.984375 186.058594 C 325.914062 186.503906 324.824219 186.890625 323.71875 187.226562 C 322.609375 187.566406 321.484375 187.84375 320.347656 188.070312 C 319.214844 188.296875 318.066406 188.46875 316.914062 188.582031 C 315.761719 188.695312 314.605469 188.75 313.449219 188.75 C 312.289062 188.75 311.132812 188.695312 309.980469 188.582031 C 308.828125 188.46875 307.683594 188.296875 306.546875 188.070312 C 305.410156 187.84375 304.289062 187.566406 303.179688 187.226562 C 302.070312 186.890625 300.980469 186.503906 299.910156 186.058594 C 298.839844 185.613281 297.792969 185.121094 296.769531 184.574219 C 295.75 184.027344 294.757812 183.433594 293.792969 182.789062 C 292.828125 182.144531 291.902344 181.457031 291.003906 180.722656 C 290.109375 179.984375 289.25 179.210938 288.433594 178.390625 C 287.613281 177.570312 286.835938 176.714844 286.101562 175.816406 C 285.367188 174.921875 284.675781 173.992188 284.03125 173.027344 C 283.390625 172.066406 282.792969 171.074219 282.25 170.050781 C 281.703125 169.03125 281.207031 167.984375 280.765625 166.914062 C 280.320312 165.84375 279.929688 164.753906 279.59375 163.644531 C 279.257812 162.535156 278.976562 161.414062 278.75 160.277344 C 278.523438 159.140625 278.355469 157.996094 278.242188 156.84375 C 278.128906 155.6875 278.070312 154.535156 278.070312 153.375 C 278.070312 152.214844 278.128906 151.058594 278.242188 149.90625 C 278.355469 148.753906 278.523438 147.609375 278.75 146.472656 C 278.976562 145.335938 279.257812 144.214844 279.59375 143.105469 C 279.929688 141.996094 280.320312 140.90625 280.765625 139.835938 C 281.207031 138.765625 281.703125 137.71875 282.25 136.699219 C 282.792969 135.675781 283.390625 134.683594 284.03125 133.71875 C 284.675781 132.757812 285.367188 131.828125 286.101562 130.933594 C 286.835938 130.035156 287.613281 129.179688 288.433594 128.359375 C 289.25 127.539062 290.109375 126.761719 291.003906 126.027344 C 291.902344 125.292969 292.828125 124.605469 293.792969 123.960938 C 294.757812 123.316406 295.75 122.722656 296.769531 122.175781 C 297.792969 121.628906 298.839844 121.132812 299.910156 120.691406 C 300.980469 120.246094 302.070312 119.859375 303.179688 119.519531 C 304.289062 119.183594 305.410156 118.902344 306.546875 118.679688 C 307.683594 118.453125 308.828125 118.28125 309.980469 118.167969 C 311.132812 118.054688 312.289062 117.996094 313.449219 117.996094 C 314.605469 117.996094 315.761719 118.054688 316.914062 118.167969 C 318.066406 118.28125 319.214844 118.453125 320.347656 118.679688 C 321.484375 118.902344 322.609375 119.183594 323.71875 119.519531 C 324.824219 119.859375 325.914062 120.246094 326.984375 120.691406 C 328.054688 121.132812 329.101562 121.628906 330.125 122.175781 C 331.144531 122.722656 332.136719 123.316406 333.101562 123.960938 C 334.066406 124.605469 334.996094 125.292969 335.890625 126.027344 C 336.785156 126.761719 337.644531 127.539062 338.460938 128.359375 C 339.28125 129.179688 340.058594 130.035156 340.792969 130.933594 C 341.53125 131.828125 342.21875 132.757812 342.863281 133.71875 C 343.507812 134.683594 344.101562 135.675781 344.648438 136.699219 C 345.195312 137.71875 345.6875 138.765625 346.132812 139.835938 C 346.574219 140.90625 346.964844 141.996094 347.300781 143.105469 C 347.636719 144.214844 347.917969 145.335938 348.144531 146.472656 C 348.371094 147.609375 348.539062 148.753906 348.652344 149.90625 C 348.769531 151.058594 348.824219 152.214844 348.824219 153.375 Z M 348.824219 153.375 " fill-opacity="1" fill-rule="nonzero"/><g clip-path="url(#84c7568df0)"><path fill="#18795b" d="M 313.449219 190.4375 C 303.546875 190.4375 294.242188 186.582031 287.242188 179.582031 C 280.242188 172.582031 276.386719 163.273438 276.386719 153.375 C 276.386719 143.476562 280.242188 134.167969 287.242188 127.167969 C 294.242188 120.167969 303.546875 116.3125 313.449219 116.3125 C 323.347656 116.3125 332.652344 120.167969 339.652344 127.167969 C 346.652344 134.167969 350.507812 143.476562 350.507812 153.375 C 350.507812 163.273438 346.652344 172.582031 339.652344 179.582031 C 332.652344 186.582031 323.347656 190.4375 313.449219 190.4375 Z M 313.449219 119.683594 C 294.871094 119.683594 279.753906 134.796875 279.753906 153.375 C 279.753906 171.953125 294.871094 187.066406 313.449219 187.066406 C 332.023438 187.066406 347.140625 171.953125 347.140625 153.375 C 347.140625 134.796875 332.023438 119.683594 313.449219 119.683594 Z M 313.449219 119.683594 " fill-opacity="1" fill-rule="nonzero"/></g><path fill="#ffffff" d="M 319.953125 135.609375 C 319.953125 136.039062 319.914062 136.460938 319.828125 136.878906 C 319.746094 137.300781 319.621094 137.707031 319.457031 138.101562 C 319.296875 138.496094 319.09375 138.871094 318.855469 139.226562 C 318.621094 139.582031 318.351562 139.910156 318.046875 140.210938 C 317.746094 140.511719 317.417969 140.78125 317.0625 141.019531 C 316.707031 141.257812 316.332031 141.457031 315.9375 141.621094 C 315.542969 141.785156 315.136719 141.910156 314.71875 141.992188 C 314.296875 142.074219 313.875 142.117188 313.449219 142.117188 C 313.019531 142.117188 312.597656 142.074219 312.179688 141.992188 C 311.757812 141.910156 311.351562 141.785156 310.957031 141.621094 C 310.5625 141.457031 310.1875 141.257812 309.832031 141.019531 C 309.476562 140.78125 309.148438 140.511719 308.847656 140.210938 C 308.546875 139.910156 308.277344 139.582031 308.039062 139.226562 C 307.800781 138.871094 307.601562 138.496094 307.4375 138.101562 C 307.273438 137.707031 307.148438 137.300781 307.066406 136.878906 C 306.984375 136.460938 306.941406 136.039062 306.941406 135.609375 C 306.941406 135.183594 306.984375 134.761719 307.066406 134.339844 C 307.148438 133.921875 307.273438 133.515625 307.4375 133.121094 C 307.601562 132.726562 307.800781 132.351562 308.039062 131.996094 C 308.277344 131.640625 308.546875 131.3125 308.847656 131.011719 C 309.148438 130.707031 309.476562 130.4375 309.832031 130.199219 C 310.1875 129.964844 310.5625 129.761719 310.957031 129.601562 C 311.351562 129.4375 311.757812 129.3125 312.179688 129.230469 C 312.597656 129.144531 313.019531 129.105469 313.449219 129.105469 C 313.875 129.105469 314.296875 129.144531 314.71875 129.230469 C 315.136719 129.3125 315.542969 129.4375 315.9375 129.601562 C 316.332031 129.761719 316.707031 129.964844 317.0625 130.199219 C 317.417969 130.4375 317.746094 130.707031 318.046875 131.011719 C 318.351562 131.3125 318.621094 131.640625 318.855469 131.996094 C 319.09375 132.351562 319.296875 132.726562 319.457031 133.121094 C 319.621094 133.515625 319.746094 133.921875 319.828125 134.339844 C 319.914062 134.761719 319.953125 135.183594 319.953125 135.609375 Z M 319.953125 135.609375 " fill-opacity="1" fill-rule="nonzero"/><path fill="#18795b" d="M 313.449219 143.800781 C 308.929688 143.800781 305.257812 140.128906 305.257812 135.609375 C 305.257812 131.09375 308.929688 127.417969 313.449219 127.417969 C 317.964844 127.417969 321.640625 131.09375 321.640625 135.609375 C 321.640625 140.128906 317.964844 143.800781 313.449219 143.800781 Z M 313.449219 130.789062 C 310.789062 130.789062 308.625 132.953125 308.625 135.609375 C 308.625 138.269531 310.789062 140.433594 313.449219 140.433594 C 316.105469 140.433594 318.269531 138.269531 318.269531 135.609375 C 318.269531 132.953125 316.105469 130.789062 313.449219 130.789062 Z M 313.449219 130.789062 " fill-opacity="1" fill-rule="nonzero"/><path fill="#ffffff" d="M 317.808594 174.332031 L 309.089844 174.332031 C 308.476562 174.332031 307.984375 173.835938 307.984375 173.226562 L 307.984375 149.949219 C 307.984375 149.335938 308.476562 148.84375 309.089844 148.84375 L 317.808594 148.84375 C 318.417969 148.84375 318.910156 149.335938 318.910156 149.949219 L 318.910156 173.226562 C 318.910156 173.835938 318.417969 174.332031 317.808594 174.332031 Z M 317.808594 174.332031 " fill-opacity="1" fill-rule="nonzero"/><path fill="#18795b" d="M 317.808594 176.015625 L 309.089844 176.015625 C 307.550781 176.015625 306.296875 174.765625 306.296875 173.226562 L 306.296875 149.949219 C 306.296875 148.410156 307.550781 147.160156 309.089844 147.160156 L 317.808594 147.160156 C 319.34375 147.160156 320.597656 148.410156 320.597656 149.949219 L 320.597656 173.226562 C 320.597656 174.765625 319.34375 176.015625 317.808594 176.015625 Z M 309.667969 172.644531 L 317.226562 172.644531 L 317.226562 150.527344 L 309.667969 150.527344 Z M 309.667969 172.644531 " fill-opacity="1" fill-rule="nonzero"/><path fill="#ffffff" d="M 222.863281 309.640625 C 223.863281 306.3125 224.519531 302.960938 224.890625 299.628906 C 229.578125 302.855469 234.832031 305.425781 240.574219 307.152344 C 270.234375 316.0625 301.5 299.242188 310.410156 269.582031 C 319.320312 239.925781 302.5 208.65625 272.84375 199.746094 C 243.183594 190.835938 211.917969 207.65625 203.007812 237.316406 C 202.003906 240.644531 201.347656 243.992188 200.976562 247.328125 C 196.289062 244.101562 191.035156 241.527344 185.292969 239.804688 C 155.632812 230.894531 124.367188 247.710938 115.457031 277.371094 C 106.546875 307.03125 123.367188 338.296875 153.023438 347.207031 C 182.683594 356.121094 213.949219 339.300781 222.863281 309.640625 Z M 222.863281 309.640625 " fill-opacity="1" fill-rule="nonzero"/><path fill="#c1ff72" d="M 239.582031 317.507812 L 241.5625 310.136719 C 272.007812 318.238281 303.707031 300.703125 312.839844 270.316406 C 322.152344 239.320312 304.511719 206.527344 273.515625 197.21875 C 248.410156 189.675781 221.085938 199.851562 207.0625 221.964844 C 206.730469 222.488281 206.484375 223.039062 206.3125 223.605469 C 205.484375 226.363281 206.546875 229.449219 209.101562 231.070312 C 212.179688 233.019531 216.253906 232.109375 218.203125 229.03125 C 229.074219 211.890625 250.257812 204.003906 269.71875 209.851562 C 293.746094 217.070312 307.421875 242.492188 300.203125 266.519531 C 293.128906 290.070312 268.570312 303.660156 244.976562 297.398438 L 246.785156 290.648438 C 247.523438 287.894531 244.824219 285.464844 242.164062 286.488281 L 220.085938 294.964844 C 217.871094 295.8125 217.132812 298.574219 218.625 300.417969 L 233.5 318.800781 C 235.292969 321.015625 238.84375 320.261719 239.582031 317.507812 Z M 239.582031 317.507812 " fill-opacity="1" fill-rule="nonzero"/><path fill="#18795b" d="M 236.203125 321.78125 C 234.660156 321.78125 233.1875 321.09375 232.191406 319.859375 L 217.3125 301.476562 C 216.257812 300.175781 215.902344 298.5 216.339844 296.882812 C 216.773438 295.261719 217.917969 293.992188 219.480469 293.390625 L 241.558594 284.914062 C 243.386719 284.214844 245.421875 284.589844 246.878906 285.898438 C 248.332031 287.210938 248.917969 289.195312 248.414062 291.085938 L 247.050781 296.171875 C 269.492188 301.238281 291.910156 288.265625 298.589844 266.035156 C 301.953125 254.84375 300.746094 243 295.195312 232.679688 C 289.644531 222.363281 280.425781 214.828125 269.234375 211.464844 C 250.492188 205.835938 230.09375 213.429688 219.628906 229.933594 C 217.183594 233.789062 212.054688 234.9375 208.199219 232.492188 C 205.078125 230.511719 203.636719 226.65625 204.699219 223.121094 C 204.917969 222.398438 205.234375 221.707031 205.640625 221.0625 C 220.066406 198.316406 248.175781 187.84375 274 195.601562 C 305.886719 205.183594 324.03125 238.917969 314.453125 270.800781 C 309.917969 285.894531 299.816406 298.445312 286.015625 306.132812 C 276.894531 311.210938 266.824219 313.800781 256.65625 313.804688 C 252.015625 313.804688 247.359375 313.261719 242.757812 312.175781 L 241.210938 317.945312 C 240.703125 319.835938 239.203125 321.261719 237.289062 321.667969 C 236.925781 321.742188 236.5625 321.78125 236.203125 321.78125 Z M 243.425781 287.9375 C 243.207031 287.9375 242.984375 287.976562 242.765625 288.0625 L 220.6875 296.535156 C 220.144531 296.746094 219.742188 297.191406 219.59375 297.753906 C 219.441406 298.320312 219.566406 298.902344 219.933594 299.355469 L 234.808594 317.742188 C 235.246094 318.277344 235.910156 318.515625 236.589844 318.371094 C 237.265625 318.226562 237.777344 317.742188 237.957031 317.074219 L 239.933594 309.699219 C 240.175781 308.800781 241.09375 308.269531 241.992188 308.507812 C 271.910156 316.46875 302.316406 299.476562 311.226562 269.832031 C 320.269531 239.726562 303.136719 207.875 273.03125 198.832031 C 248.648438 191.503906 222.105469 201.390625 208.488281 222.867188 C 208.246094 223.25 208.054688 223.660156 207.929688 224.089844 C 207.296875 226.1875 208.152344 228.472656 210.003906 229.648438 C 211.113281 230.347656 212.425781 230.578125 213.707031 230.292969 C 214.988281 230.003906 216.078125 229.238281 216.78125 228.128906 C 228.054688 210.355469 250.023438 202.175781 270.203125 208.238281 C 276.292969 210.066406 281.847656 213.042969 286.710938 217.074219 C 291.40625 220.972656 295.257812 225.683594 298.164062 231.082031 C 301.066406 236.484375 302.878906 242.296875 303.539062 248.359375 C 304.226562 254.640625 303.648438 260.914062 301.816406 267.003906 C 298.273438 278.796875 290.386719 288.601562 279.605469 294.609375 C 268.851562 300.601562 256.398438 302.171875 244.542969 299.027344 C 244.109375 298.910156 243.742188 298.628906 243.515625 298.242188 C 243.292969 297.855469 243.230469 297.394531 243.347656 296.960938 L 245.15625 290.214844 C 245.335938 289.542969 245.136719 288.867188 244.621094 288.40625 C 244.28125 288.097656 243.859375 287.9375 243.425781 287.9375 Z M 243.425781 287.9375 " fill-opacity="1" fill-rule="nonzero"/><path fill="#70af0c" d="M 186.496094 229.101562 L 184.515625 236.476562 C 154.070312 228.375 122.371094 245.90625 113.238281 276.296875 C 103.925781 307.289062 121.566406 340.082031 152.5625 349.394531 C 177.667969 356.9375 204.992188 346.757812 219.015625 324.644531 C 219.347656 324.125 219.59375 323.574219 219.765625 323.007812 C 220.59375 320.246094 219.53125 317.160156 216.976562 315.542969 C 213.898438 313.589844 209.824219 314.503906 207.875 317.582031 C 197.003906 334.71875 175.820312 342.609375 156.359375 336.761719 C 132.332031 329.542969 118.65625 304.121094 125.875 280.09375 C 132.949219 256.542969 157.507812 242.953125 181.101562 249.214844 L 179.292969 255.960938 C 178.554688 258.714844 181.253906 261.144531 183.914062 260.125 L 205.992188 251.648438 C 208.207031 250.796875 208.945312 248.039062 207.453125 246.195312 L 192.578125 227.8125 C 190.785156 225.59375 187.234375 226.347656 186.496094 229.101562 Z M 186.496094 229.101562 " fill-opacity="1" fill-rule="nonzero"/><path fill="#18795b" d="M 169.34375 353.546875 C 163.589844 353.546875 157.777344 352.722656 152.078125 351.007812 C 120.191406 341.429688 102.046875 307.695312 111.625 275.8125 C 116.160156 260.714844 126.261719 248.167969 140.0625 240.480469 C 153.34375 233.085938 168.640625 230.960938 183.320312 234.4375 L 184.867188 228.667969 C 185.375 226.777344 186.875 225.351562 188.789062 224.945312 C 190.703125 224.539062 192.65625 225.230469 193.886719 226.75 L 208.765625 245.132812 C 209.820312 246.4375 210.175781 248.113281 209.742188 249.730469 C 209.304688 251.347656 208.160156 252.621094 206.597656 253.222656 L 184.519531 261.695312 C 182.691406 262.398438 180.65625 262.019531 179.203125 260.710938 C 177.746094 259.402344 177.160156 257.414062 177.667969 255.527344 L 179.03125 250.441406 C 156.585938 245.371094 134.167969 258.347656 127.488281 280.578125 C 124.125 291.765625 125.332031 303.613281 130.882812 313.929688 C 136.433594 324.25 145.652344 331.785156 156.84375 335.144531 C 175.585938 340.777344 195.984375 333.183594 206.449219 316.679688 C 208.894531 312.820312 214.023438 311.675781 217.878906 314.117188 C 221.003906 316.097656 222.441406 319.953125 221.378906 323.492188 C 221.160156 324.214844 220.84375 324.90625 220.4375 325.546875 C 209.195312 343.273438 189.644531 353.546875 169.34375 353.546875 Z M 169.21875 236.148438 C 144.648438 236.148438 122.277344 252.066406 114.851562 276.78125 C 105.808594 306.886719 122.941406 338.734375 153.046875 347.78125 C 177.429688 355.105469 203.972656 345.222656 217.589844 323.742188 C 217.832031 323.359375 218.023438 322.949219 218.148438 322.523438 C 218.78125 320.425781 217.925781 318.140625 216.074219 316.964844 C 214.964844 316.261719 213.652344 316.035156 212.371094 316.320312 C 211.089844 316.605469 210 317.375 209.296875 318.484375 C 198.023438 336.257812 176.058594 344.4375 155.875 338.375 C 149.785156 336.542969 144.230469 333.570312 139.367188 329.535156 C 134.671875 325.640625 130.820312 320.925781 127.914062 315.527344 C 125.011719 310.128906 123.199219 304.316406 122.539062 298.25 C 121.851562 291.96875 122.429688 285.695312 124.261719 279.605469 C 127.804688 267.816406 135.691406 258.011719 146.472656 252.003906 C 157.226562 246.007812 169.679688 244.441406 181.535156 247.585938 C 181.96875 247.699219 182.335938 247.984375 182.5625 248.371094 C 182.785156 248.757812 182.847656 249.21875 182.730469 249.652344 L 180.921875 256.398438 C 180.742188 257.066406 180.941406 257.742188 181.457031 258.207031 C 181.972656 258.671875 182.664062 258.800781 183.3125 258.550781 L 205.390625 250.074219 C 205.933594 249.867188 206.335938 249.421875 206.484375 248.859375 C 206.636719 248.292969 206.511719 247.710938 206.144531 247.253906 L 191.269531 228.871094 C 190.832031 228.332031 190.167969 228.097656 189.488281 228.242188 C 188.8125 228.386719 188.300781 228.871094 188.121094 229.539062 L 186.144531 236.914062 C 185.90625 237.808594 184.984375 238.34375 184.085938 238.105469 C 179.109375 236.78125 174.117188 236.148438 169.21875 236.148438 Z M 186.496094 229.101562 Z M 186.496094 229.101562 " fill-opacity="1" fill-rule="nonzero"/><path fill="#70af0c" d="M 269.398438 229.472656 L 266.664062 232.652344 C 266.351562 233.011719 265.84375 233.117188 265.40625 232.929688 C 264.246094 232.433594 263.050781 232.042969 261.84375 231.757812 C 261.378906 231.648438 261.03125 231.261719 260.996094 230.785156 L 260.683594 226.605469 C 260.601562 225.484375 259.625 224.644531 258.507812 224.730469 L 250.703125 225.3125 C 249.585938 225.398438 248.746094 226.371094 248.828125 227.488281 L 249.144531 231.671875 C 249.179688 232.148438 248.894531 232.582031 248.453125 232.757812 C 247.296875 233.222656 246.175781 233.785156 245.101562 234.449219 C 244.695312 234.699219 244.179688 234.671875 243.816406 234.359375 L 240.640625 231.625 C 239.789062 230.890625 238.507812 230.988281 237.773438 231.835938 L 232.667969 237.769531 C 231.9375 238.617188 232.03125 239.902344 232.882812 240.632812 L 236.0625 243.367188 C 236.421875 243.679688 236.527344 244.1875 236.339844 244.625 C 235.84375 245.789062 235.453125 246.980469 235.167969 248.191406 C 235.058594 248.65625 234.671875 249 234.195312 249.035156 L 230.015625 249.347656 C 228.894531 249.429688 228.054688 250.40625 228.140625 251.523438 L 228.722656 259.328125 C 228.808594 260.445312 229.78125 261.285156 230.898438 261.203125 L 235.082031 260.890625 C 235.558594 260.855469 235.992188 261.136719 236.167969 261.582031 C 236.632812 262.734375 237.195312 263.855469 237.859375 264.929688 C 238.109375 265.335938 238.082031 265.855469 237.769531 266.214844 L 235.035156 269.394531 C 234.300781 270.242188 234.398438 271.527344 235.246094 272.257812 L 241.179688 277.363281 C 242.027344 278.09375 243.3125 278 244.042969 277.148438 L 246.777344 273.972656 C 247.089844 273.609375 247.597656 273.503906 248.035156 273.691406 C 249.199219 274.1875 250.390625 274.578125 251.601562 274.863281 C 252.066406 274.972656 252.410156 275.359375 252.445312 275.835938 L 252.757812 280.019531 C 252.839844 281.136719 253.816406 281.976562 254.933594 281.890625 L 262.738281 281.308594 C 263.855469 281.226562 264.695312 280.25 264.613281 279.132812 L 264.300781 274.949219 C 264.265625 274.472656 264.546875 274.039062 264.992188 273.863281 C 266.144531 273.398438 267.265625 272.835938 268.339844 272.171875 C 268.746094 271.921875 269.265625 271.949219 269.625 272.261719 L 272.804688 275 C 273.652344 275.730469 274.9375 275.632812 275.667969 274.785156 L 280.773438 268.851562 C 281.503906 268.003906 281.410156 266.722656 280.558594 265.988281 L 277.382812 263.253906 C 277.019531 262.941406 276.914062 262.433594 277.101562 261.996094 C 277.597656 260.835938 277.988281 259.640625 278.273438 258.433594 C 278.382812 257.964844 278.769531 257.621094 279.246094 257.585938 L 283.429688 257.273438 C 284.546875 257.191406 285.386719 256.214844 285.300781 255.097656 L 284.71875 247.292969 C 284.636719 246.175781 283.660156 245.335938 282.542969 245.417969 L 278.359375 245.730469 C 277.882812 245.769531 277.453125 245.484375 277.273438 245.042969 C 276.808594 243.886719 276.246094 242.765625 275.582031 241.691406 C 275.332031 241.285156 275.363281 240.769531 275.671875 240.40625 L 278.410156 237.226562 C 279.140625 236.378906 279.042969 235.097656 278.195312 234.363281 L 272.265625 229.257812 C 271.414062 228.527344 270.132812 228.621094 269.398438 229.472656 Z M 269.398438 229.472656 " fill-opacity="1" fill-rule="nonzero"/><path fill="#18795b" d="M 254.78125 283.582031 C 252.855469 283.582031 251.222656 282.09375 251.078125 280.144531 L 250.796875 276.402344 C 249.769531 276.136719 248.753906 275.804688 247.769531 275.40625 L 245.320312 278.25 C 243.984375 279.800781 241.632812 279.976562 240.078125 278.640625 L 234.148438 273.535156 C 232.59375 272.199219 232.417969 269.847656 233.757812 268.292969 L 236.203125 265.449219 C 235.664062 264.535156 235.183594 263.582031 234.769531 262.601562 L 231.027344 262.882812 C 230.035156 262.957031 229.078125 262.640625 228.324219 261.992188 C 227.570312 261.347656 227.117188 260.445312 227.042969 259.453125 L 226.460938 251.652344 C 226.304688 249.605469 227.84375 247.820312 229.886719 247.667969 L 233.628906 247.386719 C 233.894531 246.359375 234.226562 245.34375 234.628906 244.359375 L 231.785156 241.910156 C 231.03125 241.261719 230.578125 240.359375 230.503906 239.371094 C 230.429688 238.382812 230.742188 237.421875 231.390625 236.667969 L 236.496094 230.738281 C 237.835938 229.1875 240.183594 229.011719 241.738281 230.347656 L 244.582031 232.792969 C 245.496094 232.253906 246.449219 231.773438 247.429688 231.359375 L 247.148438 227.617188 C 247.074219 226.625 247.390625 225.667969 248.039062 224.914062 C 248.6875 224.160156 249.589844 223.707031 250.578125 223.632812 L 258.382812 223.050781 C 260.421875 222.898438 262.210938 224.433594 262.363281 226.476562 L 262.644531 230.21875 C 263.675781 230.484375 264.691406 230.816406 265.675781 231.21875 L 268.121094 228.375 C 269.460938 226.820312 271.808594 226.644531 273.363281 227.980469 L 279.292969 233.085938 C 280.046875 233.734375 280.5 234.636719 280.574219 235.625 C 280.648438 236.617188 280.332031 237.574219 279.6875 238.328125 L 277.238281 241.171875 C 277.777344 242.085938 278.261719 243.039062 278.675781 244.019531 L 282.417969 243.738281 C 283.40625 243.667969 284.367188 243.980469 285.117188 244.628906 C 285.871094 245.277344 286.324219 246.179688 286.398438 247.167969 L 286.984375 254.972656 C 287.058594 255.960938 286.742188 256.921875 286.09375 257.671875 C 285.445312 258.425781 284.542969 258.882812 283.554688 258.953125 L 279.8125 259.234375 C 279.546875 260.265625 279.214844 261.28125 278.816406 262.265625 L 281.660156 264.710938 C 283.210938 266.050781 283.386719 268.402344 282.050781 269.953125 L 276.945312 275.882812 C 276.296875 276.636719 275.394531 277.089844 274.40625 277.164062 C 273.414062 277.238281 272.457031 276.921875 271.703125 276.277344 L 268.859375 273.828125 C 267.945312 274.367188 266.992188 274.851562 266.011719 275.265625 L 266.292969 279.007812 C 266.367188 279.996094 266.050781 280.957031 265.402344 281.707031 C 264.757812 282.460938 263.855469 282.914062 262.863281 282.988281 L 255.058594 283.574219 C 254.964844 283.578125 254.875 283.582031 254.78125 283.582031 Z M 247.589844 271.914062 C 247.960938 271.914062 248.339844 271.988281 248.699219 272.140625 C 249.757812 272.59375 250.867188 272.960938 251.988281 273.226562 C 253.175781 273.507812 254.035156 274.503906 254.125 275.710938 L 254.4375 279.894531 C 254.453125 280.082031 254.617188 280.226562 254.808594 280.210938 L 262.613281 279.628906 C 262.730469 279.621094 262.808594 279.558594 262.847656 279.511719 C 262.890625 279.460938 262.941406 279.375 262.933594 279.257812 L 262.621094 275.074219 C 262.53125 273.871094 263.230469 272.753906 264.363281 272.300781 C 265.433594 271.871094 266.472656 271.34375 267.457031 270.738281 C 268.496094 270.097656 269.808594 270.199219 270.726562 270.984375 L 273.902344 273.722656 C 273.992188 273.800781 274.089844 273.808594 274.15625 273.804688 C 274.21875 273.800781 274.3125 273.773438 274.390625 273.683594 L 279.496094 267.753906 C 279.621094 267.609375 279.605469 267.390625 279.460938 267.265625 L 276.28125 264.53125 C 275.367188 263.742188 275.074219 262.457031 275.550781 261.335938 C 276.003906 260.273438 276.367188 259.167969 276.636719 258.042969 C 276.914062 256.855469 277.914062 255.996094 279.121094 255.90625 L 283.304688 255.59375 C 283.421875 255.585938 283.496094 255.523438 283.539062 255.476562 C 283.582031 255.425781 283.632812 255.339844 283.621094 255.222656 L 283.039062 247.417969 C 283.03125 247.300781 282.96875 247.226562 282.917969 247.183594 C 282.871094 247.140625 282.789062 247.089844 282.667969 247.101562 L 278.484375 247.414062 C 277.28125 247.503906 276.164062 246.800781 275.710938 245.667969 C 275.28125 244.597656 274.753906 243.558594 274.148438 242.574219 C 273.507812 241.535156 273.609375 240.222656 274.394531 239.308594 L 277.132812 236.128906 C 277.257812 235.984375 277.238281 235.765625 277.09375 235.640625 L 271.164062 230.535156 C 271.019531 230.410156 270.800781 230.425781 270.675781 230.570312 L 267.941406 233.75 C 267.152344 234.664062 265.867188 234.960938 264.746094 234.480469 C 263.683594 234.027344 262.578125 233.664062 261.453125 233.398438 C 260.265625 233.117188 259.40625 232.117188 259.316406 230.910156 L 259.003906 226.730469 C 258.996094 226.609375 258.933594 226.535156 258.886719 226.492188 C 258.835938 226.449219 258.753906 226.398438 258.632812 226.410156 L 250.828125 226.992188 C 250.710938 227.003906 250.636719 227.0625 250.59375 227.113281 C 250.550781 227.164062 250.5 227.246094 250.511719 227.363281 L 250.824219 231.546875 C 250.914062 232.753906 250.210938 233.867188 249.078125 234.324219 C 248.007812 234.753906 246.96875 235.277344 245.984375 235.882812 C 244.945312 236.523438 243.632812 236.425781 242.71875 235.636719 L 239.539062 232.902344 C 239.394531 232.777344 239.175781 232.792969 239.050781 232.9375 L 233.945312 238.867188 C 233.867188 238.957031 233.859375 239.054688 233.863281 239.121094 C 233.867188 239.183594 233.894531 239.277344 233.980469 239.355469 L 237.160156 242.089844 C 238.074219 242.878906 238.371094 244.164062 237.890625 245.289062 C 237.4375 246.347656 237.074219 247.457031 236.808594 248.578125 C 236.527344 249.765625 235.527344 250.625 234.320312 250.714844 L 230.140625 251.027344 C 230.019531 251.035156 229.945312 251.097656 229.902344 251.148438 C 229.859375 251.195312 229.8125 251.28125 229.820312 251.398438 L 230.402344 259.203125 C 230.414062 259.320312 230.472656 259.398438 230.523438 259.441406 C 230.574219 259.480469 230.65625 259.53125 230.773438 259.523438 L 234.957031 259.210938 C 236.160156 259.121094 237.277344 259.820312 237.734375 260.953125 C 238.164062 262.023438 238.6875 263.0625 239.292969 264.046875 C 239.933594 265.085938 239.835938 266.398438 239.046875 267.316406 L 236.3125 270.492188 C 236.1875 270.636719 236.203125 270.855469 236.347656 270.980469 L 242.277344 276.085938 C 242.421875 276.210938 242.640625 276.195312 242.765625 276.050781 L 245.5 272.871094 C 246.039062 272.25 246.804688 271.914062 247.589844 271.914062 Z M 247.589844 271.914062 " fill-opacity="1" fill-rule="nonzero"/><path fill="#ffffff" d="M 268.347656 252.277344 C 268.40625 253.058594 268.386719 253.835938 268.292969 254.609375 C 268.199219 255.382812 268.03125 256.144531 267.792969 256.886719 C 267.550781 257.625 267.238281 258.335938 266.859375 259.015625 C 266.476562 259.695312 266.035156 260.332031 265.527344 260.925781 C 265.023438 261.515625 264.464844 262.050781 263.855469 262.535156 C 263.246094 263.015625 262.59375 263.429688 261.902344 263.78125 C 261.210938 264.132812 260.492188 264.414062 259.746094 264.621094 C 259 264.832031 258.242188 264.964844 257.46875 265.023438 C 256.695312 265.082031 255.925781 265.0625 255.15625 264.96875 C 254.386719 264.871094 253.632812 264.703125 252.898438 264.457031 C 252.160156 264.214844 251.453125 263.898438 250.78125 263.515625 C 250.105469 263.128906 249.472656 262.683594 248.886719 262.171875 C 248.296875 261.664062 247.765625 261.101562 247.289062 260.484375 C 246.808594 259.871094 246.394531 259.214844 246.046875 258.515625 C 245.695312 257.816406 245.417969 257.09375 245.210938 256.339844 C 245 255.589844 244.867188 254.824219 244.808594 254.042969 C 244.75 253.265625 244.769531 252.488281 244.863281 251.710938 C 244.957031 250.9375 245.125 250.179688 245.367188 249.4375 C 245.605469 248.695312 245.917969 247.984375 246.300781 247.304688 C 246.679688 246.625 247.121094 245.988281 247.628906 245.398438 C 248.132812 244.804688 248.691406 244.269531 249.300781 243.789062 C 249.910156 243.308594 250.5625 242.890625 251.253906 242.539062 C 251.945312 242.1875 252.664062 241.90625 253.410156 241.699219 C 254.15625 241.488281 254.917969 241.355469 255.6875 241.296875 C 256.460938 241.242188 257.234375 241.257812 258 241.355469 C 258.769531 241.449219 259.523438 241.621094 260.261719 241.863281 C 260.996094 242.109375 261.703125 242.421875 262.375 242.808594 C 263.050781 243.191406 263.683594 243.640625 264.269531 244.148438 C 264.859375 244.660156 265.390625 245.222656 265.871094 245.835938 C 266.347656 246.453125 266.761719 247.109375 267.109375 247.804688 C 267.460938 248.503906 267.738281 249.226562 267.945312 249.980469 C 268.15625 250.734375 268.289062 251.5 268.347656 252.277344 Z M 268.347656 252.277344 " fill-opacity="1" fill-rule="nonzero"/><path fill="#18795b" d="M 256.558594 266.703125 C 254.140625 266.703125 251.71875 266.066406 249.597656 264.773438 C 245.78125 262.445312 243.40625 258.578125 243.074219 254.171875 C 242.746094 249.765625 244.523438 245.589844 247.945312 242.722656 C 252.296875 239.074219 258.71875 238.59375 263.566406 241.554688 C 267.378906 243.882812 269.753906 247.746094 270.085938 252.152344 C 270.414062 256.558594 268.640625 260.734375 265.214844 263.605469 C 262.769531 265.652344 259.667969 266.703125 256.558594 266.703125 Z M 256.59375 242.984375 C 254.265625 242.984375 251.945312 243.769531 250.113281 245.304688 C 247.527344 247.46875 246.1875 250.609375 246.4375 253.921875 C 246.683594 257.234375 248.476562 260.140625 251.351562 261.894531 C 254.980469 264.113281 259.789062 263.753906 263.050781 261.023438 C 265.632812 258.855469 266.972656 255.714844 266.726562 252.40625 C 266.476562 249.09375 264.683594 246.1875 261.808594 244.429688 C 260.21875 243.460938 258.40625 242.984375 256.59375 242.984375 Z M 256.59375 242.984375 " fill-opacity="1" fill-rule="nonzero"/><path fill="#c1ff72" d="M 181.105469 269.625 L 178.332031 272.769531 C 178.015625 273.128906 177.507812 273.226562 177.070312 273.035156 C 175.917969 272.527344 174.730469 272.121094 173.523438 271.824219 C 173.058594 271.707031 172.71875 271.316406 172.6875 270.839844 L 172.425781 266.65625 C 172.351562 265.535156 171.386719 264.683594 170.269531 264.757812 L 162.457031 265.25 C 161.339844 265.320312 160.488281 266.285156 160.558594 267.40625 L 160.824219 271.589844 C 160.855469 272.066406 160.566406 272.496094 160.121094 272.667969 C 158.960938 273.117188 157.832031 273.667969 156.75 274.320312 C 156.34375 274.566406 155.824219 274.53125 155.46875 274.214844 L 152.320312 271.441406 C 151.480469 270.703125 150.195312 270.78125 149.453125 271.625 L 144.28125 277.496094 C 143.539062 278.335938 143.621094 279.621094 144.460938 280.363281 L 147.609375 283.132812 C 147.964844 283.449219 148.066406 283.957031 147.875 284.394531 C 147.363281 285.550781 146.960938 286.738281 146.660156 287.945312 C 146.542969 288.410156 146.15625 288.75 145.675781 288.777344 L 141.492188 289.042969 C 140.371094 289.113281 139.523438 290.078125 139.59375 291.199219 L 140.085938 299.007812 C 140.15625 300.128906 141.121094 300.976562 142.242188 300.90625 L 146.425781 300.644531 C 146.902344 300.613281 147.332031 300.902344 147.507812 301.347656 C 147.957031 302.507812 148.507812 303.632812 149.15625 304.714844 C 149.402344 305.125 149.367188 305.640625 149.050781 306 L 146.28125 309.144531 C 145.539062 309.988281 145.621094 311.269531 146.460938 312.011719 L 152.332031 317.1875 C 153.175781 317.929688 154.457031 317.847656 155.199219 317.003906 L 157.972656 313.859375 C 158.289062 313.5 158.796875 313.402344 159.234375 313.59375 C 160.386719 314.101562 161.574219 314.507812 162.78125 314.808594 C 163.246094 314.921875 163.585938 315.3125 163.617188 315.789062 L 163.878906 319.976562 C 163.949219 321.09375 164.914062 321.945312 166.035156 321.875 L 173.84375 321.378906 C 174.964844 321.308594 175.816406 320.34375 175.746094 319.226562 L 175.480469 315.039062 C 175.449219 314.5625 175.738281 314.132812 176.183594 313.960938 C 177.34375 313.511719 178.46875 312.960938 179.550781 312.308594 C 179.960938 312.066406 180.480469 312.097656 180.835938 312.414062 L 183.984375 315.1875 C 184.824219 315.929688 186.109375 315.847656 186.851562 315.003906 L 192.023438 309.132812 C 192.765625 308.292969 192.683594 307.007812 191.84375 306.269531 L 188.695312 303.496094 C 188.339844 303.179688 188.238281 302.671875 188.429688 302.234375 C 188.941406 301.078125 189.34375 299.890625 189.644531 298.683594 C 189.761719 298.21875 190.148438 297.882812 190.625 297.851562 L 194.8125 297.585938 C 195.929688 297.515625 196.78125 296.550781 196.710938 295.429688 L 196.21875 287.621094 C 196.148438 286.503906 195.183594 285.652344 194.0625 285.722656 L 189.878906 285.988281 C 189.398438 286.015625 188.972656 285.730469 188.796875 285.285156 C 188.347656 284.125 187.796875 282.996094 187.148438 281.914062 C 186.902344 281.503906 186.9375 280.988281 187.25 280.628906 L 190.023438 277.484375 C 190.765625 276.640625 190.683594 275.359375 189.84375 274.617188 L 183.972656 269.445312 C 183.128906 268.703125 181.847656 268.78125 181.105469 269.625 Z M 181.105469 269.625 " fill-opacity="1" fill-rule="nonzero"/><path fill="#18795b" d="M 165.902344 323.5625 C 165 323.5625 164.136719 323.238281 163.449219 322.636719 C 162.707031 321.980469 162.261719 321.070312 162.199219 320.082031 L 161.960938 316.335938 C 160.9375 316.058594 159.925781 315.714844 158.945312 315.304688 L 156.464844 318.117188 C 155.808594 318.863281 154.902344 319.308594 153.910156 319.371094 C 152.917969 319.433594 151.964844 319.105469 151.21875 318.449219 L 145.347656 313.277344 C 144.601562 312.621094 144.160156 311.714844 144.09375 310.722656 C 144.03125 309.730469 144.359375 308.777344 145.015625 308.03125 L 147.496094 305.214844 C 146.964844 304.296875 146.496094 303.335938 146.09375 302.351562 L 142.347656 302.589844 C 141.355469 302.652344 140.402344 302.324219 139.65625 301.667969 C 138.914062 301.011719 138.46875 300.105469 138.40625 299.113281 L 137.910156 291.304688 C 137.78125 289.261719 139.339844 287.492188 141.386719 287.363281 L 145.132812 287.125 C 145.40625 286.097656 145.753906 285.085938 146.164062 284.105469 L 143.347656 281.625 C 141.8125 280.273438 141.664062 277.917969 143.015625 276.382812 L 148.191406 270.511719 C 148.847656 269.765625 149.753906 269.320312 150.746094 269.257812 C 151.734375 269.195312 152.691406 269.523438 153.433594 270.179688 L 156.25 272.660156 C 157.171875 272.128906 158.132812 271.660156 159.113281 271.257812 L 158.878906 267.511719 C 158.816406 266.519531 159.140625 265.5625 159.796875 264.820312 C 160.453125 264.074219 161.363281 263.628906 162.351562 263.566406 L 170.164062 263.074219 C 171.152344 263.011719 172.109375 263.339844 172.851562 263.996094 C 173.597656 264.652344 174.042969 265.558594 174.105469 266.546875 L 174.34375 270.292969 C 175.367188 270.570312 176.378906 270.914062 177.359375 271.324219 L 179.839844 268.511719 L 181.105469 269.625 L 179.839844 268.511719 C 181.195312 266.972656 183.546875 266.824219 185.085938 268.179688 L 190.957031 273.351562 C 192.492188 274.707031 192.644531 277.058594 191.289062 278.597656 L 188.808594 281.414062 C 189.335938 282.332031 189.808594 283.292969 190.210938 284.277344 L 193.957031 284.039062 C 194.945312 283.976562 195.902344 284.304688 196.648438 284.960938 C 197.390625 285.617188 197.835938 286.523438 197.898438 287.515625 L 198.390625 295.324219 C 198.453125 296.316406 198.128906 297.269531 197.472656 298.015625 C 196.816406 298.761719 195.910156 299.207031 194.917969 299.269531 L 191.171875 299.503906 C 190.898438 300.53125 190.550781 301.542969 190.140625 302.523438 L 192.957031 305.003906 C 194.492188 306.359375 194.640625 308.710938 193.289062 310.25 L 188.113281 316.121094 C 187.457031 316.863281 186.550781 317.308594 185.558594 317.371094 C 184.570312 317.433594 183.613281 317.105469 182.867188 316.449219 L 180.054688 313.96875 C 179.132812 314.5 178.171875 314.972656 177.191406 315.375 L 177.425781 319.117188 C 177.488281 320.109375 177.160156 321.066406 176.503906 321.808594 C 175.847656 322.554688 174.941406 323 173.953125 323.0625 L 166.140625 323.554688 C 166.0625 323.558594 165.980469 323.5625 165.902344 323.5625 Z M 158.777344 311.8125 C 159.15625 311.8125 159.542969 311.890625 159.910156 312.050781 C 160.96875 312.515625 162.070312 312.894531 163.191406 313.171875 C 164.375 313.46875 165.222656 314.476562 165.296875 315.683594 L 165.5625 319.867188 C 165.570312 319.988281 165.628906 320.0625 165.679688 320.105469 C 165.726562 320.148438 165.8125 320.199219 165.929688 320.191406 L 173.738281 319.699219 C 173.859375 319.691406 173.933594 319.632812 173.976562 319.582031 C 174.019531 319.535156 174.070312 319.449219 174.0625 319.332031 L 173.800781 315.144531 C 173.722656 313.941406 174.4375 312.832031 175.574219 312.390625 C 176.648438 311.972656 177.695312 311.460938 178.683594 310.867188 C 179.730469 310.238281 181.042969 310.351562 181.949219 311.148438 L 185.097656 313.921875 C 185.1875 314 185.28125 314.011719 185.347656 314.007812 C 185.414062 314.003906 185.507812 313.980469 185.585938 313.890625 L 190.757812 308.019531 C 190.886719 307.878906 190.871094 307.65625 190.730469 307.53125 L 187.582031 304.757812 C 186.675781 303.960938 186.398438 302.671875 186.890625 301.554688 C 187.355469 300.5 187.730469 299.398438 188.011719 298.277344 C 188.304688 297.09375 189.3125 296.246094 190.519531 296.167969 L 194.707031 295.90625 C 194.898438 295.894531 195.042969 295.726562 195.03125 295.539062 L 194.535156 287.726562 C 194.527344 287.609375 194.46875 287.53125 194.417969 287.488281 C 194.371094 287.445312 194.285156 287.398438 194.167969 287.402344 L 189.984375 287.667969 C 188.777344 287.746094 187.667969 287.03125 187.226562 285.894531 C 186.808594 284.816406 186.296875 283.769531 185.703125 282.78125 C 185.074219 281.734375 185.1875 280.421875 185.988281 279.515625 L 188.761719 276.371094 C 188.886719 276.226562 188.871094 276.007812 188.730469 275.882812 L 182.859375 270.707031 C 182.714844 270.582031 182.496094 270.59375 182.371094 270.738281 L 179.597656 273.882812 C 178.796875 274.789062 177.511719 275.070312 176.394531 274.578125 C 175.335938 274.113281 174.234375 273.734375 173.113281 273.457031 C 171.929688 273.160156 171.082031 272.152344 171.007812 270.945312 L 170.742188 266.761719 C 170.734375 266.640625 170.675781 266.566406 170.625 266.523438 C 170.578125 266.480469 170.492188 266.429688 170.375 266.4375 L 162.566406 266.929688 C 162.445312 266.9375 162.371094 267 162.328125 267.046875 C 162.285156 267.097656 162.234375 267.179688 162.242188 267.296875 L 162.507812 271.484375 C 162.582031 272.691406 161.867188 273.796875 160.730469 274.238281 C 159.65625 274.65625 158.609375 275.167969 157.621094 275.761719 C 156.574219 276.390625 155.261719 276.277344 154.355469 275.480469 L 151.207031 272.707031 C 151.117188 272.628906 151.023438 272.617188 150.957031 272.621094 C 150.890625 272.625 150.796875 272.648438 150.71875 272.738281 L 145.546875 278.609375 C 145.417969 278.753906 145.433594 278.972656 145.578125 279.097656 L 148.722656 281.871094 C 149.628906 282.667969 149.90625 283.957031 149.414062 285.074219 C 148.949219 286.128906 148.574219 287.234375 148.296875 288.351562 C 148 289.535156 146.992188 290.382812 145.785156 290.460938 L 141.597656 290.722656 C 141.410156 290.738281 141.261719 290.902344 141.273438 291.09375 L 141.769531 298.902344 C 141.777344 299.019531 141.835938 299.097656 141.886719 299.140625 C 141.933594 299.183594 142.015625 299.234375 142.136719 299.226562 L 146.320312 298.960938 C 147.527344 298.886719 148.636719 299.597656 149.078125 300.738281 C 149.496094 301.8125 150.007812 302.859375 150.601562 303.847656 C 151.230469 304.894531 151.117188 306.207031 150.316406 307.113281 L 147.546875 310.257812 C 147.464844 310.347656 147.457031 310.445312 147.460938 310.511719 C 147.464844 310.574219 147.488281 310.667969 147.574219 310.75 L 153.445312 315.921875 C 153.535156 316 153.632812 316.011719 153.699219 316.007812 C 153.761719 316.003906 153.855469 315.980469 153.9375 315.890625 L 156.707031 312.746094 C 157.242188 312.136719 158 311.8125 158.777344 311.8125 Z M 158.777344 311.8125 " fill-opacity="1" fill-rule="nonzero"/><path fill="#ffffff" d="M 179.167969 289.070312 C 179.449219 289.800781 179.65625 290.546875 179.789062 291.316406 C 179.921875 292.085938 179.980469 292.863281 179.960938 293.640625 C 179.945312 294.421875 179.851562 295.191406 179.683594 295.953125 C 179.511719 296.714844 179.273438 297.449219 178.960938 298.160156 C 178.644531 298.875 178.265625 299.546875 177.820312 300.183594 C 177.375 300.820312 176.871094 301.40625 176.3125 301.941406 C 175.75 302.476562 175.140625 302.953125 174.488281 303.367188 C 173.832031 303.785156 173.144531 304.128906 172.421875 304.40625 C 171.695312 304.6875 170.953125 304.890625 170.191406 305.019531 C 169.425781 305.152344 168.65625 305.207031 167.878906 305.183594 C 167.105469 305.160156 166.339844 305.0625 165.582031 304.890625 C 164.824219 304.714844 164.089844 304.46875 163.382812 304.152344 C 162.671875 303.832031 162 303.445312 161.363281 302.996094 C 160.730469 302.542969 160.144531 302.035156 159.609375 301.464844 C 159.074219 300.898438 158.597656 300.285156 158.179688 299.625 C 157.765625 298.964844 157.417969 298.269531 157.136719 297.539062 C 156.855469 296.8125 156.648438 296.0625 156.515625 295.292969 C 156.382812 294.523438 156.324219 293.75 156.339844 292.96875 C 156.359375 292.1875 156.453125 291.417969 156.621094 290.65625 C 156.789062 289.898438 157.03125 289.160156 157.34375 288.449219 C 157.65625 287.734375 158.039062 287.0625 158.484375 286.425781 C 158.929688 285.789062 159.433594 285.203125 159.992188 284.667969 C 160.554688 284.132812 161.160156 283.65625 161.816406 283.242188 C 162.472656 282.828125 163.160156 282.480469 163.882812 282.203125 C 164.605469 281.921875 165.351562 281.71875 166.113281 281.589844 C 166.878906 281.457031 167.648438 281.402344 168.421875 281.425781 C 169.199219 281.449219 169.964844 281.546875 170.722656 281.71875 C 171.480469 281.894531 172.214844 282.140625 172.921875 282.460938 C 173.632812 282.777344 174.304688 283.164062 174.9375 283.613281 C 175.574219 284.066406 176.160156 284.578125 176.695312 285.144531 C 177.230469 285.710938 177.707031 286.324219 178.121094 286.984375 C 178.539062 287.644531 178.886719 288.339844 179.167969 289.070312 Z M 179.167969 289.070312 " fill-opacity="1" fill-rule="nonzero"/><path fill="#18795b" d="M 168.117188 306.867188 C 167.011719 306.867188 165.898438 306.730469 164.808594 306.445312 C 160.484375 305.3125 157.097656 302.296875 155.511719 298.171875 C 153.925781 294.046875 154.421875 289.539062 156.878906 285.800781 C 159.992188 281.058594 166.003906 278.746094 171.496094 280.183594 C 175.820312 281.316406 179.207031 284.332031 180.792969 288.457031 C 182.378906 292.582031 181.882812 297.09375 179.425781 300.828125 C 176.929688 304.628906 172.574219 306.867188 168.117188 306.867188 Z M 168.164062 283.128906 C 164.828125 283.128906 161.5625 284.804688 159.695312 287.652344 C 157.84375 290.46875 157.464844 293.863281 158.65625 296.964844 C 159.847656 300.0625 162.402344 302.332031 165.660156 303.183594 C 169.773438 304.261719 174.277344 302.53125 176.609375 298.976562 C 178.460938 296.160156 178.839844 292.765625 177.648438 289.667969 C 176.457031 286.566406 173.902344 284.296875 170.644531 283.445312 C 169.824219 283.230469 168.992188 283.128906 168.164062 283.128906 Z M 168.164062 283.128906 " fill-opacity="1" fill-rule="nonzero"/><path fill="#ffffff" d="M 45.417969 158.128906 L 36.117188 158.128906 C 30.703125 158.128906 26.3125 162.515625 26.3125 167.933594 L 26.3125 209.664062 C 26.3125 215.078125 30.703125 219.46875 36.117188 219.46875 L 77.847656 219.46875 C 82.972656 219.46875 87.179688 215.539062 87.617188 210.527344 C 87.660156 210.03125 88.09375 209.664062 88.585938 209.664062 L 99.945312 209.664062 C 101.777344 209.664062 102.609375 207.367188 101.199219 206.195312 L 88.007812 195.230469 C 87.785156 195.042969 87.65625 194.765625 87.65625 194.472656 L 87.65625 167.546875 C 87.65625 162.28125 83.378906 158.019531 78.113281 158.035156 Z M 45.417969 158.128906 " fill-opacity="1" fill-rule="nonzero"/><g clip-path="url(#1e92bb1516)"><path fill="#18795b" d="M 77.847656 221.152344 L 36.117188 221.152344 C 29.78125 221.152344 24.628906 216 24.628906 209.664062 L 24.628906 167.933594 C 24.628906 161.597656 29.78125 156.441406 36.117188 156.441406 L 45.414062 156.441406 L 78.109375 156.347656 C 78.117188 156.347656 78.128906 156.347656 78.140625 156.347656 C 81.125 156.347656 83.933594 157.507812 86.046875 159.617188 C 88.171875 161.734375 89.339844 164.550781 89.339844 167.546875 L 89.339844 194.144531 L 102.273438 204.898438 C 103.46875 205.894531 103.902344 207.480469 103.375 208.941406 C 102.84375 210.402344 101.5 211.347656 99.945312 211.347656 L 89.214844 211.347656 C 88.835938 213.941406 87.578125 216.324219 85.632812 218.117188 C 83.503906 220.074219 80.742188 221.152344 77.847656 221.152344 Z M 36.117188 159.8125 C 31.640625 159.8125 27.996094 163.453125 27.996094 167.933594 L 27.996094 209.664062 C 27.996094 214.140625 31.640625 217.785156 36.117188 217.785156 L 77.847656 217.785156 C 82.023438 217.785156 85.574219 214.53125 85.9375 210.378906 C 86.054688 209.035156 87.21875 207.980469 88.585938 207.980469 L 99.945312 207.980469 C 100 207.980469 100.136719 207.980469 100.203125 207.796875 C 100.269531 207.613281 100.164062 207.527344 100.121094 207.492188 L 86.929688 196.523438 C 86.320312 196.019531 85.96875 195.269531 85.96875 194.472656 L 85.96875 167.546875 C 85.96875 165.453125 85.152344 163.484375 83.667969 162.003906 C 82.191406 160.53125 80.226562 159.71875 78.140625 159.71875 C 78.132812 159.71875 78.125 159.71875 78.117188 159.71875 L 45.421875 159.8125 C 45.421875 159.8125 45.421875 159.8125 45.417969 159.8125 Z M 36.117188 159.8125 " fill-opacity="1" fill-rule="nonzero"/></g><path fill="#ffffff" d="M 161.359375 130.703125 L 170.660156 130.703125 C 176.074219 130.703125 180.464844 126.3125 180.464844 120.898438 L 180.464844 79.167969 C 180.464844 73.75 176.074219 69.359375 170.660156 69.359375 L 128.929688 69.359375 C 123.804688 69.359375 119.597656 73.292969 119.164062 78.304688 C 119.121094 78.796875 118.6875 79.167969 118.191406 79.167969 L 106.835938 79.167969 C 105 79.167969 104.167969 81.460938 105.582031 82.636719 L 118.769531 93.601562 C 118.996094 93.789062 119.125 94.0625 119.125 94.355469 L 119.125 121.28125 C 119.125 126.546875 123.402344 130.8125 128.667969 130.796875 Z M 161.359375 130.703125 " fill-opacity="1" fill-rule="nonzero"/><path fill="#18795b" d="M 128.636719 132.480469 C 125.652344 132.480469 122.84375 131.320312 120.730469 129.210938 C 118.609375 127.097656 117.4375 124.28125 117.4375 121.28125 L 117.4375 94.6875 L 104.503906 83.929688 C 103.308594 82.9375 102.878906 81.351562 103.40625 79.890625 C 103.933594 78.425781 105.28125 77.480469 106.835938 77.480469 L 117.5625 77.480469 C 117.945312 74.890625 119.199219 72.507812 121.144531 70.714844 C 123.273438 68.753906 126.035156 67.675781 128.929688 67.675781 L 170.660156 67.675781 C 176.996094 67.675781 182.152344 72.832031 182.152344 79.167969 L 182.152344 120.898438 C 182.152344 127.234375 176.996094 132.386719 170.660156 132.386719 L 161.363281 132.386719 L 128.671875 132.480469 C 128.660156 132.480469 128.648438 132.480469 128.636719 132.480469 Z M 106.835938 80.851562 C 106.777344 80.851562 106.640625 80.851562 106.574219 81.035156 C 106.507812 81.214844 106.613281 81.300781 106.65625 81.339844 L 119.847656 92.304688 C 120.457031 92.8125 120.808594 93.558594 120.808594 94.355469 L 120.808594 121.28125 C 120.808594 123.378906 121.625 125.347656 123.109375 126.828125 C 124.589844 128.300781 126.550781 129.113281 128.636719 129.113281 C 128.644531 129.113281 128.652344 129.113281 128.660156 129.113281 L 161.355469 129.019531 C 161.355469 129.019531 161.359375 129.019531 161.359375 129.019531 L 170.660156 129.019531 C 175.136719 129.019531 178.78125 125.375 178.78125 120.898438 L 178.78125 79.167969 C 178.78125 74.6875 175.136719 71.046875 170.660156 71.046875 L 128.929688 71.046875 C 124.753906 71.046875 121.203125 74.296875 120.839844 78.449219 C 120.722656 79.796875 119.558594 80.851562 118.191406 80.851562 Z M 106.835938 80.851562 " fill-opacity="1" fill-rule="nonzero"/><path fill="#70af0c" d="M 62.332031 66.566406 C 62.316406 66.566406 62.300781 66.566406 62.28125 66.566406 C 42.324219 66.589844 26.152344 79.742188 26.152344 95.96875 C 26.152344 100.386719 27.355469 104.578125 29.507812 108.339844 L 29.5 126.574219 C 29.5 128.328125 31.628906 129.203125 32.859375 127.953125 L 40.652344 120.042969 C 40.785156 119.910156 40.945312 119.824219 41.117188 119.785156 C 47.078125 123.296875 54.40625 125.371094 62.332031 125.371094 C 82.316406 125.371094 98.511719 112.207031 98.511719 95.96875 C 98.511719 79.730469 82.316406 66.566406 62.332031 66.566406 Z M 62.332031 66.566406 " fill-opacity="1" fill-rule="nonzero"/><g clip-path="url(#e2d2f01cf4)"><path fill="#18795b" d="M 31.46875 130.222656 C 31 130.222656 30.53125 130.132812 30.078125 129.949219 C 28.703125 129.382812 27.816406 128.058594 27.816406 126.574219 L 27.820312 108.78125 C 25.597656 104.746094 24.46875 100.4375 24.46875 95.96875 C 24.46875 87.605469 28.445312 79.761719 35.671875 73.882812 C 42.792969 68.089844 52.242188 64.890625 62.28125 64.878906 L 62.332031 64.878906 C 72.382812 64.878906 81.847656 68.074219 88.980469 73.871094 C 96.214844 79.75 100.199219 87.597656 100.199219 95.96875 C 100.199219 104.339844 96.214844 112.1875 88.980469 118.066406 C 81.847656 123.863281 72.382812 127.054688 62.332031 127.054688 C 54.765625 127.054688 47.511719 125.246094 41.273438 121.8125 L 34.058594 129.132812 C 33.359375 129.847656 32.421875 130.222656 31.46875 130.222656 Z M 62.335938 68.25 L 62.28125 68.25 C 43.289062 68.273438 27.839844 80.707031 27.839844 95.96875 C 27.839844 99.988281 28.890625 103.871094 30.96875 107.503906 C 31.113281 107.757812 31.191406 108.046875 31.191406 108.339844 L 31.1875 126.574219 C 31.1875 126.625 31.1875 126.761719 31.359375 126.832031 C 31.527344 126.902344 31.625 126.804688 31.660156 126.769531 L 39.453125 118.859375 C 39.804688 118.507812 40.242188 118.261719 40.726562 118.144531 C 41.148438 118.042969 41.597656 118.109375 41.972656 118.332031 C 47.914062 121.835938 54.953125 123.683594 62.332031 123.683594 C 81.355469 123.683594 96.828125 111.25 96.828125 95.96875 C 96.828125 80.683594 81.355469 68.25 62.335938 68.25 Z M 62.335938 68.25 " fill-opacity="1" fill-rule="nonzero"/></g><path fill="#70af0c" d="M 144.59375 221.992188 C 144.613281 221.992188 144.628906 221.992188 144.644531 221.992188 C 164.605469 221.96875 180.773438 208.816406 180.773438 192.589844 C 180.773438 188.171875 179.574219 183.980469 177.421875 180.21875 L 177.425781 161.984375 C 177.429688 160.230469 175.300781 159.355469 174.070312 160.605469 L 166.273438 168.515625 C 166.144531 168.648438 165.980469 168.734375 165.8125 168.773438 C 159.851562 165.261719 152.519531 163.1875 144.59375 163.1875 C 124.613281 163.1875 108.414062 176.351562 108.414062 192.589844 C 108.414062 208.828125 124.613281 221.992188 144.59375 221.992188 Z M 144.59375 221.992188 " fill-opacity="1" fill-rule="nonzero"/><path fill="#18795b" d="M 144.59375 223.679688 C 134.546875 223.679688 125.082031 220.484375 117.949219 214.6875 C 110.714844 208.808594 106.730469 200.960938 106.730469 192.589844 C 106.730469 184.21875 110.714844 176.371094 117.949219 170.492188 C 125.082031 164.695312 134.546875 161.503906 144.59375 161.503906 C 152.160156 161.503906 159.414062 163.3125 165.652344 166.746094 L 172.871094 159.421875 C 173.914062 158.363281 175.476562 158.046875 176.851562 158.609375 C 178.226562 159.175781 179.113281 160.5 179.113281 161.984375 L 179.105469 179.777344 C 181.332031 183.8125 182.460938 188.121094 182.460938 192.589844 C 182.460938 200.953125 178.480469 208.796875 171.257812 214.675781 C 164.136719 220.46875 154.6875 223.667969 144.648438 223.679688 Z M 144.59375 164.875 C 125.574219 164.875 110.101562 177.308594 110.101562 192.589844 C 110.101562 207.875 125.574219 220.308594 144.59375 220.308594 L 144.644531 220.308594 C 163.636719 220.285156 179.089844 207.851562 179.089844 192.589844 C 179.089844 188.570312 178.035156 184.6875 175.960938 181.054688 C 175.8125 180.800781 175.738281 180.511719 175.738281 180.21875 L 175.742188 161.984375 C 175.742188 161.933594 175.742188 161.796875 175.570312 161.726562 C 175.398438 161.65625 175.304688 161.753906 175.269531 161.789062 L 167.476562 169.699219 C 167.125 170.050781 166.6875 170.296875 166.203125 170.414062 C 165.777344 170.515625 165.332031 170.449219 164.957031 170.226562 C 159.015625 166.722656 151.972656 164.875 144.59375 164.875 Z M 144.59375 164.875 " fill-opacity="1" fill-rule="nonzero"/><path fill="#ffffff" d="M 131.664062 116.285156 C 132.542969 117.164062 133.375 118.082031 134.164062 119.039062 C 134.949219 120 135.691406 120.996094 136.378906 122.027344 C 137.070312 123.058594 137.707031 124.125 138.292969 125.21875 C 138.875 126.3125 139.40625 127.433594 139.882812 128.578125 C 140.355469 129.726562 140.773438 130.894531 141.136719 132.082031 C 141.496094 133.269531 141.796875 134.472656 142.039062 135.691406 C 142.28125 136.90625 142.460938 138.132812 142.585938 139.367188 C 142.707031 140.605469 142.765625 141.84375 142.765625 143.082031 C 142.765625 144.324219 142.707031 145.5625 142.585938 146.796875 C 142.464844 148.035156 142.28125 149.261719 142.039062 150.476562 C 141.796875 151.695312 141.496094 152.898438 141.136719 154.085938 C 140.773438 155.273438 140.355469 156.441406 139.882812 157.585938 C 139.40625 158.734375 138.878906 159.855469 138.292969 160.949219 C 137.707031 162.042969 137.070312 163.109375 136.378906 164.140625 C 135.691406 165.171875 134.953125 166.167969 134.164062 167.128906 C 133.378906 168.085938 132.542969 169.003906 131.667969 169.882812 C 130.789062 170.761719 129.871094 171.59375 128.910156 172.382812 C 127.953125 173.167969 126.957031 173.90625 125.921875 174.597656 C 124.890625 175.285156 123.828125 175.925781 122.734375 176.507812 C 121.640625 177.09375 120.519531 177.625 119.371094 178.097656 C 118.222656 178.574219 117.058594 178.992188 115.871094 179.351562 C 114.679688 179.714844 113.480469 180.015625 112.261719 180.257812 C 111.042969 180.5 109.816406 180.679688 108.582031 180.800781 C 107.347656 180.925781 106.109375 180.984375 104.867188 180.984375 C 103.625 180.984375 102.386719 180.925781 101.152344 180.800781 C 99.917969 180.679688 98.691406 180.5 97.472656 180.257812 C 96.257812 180.015625 95.054688 179.714844 93.867188 179.351562 C 92.679688 178.992188 91.511719 178.574219 90.363281 178.101562 C 89.21875 177.625 88.097656 177.09375 87 176.511719 C 85.90625 175.925781 84.84375 175.289062 83.8125 174.597656 C 82.777344 173.90625 81.785156 173.167969 80.824219 172.382812 C 79.863281 171.59375 78.945312 170.761719 78.066406 169.882812 C 77.191406 169.007812 76.355469 168.089844 75.570312 167.128906 C 74.78125 166.167969 74.042969 165.171875 73.355469 164.140625 C 72.664062 163.109375 72.027344 162.046875 71.441406 160.949219 C 70.855469 159.855469 70.328125 158.734375 69.851562 157.589844 C 69.375 156.441406 68.960938 155.273438 68.597656 154.085938 C 68.238281 152.898438 67.9375 151.695312 67.695312 150.480469 C 67.453125 149.261719 67.269531 148.035156 67.148438 146.800781 C 67.027344 145.566406 66.964844 144.328125 66.964844 143.085938 C 66.964844 141.84375 67.027344 140.605469 67.148438 139.371094 C 67.269531 138.136719 67.453125 136.910156 67.695312 135.691406 C 67.9375 134.472656 68.238281 133.269531 68.597656 132.082031 C 68.957031 130.894531 69.375 129.726562 69.851562 128.582031 C 70.328125 127.433594 70.855469 126.3125 71.441406 125.21875 C 72.027344 124.125 72.664062 123.0625 73.351562 122.027344 C 74.042969 120.996094 74.78125 120 75.570312 119.042969 C 76.355469 118.082031 77.1875 117.164062 78.066406 116.285156 C 78.945312 115.40625 79.863281 114.574219 80.824219 113.789062 C 81.78125 113 82.777344 112.261719 83.808594 111.570312 C 84.84375 110.882812 85.90625 110.246094 87 109.660156 C 88.09375 109.074219 89.214844 108.542969 90.363281 108.070312 C 91.507812 107.59375 92.675781 107.175781 93.863281 106.816406 C 95.050781 106.457031 96.253906 106.15625 97.472656 105.914062 C 98.691406 105.671875 99.914062 105.488281 101.152344 105.367188 C 102.386719 105.246094 103.625 105.183594 104.867188 105.183594 C 106.105469 105.183594 107.34375 105.246094 108.582031 105.367188 C 109.816406 105.488281 111.042969 105.671875 112.261719 105.914062 C 113.476562 106.15625 114.679688 106.457031 115.867188 106.816406 C 117.054688 107.175781 118.222656 107.59375 119.371094 108.070312 C 120.515625 108.542969 121.636719 109.074219 122.730469 109.660156 C 123.828125 110.246094 124.890625 110.882812 125.921875 111.570312 C 126.953125 112.261719 127.949219 113 128.910156 113.785156 C 129.871094 114.574219 130.789062 115.40625 131.664062 116.285156 Z M 131.664062 116.285156 " fill-opacity="1" fill-rule="nonzero"/><path fill="#18795b" d="M 104.859375 182.667969 C 94.433594 182.671875 84.609375 178.660156 77.15625 171.347656 C 69.605469 163.945312 65.390625 154.046875 65.285156 143.472656 C 65.183594 132.898438 69.203125 122.917969 76.605469 115.371094 C 84.007812 107.820312 93.910156 103.605469 104.480469 103.5 C 115.0625 103.398438 125.035156 107.417969 132.585938 114.820312 C 140.132812 122.222656 144.347656 132.121094 144.453125 142.695312 C 144.558594 153.269531 140.535156 163.25 133.132812 170.800781 C 125.730469 178.347656 115.832031 182.5625 105.257812 182.667969 C 105.125 182.667969 104.992188 182.667969 104.859375 182.667969 Z M 104.515625 106.871094 C 94.839844 106.964844 85.785156 110.820312 79.011719 117.730469 C 72.238281 124.636719 68.5625 133.765625 68.65625 143.441406 C 68.851562 163.289062 85.058594 179.300781 104.863281 179.300781 C 104.984375 179.300781 105.105469 179.300781 105.226562 179.296875 C 114.898438 179.203125 123.953125 175.347656 130.726562 168.441406 C 137.5 161.53125 141.179688 152.402344 141.082031 142.730469 C 140.988281 133.054688 137.132812 124 130.226562 117.226562 C 123.316406 110.453125 114.1875 106.777344 104.515625 106.871094 Z M 104.496094 105.1875 L 104.5 105.1875 Z M 104.496094 105.1875 " fill-opacity="1" fill-rule="nonzero"/><path fill="#c1ff72" d="M 104.28125 168.445312 L 121.4375 153.296875 C 129.019531 145.710938 130.171875 141.296875 128.882812 136.125 C 127.902344 132.21875 125.226562 127.742188 118.878906 125.960938 C 113.5625 124.46875 107.828125 127.21875 103.898438 131.097656 C 103.867188 131.125 103.839844 131.15625 103.808594 131.183594 C 103.78125 131.15625 103.75 131.125 103.722656 131.097656 C 99.792969 127.21875 94.058594 124.46875 88.742188 125.960938 C 82.394531 127.742188 79.714844 132.21875 78.738281 136.125 C 77.445312 141.296875 78.144531 145.253906 86.371094 153.480469 L 103.339844 168.445312 C 103.609375 168.683594 104.011719 168.683594 104.28125 168.445312 Z M 104.28125 168.445312 " fill-opacity="1" fill-rule="nonzero"/><path fill="#18795b" d="M 103.808594 170.304688 C 103.242188 170.304688 102.675781 170.105469 102.222656 169.707031 L 85.253906 154.742188 C 85.226562 154.71875 85.203125 154.695312 85.179688 154.671875 C 76.515625 146.007812 75.660156 141.492188 77.105469 135.71875 C 77.933594 132.40625 80.484375 126.527344 88.289062 124.339844 C 91.105469 123.546875 94.238281 123.757812 97.351562 124.941406 C 99.621094 125.804688 101.828125 127.15625 103.808594 128.882812 C 105.789062 127.15625 108 125.804688 110.269531 124.941406 C 113.378906 123.757812 116.515625 123.546875 119.332031 124.339844 C 127.136719 126.527344 129.6875 132.40625 130.515625 135.71875 C 131.316406 138.925781 131.175781 141.613281 130.050781 144.429688 C 128.863281 147.414062 126.503906 150.609375 122.628906 154.488281 C 122.601562 154.511719 122.578125 154.535156 122.550781 154.558594 L 105.398438 169.707031 C 104.945312 170.105469 104.378906 170.304688 103.808594 170.304688 Z M 103.167969 167.179688 Z M 87.523438 152.25 L 103.808594 166.613281 L 120.28125 152.066406 C 127.574219 144.765625 128.355469 140.972656 127.246094 136.535156 C 126.453125 133.359375 124.277344 129.226562 118.421875 127.582031 C 113.503906 126.203125 108.304688 129.113281 105.082031 132.296875 L 105.003906 132.375 C 104.6875 132.691406 104.257812 132.871094 103.8125 132.871094 C 103.8125 132.871094 103.8125 132.871094 103.808594 132.871094 C 103.363281 132.871094 102.933594 132.691406 102.617188 132.375 L 102.539062 132.296875 C 99.3125 129.113281 94.117188 126.203125 89.199219 127.582031 C 83.34375 129.226562 81.167969 133.359375 80.375 136.535156 C 79.339844 140.667969 79.28125 144 87.523438 152.25 Z M 87.523438 152.25 " fill-opacity="1" fill-rule="nonzero"/><path fill="#18795b" d="M 105.875 159.789062 C 105.84375 159.789062 105.808594 159.785156 105.777344 159.785156 C 105.105469 159.746094 104.519531 159.3125 104.289062 158.675781 C 102.109375 152.660156 99.121094 144.449219 97.339844 139.636719 L 93.511719 149.550781 C 93.261719 150.199219 92.636719 150.628906 91.941406 150.628906 L 67.421875 150.628906 C 66.492188 150.628906 65.738281 149.875 65.738281 148.945312 C 65.738281 148.011719 66.492188 147.257812 67.421875 147.257812 L 90.785156 147.257812 L 95.773438 134.34375 C 96.023438 133.695312 96.644531 133.265625 97.339844 133.261719 C 97.34375 133.261719 97.34375 133.261719 97.347656 133.261719 C 98.492188 133.261719 98.894531 134.246094 99.027344 134.570312 C 99.097656 134.75 99.199219 135.007812 99.328125 135.339844 C 99.558594 135.945312 99.894531 136.832031 100.320312 137.980469 C 101.03125 139.902344 102.019531 142.582031 103.246094 145.949219 C 104.285156 148.796875 105.328125 151.660156 106.117188 153.832031 L 108.917969 148.195312 C 109.203125 147.621094 109.789062 147.257812 110.429688 147.257812 L 142.316406 147.257812 C 143.246094 147.257812 144 148.011719 144 148.945312 C 144 149.875 143.246094 150.628906 142.316406 150.628906 L 111.472656 150.628906 L 107.382812 158.851562 C 107.097656 159.429688 106.511719 159.789062 105.875 159.789062 Z M 105.875 159.789062 " fill-opacity="1" fill-rule="nonzero"/></svg>