<svg xmlns="http://www.w3.org/2000/svg" xmlns:xlink="http://www.w3.org/1999/xlink" width="500" zoomAndPan="magnify" viewBox="0 0 375 374.999991" height="500" preserveAspectRatio="xMidYMid meet" version="1.0"><defs><clipPath id="25ed5ba167"><path d="M 177 16.8125 L 210 16.8125 L 210 106 L 177 106 Z M 177 16.8125 " clip-rule="nonzero"/></clipPath><clipPath id="edda34ecaa"><path d="M 38.367188 63 L 337.617188 63 L 337.617188 358.0625 L 38.367188 358.0625 Z M 38.367188 63 " clip-rule="nonzero"/></clipPath></defs><path fill="#18795b" d="M 157.03125 116.203125 C 154.832031 116.203125 153.03125 114.402344 153.03125 112.203125 L 153.03125 46.207031 C 153.03125 37.410156 160.230469 30.011719 169.230469 30.011719 C 178.230469 30.011719 185.429688 37.410156 185.429688 46.207031 C 185.429688 48.40625 183.628906 50.207031 181.429688 50.207031 C 179.230469 50.207031 177.429688 48.40625 177.429688 46.207031 C 177.429688 41.808594 173.828125 38.007812 169.230469 38.007812 C 164.832031 38.007812 161.03125 41.808594 161.03125 46.207031 L 161.03125 112.203125 C 161.03125 114.402344 159.230469 116.203125 157.03125 116.203125 Z M 157.03125 116.203125 " fill-opacity="1" fill-rule="evenodd"/><g clip-path="url(#25ed5ba167)"><path fill="#18795b" d="M 205.625 105.601562 C 203.425781 105.601562 201.625 103.804688 201.625 101.601562 L 201.625 33.007812 C 201.625 28.410156 198.027344 24.808594 193.628906 24.808594 C 189.027344 24.808594 185.429688 28.410156 185.429688 33.007812 L 185.429688 95.605469 C 185.429688 97.804688 183.628906 99.601562 181.429688 99.601562 C 179.230469 99.601562 177.429688 97.804688 177.429688 95.605469 L 177.429688 33.007812 C 177.429688 24.011719 184.628906 16.8125 193.628906 16.8125 C 202.425781 16.8125 209.625 24.011719 209.625 33.007812 L 209.625 101.601562 C 209.625 103.804688 207.828125 105.601562 205.625 105.601562 Z M 205.625 105.601562 " fill-opacity="1" fill-rule="evenodd"/></g><path fill="#18795b" d="M 230.023438 102.402344 C 227.824219 102.402344 226.023438 100.601562 226.023438 98.402344 L 226.023438 46.207031 C 226.023438 41.808594 222.425781 38.007812 217.824219 38.007812 C 213.425781 38.007812 209.625 41.808594 209.625 46.207031 C 209.625 48.40625 207.828125 50.207031 205.625 50.207031 C 203.425781 50.207031 201.625 48.40625 201.625 46.207031 C 201.625 37.410156 209.027344 30.011719 217.824219 30.011719 C 226.824219 30.011719 234.023438 37.410156 234.023438 46.207031 L 234.023438 98.402344 C 234.023438 100.601562 232.222656 102.402344 230.023438 102.402344 Z M 230.023438 102.402344 " fill-opacity="1" fill-rule="evenodd"/><path fill="#18795b" d="M 239.222656 212.191406 L 177.828125 212.191406 C 175.628906 212.191406 173.828125 210.390625 173.828125 208.191406 L 173.828125 196.394531 C 173.828125 187.792969 173.828125 187.792969 170.03125 182.195312 C 169.429688 181.394531 168.628906 180.394531 168.03125 179.394531 L 118.234375 108.203125 C 117.636719 107.402344 117.234375 106.402344 117.433594 105.402344 C 117.636719 104.203125 118.234375 103.402344 119.234375 102.804688 C 139.632812 88.402344 159.429688 108.003906 174.03125 122.402344 C 177.03125 125.601562 179.828125 128.402344 182.628906 130.800781 C 184.230469 132.199219 184.429688 134.800781 182.828125 136.398438 C 181.429688 138 179.027344 138.199219 177.230469 136.800781 C 174.429688 134.199219 171.429688 131.199219 168.429688 128.199219 C 153.03125 112.800781 140.03125 101.601562 127.234375 107.203125 L 174.429688 174.796875 C 175.230469 175.796875 175.828125 176.796875 176.429688 177.59375 C 181.628906 184.796875 181.828125 185.59375 181.828125 196.195312 L 181.828125 204.191406 L 235.222656 204.191406 L 235.222656 186.394531 C 235.222656 184.996094 235.824219 183.796875 237.023438 182.996094 C 249.421875 174.597656 250.421875 163.195312 250.421875 149.199219 L 250.421875 62.207031 C 250.421875 57.808594 246.621094 54.207031 242.222656 54.207031 C 237.625 54.207031 234.023438 57.808594 234.023438 62.207031 C 234.023438 64.40625 232.222656 66.207031 230.023438 66.207031 C 227.824219 66.207031 226.023438 64.40625 226.023438 62.207031 C 226.023438 53.40625 233.222656 46.207031 242.222656 46.207031 C 251.023438 46.207031 258.421875 53.40625 258.421875 62.207031 L 258.421875 149.199219 C 258.421875 163.996094 257.222656 177.996094 243.222656 188.394531 L 243.222656 208.191406 C 243.222656 210.390625 241.421875 212.191406 239.222656 212.191406 Z M 239.222656 212.191406 " fill-opacity="1" fill-rule="evenodd"/><g clip-path="url(#edda34ecaa)"><path fill="#18795b" d="M 187.828125 358.179688 C 180.828125 358.179688 174.429688 355.777344 169.03125 351.179688 C 162.832031 354.179688 156.03125 354.777344 149.230469 352.980469 C 142.433594 351.179688 136.832031 347.179688 132.832031 341.578125 C 126.035156 342.78125 119.234375 341.578125 113.234375 337.980469 C 107.035156 334.582031 102.636719 329.179688 100.238281 322.78125 C 93.4375 322.183594 87.039062 319.183594 82.238281 314.382812 C 77.238281 309.382812 74.238281 302.984375 73.839844 296.183594 C 67.238281 293.785156 61.839844 289.386719 58.441406 283.386719 C 55.042969 277.386719 53.839844 270.386719 55.042969 263.585938 C 49.242188 259.789062 45.242188 253.988281 43.441406 247.390625 C 41.640625 240.589844 42.242188 233.589844 45.242188 227.390625 C 40.84375 222.191406 38.441406 215.59375 38.441406 208.59375 C 38.441406 201.59375 40.84375 194.992188 45.242188 189.792969 C 42.242188 183.59375 41.640625 176.597656 43.441406 169.996094 C 45.242188 163.195312 49.242188 157.398438 55.042969 153.597656 C 53.839844 146.796875 55.042969 140 58.441406 133.800781 C 61.839844 127.800781 67.238281 123.402344 73.839844 121 C 74.238281 114.203125 77.238281 107.800781 82.238281 103.003906 C 87.039062 98.003906 93.4375 95.003906 100.238281 94.402344 C 102.636719 88.003906 107.035156 82.605469 113.234375 79.207031 C 119.234375 75.605469 126.035156 74.40625 132.832031 75.605469 C 136.832031 70.007812 142.433594 66.007812 149.230469 64.207031 C 151.832031 63.605469 154.429688 63.207031 157.230469 63.207031 C 159.429688 63.207031 161.03125 65.007812 161.03125 67.207031 C 161.03125 69.40625 159.230469 71.207031 157.03125 71.207031 C 157.03125 71.207031 156.832031 71.207031 156.832031 71.207031 C 154.832031 71.207031 153.03125 71.40625 151.230469 72.003906 C 145.632812 73.40625 141.03125 77.003906 138.234375 82.203125 C 137.234375 83.804688 135.433594 84.605469 133.632812 84.003906 C 128.035156 82.40625 122.234375 83.203125 117.234375 86.003906 C 112.035156 89.003906 108.636719 93.804688 107.234375 99.402344 C 106.835938 101.203125 105.035156 102.402344 103.238281 102.402344 C 97.4375 102.203125 92.039062 104.402344 87.835938 108.601562 C 83.839844 112.601562 81.636719 118.203125 81.636719 124 C 81.636719 125.800781 80.4375 127.402344 78.640625 128 C 73.039062 129.398438 68.238281 132.800781 65.441406 137.800781 C 62.441406 143 61.839844 148.796875 63.441406 154.398438 C 63.839844 156.199219 63.039062 157.996094 61.441406 158.996094 C 56.441406 161.796875 52.640625 166.398438 51.242188 171.996094 C 49.640625 177.59375 50.640625 183.394531 53.640625 188.394531 C 54.441406 189.996094 54.242188 191.996094 52.839844 193.394531 C 48.640625 197.394531 46.441406 202.792969 46.441406 208.59375 C 46.441406 214.390625 48.640625 219.792969 52.839844 223.792969 C 54.242188 225.191406 54.441406 227.191406 53.640625 228.789062 C 50.640625 233.789062 49.640625 239.589844 51.242188 245.1875 C 52.640625 250.789062 56.441406 255.386719 61.441406 258.386719 C 63.039062 259.1875 63.839844 261.1875 63.441406 262.988281 C 61.839844 268.585938 62.441406 274.386719 65.441406 279.386719 C 68.238281 284.386719 73.039062 287.984375 78.640625 289.386719 C 80.4375 289.785156 81.636719 291.382812 81.636719 293.382812 C 81.636719 299.183594 83.839844 304.582031 87.835938 308.582031 C 92.039062 312.78125 97.4375 314.984375 103.238281 314.78125 C 105.035156 314.78125 106.835938 316.183594 107.234375 317.980469 C 108.636719 323.582031 112.035156 328.179688 117.234375 331.179688 C 122.234375 333.980469 128.035156 334.78125 133.632812 333.179688 C 135.433594 332.582031 137.234375 333.378906 138.234375 334.980469 C 141.03125 340.179688 145.632812 343.78125 151.230469 345.378906 C 156.832031 346.78125 162.628906 345.980469 167.628906 342.980469 C 169.230469 341.980469 171.429688 342.378906 172.628906 343.578125 C 176.628906 347.78125 182.027344 350.179688 187.828125 350.179688 C 193.628906 350.179688 199.027344 347.78125 203.226562 343.578125 C 204.425781 342.378906 206.425781 341.980469 208.027344 342.980469 C 213.027344 345.980469 218.824219 346.78125 224.425781 345.378906 C 230.023438 343.78125 234.824219 340.179688 237.625 334.980469 C 238.421875 333.378906 240.421875 332.582031 242.222656 333.179688 C 247.824219 334.78125 253.621094 333.980469 258.621094 331.179688 C 263.621094 328.179688 267.21875 323.582031 268.621094 317.980469 C 269.019531 316.183594 270.621094 314.78125 272.421875 314.78125 C 272.621094 314.78125 272.820312 314.78125 273.019531 314.78125 C 278.621094 314.78125 284.019531 312.582031 288.019531 308.582031 C 292.019531 304.582031 294.21875 299.183594 294.21875 293.382812 C 294.019531 291.382812 295.417969 289.785156 297.21875 289.386719 C 302.816406 287.984375 307.617188 284.386719 310.417969 279.386719 C 313.417969 274.386719 314.015625 268.585938 312.417969 262.988281 C 312.015625 261.1875 312.816406 259.1875 314.417969 258.386719 C 319.414062 255.386719 323.015625 250.789062 324.613281 245.1875 C 326.015625 239.589844 325.214844 233.789062 322.214844 228.789062 C 321.214844 227.191406 321.617188 225.191406 322.816406 223.792969 C 327.015625 219.792969 329.414062 214.390625 329.414062 208.59375 C 329.414062 202.792969 327.015625 197.394531 322.816406 193.394531 C 321.617188 191.996094 321.214844 189.996094 322.214844 188.394531 C 325.214844 183.394531 326.015625 177.59375 324.613281 171.996094 C 323.015625 166.398438 319.414062 161.796875 314.417969 158.996094 C 312.617188 157.996094 312.015625 156.199219 312.417969 154.398438 C 314.015625 148.796875 313.417969 143 310.417969 137.800781 C 307.617188 132.800781 302.816406 129.398438 297.21875 128 C 295.417969 127.402344 294.019531 125.800781 294.21875 124 C 294.21875 118.203125 292.019531 112.601562 288.019531 108.601562 C 284.019531 104.601562 278.621094 102.402344 273.019531 102.402344 C 272.820312 102.402344 272.621094 102.402344 272.421875 102.402344 C 270.621094 102.402344 269.019531 101.203125 268.621094 99.402344 C 267.21875 93.804688 263.621094 89.003906 258.621094 86.003906 C 257.023438 85.203125 255.222656 84.40625 253.421875 84.003906 C 251.222656 83.40625 250.023438 81.203125 250.421875 79.003906 C 251.023438 77.003906 253.222656 75.605469 255.421875 76.207031 C 257.820312 76.804688 260.421875 77.804688 262.621094 79.207031 C 268.621094 82.605469 273.21875 88.003906 275.417969 94.402344 C 282.417969 95.003906 288.617188 98.003906 293.617188 103.003906 C 298.617188 107.800781 301.417969 114.203125 302.015625 121 C 308.417969 123.402344 313.816406 127.800781 317.414062 133.800781 C 320.816406 140 322.015625 146.796875 320.816406 153.597656 C 326.414062 157.398438 330.414062 163.195312 332.214844 169.996094 C 334.015625 176.597656 333.414062 183.59375 330.613281 189.792969 C 335.015625 194.992188 337.414062 201.59375 337.414062 208.59375 C 337.414062 215.59375 335.015625 222.191406 330.613281 227.390625 C 333.414062 233.589844 334.015625 240.589844 332.214844 247.390625 C 330.414062 253.988281 326.414062 259.789062 320.816406 263.585938 C 322.015625 270.386719 320.816406 277.386719 317.414062 283.386719 C 313.816406 289.386719 308.417969 293.785156 302.015625 296.183594 C 301.417969 302.984375 298.617188 309.382812 293.617188 314.382812 C 288.617188 319.183594 282.21875 322.183594 275.417969 322.78125 C 273.21875 329.179688 268.621094 334.582031 262.621094 338.179688 C 256.621094 341.578125 249.621094 342.78125 243.023438 341.578125 C 239.023438 347.179688 233.222656 351.179688 226.625 352.980469 C 219.824219 354.777344 212.824219 354.179688 206.625 351.179688 C 201.425781 355.777344 194.828125 358.179688 187.828125 358.179688 Z M 187.828125 358.179688 " fill-opacity="1" fill-rule="evenodd"/></g><path fill="#18795b" d="M 118.234375 264.1875 C 116.035156 264.1875 114.234375 262.386719 114.234375 260.1875 L 114.234375 246.589844 L 100.835938 246.589844 L 100.835938 260.1875 C 100.835938 262.386719 99.035156 264.1875 96.835938 264.1875 C 94.636719 264.1875 92.835938 262.386719 92.835938 260.1875 L 92.835938 224.992188 C 92.835938 222.792969 94.636719 220.992188 96.835938 220.992188 C 99.035156 220.992188 100.835938 222.792969 100.835938 224.992188 L 100.835938 238.589844 L 114.234375 238.589844 L 114.234375 224.992188 C 114.234375 222.792969 116.035156 220.992188 118.234375 220.992188 C 120.433594 220.992188 122.234375 222.792969 122.234375 224.992188 L 122.234375 260.1875 C 122.234375 262.386719 120.433594 264.1875 118.234375 264.1875 Z M 118.234375 264.1875 " fill-opacity="1" fill-rule="evenodd"/><path fill="#18795b" d="M 159.03125 264.1875 C 157.230469 264.1875 155.832031 263.1875 155.230469 261.386719 L 152.433594 252.988281 L 142.234375 252.988281 L 139.433594 261.386719 C 138.832031 263.585938 136.433594 264.789062 134.433594 263.988281 C 132.234375 263.386719 131.234375 260.988281 131.832031 258.988281 L 143.632812 223.589844 C 144.03125 221.992188 145.632812 220.992188 147.433594 220.992188 C 149.03125 220.992188 150.632812 221.992188 151.03125 223.589844 L 159.03125 247.789062 L 162.832031 258.988281 C 163.429688 260.988281 162.429688 263.386719 160.230469 263.988281 C 159.832031 264.1875 159.429688 264.1875 159.03125 264.1875 Z M 144.832031 244.988281 L 149.832031 244.988281 L 147.230469 237.589844 Z M 144.832031 244.988281 " fill-opacity="1" fill-rule="evenodd"/><path fill="#18795b" d="M 194.027344 264.1875 C 192.628906 264.1875 191.226562 263.386719 190.429688 261.988281 L 180.429688 241.789062 L 180.429688 260.1875 C 180.429688 262.386719 178.628906 264.1875 176.429688 264.1875 C 174.230469 264.1875 172.429688 262.386719 172.429688 260.1875 L 172.429688 224.992188 C 172.429688 222.992188 173.628906 221.390625 175.628906 220.992188 C 177.429688 220.589844 179.230469 221.390625 180.027344 223.191406 L 190.027344 243.1875 L 190.027344 224.992188 C 190.027344 222.792969 191.828125 220.992188 194.027344 220.992188 C 196.226562 220.992188 198.027344 222.792969 198.027344 224.992188 L 198.027344 260.1875 C 198.027344 261.988281 196.828125 263.585938 195.027344 264.1875 C 194.628906 264.1875 194.425781 264.1875 194.027344 264.1875 Z M 194.027344 264.1875 " fill-opacity="1" fill-rule="evenodd"/><path fill="#18795b" d="M 225.425781 264.1875 L 211.625 264.1875 C 209.425781 264.1875 207.625 262.386719 207.625 260.1875 L 207.625 224.992188 C 207.625 222.792969 209.425781 220.992188 211.625 220.992188 L 225.425781 220.992188 C 235.222656 220.992188 243.421875 228.992188 243.421875 238.789062 L 243.421875 246.390625 C 243.421875 256.1875 235.222656 264.1875 225.425781 264.1875 Z M 215.625 256.1875 L 225.425781 256.1875 C 230.824219 256.1875 235.421875 251.789062 235.421875 246.390625 L 235.421875 238.789062 C 235.421875 233.390625 230.824219 228.992188 225.425781 228.992188 L 215.625 228.992188 Z M 215.625 256.1875 " fill-opacity="1" fill-rule="evenodd"/><path fill="#18795b" d="M 149.230469 313.984375 C 147.03125 313.984375 145.230469 312.183594 145.230469 309.984375 L 145.230469 286.984375 L 138.433594 293.585938 C 136.832031 295.183594 134.234375 295.183594 132.832031 293.585938 L 125.835938 286.984375 L 125.835938 309.984375 C 125.835938 312.183594 124.035156 313.984375 121.835938 313.984375 C 119.636719 313.984375 117.835938 312.183594 117.835938 309.984375 L 117.835938 277.386719 C 117.835938 275.785156 118.835938 274.386719 120.433594 273.785156 C 121.835938 273.1875 123.632812 273.386719 124.632812 274.585938 L 135.632812 285.183594 L 146.433594 274.585938 C 147.632812 273.386719 149.230469 273.1875 150.832031 273.785156 C 152.230469 274.386719 153.230469 275.785156 153.230469 277.386719 L 153.230469 309.984375 C 153.230469 312.183594 151.433594 313.984375 149.230469 313.984375 Z M 149.230469 313.984375 " fill-opacity="1" fill-rule="evenodd"/><path fill="#18795b" d="M 186.628906 313.984375 C 185.027344 313.984375 183.429688 312.78125 182.828125 311.183594 L 180.429688 303.582031 L 171.429688 303.582031 L 169.03125 311.183594 C 168.429688 313.183594 166.03125 314.382812 164.03125 313.582031 C 161.832031 312.984375 160.832031 310.78125 161.429688 308.582031 L 172.230469 276.1875 C 172.628906 274.585938 174.230469 273.386719 176.03125 273.386719 C 177.628906 273.386719 179.230469 274.585938 179.828125 276.1875 L 187.027344 298.183594 C 187.027344 298.382812 187.027344 298.382812 187.027344 298.382812 L 190.429688 308.582031 C 191.226562 310.78125 190.027344 312.984375 187.828125 313.582031 C 187.429688 313.78125 187.027344 313.984375 186.628906 313.984375 Z M 174.230469 295.585938 L 177.828125 295.585938 L 176.03125 290.183594 Z M 174.230469 295.585938 " fill-opacity="1" fill-rule="evenodd"/><path fill="#18795b" d="M 215.425781 313.984375 L 202.625 313.984375 C 200.425781 313.984375 198.628906 312.183594 198.628906 309.984375 L 198.628906 277.386719 C 198.628906 275.1875 200.425781 273.386719 202.625 273.386719 L 215.425781 273.386719 C 224.625 273.386719 232.222656 280.984375 232.222656 290.183594 L 232.222656 297.183594 C 232.222656 306.382812 224.625 313.984375 215.425781 313.984375 Z M 206.625 305.785156 L 215.425781 305.785156 C 220.226562 305.785156 224.226562 301.984375 224.226562 297.183594 L 224.226562 290.183594 C 224.226562 285.386719 220.226562 281.386719 215.425781 281.386719 L 206.625 281.386719 Z M 206.625 305.785156 " fill-opacity="1" fill-rule="evenodd"/><path fill="#18795b" d="M 259.222656 313.984375 L 244.222656 313.984375 C 242.023438 313.984375 240.222656 312.183594 240.222656 309.984375 L 240.222656 277.386719 C 240.222656 275.1875 242.023438 273.386719 244.222656 273.386719 L 259.222656 273.386719 C 261.421875 273.386719 263.222656 275.1875 263.222656 277.386719 C 263.222656 279.585938 261.421875 281.386719 259.222656 281.386719 L 248.222656 281.386719 L 248.222656 289.585938 L 259.222656 289.585938 C 261.421875 289.585938 263.222656 291.382812 263.222656 293.585938 C 263.222656 295.785156 261.421875 297.585938 259.222656 297.585938 L 248.222656 297.585938 L 248.222656 305.785156 L 259.222656 305.785156 C 261.421875 305.785156 263.222656 307.582031 263.222656 309.78125 C 263.222656 312.183594 261.421875 313.984375 259.222656 313.984375 Z M 259.222656 313.984375 " fill-opacity="1" fill-rule="evenodd"/><path fill="#18795b" d="M 202.625 159.597656 C 201.625 159.597656 200.628906 159.398438 199.828125 158.597656 C 182.628906 143.199219 164.628906 127.199219 164.628906 110.203125 C 164.628906 99.601562 174.03125 91.003906 185.628906 91.003906 C 193.628906 91.003906 198.628906 94.203125 202.625 99.003906 C 206.425781 94.203125 211.425781 91.003906 219.425781 91.003906 C 231.023438 91.003906 240.421875 99.601562 240.421875 110.203125 C 240.421875 127.199219 222.625 143.199219 205.226562 158.597656 C 204.425781 159.398438 203.425781 159.597656 202.625 159.597656 Z M 185.628906 99.003906 C 178.429688 99.003906 172.628906 104.003906 172.628906 110.203125 C 172.628906 122.800781 187.429688 136.800781 202.625 150.398438 C 217.625 136.800781 232.425781 122.800781 232.425781 110.203125 C 232.425781 104.003906 226.625 99.003906 219.425781 99.003906 C 213.226562 99.003906 210.027344 101.203125 206.027344 108.402344 C 205.425781 109.601562 204.027344 110.402344 202.625 110.402344 C 201.027344 110.402344 199.828125 109.601562 199.027344 108.402344 C 195.027344 101.203125 192.027344 99.003906 185.628906 99.003906 Z M 185.628906 99.003906 " fill-opacity="1" fill-rule="evenodd"/></svg>