<svg xmlns="http://www.w3.org/2000/svg" xmlns:xlink="http://www.w3.org/1999/xlink" width="500" zoomAndPan="magnify" viewBox="0 0 375 374.999991" height="500" preserveAspectRatio="xMidYMid meet" version="1.0"><defs><clipPath id="46fdae5637"><path d="M 235 178 L 268 178 L 268 337.457031 L 235 337.457031 Z M 235 178 " clip-rule="nonzero"/></clipPath><clipPath id="fafd568d7e"><path d="M 130 189 L 186 189 L 186 337.457031 L 130 337.457031 Z M 130 189 " clip-rule="nonzero"/></clipPath><clipPath id="b22630f381"><path d="M 147 35.957031 L 246 35.957031 L 246 135 L 147 135 Z M 147 35.957031 " clip-rule="nonzero"/></clipPath><clipPath id="f48042bd13"><path d="M 37.5 74 L 137 74 L 137 173 L 37.5 173 Z M 37.5 74 " clip-rule="nonzero"/></clipPath><clipPath id="3a05290194"><path d="M 256 74 L 355.5 74 L 355.5 173 L 256 173 Z M 256 74 " clip-rule="nonzero"/></clipPath></defs><path fill="#18795b" d="M 180.183594 224.195312 L 169.21875 224.195312 L 169.21875 123.652344 C 169.21875 114.582031 176.597656 107.203125 185.667969 107.203125 C 194.742188 107.203125 202.121094 114.582031 202.121094 123.652344 L 202.121094 205.898438 L 191.15625 205.898438 L 191.15625 123.652344 C 191.15625 120.625 188.695312 118.167969 185.667969 118.167969 C 182.640625 118.167969 180.183594 120.625 180.183594 123.652344 Z M 180.183594 224.195312 " fill-opacity="1" fill-rule="nonzero"/><path fill="#18795b" d="M 224.046875 211.382812 L 213.078125 211.382812 L 213.078125 189.453125 C 213.078125 186.425781 210.621094 183.964844 207.59375 183.964844 C 204.566406 183.964844 202.109375 186.425781 202.109375 189.453125 L 191.144531 189.453125 C 191.144531 180.378906 198.523438 173 207.59375 173 C 216.667969 173 224.046875 180.378906 224.046875 189.453125 Z M 224.046875 211.382812 " fill-opacity="1" fill-rule="nonzero"/><path fill="#18795b" d="M 245.976562 216.863281 L 235.011719 216.863281 L 235.011719 189.445312 C 235.011719 186.417969 232.554688 183.960938 229.523438 183.960938 C 226.496094 183.960938 224.039062 186.417969 224.039062 189.445312 L 213.074219 189.445312 C 213.074219 180.375 220.453125 172.996094 229.523438 172.996094 C 238.597656 172.996094 245.976562 180.375 245.976562 189.445312 Z M 245.976562 216.863281 " fill-opacity="1" fill-rule="nonzero"/><g clip-path="url(#46fdae5637)"><path fill="#18795b" d="M 251.460938 337.488281 L 240.496094 337.488281 L 240.496094 297.28125 L 245.980469 289.972656 C 253.050781 280.539062 256.945312 268.863281 256.945312 257.070312 L 256.945312 194.933594 C 256.945312 191.902344 254.488281 189.445312 251.460938 189.445312 C 248.433594 189.445312 245.976562 191.902344 245.976562 194.933594 L 235.011719 194.933594 C 235.011719 185.859375 242.390625 178.480469 251.460938 178.480469 C 260.535156 178.480469 267.914062 185.859375 267.914062 194.933594 L 267.914062 257.070312 C 267.914062 271.214844 263.238281 285.238281 254.75 296.550781 L 251.460938 300.929688 Z M 251.460938 337.488281 " fill-opacity="1" fill-rule="nonzero"/></g><g clip-path="url(#fafd568d7e)"><path fill="#18795b" d="M 185.664062 337.488281 L 174.699219 337.488281 L 174.699219 301.742188 L 170.746094 298.574219 C 156.113281 286.875 147.605469 269.515625 147.292969 250.820312 L 132.0625 212.113281 C 131.265625 210.226562 130.835938 208.09375 130.835938 205.898438 C 130.835938 196.824219 138.214844 189.445312 147.289062 189.445312 C 152.488281 189.445312 157.273438 191.859375 160.417969 196.054688 L 185.75 229.773438 L 176.980469 236.359375 L 151.644531 202.636719 C 150.582031 201.222656 148.996094 200.410156 147.289062 200.410156 C 144.257812 200.410156 141.800781 202.871094 141.800781 205.898438 C 141.800781 206.621094 141.9375 207.324219 142.21875 207.972656 L 158.246094 248.722656 L 158.246094 249.757812 C 158.246094 265.507812 165.300781 280.179688 177.601562 290.011719 L 185.664062 296.464844 Z M 185.664062 337.488281 " fill-opacity="1" fill-rule="nonzero"/></g><g clip-path="url(#b22630f381)"><path fill="#18795b" d="M 245.976562 134.621094 L 196.628906 134.621094 L 196.628906 123.652344 L 235.011719 123.652344 L 235.011719 46.894531 L 158.246094 46.894531 L 158.246094 123.652344 L 174.699219 123.652344 L 174.699219 134.621094 L 147.28125 134.621094 L 147.28125 35.929688 L 245.976562 35.929688 Z M 245.976562 134.621094 " fill-opacity="1" fill-rule="nonzero"/></g><g clip-path="url(#f48042bd13)"><path fill="#18795b" d="M 136.316406 173 L 37.628906 173 L 37.628906 74.304688 L 136.320312 74.304688 L 136.320312 173 Z M 48.585938 162.035156 L 125.351562 162.035156 L 125.351562 85.273438 L 48.59375 85.273438 L 48.59375 162.035156 Z M 48.585938 162.035156 " fill-opacity="1" fill-rule="nonzero"/></g><g clip-path="url(#3a05290194)"><path fill="#18795b" d="M 355.636719 173 L 256.941406 173 L 256.941406 74.304688 L 355.636719 74.304688 Z M 267.90625 162.035156 L 344.671875 162.035156 L 344.671875 85.273438 L 267.90625 85.273438 Z M 267.90625 162.035156 " fill-opacity="1" fill-rule="nonzero"/></g><path fill="#18795b" d="M 79.816406 320.417969 L 102.859375 297.375 L 110.613281 305.128906 L 87.570312 328.171875 Z M 79.816406 320.417969 " fill-opacity="1" fill-rule="nonzero"/><path fill="#18795b" d="M 42.449219 251.191406 L 73.816406 243.234375 L 76.515625 253.867188 L 45.148438 261.828125 Z M 42.449219 251.191406 " fill-opacity="1" fill-rule="nonzero"/><path fill="#18795b" d="M 282.640625 305.128906 L 290.394531 297.375 L 313.4375 320.417969 L 305.683594 328.171875 Z M 282.640625 305.128906 " fill-opacity="1" fill-rule="nonzero"/><path fill="#18795b" d="M 316.574219 253.78125 L 319.28125 243.15625 L 350.8125 251.183594 L 348.105469 261.8125 Z M 316.574219 253.78125 " fill-opacity="1" fill-rule="nonzero"/></svg>