<svg xmlns="http://www.w3.org/2000/svg" xmlns:xlink="http://www.w3.org/1999/xlink" width="500" zoomAndPan="magnify" viewBox="0 0 375 374.999991" height="500" preserveAspectRatio="xMidYMid meet" version="1.0"><defs><filter x="0%" y="0%" width="100%" height="100%" id="d2a10dc48c"><feColorMatrix values="0 0 0 0 1 0 0 0 0 1 0 0 0 0 1 0 0 0 1 0" color-interpolation-filters="sRGB"/></filter><clipPath id="d449b279a9"><path d="M 55.824219 29.699219 L 244 29.699219 L 244 345.449219 L 55.824219 345.449219 Z M 55.824219 29.699219 " clip-rule="nonzero"/></clipPath><mask id="c4a3eccad0"><g filter="url(#d2a10dc48c)"><rect x="-37.5" width="450" fill="#000000" y="-37.499999" height="449.999989" fill-opacity="0.149"/></g></mask><clipPath id="1557e6cea7"><path d="M 0.0390625 0.480469 L 147 0.480469 L 147 264.480469 L 0.0390625 264.480469 Z M 0.0390625 0.480469 " clip-rule="nonzero"/></clipPath><clipPath id="9cae675c7d"><rect x="0" width="148" y="0" height="265"/></clipPath><clipPath id="1e14231186"><path d="M 121 74 L 337.824219 74 L 337.824219 213 L 121 213 Z M 121 74 " clip-rule="nonzero"/></clipPath><clipPath id="24ef990466"><path d="M 215 74 L 337.824219 74 L 337.824219 200 L 215 200 Z M 215 74 " clip-rule="nonzero"/></clipPath><mask id="0f9f2a8c1d"><g filter="url(#d2a10dc48c)"><rect x="-37.5" width="450" fill="#000000" y="-37.499999" height="449.999989" fill-opacity="0.149"/></g></mask><clipPath id="3c85210fcf"><path d="M 0.28125 0.640625 L 122.679688 0.640625 L 122.679688 125 L 0.28125 125 Z M 0.28125 0.640625 " clip-rule="nonzero"/></clipPath><clipPath id="fbda0d22a2"><rect x="0" width="123" y="0" height="126"/></clipPath></defs><g clip-path="url(#d449b279a9)"><path fill="#18795b" d="M 55.867188 298.027344 L 55.867188 76.96875 C 55.867188 50.867188 77.027344 29.707031 103.128906 29.707031 L 196.414062 29.707031 C 222.515625 29.707031 243.679688 50.867188 243.679688 76.96875 L 243.679688 298.03125 C 243.679688 324.132812 222.515625 345.292969 196.414062 345.292969 L 103.128906 345.292969 C 77.027344 345.289062 55.867188 324.132812 55.867188 298.027344 Z M 55.867188 298.027344 " fill-opacity="1" fill-rule="nonzero"/></g><path fill="#f2f2f2" d="M 226.152344 66.949219 C 219.941406 53.875 206.613281 44.835938 191.175781 44.835938 L 108.367188 44.835938 C 86.988281 44.835938 69.660156 62.167969 69.660156 83.546875 L 69.660156 291.445312 C 69.660156 303.164062 74.863281 313.664062 83.089844 320.765625 C 89.871094 326.617188 98.707031 330.15625 108.367188 330.15625 L 191.175781 330.15625 C 212.554688 330.15625 229.886719 312.828125 229.886719 291.445312 L 229.886719 83.546875 C 229.886719 77.605469 228.546875 71.980469 226.152344 66.949219 Z M 133.332031 55.71875 C 134.453125 54.59375 136.007812 53.898438 137.71875 53.898438 L 161.828125 53.898438 C 165.253906 53.898438 168.035156 56.679688 168.035156 60.105469 C 168.035156 63.539062 165.253906 66.316406 161.828125 66.316406 L 137.71875 66.316406 C 134.289062 66.316406 131.511719 63.539062 131.511719 60.105469 C 131.511719 58.394531 132.207031 56.839844 133.332031 55.71875 Z M 133.332031 55.71875 " fill-opacity="1" fill-rule="nonzero"/><g mask="url(#c4a3eccad0)"><g transform="matrix(1, 0, 0, 1, 83, 66)"><g clip-path="url(#9cae675c7d)"><g clip-path="url(#1557e6cea7)"><path fill="#18795b" d="M 146.886719 17.546875 L 146.886719 225.445312 C 146.886719 246.828125 129.554688 264.15625 108.175781 264.15625 L 25.367188 264.15625 C 15.707031 264.15625 6.871094 260.617188 0.0898438 254.765625 C 40.867188 231.800781 70.144531 202.117188 95.179688 161.066406 C 119.886719 120.546875 139.40625 63.242188 143.152344 0.949219 C 145.546875 5.980469 146.886719 11.605469 146.886719 17.546875 Z M 146.886719 17.546875 " fill-opacity="1" fill-rule="nonzero"/></g></g></g></g><g clip-path="url(#1e14231186)"><path fill="#7db86b" d="M 149.773438 156.078125 C 134.085938 156.078125 121.371094 168.792969 121.371094 184.480469 C 121.371094 200.167969 134.085938 212.886719 149.773438 212.886719 C 165.457031 212.886719 178.179688 200.167969 178.179688 184.480469 C 178.179688 168.792969 165.457031 156.078125 149.773438 156.078125 Z M 328.996094 74.898438 C 328.769531 74.878906 328.542969 74.871094 328.316406 74.871094 L 216.855469 74.871094 C 211.808594 74.871094 207.714844 78.960938 207.714844 84.007812 L 207.714844 164.757812 C 207.714844 169.351562 211.105469 173.160156 215.523438 173.804688 C 215.957031 173.867188 216.402344 173.902344 216.855469 173.902344 L 257.722656 173.902344 L 258.324219 198.71875 L 283.144531 173.902344 L 328.316406 173.902344 C 333.363281 173.902344 337.457031 169.804688 337.457031 164.757812 L 337.457031 84.007812 C 337.457031 79.1875 333.726562 75.242188 328.996094 74.898438 Z M 328.996094 74.898438 " fill-opacity="1" fill-rule="nonzero"/></g><path fill="#f2f2f2" d="M 269.105469 150.691406 C 263.605469 150.175781 258.101562 148.027344 253.894531 143.644531 L 259.828125 135.480469 C 264.121094 139.085938 267.902344 140.121094 271.855469 140.121094 C 276.496094 140.121094 278.5625 138.144531 278.5625 134.621094 C 278.5625 126.628906 256.050781 125.851562 256.050781 110.816406 C 256.050781 102.3125 260.949219 96.378906 269.109375 94.75 L 269.109375 85.8125 L 277.875 85.8125 L 277.875 94.492188 C 283.289062 95.351562 287.414062 98.101562 290.765625 101.796875 L 284.0625 109.101562 C 281.226562 106.4375 278.046875 104.976562 274.523438 104.976562 C 270.832031 104.976562 268.765625 106.605469 268.765625 110.128906 C 268.765625 117.605469 291.277344 117.777344 291.277344 133.503906 C 291.277344 141.835938 286.8125 148.28125 277.871094 150.257812 L 277.871094 159.277344 L 269.105469 159.277344 Z M 269.105469 150.691406 " fill-opacity="1" fill-rule="nonzero"/><path fill="#18795b" d="M 148.757812 197.953125 L 132.449219 181.644531 L 140.863281 173.230469 L 148.757812 181.125 L 174.808594 155.074219 L 183.222656 163.488281 Z M 201.796875 228.984375 C 201.796875 227.925781 200.9375 227.066406 199.878906 227.066406 L 99.667969 227.066406 C 98.609375 227.066406 97.746094 227.925781 97.746094 228.984375 C 97.746094 230.042969 98.609375 230.902344 99.667969 230.902344 L 199.882812 230.902344 C 200.941406 230.902344 201.796875 230.042969 201.796875 228.984375 Z M 188.980469 242.800781 C 188.980469 241.742188 188.121094 240.882812 187.0625 240.882812 L 112.484375 240.882812 C 111.425781 240.882812 110.566406 241.742188 110.566406 242.800781 C 110.566406 243.863281 111.425781 244.722656 112.484375 244.722656 L 187.0625 244.722656 C 188.121094 244.722656 188.980469 243.863281 188.980469 242.800781 Z M 188.980469 242.800781 " fill-opacity="1" fill-rule="nonzero"/><g clip-path="url(#24ef990466)"><g mask="url(#0f9f2a8c1d)"><g transform="matrix(1, 0, 0, 1, 215, 74)"><g clip-path="url(#fbda0d22a2)"><g clip-path="url(#3c85210fcf)"><path fill="#18795b" d="M 122.457031 10.007812 L 122.457031 90.757812 C 122.457031 95.804688 118.363281 99.902344 113.316406 99.902344 L 68.144531 99.902344 L 43.324219 124.71875 L 42.722656 99.902344 L 1.855469 99.902344 C 1.402344 99.902344 0.957031 99.867188 0.523438 99.804688 C 52.085938 89.933594 97.367188 50.777344 113.996094 0.898438 C 118.726562 1.242188 122.457031 5.1875 122.457031 10.007812 Z M 122.457031 10.007812 " fill-opacity="1" fill-rule="nonzero"/></g></g></g></g></g></svg>