<svg xmlns="http://www.w3.org/2000/svg" xmlns:xlink="http://www.w3.org/1999/xlink" width="500" zoomAndPan="magnify" viewBox="0 0 375 374.999991" height="500" preserveAspectRatio="xMidYMid meet" version="1.0"><defs><clipPath id="07ca7fff78"><path d="M 51.316406 17.273438 L 323.566406 17.273438 L 323.566406 357.773438 L 51.316406 357.773438 Z M 51.316406 17.273438 " clip-rule="nonzero"/></clipPath></defs><path fill="#6ddbab" d="M 73.148438 342.523438 C 73.148438 348.160156 77.777344 352.78125 83.425781 352.78125 L 286.324219 352.78125 C 304.058594 352.78125 318.585938 338.285156 318.585938 320.582031 L 318.585938 54.441406 C 318.585938 36.742188 304.058594 22.265625 286.324219 22.265625 L 83.425781 22.265625 C 77.777344 22.265625 73.148438 26.863281 73.148438 32.5 C 73.148438 148.734375 73.148438 226.929688 73.148438 342.523438 Z M 73.148438 342.523438 " fill-opacity="1" fill-rule="evenodd"/><path fill="#f78cb4" d="M 216.710938 244.6875 C 226.515625 244.460938 238.8125 239.109375 243.800781 234.394531 C 252.886719 226.988281 265.75 203.6875 249.46875 197.597656 C 248.824219 197.351562 248.125 197.125 247.371094 196.9375 L 223.039062 190.886719 C 211.292969 189.246094 206.359375 199.03125 202.980469 205.875 L 202.980469 233.1875 C 202.980469 241.9375 209.101562 244.859375 216.710938 244.6875 Z M 216.710938 244.6875 " fill-opacity="1" fill-rule="evenodd"/><path fill="#f78cb4" d="M 223.039062 190.886719 L 247.371094 196.9375 C 248.125 197.125 248.824219 197.351562 249.46875 197.597656 C 268.90625 202.425781 269 173.128906 264.296875 161.894531 C 260.425781 150.355469 241.894531 128.886719 230.464844 145.304688 L 214.765625 167.792969 C 209.648438 176.429688 209.894531 186.625 223.039062 190.886719 Z M 223.039062 190.886719 " fill-opacity="1" fill-rule="evenodd"/><path fill="#f78cb4" d="M 202.980469 205.875 C 199.636719 195.65625 193.136719 186.191406 182.691406 190.039062 L 158.589844 196.035156 C 139.167969 200.878906 152.714844 226.683594 162.175781 234.394531 C 167.164062 239.109375 179.441406 244.460938 189.246094 244.6875 C 196.878906 244.859375 202.980469 241.9375 202.980469 233.1875 Z M 202.980469 205.875 " fill-opacity="1" fill-rule="evenodd"/><path fill="#f78cb4" d="M 158.589844 196.035156 L 182.691406 190.039062 C 193.515625 185.382812 192.589844 175.316406 191.097656 167.851562 L 175.496094 145.304688 C 164.085938 128.886719 145.554688 150.355469 141.683594 161.894531 C 136.960938 173.128906 136.734375 201.460938 156.152344 196.636719 Z M 158.589844 196.035156 " fill-opacity="1" fill-rule="evenodd"/><path fill="#f78cb4" d="M 191.097656 167.851562 C 196.933594 173.65625 206.398438 173.976562 214.765625 167.792969 L 230.464844 145.304688 C 241.835938 128.847656 215.183594 119.101562 202.980469 119.554688 C 190.777344 119.101562 164.121094 128.847656 175.496094 145.304688 Z M 191.097656 167.851562 " fill-opacity="1" fill-rule="evenodd"/><path fill="#f26498" d="M 141.851562 161.402344 C 149.332031 152.015625 160.988281 144.644531 169.070312 156.257812 L 183.578125 177.238281 C 189.699219 178.898438 191.984375 175.203125 191.097656 167.851562 L 175.496094 145.304688 C 164.234375 129.113281 146.0625 149.753906 141.851562 161.402344 Z M 141.851562 161.402344 " fill-opacity="1" fill-rule="evenodd"/><path fill="#f26498" d="M 216.617188 141.382812 L 200.921875 164.25 C 203.773438 168.660156 210.554688 170.378906 214.765625 167.792969 L 230.464844 145.304688 C 241.214844 129.773438 218.015625 120.195312 205.132812 119.574219 C 216.390625 123.34375 224.53125 129.921875 216.617188 141.382812 Z M 216.617188 141.382812 " fill-opacity="1" fill-rule="evenodd"/><path fill="#f26498" d="M 240.003906 182.082031 L 222.585938 177.746094 C 217.148438 181.386719 219.035156 187.492188 223.039062 190.886719 L 247.371094 196.9375 C 248.125 197.125 248.824219 197.351562 249.46875 197.597656 C 268.90625 202.425781 269 173.128906 264.296875 161.894531 C 263.238281 158.765625 261.105469 154.898438 258.328125 151.261719 C 263.804688 168.078125 262.257812 187.644531 240.003906 182.082031 Z M 240.003906 182.082031 " fill-opacity="1" fill-rule="evenodd"/><path fill="#f26498" d="M 230.445312 234.941406 C 222.8125 235.113281 216.710938 232.191406 216.710938 223.441406 L 216.710938 200.746094 C 211.046875 197.898438 206.324219 200.066406 202.980469 205.875 L 202.980469 233.1875 C 202.980469 241.9375 209.101562 244.859375 216.710938 244.6875 C 226.515625 244.460938 238.8125 239.109375 243.800781 234.394531 C 244.972656 233.433594 246.199219 232.207031 247.429688 230.792969 C 242.121094 233.113281 235.886719 234.828125 230.445312 234.941406 Z M 230.445312 234.941406 " fill-opacity="1" fill-rule="evenodd"/><path fill="#f26498" d="M 169.941406 239.464844 C 161.421875 229.171875 153.621094 209.359375 170.375 205.175781 L 189.019531 200.539062 C 192.609375 191.734375 189.644531 188.777344 182.691406 190.039062 L 158.589844 196.035156 C 139.167969 200.878906 152.714844 226.683594 162.175781 234.394531 C 163.972656 236.09375 166.710938 237.882812 169.941406 239.464844 Z M 169.941406 239.464844 " fill-opacity="1" fill-rule="evenodd"/><path fill="#fade6e" d="M 182.691406 190.039062 C 184.941406 199.144531 193.175781 205.875 202.980469 205.875 C 212.480469 205.875 220.507812 199.539062 223.039062 190.886719 C 223.589844 189.019531 223.890625 187.058594 223.890625 185.023438 C 223.890625 177.859375 220.28125 171.546875 214.765625 167.792969 C 211.421875 165.496094 207.363281 164.15625 202.980469 164.15625 C 198.558594 164.15625 194.480469 165.53125 191.097656 167.851562 C 185.65625 171.621094 182.085938 177.898438 182.085938 185.023438 C 182.085938 186.757812 182.296875 188.4375 182.691406 190.039062 Z M 182.691406 190.039062 " fill-opacity="1" fill-rule="evenodd"/><path fill="#f2ca29" d="M 197.917969 205.25 C 199.542969 205.667969 201.242188 205.875 202.980469 205.875 C 212.480469 205.875 220.507812 199.539062 223.039062 190.886719 C 223.589844 189.019531 223.890625 187.058594 223.890625 185.023438 C 223.890625 177.859375 220.28125 171.546875 214.765625 167.792969 C 211.421875 165.496094 207.363281 164.15625 202.980469 164.15625 C 200.636719 164.15625 198.390625 164.53125 196.292969 165.25 C 198.730469 165.851562 201.015625 166.890625 203.015625 168.265625 C 208.515625 172.015625 212.140625 178.332031 212.140625 185.496094 C 212.140625 187.53125 211.839844 189.492188 211.292969 191.359375 C 209.382812 197.878906 204.339844 203.082031 197.917969 205.25 Z M 197.917969 205.25 " fill-opacity="1" fill-rule="evenodd"/><path fill="#fade6e" d="M 265.828125 94.597656 C 279.464844 91.882812 279.464844 71.105469 265.828125 68.394531 C 263.390625 56.253906 246.578125 54.933594 241.023438 64.453125 C 240.363281 65.601562 239.851562 66.921875 239.550781 68.394531 C 225.914062 71.105469 225.914062 91.882812 239.550781 94.597656 C 241.988281 106.753906 258.820312 108.054688 264.351562 98.515625 C 265.015625 97.367188 265.523438 96.066406 265.828125 94.597656 Z M 265.828125 94.597656 " fill-opacity="1" fill-rule="evenodd"/><path fill="#fade6e" d="M 139.246094 94.597656 C 125.605469 91.882812 125.605469 71.105469 139.246094 68.394531 C 141.683594 56.253906 158.492188 54.933594 164.027344 64.453125 C 164.707031 65.601562 165.21875 66.921875 165.5 68.394531 C 179.160156 71.105469 179.160156 91.882812 165.5 94.597656 C 163.085938 106.753906 146.234375 108.054688 140.71875 98.515625 C 140.039062 97.367188 139.546875 96.066406 139.246094 94.597656 Z M 139.246094 94.597656 " fill-opacity="1" fill-rule="evenodd"/><path fill="#6e728a" d="M 73.148438 86.660156 L 87.617188 86.660156 C 94.609375 86.660156 100.332031 80.949219 100.332031 73.972656 C 100.332031 66.996094 94.609375 61.285156 87.617188 61.285156 L 69.011719 61.285156 C 62.023438 61.285156 56.300781 66.996094 56.300781 73.972656 C 56.300781 80.949219 62.023438 86.660156 69.011719 86.660156 Z M 73.148438 86.660156 " fill-opacity="1" fill-rule="evenodd"/><path fill="#6e728a" d="M 87.617188 118.273438 L 69.011719 118.273438 C 62.023438 118.273438 56.300781 123.984375 56.300781 130.960938 C 56.300781 137.953125 62.023438 143.644531 69.011719 143.644531 L 87.617188 143.644531 C 94.609375 143.644531 100.332031 137.953125 100.332031 130.960938 C 100.332031 123.984375 94.609375 118.273438 87.617188 118.273438 Z M 87.617188 118.273438 " fill-opacity="1" fill-rule="evenodd"/><path fill="#6e728a" d="M 87.617188 175.277344 L 69.011719 175.277344 C 62.023438 175.277344 56.300781 180.988281 56.300781 187.964844 C 56.300781 194.941406 62.023438 200.652344 69.011719 200.652344 L 87.617188 200.652344 C 94.609375 200.652344 100.332031 194.941406 100.332031 187.964844 C 100.332031 180.988281 94.609375 175.277344 87.617188 175.277344 Z M 87.617188 175.277344 " fill-opacity="1" fill-rule="evenodd"/><path fill="#6e728a" d="M 87.617188 232.265625 L 69.011719 232.265625 C 62.023438 232.265625 56.300781 237.976562 56.300781 244.953125 C 56.300781 251.925781 62.023438 257.636719 69.011719 257.636719 L 87.617188 257.636719 C 94.609375 257.636719 100.332031 251.925781 100.332031 244.953125 C 100.332031 237.976562 94.609375 232.265625 87.617188 232.265625 Z M 87.617188 232.265625 " fill-opacity="1" fill-rule="evenodd"/><path fill="#6e728a" d="M 87.617188 289.269531 L 69.011719 289.269531 C 62.023438 289.269531 56.300781 294.984375 56.300781 301.957031 C 56.300781 308.933594 62.023438 314.644531 69.011719 314.644531 L 87.617188 314.644531 C 94.609375 314.644531 100.332031 308.933594 100.332031 301.957031 C 100.332031 294.984375 94.609375 289.269531 87.617188 289.269531 Z M 87.617188 289.269531 " fill-opacity="1" fill-rule="evenodd"/><path fill="#55cf9a" d="M 295.976562 54.441406 L 295.976562 320.582031 C 295.976562 338.285156 281.46875 352.78125 263.730469 352.78125 L 286.324219 352.78125 C 304.058594 352.78125 318.585938 338.285156 318.585938 320.582031 L 318.585938 54.441406 C 318.585938 36.742188 304.058594 22.265625 286.324219 22.265625 L 263.730469 22.265625 C 281.46875 22.265625 295.976562 36.742188 295.976562 54.441406 Z M 295.976562 54.441406 " fill-opacity="1" fill-rule="evenodd"/><path fill="#000000" d="M 276.046875 273.160156 L 129.007812 273.160156 C 126.253906 273.160156 124.019531 275.394531 124.019531 278.148438 C 124.019531 280.902344 126.253906 283.136719 129.007812 283.136719 L 276.046875 283.136719 C 278.800781 283.136719 281.03125 280.902344 281.03125 278.148438 C 281.03125 275.394531 278.800781 273.160156 276.046875 273.160156 Z M 276.046875 273.160156 " fill-opacity="1" fill-rule="nonzero"/><path fill="#000000" d="M 276.046875 298.703125 L 129.007812 298.703125 C 126.253906 298.703125 124.019531 300.9375 124.019531 303.691406 C 124.019531 306.445312 126.253906 308.679688 129.007812 308.679688 L 276.046875 308.679688 C 278.800781 308.679688 281.03125 306.445312 281.03125 303.691406 C 281.03125 300.9375 278.800781 298.703125 276.046875 298.703125 Z M 276.046875 298.703125 " fill-opacity="1" fill-rule="nonzero"/><path fill="#000000" d="M 169.707031 130.058594 C 168.910156 131.515625 168.363281 133.023438 168.058594 134.566406 C 166.5 134.308594 164.886719 134.285156 163.230469 134.523438 C 151.386719 136.214844 140.269531 150.667969 137.015625 160.132812 C 133.210938 169.371094 132.015625 187.550781 139.796875 196.644531 C 141.332031 198.4375 143.148438 199.804688 145.179688 200.730469 C 144.753906 201.699219 144.410156 202.722656 144.167969 203.804688 C 141.570312 215.457031 150.953125 231.585938 158.890625 238.148438 C 164.453125 243.296875 178.082031 249.707031 189.746094 249.707031 C 193.023438 249.707031 196.148438 249.199219 198.894531 248.015625 C 200.445312 247.34375 201.808594 246.476562 202.980469 245.4375 C 204.152344 246.476562 205.515625 247.34375 207.066406 248.015625 C 209.65625 249.132812 212.707031 249.621094 215.96875 249.617188 C 227.207031 249.617188 240.960938 243.832031 247.089844 238.148438 C 254.800781 231.761719 264.414062 216.25 261.804688 204.582031 C 261.558594 203.480469 261.207031 202.445312 260.765625 201.460938 C 262.652344 200.53125 264.351562 199.214844 265.808594 197.511719 C 273.589844 188.429688 272.890625 169.707031 268.964844 160.132812 C 265.714844 150.675781 254.59375 136.21875 242.746094 134.523438 C 241.089844 134.285156 239.46875 134.308594 237.902344 134.566406 C 237.59375 133.027344 237.050781 131.515625 236.25 130.058594 C 230.503906 119.566406 213.007812 114.257812 202.980469 114.5625 C 192.960938 114.261719 175.457031 119.566406 169.707031 130.058594 Z M 146.277344 163.828125 C 146.324219 163.714844 146.367188 163.597656 146.40625 163.480469 C 148.746094 156.511719 157.433594 145.425781 164.640625 144.398438 C 166.398438 144.144531 168.757812 144.347656 171.402344 148.152344 C 171.402344 148.152344 171.402344 148.152344 171.402344 148.15625 L 184.449219 167.003906 C 183.15625 168.328125 182.007812 169.789062 181.023438 171.367188 L 172.226562 166.875 C 169.773438 165.625 166.769531 166.597656 165.519531 169.054688 C 164.269531 171.507812 165.242188 174.511719 167.695312 175.761719 L 177.460938 180.746094 C 177.230469 182.140625 177.101562 183.566406 177.101562 185.023438 C 177.101562 185.445312 177.113281 185.863281 177.132812 186.28125 L 154.949219 191.796875 C 150.433594 192.917969 148.527344 191.507812 147.371094 190.15625 C 142.640625 184.628906 143.433594 170.59375 146.277344 163.828125 Z M 202.980469 169.144531 C 211.761719 169.144531 218.90625 176.269531 218.90625 185.023438 C 218.90625 193.769531 211.761719 200.886719 202.980469 200.886719 C 194.207031 200.886719 187.074219 193.769531 187.074219 185.023438 C 187.074219 176.269531 194.207031 169.144531 202.980469 169.144531 Z M 194.945312 238.855469 C 187.726562 241.972656 171.136719 236 165.601562 230.769531 C 165.511719 230.683594 165.417969 230.605469 165.324219 230.527344 C 159.699219 225.945312 152.257812 213.335938 153.898438 205.976562 C 154.300781 204.183594 155.332031 201.984375 159.792969 200.871094 C 159.808594 200.867188 159.824219 200.863281 159.839844 200.859375 L 179.542969 195.960938 C 180.28125 197.53125 181.167969 199.015625 182.195312 200.394531 L 175.023438 207.742188 C 173.101562 209.714844 173.140625 212.871094 175.109375 214.796875 C 176.078125 215.742188 177.335938 216.214844 178.59375 216.214844 C 179.886719 216.214844 181.183594 215.710938 182.160156 214.710938 L 189.570312 207.113281 C 192.125 208.664062 194.964844 209.78125 197.996094 210.375 L 197.996094 233.1875 C 197.996094 237.023438 196.453125 238.207031 194.945312 238.855469 Z M 240.648438 230.53125 C 240.554688 230.605469 240.464844 230.6875 240.378906 230.769531 C 234.839844 236 218.238281 241.972656 211.015625 238.855469 C 209.507812 238.203125 207.964844 237.023438 207.964844 233.1875 L 207.964844 210.375 C 210.355469 209.910156 212.625 209.113281 214.730469 208.035156 L 222.382812 215.878906 C 223.359375 216.882812 224.652344 217.382812 225.949219 217.382812 C 227.207031 217.382812 228.460938 216.910156 229.433594 215.964844 C 231.402344 214.042969 231.441406 210.882812 229.515625 208.914062 L 222.617188 201.839844 C 223.949219 200.292969 225.101562 198.589844 226.039062 196.757812 C 226.039062 196.757812 247.117188 202.042969 247.535156 202.1875 C 247.660156 202.242188 247.789062 202.292969 247.921875 202.335938 C 250.945312 203.519531 251.746094 205.28125 252.074219 206.757812 C 253.660156 213.84375 246.351562 225.878906 240.648438 230.53125 Z M 241.335938 144.398438 C 248.542969 145.429688 257.230469 156.515625 259.570312 163.480469 C 259.609375 163.597656 259.652344 163.710938 259.699219 163.820312 C 262.519531 170.558594 263.164062 185.273438 258.238281 191.019531 C 257.070312 192.382812 255.179688 193.804688 250.898438 192.808594 C 250.15625 192.539062 228.78125 187.160156 228.78125 187.160156 C 228.839844 186.453125 228.875 185.742188 228.875 185.023438 C 228.875 183.429688 228.722656 181.871094 228.445312 180.351562 L 238.15625 175.382812 C 240.605469 174.128906 241.578125 171.125 240.324219 168.671875 C 239.070312 166.21875 236.066406 165.25 233.617188 166.503906 L 224.746094 171.042969 C 223.789062 169.558594 222.683594 168.179688 221.453125 166.929688 L 234.554688 148.15625 C 237.207031 144.34375 239.570312 144.148438 241.335938 144.398438 Z M 178.449219 134.855469 C 181.945312 128.476562 195.421875 124.277344 202.796875 124.539062 C 202.917969 124.542969 203.042969 124.542969 203.164062 124.539062 C 210.53125 124.277344 224.015625 128.476562 227.507812 134.855469 C 228.355469 136.398438 228.992188 138.664062 226.367188 142.460938 L 213.230469 161.285156 C 211.558594 160.5625 209.796875 160.011719 207.964844 159.652344 L 207.964844 149.246094 C 207.964844 146.492188 205.734375 144.257812 202.980469 144.257812 C 200.226562 144.257812 197.996094 146.492188 197.996094 149.246094 L 197.996094 159.65625 C 196.132812 160.019531 194.34375 160.585938 192.644531 161.324219 L 179.59375 142.46875 C 176.964844 138.664062 177.601562 136.402344 178.449219 134.855469 Z M 178.449219 134.855469 " fill-opacity="1" fill-rule="nonzero"/><path fill="#000000" d="M 269.828125 64.378906 C 267.179688 57.570312 260.632812 53.183594 252.683594 53.183594 C 252.679688 53.183594 252.671875 53.183594 252.667969 53.183594 C 244.722656 53.1875 238.1875 57.574219 235.542969 64.378906 C 228.730469 67.015625 224.335938 73.550781 224.335938 81.496094 C 224.335938 89.4375 228.730469 95.972656 235.546875 98.609375 C 238.199219 105.417969 244.742188 109.804688 252.6875 109.804688 C 260.636719 109.804688 267.179688 105.417969 269.828125 98.609375 C 276.648438 95.972656 281.039062 89.4375 281.039062 81.496094 C 281.039062 73.550781 276.648438 67.015625 269.828125 64.378906 Z M 264.855469 89.703125 C 262.878906 90.097656 261.335938 91.636719 260.9375 93.613281 C 260.015625 98.203125 255.917969 99.832031 252.6875 99.832031 C 249.460938 99.832031 245.359375 98.203125 244.4375 93.613281 C 244.042969 91.636719 242.496094 90.097656 240.523438 89.703125 C 235.933594 88.789062 234.308594 84.710938 234.308594 81.496094 C 234.308594 78.277344 235.933594 74.199219 240.523438 73.285156 C 242.5 72.890625 244.042969 71.347656 244.4375 69.371094 C 245.355469 64.789062 249.445312 63.160156 252.675781 63.160156 C 252.675781 63.160156 252.679688 63.160156 252.679688 63.160156 C 255.914062 63.160156 260.015625 64.785156 260.9375 69.375 C 261.335938 71.351562 262.878906 72.890625 264.855469 73.285156 C 269.441406 74.199219 271.070312 78.277344 271.070312 81.496094 C 271.070312 84.710938 269.441406 88.789062 264.855469 89.703125 Z M 264.855469 89.703125 " fill-opacity="1" fill-rule="nonzero"/><path fill="#000000" d="M 257.28125 79.589844 C 257.160156 79.28125 257 78.996094 256.820312 78.722656 C 256.640625 78.453125 256.433594 78.199219 256.203125 77.964844 C 255.046875 76.808594 253.324219 76.277344 251.703125 76.601562 C 251.382812 76.667969 251.070312 76.761719 250.773438 76.890625 C 250.472656 77.015625 250.179688 77.167969 249.914062 77.347656 C 249.636719 77.527344 249.382812 77.738281 249.15625 77.964844 C 248.925781 78.199219 248.71875 78.453125 248.53125 78.722656 C 248.351562 78.996094 248.199219 79.28125 248.074219 79.589844 C 247.953125 79.886719 247.855469 80.199219 247.796875 80.519531 C 247.726562 80.839844 247.695312 81.171875 247.695312 81.496094 C 247.695312 81.816406 247.726562 82.148438 247.796875 82.46875 C 247.855469 82.789062 247.953125 83.101562 248.074219 83.398438 C 248.199219 83.707031 248.351562 83.992188 248.53125 84.265625 C 248.71875 84.535156 248.925781 84.789062 249.15625 85.023438 C 249.382812 85.25 249.636719 85.460938 249.914062 85.640625 C 250.179688 85.820312 250.472656 85.972656 250.773438 86.097656 C 251.070312 86.226562 251.382812 86.320312 251.703125 86.386719 C 252.027344 86.453125 252.355469 86.480469 252.679688 86.480469 C 253.988281 86.480469 255.277344 85.945312 256.203125 85.023438 C 256.4375 84.789062 256.640625 84.535156 256.820312 84.265625 C 257 83.992188 257.160156 83.707031 257.28125 83.398438 C 257.40625 83.101562 257.503906 82.789062 257.566406 82.46875 C 257.632812 82.148438 257.664062 81.816406 257.664062 81.496094 C 257.664062 81.171875 257.632812 80.839844 257.566406 80.519531 C 257.503906 80.199219 257.40625 79.886719 257.28125 79.589844 Z M 257.28125 79.589844 " fill-opacity="1" fill-rule="nonzero"/><path fill="#000000" d="M 135.238281 98.609375 C 137.882812 105.417969 144.421875 109.804688 152.375 109.804688 C 160.324219 109.804688 166.863281 105.417969 169.507812 98.609375 C 176.332031 95.972656 180.730469 89.4375 180.730469 81.496094 C 180.730469 73.550781 176.332031 67.015625 169.507812 64.378906 C 166.863281 57.570312 160.324219 53.183594 152.375 53.183594 C 144.421875 53.183594 137.882812 57.570312 135.238281 64.378906 C 128.421875 67.015625 124.03125 73.550781 124.03125 81.496094 C 124.03125 89.4375 128.421875 95.972656 135.238281 98.609375 Z M 140.21875 73.285156 C 142.195312 72.890625 143.738281 71.347656 144.132812 69.371094 C 145.046875 64.785156 149.144531 63.160156 152.375 63.160156 C 155.601562 63.160156 159.699219 64.785156 160.613281 69.371094 C 161.007812 71.347656 162.554688 72.890625 164.53125 73.285156 C 169.128906 74.199219 170.761719 78.277344 170.761719 81.496094 C 170.761719 84.710938 169.128906 88.789062 164.53125 89.703125 C 162.554688 90.097656 161.007812 91.640625 160.613281 93.617188 C 159.699219 98.203125 155.601562 99.828125 152.375 99.828125 C 149.144531 99.828125 145.046875 98.203125 144.132812 93.617188 C 143.738281 91.640625 142.195312 90.097656 140.21875 89.703125 C 135.628906 88.789062 134 84.710938 134 81.496094 C 134 78.277344 135.628906 74.199219 140.21875 73.285156 Z M 140.21875 73.285156 " fill-opacity="1" fill-rule="nonzero"/><path fill="#000000" d="M 147.769531 83.398438 C 147.894531 83.707031 148.046875 83.992188 148.226562 84.265625 C 148.414062 84.535156 148.617188 84.789062 148.84375 85.023438 C 149.078125 85.25 149.332031 85.460938 149.601562 85.640625 C 149.875 85.820312 150.167969 85.972656 150.464844 86.097656 C 150.765625 86.226562 151.078125 86.320312 151.398438 86.386719 C 151.722656 86.453125 152.050781 86.480469 152.375 86.480469 C 153.683594 86.480469 154.964844 85.945312 155.898438 85.023438 C 156.128906 84.789062 156.335938 84.535156 156.515625 84.265625 C 156.695312 83.992188 156.855469 83.707031 156.972656 83.398438 C 157.101562 83.101562 157.199219 82.789062 157.257812 82.46875 C 157.328125 82.148438 157.359375 81.816406 157.359375 81.492188 C 157.359375 81.171875 157.328125 80.839844 157.257812 80.519531 C 157.199219 80.199219 157.101562 79.886719 156.972656 79.589844 C 156.855469 79.28125 156.695312 78.996094 156.515625 78.722656 C 156.335938 78.453125 156.128906 78.199219 155.898438 77.964844 C 155.671875 77.742188 155.410156 77.527344 155.140625 77.347656 C 154.867188 77.167969 154.582031 77.015625 154.28125 76.890625 C 153.976562 76.761719 153.664062 76.667969 153.34375 76.601562 C 152.707031 76.476562 152.042969 76.476562 151.398438 76.601562 C 151.078125 76.667969 150.765625 76.761719 150.464844 76.890625 C 150.167969 77.015625 149.875 77.167969 149.601562 77.347656 C 149.328125 77.527344 149.078125 77.742188 148.84375 77.964844 C 148.617188 78.199219 148.414062 78.453125 148.226562 78.722656 C 148.046875 78.996094 147.894531 79.28125 147.769531 79.589844 C 147.648438 79.886719 147.550781 80.199219 147.488281 80.519531 C 147.421875 80.839844 147.390625 81.171875 147.390625 81.492188 C 147.390625 81.816406 147.421875 82.148438 147.488281 82.46875 C 147.550781 82.789062 147.648438 83.101562 147.769531 83.398438 Z M 147.769531 83.398438 " fill-opacity="1" fill-rule="nonzero"/><g clip-path="url(#07ca7fff78)"><path fill="#000000" d="M 286.324219 17.277344 L 83.425781 17.277344 C 75.007812 17.277344 68.164062 24.105469 68.164062 32.5 L 68.164062 56.320312 C 58.796875 56.761719 51.3125 64.511719 51.3125 73.972656 C 51.3125 83.433594 58.796875 91.183594 68.164062 91.625 L 68.164062 113.304688 C 58.796875 113.75 51.3125 121.496094 51.3125 130.960938 C 51.3125 140.421875 58.796875 148.167969 68.164062 148.613281 L 68.164062 170.3125 C 58.796875 170.753906 51.3125 178.503906 51.3125 187.964844 C 51.3125 197.425781 58.796875 205.175781 68.164062 205.617188 L 68.164062 227.300781 C 58.796875 227.742188 51.3125 235.488281 51.3125 244.953125 C 51.3125 254.414062 58.796875 262.160156 68.164062 262.605469 L 68.164062 284.304688 C 58.796875 284.75 51.3125 292.496094 51.3125 301.957031 C 51.3125 311.417969 58.796875 319.167969 68.164062 319.609375 L 68.164062 342.523438 C 68.164062 350.929688 75.007812 357.769531 83.425781 357.769531 L 286.324219 357.769531 C 306.863281 357.769531 323.570312 341.085938 323.570312 320.582031 L 323.570312 54.441406 C 323.570312 33.949219 306.863281 17.277344 286.324219 17.277344 Z M 61.285156 73.972656 C 61.285156 69.726562 64.75 66.273438 69.011719 66.273438 L 87.617188 66.273438 C 91.878906 66.273438 95.347656 69.726562 95.347656 73.972656 C 95.347656 78.21875 91.878906 81.671875 87.617188 81.671875 L 69.011719 81.671875 C 64.75 81.671875 61.285156 78.21875 61.285156 73.972656 Z M 61.285156 130.960938 C 61.285156 126.714844 64.75 123.261719 69.011719 123.261719 L 87.617188 123.261719 C 91.878906 123.261719 95.347656 126.714844 95.347656 130.960938 C 95.347656 135.203125 91.878906 138.660156 87.617188 138.660156 L 69.011719 138.660156 C 64.75 138.660156 61.285156 135.203125 61.285156 130.960938 Z M 61.285156 187.964844 C 61.285156 183.71875 64.75 180.265625 69.011719 180.265625 L 87.617188 180.265625 C 91.878906 180.265625 95.347656 183.71875 95.347656 187.964844 C 95.347656 192.210938 91.878906 195.664062 87.617188 195.664062 L 69.011719 195.664062 C 64.75 195.664062 61.285156 192.210938 61.285156 187.964844 Z M 61.285156 244.953125 C 61.285156 240.707031 64.75 237.253906 69.011719 237.253906 L 87.617188 237.253906 C 91.878906 237.253906 95.347656 240.707031 95.347656 244.953125 C 95.347656 249.199219 91.878906 252.652344 87.617188 252.652344 L 69.011719 252.652344 C 64.75 252.652344 61.285156 249.199219 61.285156 244.953125 Z M 61.285156 301.957031 C 61.285156 297.710938 64.75 294.257812 69.011719 294.257812 L 87.617188 294.257812 C 91.878906 294.257812 95.347656 297.710938 95.347656 301.957031 C 95.347656 306.203125 91.878906 309.65625 87.617188 309.65625 L 69.011719 309.65625 C 64.75 309.65625 61.285156 306.203125 61.285156 301.957031 Z M 313.601562 320.582031 C 313.601562 335.585938 301.363281 347.792969 286.324219 347.792969 L 83.425781 347.792969 C 80.507812 347.792969 78.132812 345.429688 78.132812 342.523438 L 78.132812 319.632812 L 87.617188 319.632812 C 97.378906 319.632812 105.316406 311.703125 105.316406 301.957031 C 105.316406 292.210938 97.378906 284.28125 87.617188 284.28125 L 78.132812 284.28125 L 78.132812 262.625 L 87.617188 262.625 C 97.378906 262.625 105.316406 254.699219 105.316406 244.953125 C 105.316406 235.207031 97.378906 227.277344 87.617188 227.277344 L 78.132812 227.277344 L 78.132812 205.640625 L 87.617188 205.640625 C 97.378906 205.640625 105.316406 197.710938 105.316406 187.964844 C 105.316406 178.21875 97.378906 170.289062 87.617188 170.289062 L 78.132812 170.289062 L 78.132812 148.632812 L 87.617188 148.632812 C 97.378906 148.632812 105.316406 140.707031 105.316406 130.960938 C 105.316406 121.214844 97.378906 113.285156 87.617188 113.285156 L 78.132812 113.285156 L 78.132812 91.648438 L 87.617188 91.648438 C 97.378906 91.648438 105.316406 83.71875 105.316406 73.972656 C 105.316406 64.226562 97.378906 56.296875 87.617188 56.296875 L 78.132812 56.296875 L 78.132812 32.5 C 78.132812 29.605469 80.507812 27.25 83.425781 27.25 L 286.324219 27.25 C 301.363281 27.25 313.601562 39.449219 313.601562 54.441406 Z M 313.601562 320.582031 " fill-opacity="1" fill-rule="nonzero"/></g></svg>