<svg xmlns="http://www.w3.org/2000/svg" xmlns:xlink="http://www.w3.org/1999/xlink" width="1280" zoomAndPan="magnify" viewBox="0 0 960 675.000002" height="900" preserveAspectRatio="xMidYMid meet" version="1.0"><defs><g/><clipPath id="8eb3b34cbc"><path d="M 213.824219 68 L 746 68 L 746 617.835938 L 213.824219 617.835938 Z M 213.824219 68 " clip-rule="nonzero"/></clipPath><clipPath id="54ea4cabc7"><path d="M 214 195 L 745 195 L 745 617.835938 L 214 617.835938 Z M 214 195 " clip-rule="nonzero"/></clipPath></defs><g clip-path="url(#8eb3b34cbc)"><path fill="#4d9f70" d="M 737.363281 465.808594 C 739.988281 479.015625 741.558594 492.433594 745.21875 505.414062 C 746.15625 508.746094 745.894531 511.792969 744.414062 514.363281 C 742.882812 517.0625 740.023438 519.234375 735.84375 520.695312 L 735.832031 520.695312 C 734.964844 521 734.019531 521.109375 733.109375 521.320312 C 698.328125 528.9375 663.453125 536.175781 628.785156 544.320312 C 608.867188 548.996094 588.859375 553.359375 569.105469 558.605469 C 542.757812 565.59375 516.113281 571.21875 489.382812 576.183594 C 458.710938 581.886719 428.222656 588.453125 397.859375 595.414062 C 380.40625 599.417969 362.9375 603.351562 345.480469 607.332031 C 334.378906 609.859375 322.910156 610.328125 311.855469 613.148438 C 308.015625 614.113281 304.167969 615.035156 300.433594 616.316406 C 297.445312 617.351562 294.664062 617.621094 292.175781 617.144531 C 289.335938 616.617188 286.90625 615.121094 285.070312 612.660156 C 284.21875 611.558594 283.492188 610.257812 282.910156 608.773438 C 281.402344 604.90625 279.949219 601 278.964844 596.902344 C 274.78125 579.484375 270.488281 562.09375 265.960938 544.78125 C 262.191406 530.394531 257.683594 516.21875 254.179688 501.777344 C 248.5625 478.71875 241.8125 455.855469 238.21875 432.394531 C 232.484375 394.863281 224.382812 357.84375 216.464844 320.753906 C 215.210938 314.855469 214.171875 308.921875 213.917969 302.84375 C 213.835938 300.804688 213.933594 298.832031 214.246094 296.917969 C 214.714844 293.792969 215.691406 290.832031 217.136719 287.996094 C 217.742188 286.777344 218.441406 285.589844 219.214844 284.429688 C 224.378906 276.683594 229.867188 269.175781 235.527344 261.792969 C 260.027344 229.839844 286.910156 199.867188 312.542969 168.847656 C 335.367188 141.222656 359.0625 114.355469 383.652344 88.289062 C 388.445312 83.214844 393.449219 78.339844 398.511719 73.535156 C 403.425781 68.851562 409.074219 67.40625 415.84375 69.347656 C 431.097656 73.710938 445.828125 79.429688 460.304688 85.78125 C 489.71875 98.6875 517.792969 114.273438 546.21875 129.109375 C 568.296875 140.628906 590.902344 150.984375 613.199219 162.023438 C 626.546875 168.644531 639.699219 175.582031 652.074219 183.929688 C 655.347656 186.136719 658.632812 188.378906 662.390625 189.71875 C 666.121094 191.054688 669.1875 192.9375 671.691406 195.324219 C 673.4375 196.980469 674.914062 198.859375 676.132812 200.957031 C 677.742188 203.640625 678.941406 206.65625 679.808594 209.953125 C 682.609375 220.5 686.011719 230.878906 688.125 241.625 C 690.960938 256.011719 694.214844 270.328125 697.652344 286.34375 C 700.769531 303.4375 704.925781 322.078125 709.863281 340.507812 C 715.953125 363.214844 720.023438 386.402344 726.105469 409.070312 C 731.132812 427.785156 733.632812 446.90625 737.363281 465.808594 " fill-opacity="1" fill-rule="nonzero"/></g><path fill="#ffffff" d="M 500.679688 387.132812 C 498.863281 388.925781 497.175781 390.835938 495.359375 392.746094 C 496.71875 394.863281 498.917969 395.109375 500.734375 395.753906 C 509.035156 398.664062 517.222656 401.832031 525.324219 405.175781 C 523.386719 406.8125 521.421875 408.398438 519.421875 409.964844 C 509.117188 405.839844 498.472656 402.554688 487.917969 399.042969 C 478.691406 395.964844 471.300781 398.441406 464.992188 405.902344 C 460.445312 411.277344 455.710938 416.496094 451.066406 421.777344 C 448.050781 420.855469 445.058594 419.855469 442.101562 418.816406 C 447.085938 412.925781 452.195312 407.140625 457.632812 401.652344 C 455.652344 399.195312 453.179688 398.976562 451.105469 398.085938 C 394.347656 374.03125 336.738281 351.996094 280.398438 326.910156 C 276.226562 325.050781 272.054688 323.183594 267.890625 321.300781 C 266.769531 317.050781 265.519531 312.824219 264.210938 308.613281 C 261.558594 300.101562 258.660156 291.648438 256.035156 283.132812 C 253.324219 274.347656 255.664062 268.660156 264.191406 265.167969 C 277.273438 259.78125 290.695312 255.3125 304.105469 250.839844 C 328.566406 242.667969 353.566406 236.53125 378.484375 230.019531 C 405.160156 223.027344 431.304688 214.175781 457.414062 205.277344 C 470.355469 200.875 483.644531 197.484375 496.6875 193.378906 C 519.257812 186.246094 542.1875 180.40625 565.050781 174.324219 C 570.640625 172.832031 576.03125 170.617188 581.71875 169.410156 C 584.449219 168.824219 587.167969 168.175781 589.90625 167.652344 C 597.25 166.273438 600.0625 167.421875 603.351562 174.265625 C 606.859375 181.578125 610.140625 189.050781 613 196.636719 C 618.007812 209.894531 620.699219 223.855469 624.835938 237.390625 C 625.671875 240.121094 626.429688 242.878906 627.199219 245.648438 C 628.082031 248.875 628.976562 252.105469 629.996094 255.289062 C 606.917969 281.042969 582.933594 305.957031 558.542969 330.523438 C 539.539062 349.679688 519.925781 368.21875 500.679688 387.132812 " fill-opacity="1" fill-rule="nonzero"/><g clip-path="url(#54ea4cabc7)"><path fill="#1a5d2f" d="M 744.414062 514.363281 C 742.886719 517.058594 740.023438 519.234375 735.84375 520.695312 L 735.832031 520.695312 C 733.277344 519.292969 730.75 517.882812 728.207031 516.464844 C 681.058594 490.203125 632.890625 465.957031 584.496094 442.113281 C 566.566406 433.28125 548.914062 423.890625 530.972656 415.070312 C 527.183594 413.210938 523.335938 411.523438 519.425781 409.964844 C 509.121094 405.835938 498.476562 402.554688 487.921875 399.039062 C 478.695312 395.964844 471.300781 398.441406 464.992188 405.898438 C 460.445312 411.277344 455.710938 416.496094 451.066406 421.777344 C 447.410156 425.929688 443.816406 430.105469 440.398438 434.441406 C 433.328125 443.382812 425.992188 452.113281 418.335938 460.550781 C 379.390625 503.476562 343.875 549.179688 308.820312 595.277344 C 303.285156 602.570312 297.804688 609.925781 292.175781 617.144531 C 289.335938 616.617188 286.90625 615.121094 285.070312 612.660156 C 304.429688 585.855469 323.996094 559.21875 344.652344 533.382812 C 367.886719 504.320312 391.730469 475.757812 416.964844 448.363281 C 425.730469 438.859375 433.753906 428.6875 442.101562 418.816406 C 447.085938 412.925781 452.195312 407.140625 457.632812 401.652344 C 455.652344 399.191406 453.183594 398.976562 451.105469 398.085938 C 394.347656 374.03125 336.738281 351.996094 280.398438 326.910156 C 276.226562 325.050781 272.054688 323.183594 267.890625 321.296875 C 249.984375 313.234375 232.125 305.042969 214.246094 296.917969 C 214.714844 293.792969 215.691406 290.832031 217.136719 287.992188 C 232.824219 294.871094 248.523438 301.734375 264.210938 308.609375 C 315.414062 331 366.613281 353.378906 417.746094 375.941406 C 430.925781 381.746094 443.597656 388.679688 456.484375 395.136719 C 459.023438 396.398438 461.203125 397.832031 463.945312 395.109375 C 470.414062 388.691406 478.25 387.914062 486.589844 390.628906 C 489.253906 391.5 490.976562 391.734375 493.082031 389.078125 C 505.4375 373.589844 519.769531 359.917969 533.382812 345.585938 C 564.847656 312.441406 596.476562 279.457031 627.199219 245.648438 C 641.203125 230.210938 655.027344 214.617188 668.5625 198.746094 C 669.5625 197.5625 670.617188 196.417969 671.691406 195.320312 C 673.433594 196.980469 674.914062 198.863281 676.136719 200.957031 C 661.292969 219.570312 645.859375 237.632812 630 255.289062 C 606.917969 281.042969 582.933594 305.957031 558.546875 330.519531 C 539.539062 349.679688 519.925781 368.21875 500.679688 387.132812 C 498.863281 388.925781 497.175781 390.835938 495.359375 392.742188 C 496.71875 394.863281 498.917969 395.109375 500.734375 395.753906 C 509.035156 398.664062 517.222656 401.832031 525.324219 405.175781 C 549.238281 415.082031 572.417969 426.601562 595.589844 438.148438 C 625.570312 453.078125 656.453125 466.179688 685.910156 482.167969 C 705.464844 492.773438 724.976562 503.496094 744.414062 514.363281 " fill-opacity="1" fill-rule="nonzero"/></g><g fill="#000000" fill-opacity="1"><g transform="translate(298.172693, 290.48505)"><g><path d="M 4.484375 -3.015625 C 4.609375 -2.585938 4.554688 -2.175781 4.328125 -1.78125 C 4.109375 -1.394531 3.789062 -1.140625 3.375 -1.015625 C 2.914062 -0.878906 2.503906 -0.914062 2.140625 -1.125 C 1.773438 -1.332031 1.53125 -1.648438 1.40625 -2.078125 L -2.90625 -16.328125 C -3.039062 -16.753906 -3.003906 -17.15625 -2.796875 -17.53125 C -2.585938 -17.914062 -2.253906 -18.175781 -1.796875 -18.3125 C -1.398438 -18.4375 -1.003906 -18.398438 -0.609375 -18.203125 C -0.222656 -18.003906 0.0351562 -17.691406 0.171875 -17.265625 Z M 4.484375 -3.015625 "/></g></g></g><g fill="#000000" fill-opacity="1"><g transform="translate(304.955183, 288.43418)"><g><path d="M 4.59375 -16.078125 C 5.8125 -16.441406 6.8125 -16.460938 7.59375 -16.140625 C 8.382812 -15.828125 9.023438 -15.28125 9.515625 -14.5 C 10.015625 -13.726562 10.421875 -12.828125 10.734375 -11.796875 L 12.640625 -5.484375 C 12.765625 -5.054688 12.734375 -4.648438 12.546875 -4.265625 C 12.359375 -3.890625 12.050781 -3.640625 11.625 -3.515625 C 11.195312 -3.378906 10.796875 -3.414062 10.421875 -3.625 C 10.054688 -3.832031 9.8125 -4.148438 9.6875 -4.578125 L 7.78125 -10.890625 C 7.613281 -11.421875 7.394531 -11.882812 7.125 -12.28125 C 6.851562 -12.6875 6.492188 -12.960938 6.046875 -13.109375 C 5.597656 -13.265625 5.039062 -13.242188 4.375 -13.046875 C 3.71875 -12.847656 3.203125 -12.546875 2.828125 -12.140625 C 2.460938 -11.742188 2.222656 -11.285156 2.109375 -10.765625 C 2.003906 -10.253906 2.035156 -9.734375 2.203125 -9.203125 L 4.109375 -2.890625 C 4.234375 -2.460938 4.195312 -2.0625 4 -1.6875 C 3.8125 -1.3125 3.503906 -1.0625 3.078125 -0.9375 C 2.648438 -0.800781 2.25 -0.835938 1.875 -1.046875 C 1.507812 -1.253906 1.265625 -1.570312 1.140625 -2 L -1.9375 -12.1875 C -2.070312 -12.613281 -2.039062 -13.007812 -1.84375 -13.375 C -1.65625 -13.75 -1.347656 -14.003906 -0.921875 -14.140625 C -0.492188 -14.265625 -0.0976562 -14.222656 0.265625 -14.015625 C 0.640625 -13.816406 0.894531 -13.503906 1.03125 -13.078125 L 1.34375 -12.015625 L 0.953125 -11.96875 C 1.015625 -12.289062 1.132812 -12.65625 1.3125 -13.0625 C 1.5 -13.46875 1.738281 -13.867188 2.03125 -14.265625 C 2.332031 -14.671875 2.695312 -15.03125 3.125 -15.34375 C 3.550781 -15.65625 4.039062 -15.898438 4.59375 -16.078125 Z M 4.59375 -16.078125 "/></g></g></g><g fill="#000000" fill-opacity="1"><g transform="translate(319.654691, 283.989384)"><g><path d="M -1.796875 -13.875 C -1.492188 -13.96875 -1.179688 -13.972656 -0.859375 -13.890625 C -0.546875 -13.816406 -0.273438 -13.644531 -0.046875 -13.375 L 6.078125 -6.1875 L 5.609375 -5.75 L 6.734375 -15.390625 C 6.816406 -16.128906 7.15625 -16.570312 7.75 -16.71875 C 8.175781 -16.84375 8.550781 -16.816406 8.875 -16.640625 C 9.207031 -16.460938 9.429688 -16.1875 9.546875 -15.8125 C 9.578125 -15.695312 9.59375 -15.566406 9.59375 -15.421875 C 9.601562 -15.285156 9.597656 -15.144531 9.578125 -15 L 8.03125 -3.453125 C 7.945312 -2.773438 7.625 -2.335938 7.0625 -2.140625 C 6.757812 -1.992188 6.441406 -1.957031 6.109375 -2.03125 C 5.773438 -2.113281 5.476562 -2.304688 5.21875 -2.609375 L -2.453125 -11.375 C -2.492188 -11.457031 -2.554688 -11.554688 -2.640625 -11.671875 C -2.734375 -11.785156 -2.804688 -11.929688 -2.859375 -12.109375 C -2.953125 -12.410156 -2.910156 -12.742188 -2.734375 -13.109375 C -2.554688 -13.484375 -2.242188 -13.738281 -1.796875 -13.875 Z M -1.796875 -13.875 "/></g></g></g><g fill="#000000" fill-opacity="1"><g transform="translate(333.515634, 279.798151)"><g><path d="M 3.9375 -2.84375 C 4.0625 -2.414062 4.03125 -2.015625 3.84375 -1.640625 C 3.65625 -1.265625 3.347656 -1.007812 2.921875 -0.875 C 2.484375 -0.75 2.082031 -0.789062 1.71875 -1 C 1.351562 -1.207031 1.109375 -1.523438 0.984375 -1.953125 L -2.09375 -12.140625 C -2.226562 -12.566406 -2.203125 -12.960938 -2.015625 -13.328125 C -1.828125 -13.703125 -1.515625 -13.953125 -1.078125 -14.078125 C -0.648438 -14.210938 -0.253906 -14.175781 0.109375 -13.96875 C 0.472656 -13.769531 0.722656 -13.457031 0.859375 -13.03125 Z M -1.59375 -15.6875 C -2.15625 -15.519531 -2.578125 -15.488281 -2.859375 -15.59375 C -3.148438 -15.695312 -3.363281 -15.976562 -3.5 -16.4375 L -3.65625 -16.921875 C -3.789062 -17.398438 -3.753906 -17.757812 -3.546875 -18 C -3.335938 -18.25 -2.972656 -18.453125 -2.453125 -18.609375 C -1.878906 -18.785156 -1.453125 -18.816406 -1.171875 -18.703125 C -0.890625 -18.597656 -0.679688 -18.316406 -0.546875 -17.859375 L -0.390625 -17.375 C -0.253906 -16.90625 -0.28125 -16.546875 -0.46875 -16.296875 C -0.664062 -16.054688 -1.039062 -15.851562 -1.59375 -15.6875 Z M -1.59375 -15.6875 "/></g></g></g><g fill="#000000" fill-opacity="1"><g transform="translate(339.336242, 278.038132)"><g><path d="M -2.171875 -13.484375 L 3.671875 -15.25 C 4.078125 -15.375 4.453125 -15.34375 4.796875 -15.15625 C 5.140625 -14.96875 5.367188 -14.679688 5.484375 -14.296875 C 5.597656 -13.910156 5.5625 -13.550781 5.375 -13.21875 C 5.195312 -12.894531 4.90625 -12.671875 4.5 -12.546875 L -1.34375 -10.78125 C -1.726562 -10.664062 -2.09375 -10.695312 -2.4375 -10.875 C -2.789062 -11.050781 -3.023438 -11.335938 -3.140625 -11.734375 C -3.253906 -12.109375 -3.21875 -12.460938 -3.03125 -12.796875 C -2.84375 -13.140625 -2.554688 -13.367188 -2.171875 -13.484375 Z M -0.453125 -17.359375 C -0.015625 -17.492188 0.375 -17.457031 0.71875 -17.25 C 1.070312 -17.050781 1.316406 -16.734375 1.453125 -16.296875 L 4.765625 -5.328125 C 4.835938 -5.085938 4.9375 -4.90625 5.0625 -4.78125 C 5.195312 -4.664062 5.351562 -4.601562 5.53125 -4.59375 C 5.71875 -4.582031 5.898438 -4.601562 6.078125 -4.65625 C 6.273438 -4.707031 6.441406 -4.789062 6.578125 -4.90625 C 6.722656 -5.03125 6.90625 -5.125 7.125 -5.1875 C 7.351562 -5.257812 7.59375 -5.21875 7.84375 -5.0625 C 8.101562 -4.914062 8.289062 -4.648438 8.40625 -4.265625 C 8.550781 -3.796875 8.414062 -3.335938 8 -2.890625 C 7.582031 -2.453125 7.085938 -2.144531 6.515625 -1.96875 C 6.171875 -1.863281 5.78125 -1.773438 5.34375 -1.703125 C 4.90625 -1.640625 4.46875 -1.660156 4.03125 -1.765625 C 3.601562 -1.878906 3.191406 -2.128906 2.796875 -2.515625 C 2.410156 -2.898438 2.097656 -3.492188 1.859375 -4.296875 L -1.5 -15.40625 C -1.632812 -15.84375 -1.597656 -16.242188 -1.390625 -16.609375 C -1.191406 -16.984375 -0.878906 -17.234375 -0.453125 -17.359375 Z M -0.453125 -17.359375 "/></g></g></g><g fill="#000000" fill-opacity="1"><g transform="translate(349.423654, 274.987929)"><g><path d="M 8.34375 -17.203125 C 8.78125 -17.335938 9.175781 -17.304688 9.53125 -17.109375 C 9.894531 -16.910156 10.144531 -16.59375 10.28125 -16.15625 L 13.4375 -5.71875 C 13.5625 -5.289062 13.53125 -4.890625 13.34375 -4.515625 C 13.15625 -4.140625 12.84375 -3.882812 12.40625 -3.75 C 11.976562 -3.625 11.582031 -3.664062 11.21875 -3.875 C 10.851562 -4.082031 10.609375 -4.398438 10.484375 -4.828125 L 10.125 -6.015625 L 10.71875 -5.96875 C 10.78125 -5.75 10.742188 -5.453125 10.609375 -5.078125 C 10.472656 -4.703125 10.253906 -4.304688 9.953125 -3.890625 C 9.648438 -3.484375 9.257812 -3.097656 8.78125 -2.734375 C 8.3125 -2.367188 7.765625 -2.09375 7.140625 -1.90625 C 6.003906 -1.5625 4.882812 -1.539062 3.78125 -1.84375 C 2.6875 -2.144531 1.710938 -2.726562 0.859375 -3.59375 C 0.015625 -4.457031 -0.609375 -5.554688 -1.015625 -6.890625 C -1.421875 -8.234375 -1.507812 -9.5 -1.28125 -10.6875 C -1.050781 -11.882812 -0.570312 -12.910156 0.15625 -13.765625 C 0.882812 -14.628906 1.796875 -15.226562 2.890625 -15.5625 C 3.597656 -15.769531 4.28125 -15.851562 4.9375 -15.8125 C 5.59375 -15.78125 6.1875 -15.664062 6.71875 -15.46875 C 7.25 -15.269531 7.6875 -15.039062 8.03125 -14.78125 C 8.375 -14.519531 8.578125 -14.273438 8.640625 -14.046875 L 7.875 -13.453125 L 7.328125 -15.265625 C 7.203125 -15.679688 7.234375 -16.078125 7.421875 -16.453125 C 7.609375 -16.828125 7.914062 -17.078125 8.34375 -17.203125 Z M 6.6875 -4.71875 C 7.40625 -4.9375 7.976562 -5.304688 8.40625 -5.828125 C 8.84375 -6.359375 9.117188 -6.976562 9.234375 -7.6875 C 9.347656 -8.40625 9.285156 -9.15625 9.046875 -9.9375 C 8.804688 -10.726562 8.441406 -11.382812 7.953125 -11.90625 C 7.460938 -12.4375 6.890625 -12.800781 6.234375 -13 C 5.585938 -13.207031 4.90625 -13.203125 4.1875 -12.984375 C 3.476562 -12.765625 2.90625 -12.390625 2.46875 -11.859375 C 2.03125 -11.335938 1.753906 -10.71875 1.640625 -10 C 1.523438 -9.289062 1.585938 -8.539062 1.828125 -7.75 C 2.066406 -6.96875 2.429688 -6.3125 2.921875 -5.78125 C 3.410156 -5.257812 3.984375 -4.894531 4.640625 -4.6875 C 5.296875 -4.488281 5.976562 -4.5 6.6875 -4.71875 Z M 6.6875 -4.71875 "/></g></g></g><g fill="#000000" fill-opacity="1"><g transform="translate(364.912398, 270.304486)"><g><path d="M 3.421875 -15.71875 C 4.359375 -16 5.203125 -16.144531 5.953125 -16.15625 C 6.710938 -16.164062 7.335938 -16.050781 7.828125 -15.8125 C 8.328125 -15.582031 8.648438 -15.21875 8.796875 -14.71875 C 8.898438 -14.394531 8.894531 -14.054688 8.78125 -13.703125 C 8.664062 -13.347656 8.421875 -13.113281 8.046875 -13 C 7.785156 -12.925781 7.554688 -12.898438 7.359375 -12.921875 C 7.160156 -12.953125 6.976562 -13.003906 6.8125 -13.078125 C 6.644531 -13.148438 6.460938 -13.207031 6.265625 -13.25 C 6.066406 -13.300781 5.785156 -13.300781 5.421875 -13.25 C 5.066406 -13.207031 4.804688 -13.164062 4.640625 -13.125 C 3.804688 -12.875 3.148438 -12.476562 2.671875 -11.9375 C 2.203125 -11.394531 1.90625 -10.765625 1.78125 -10.046875 C 1.65625 -9.335938 1.710938 -8.582031 1.953125 -7.78125 C 2.203125 -6.988281 2.578125 -6.332031 3.078125 -5.8125 C 3.578125 -5.300781 4.164062 -4.945312 4.84375 -4.75 C 5.519531 -4.5625 6.226562 -4.578125 6.96875 -4.796875 C 7.382812 -4.929688 7.734375 -5.066406 8.015625 -5.203125 C 8.296875 -5.347656 8.519531 -5.492188 8.6875 -5.640625 C 8.882812 -5.847656 9.046875 -6.050781 9.171875 -6.25 C 9.304688 -6.445312 9.5625 -6.601562 9.9375 -6.71875 C 10.351562 -6.84375 10.71875 -6.804688 11.03125 -6.609375 C 11.351562 -6.410156 11.570312 -6.113281 11.6875 -5.71875 C 11.8125 -5.300781 11.691406 -4.851562 11.328125 -4.375 C 10.972656 -3.90625 10.453125 -3.457031 9.765625 -3.03125 C 9.078125 -2.601562 8.300781 -2.253906 7.4375 -1.984375 C 6.132812 -1.585938 4.914062 -1.546875 3.78125 -1.859375 C 2.644531 -2.171875 1.660156 -2.765625 0.828125 -3.640625 C -0.00390625 -4.523438 -0.617188 -5.609375 -1.015625 -6.890625 C -1.421875 -8.234375 -1.5 -9.503906 -1.25 -10.703125 C -1.007812 -11.898438 -0.488281 -12.9375 0.3125 -13.8125 C 1.113281 -14.695312 2.148438 -15.332031 3.421875 -15.71875 Z M 3.421875 -15.71875 "/></g></g></g><g fill="#000000" fill-opacity="1"><g transform="translate(377.737474, 266.426476)"><g><path d="M 3.9375 -2.84375 C 4.0625 -2.414062 4.03125 -2.015625 3.84375 -1.640625 C 3.65625 -1.265625 3.347656 -1.007812 2.921875 -0.875 C 2.484375 -0.75 2.082031 -0.789062 1.71875 -1 C 1.351562 -1.207031 1.109375 -1.523438 0.984375 -1.953125 L -2.09375 -12.140625 C -2.226562 -12.566406 -2.203125 -12.960938 -2.015625 -13.328125 C -1.828125 -13.703125 -1.515625 -13.953125 -1.078125 -14.078125 C -0.648438 -14.210938 -0.253906 -14.175781 0.109375 -13.96875 C 0.472656 -13.769531 0.722656 -13.457031 0.859375 -13.03125 Z M -1.59375 -15.6875 C -2.15625 -15.519531 -2.578125 -15.488281 -2.859375 -15.59375 C -3.148438 -15.695312 -3.363281 -15.976562 -3.5 -16.4375 L -3.65625 -16.921875 C -3.789062 -17.398438 -3.753906 -17.757812 -3.546875 -18 C -3.335938 -18.25 -2.972656 -18.453125 -2.453125 -18.609375 C -1.878906 -18.785156 -1.453125 -18.816406 -1.171875 -18.703125 C -0.890625 -18.597656 -0.679688 -18.316406 -0.546875 -17.859375 L -0.390625 -17.375 C -0.253906 -16.90625 -0.28125 -16.546875 -0.46875 -16.296875 C -0.664062 -16.054688 -1.039062 -15.851562 -1.59375 -15.6875 Z M -1.59375 -15.6875 "/></g></g></g><g fill="#000000" fill-opacity="1"><g transform="translate(383.558082, 264.666456)"><g><path d="M 12.421875 -10.953125 C 12.835938 -9.597656 12.894531 -8.316406 12.59375 -7.109375 C 12.300781 -5.898438 11.738281 -4.851562 10.90625 -3.96875 C 10.070312 -3.09375 9.03125 -2.46875 7.78125 -2.09375 C 6.519531 -1.71875 5.296875 -1.660156 4.109375 -1.921875 C 2.921875 -2.191406 1.875 -2.75 0.96875 -3.59375 C 0.0625 -4.4375 -0.597656 -5.535156 -1.015625 -6.890625 C -1.421875 -8.234375 -1.476562 -9.507812 -1.1875 -10.71875 C -0.894531 -11.9375 -0.332031 -12.988281 0.5 -13.875 C 1.332031 -14.769531 2.378906 -15.40625 3.640625 -15.78125 C 4.890625 -16.15625 6.109375 -16.203125 7.296875 -15.921875 C 8.484375 -15.648438 9.53125 -15.085938 10.4375 -14.234375 C 11.351562 -13.390625 12.015625 -12.296875 12.421875 -10.953125 Z M 9.453125 -10.0625 C 9.203125 -10.90625 8.8125 -11.578125 8.28125 -12.078125 C 7.757812 -12.585938 7.160156 -12.929688 6.484375 -13.109375 C 5.816406 -13.285156 5.140625 -13.269531 4.453125 -13.0625 C 3.753906 -12.851562 3.175781 -12.488281 2.71875 -11.96875 C 2.257812 -11.445312 1.953125 -10.828125 1.796875 -10.109375 C 1.648438 -9.398438 1.703125 -8.625 1.953125 -7.78125 C 2.203125 -6.957031 2.585938 -6.285156 3.109375 -5.765625 C 3.640625 -5.253906 4.238281 -4.910156 4.90625 -4.734375 C 5.570312 -4.566406 6.253906 -4.585938 6.953125 -4.796875 C 7.640625 -5.003906 8.210938 -5.363281 8.671875 -5.875 C 9.140625 -6.394531 9.445312 -7.015625 9.59375 -7.734375 C 9.75 -8.460938 9.703125 -9.238281 9.453125 -10.0625 Z M 3.578125 -16.40625 C 3.441406 -16.375 3.25 -16.394531 3 -16.46875 C 2.757812 -16.550781 2.601562 -16.722656 2.53125 -16.984375 C 2.488281 -17.140625 2.488281 -17.3125 2.53125 -17.5 L 3.21875 -20.453125 C 3.289062 -20.765625 3.410156 -21.050781 3.578125 -21.3125 C 3.753906 -21.570312 3.988281 -21.75 4.28125 -21.84375 C 4.738281 -21.976562 5.109375 -21.960938 5.390625 -21.796875 C 5.679688 -21.628906 5.867188 -21.367188 5.953125 -21.015625 C 5.992188 -20.835938 6.003906 -20.648438 5.984375 -20.453125 C 5.960938 -20.253906 5.90625 -20.039062 5.8125 -19.8125 L 4.546875 -17.171875 C 4.441406 -16.929688 4.296875 -16.757812 4.109375 -16.65625 C 3.929688 -16.550781 3.753906 -16.46875 3.578125 -16.40625 Z M 3.578125 -16.40625 "/></g></g></g><g fill="#000000" fill-opacity="1"><g transform="translate(398.948175, 260.012843)"><g><path d="M 4.59375 -16.078125 C 5.8125 -16.441406 6.8125 -16.460938 7.59375 -16.140625 C 8.382812 -15.828125 9.023438 -15.28125 9.515625 -14.5 C 10.015625 -13.726562 10.421875 -12.828125 10.734375 -11.796875 L 12.640625 -5.484375 C 12.765625 -5.054688 12.734375 -4.648438 12.546875 -4.265625 C 12.359375 -3.890625 12.050781 -3.640625 11.625 -3.515625 C 11.195312 -3.378906 10.796875 -3.414062 10.421875 -3.625 C 10.054688 -3.832031 9.8125 -4.148438 9.6875 -4.578125 L 7.78125 -10.890625 C 7.613281 -11.421875 7.394531 -11.882812 7.125 -12.28125 C 6.851562 -12.6875 6.492188 -12.960938 6.046875 -13.109375 C 5.597656 -13.265625 5.039062 -13.242188 4.375 -13.046875 C 3.71875 -12.847656 3.203125 -12.546875 2.828125 -12.140625 C 2.460938 -11.742188 2.222656 -11.285156 2.109375 -10.765625 C 2.003906 -10.253906 2.035156 -9.734375 2.203125 -9.203125 L 4.109375 -2.890625 C 4.234375 -2.460938 4.195312 -2.0625 4 -1.6875 C 3.8125 -1.3125 3.503906 -1.0625 3.078125 -0.9375 C 2.648438 -0.800781 2.25 -0.835938 1.875 -1.046875 C 1.507812 -1.253906 1.265625 -1.570312 1.140625 -2 L -1.9375 -12.1875 C -2.070312 -12.613281 -2.039062 -13.007812 -1.84375 -13.375 C -1.65625 -13.75 -1.347656 -14.003906 -0.921875 -14.140625 C -0.492188 -14.265625 -0.0976562 -14.222656 0.265625 -14.015625 C 0.640625 -13.816406 0.894531 -13.503906 1.03125 -13.078125 L 1.34375 -12.015625 L 0.953125 -11.96875 C 1.015625 -12.289062 1.132812 -12.65625 1.3125 -13.0625 C 1.5 -13.46875 1.738281 -13.867188 2.03125 -14.265625 C 2.332031 -14.671875 2.695312 -15.03125 3.125 -15.34375 C 3.550781 -15.65625 4.039062 -15.898438 4.59375 -16.078125 Z M 4.59375 -16.078125 "/></g></g></g><g fill="#000000" fill-opacity="1"><g transform="translate(413.647683, 255.568047)"><g/></g></g><g fill="#000000" fill-opacity="1"><g transform="translate(420.553489, 253.479889)"><g><path d="M 7.90625 -2.125 C 6.507812 -1.707031 5.207031 -1.632812 4 -1.90625 C 2.789062 -2.175781 1.757812 -2.726562 0.90625 -3.5625 C 0.0507812 -4.394531 -0.566406 -5.445312 -0.953125 -6.71875 C -1.398438 -8.1875 -1.484375 -9.535156 -1.203125 -10.765625 C -0.921875 -11.992188 -0.378906 -13.035156 0.421875 -13.890625 C 1.234375 -14.742188 2.179688 -15.335938 3.265625 -15.671875 C 4.097656 -15.921875 4.941406 -15.984375 5.796875 -15.859375 C 6.648438 -15.742188 7.457031 -15.472656 8.21875 -15.046875 C 8.976562 -14.617188 9.644531 -14.0625 10.21875 -13.375 C 10.789062 -12.6875 11.207031 -11.898438 11.46875 -11.015625 C 11.582031 -10.609375 11.523438 -10.238281 11.296875 -9.90625 C 11.078125 -9.570312 10.769531 -9.347656 10.375 -9.234375 L 0.953125 -6.375 L -0.53125 -8.625 L 8.53125 -11.359375 L 8.125 -10.6875 L 7.921875 -11.34375 C 7.742188 -11.820312 7.445312 -12.203125 7.03125 -12.484375 C 6.613281 -12.773438 6.144531 -12.960938 5.625 -13.046875 C 5.101562 -13.140625 4.585938 -13.109375 4.078125 -12.953125 C 3.585938 -12.804688 3.148438 -12.597656 2.765625 -12.328125 C 2.378906 -12.066406 2.070312 -11.734375 1.84375 -11.328125 C 1.625 -10.929688 1.503906 -10.441406 1.484375 -9.859375 C 1.472656 -9.273438 1.585938 -8.578125 1.828125 -7.765625 C 2.097656 -6.878906 2.507812 -6.179688 3.0625 -5.671875 C 3.625 -5.171875 4.242188 -4.847656 4.921875 -4.703125 C 5.597656 -4.554688 6.265625 -4.582031 6.921875 -4.78125 C 7.523438 -4.96875 7.992188 -5.164062 8.328125 -5.375 C 8.660156 -5.582031 8.914062 -5.789062 9.09375 -6 C 9.269531 -6.207031 9.4375 -6.382812 9.59375 -6.53125 C 9.84375 -6.78125 10.101562 -6.945312 10.375 -7.03125 C 10.738281 -7.132812 11.078125 -7.097656 11.390625 -6.921875 C 11.710938 -6.742188 11.921875 -6.488281 12.015625 -6.15625 C 12.148438 -5.71875 12.046875 -5.25 11.703125 -4.75 C 11.367188 -4.25 10.859375 -3.75 10.171875 -3.25 C 9.484375 -2.75 8.726562 -2.375 7.90625 -2.125 Z M 7.90625 -2.125 "/></g></g></g><g fill="#000000" fill-opacity="1"><g transform="translate(435.105016, 249.079839)"><g><path d="M 4.59375 -16.078125 C 5.8125 -16.441406 6.8125 -16.460938 7.59375 -16.140625 C 8.382812 -15.828125 9.023438 -15.28125 9.515625 -14.5 C 10.015625 -13.726562 10.421875 -12.828125 10.734375 -11.796875 L 12.640625 -5.484375 C 12.765625 -5.054688 12.734375 -4.648438 12.546875 -4.265625 C 12.359375 -3.890625 12.050781 -3.640625 11.625 -3.515625 C 11.195312 -3.378906 10.796875 -3.414062 10.421875 -3.625 C 10.054688 -3.832031 9.8125 -4.148438 9.6875 -4.578125 L 7.78125 -10.890625 C 7.613281 -11.421875 7.394531 -11.882812 7.125 -12.28125 C 6.851562 -12.6875 6.492188 -12.960938 6.046875 -13.109375 C 5.597656 -13.265625 5.039062 -13.242188 4.375 -13.046875 C 3.71875 -12.847656 3.203125 -12.546875 2.828125 -12.140625 C 2.460938 -11.742188 2.222656 -11.285156 2.109375 -10.765625 C 2.003906 -10.253906 2.035156 -9.734375 2.203125 -9.203125 L 4.109375 -2.890625 C 4.234375 -2.460938 4.195312 -2.0625 4 -1.6875 C 3.8125 -1.3125 3.503906 -1.0625 3.078125 -0.9375 C 2.648438 -0.800781 2.25 -0.835938 1.875 -1.046875 C 1.507812 -1.253906 1.265625 -1.570312 1.140625 -2 L -1.9375 -12.1875 C -2.070312 -12.613281 -2.039062 -13.007812 -1.84375 -13.375 C -1.65625 -13.75 -1.347656 -14.003906 -0.921875 -14.140625 C -0.492188 -14.265625 -0.0976562 -14.222656 0.265625 -14.015625 C 0.640625 -13.816406 0.894531 -13.503906 1.03125 -13.078125 L 1.34375 -12.015625 L 0.953125 -11.96875 C 1.015625 -12.289062 1.132812 -12.65625 1.3125 -13.0625 C 1.5 -13.46875 1.738281 -13.867188 2.03125 -14.265625 C 2.332031 -14.671875 2.695312 -15.03125 3.125 -15.34375 C 3.550781 -15.65625 4.039062 -15.898438 4.59375 -16.078125 Z M 4.59375 -16.078125 "/></g></g></g><g fill="#000000" fill-opacity="1"><g transform="translate(449.804524, 244.635043)"><g/></g></g><g fill="#000000" fill-opacity="1"><g transform="translate(456.71033, 242.546885)"><g><path d="M 6.890625 -22.015625 C 7.328125 -22.148438 7.722656 -22.117188 8.078125 -21.921875 C 8.441406 -21.722656 8.691406 -21.398438 8.828125 -20.953125 L 13.4375 -5.71875 C 13.5625 -5.289062 13.53125 -4.890625 13.34375 -4.515625 C 13.15625 -4.140625 12.84375 -3.882812 12.40625 -3.75 C 11.976562 -3.625 11.582031 -3.664062 11.21875 -3.875 C 10.851562 -4.082031 10.609375 -4.398438 10.484375 -4.828125 L 10.125 -6.015625 L 10.71875 -5.96875 C 10.78125 -5.75 10.742188 -5.453125 10.609375 -5.078125 C 10.472656 -4.703125 10.253906 -4.304688 9.953125 -3.890625 C 9.648438 -3.484375 9.257812 -3.097656 8.78125 -2.734375 C 8.3125 -2.367188 7.765625 -2.09375 7.140625 -1.90625 C 6.003906 -1.5625 4.882812 -1.539062 3.78125 -1.84375 C 2.6875 -2.144531 1.710938 -2.726562 0.859375 -3.59375 C 0.015625 -4.457031 -0.609375 -5.554688 -1.015625 -6.890625 C -1.421875 -8.234375 -1.507812 -9.5 -1.28125 -10.6875 C -1.050781 -11.882812 -0.570312 -12.910156 0.15625 -13.765625 C 0.882812 -14.628906 1.796875 -15.226562 2.890625 -15.5625 C 3.597656 -15.769531 4.28125 -15.851562 4.9375 -15.8125 C 5.59375 -15.78125 6.1875 -15.664062 6.71875 -15.46875 C 7.25 -15.269531 7.6875 -15.039062 8.03125 -14.78125 C 8.375 -14.519531 8.578125 -14.273438 8.640625 -14.046875 L 7.875 -13.453125 L 5.875 -20.0625 C 5.738281 -20.488281 5.765625 -20.890625 5.953125 -21.265625 C 6.148438 -21.640625 6.460938 -21.890625 6.890625 -22.015625 Z M 6.6875 -4.71875 C 7.40625 -4.9375 7.976562 -5.304688 8.40625 -5.828125 C 8.84375 -6.359375 9.117188 -6.976562 9.234375 -7.6875 C 9.347656 -8.40625 9.285156 -9.15625 9.046875 -9.9375 C 8.804688 -10.726562 8.441406 -11.382812 7.953125 -11.90625 C 7.460938 -12.4375 6.890625 -12.800781 6.234375 -13 C 5.585938 -13.207031 4.90625 -13.203125 4.1875 -12.984375 C 3.476562 -12.765625 2.90625 -12.390625 2.46875 -11.859375 C 2.03125 -11.335938 1.753906 -10.71875 1.640625 -10 C 1.523438 -9.289062 1.585938 -8.539062 1.828125 -7.75 C 2.066406 -6.96875 2.429688 -6.3125 2.921875 -5.78125 C 3.410156 -5.257812 3.984375 -4.894531 4.640625 -4.6875 C 5.296875 -4.488281 5.976562 -4.5 6.6875 -4.71875 Z M 6.6875 -4.71875 "/></g></g></g><g fill="#000000" fill-opacity="1"><g transform="translate(472.199074, 237.863443)"><g><path d="M 7.90625 -2.125 C 6.507812 -1.707031 5.207031 -1.632812 4 -1.90625 C 2.789062 -2.175781 1.757812 -2.726562 0.90625 -3.5625 C 0.0507812 -4.394531 -0.566406 -5.445312 -0.953125 -6.71875 C -1.398438 -8.1875 -1.484375 -9.535156 -1.203125 -10.765625 C -0.921875 -11.992188 -0.378906 -13.035156 0.421875 -13.890625 C 1.234375 -14.742188 2.179688 -15.335938 3.265625 -15.671875 C 4.097656 -15.921875 4.941406 -15.984375 5.796875 -15.859375 C 6.648438 -15.742188 7.457031 -15.472656 8.21875 -15.046875 C 8.976562 -14.617188 9.644531 -14.0625 10.21875 -13.375 C 10.789062 -12.6875 11.207031 -11.898438 11.46875 -11.015625 C 11.582031 -10.609375 11.523438 -10.238281 11.296875 -9.90625 C 11.078125 -9.570312 10.769531 -9.347656 10.375 -9.234375 L 0.953125 -6.375 L -0.53125 -8.625 L 8.53125 -11.359375 L 8.125 -10.6875 L 7.921875 -11.34375 C 7.742188 -11.820312 7.445312 -12.203125 7.03125 -12.484375 C 6.613281 -12.773438 6.144531 -12.960938 5.625 -13.046875 C 5.101562 -13.140625 4.585938 -13.109375 4.078125 -12.953125 C 3.585938 -12.804688 3.148438 -12.597656 2.765625 -12.328125 C 2.378906 -12.066406 2.070312 -11.734375 1.84375 -11.328125 C 1.625 -10.929688 1.503906 -10.441406 1.484375 -9.859375 C 1.472656 -9.273438 1.585938 -8.578125 1.828125 -7.765625 C 2.097656 -6.878906 2.507812 -6.179688 3.0625 -5.671875 C 3.625 -5.171875 4.242188 -4.847656 4.921875 -4.703125 C 5.597656 -4.554688 6.265625 -4.582031 6.921875 -4.78125 C 7.523438 -4.96875 7.992188 -5.164062 8.328125 -5.375 C 8.660156 -5.582031 8.914062 -5.789062 9.09375 -6 C 9.269531 -6.207031 9.4375 -6.382812 9.59375 -6.53125 C 9.84375 -6.78125 10.101562 -6.945312 10.375 -7.03125 C 10.738281 -7.132812 11.078125 -7.097656 11.390625 -6.921875 C 11.710938 -6.742188 11.921875 -6.488281 12.015625 -6.15625 C 12.148438 -5.71875 12.046875 -5.25 11.703125 -4.75 C 11.367188 -4.25 10.859375 -3.75 10.171875 -3.25 C 9.484375 -2.75 8.726562 -2.375 7.90625 -2.125 Z M 7.90625 -2.125 "/></g></g></g><g fill="#000000" fill-opacity="1"><g transform="translate(486.750601, 233.463393)"><g><path d="M 0.21875 -2.296875 C -0.0078125 -2.484375 -0.171875 -2.757812 -0.265625 -3.125 C -0.359375 -3.488281 -0.242188 -3.863281 0.078125 -4.25 C 0.296875 -4.5 0.554688 -4.65625 0.859375 -4.71875 C 1.171875 -4.78125 1.507812 -4.71875 1.875 -4.53125 C 2.488281 -4.195312 3.097656 -3.976562 3.703125 -3.875 C 4.304688 -3.769531 5.007812 -3.835938 5.8125 -4.078125 C 6.039062 -4.171875 6.296875 -4.285156 6.578125 -4.421875 C 6.859375 -4.566406 7.078125 -4.773438 7.234375 -5.046875 C 7.390625 -5.328125 7.40625 -5.679688 7.28125 -6.109375 C 7.164062 -6.472656 6.953125 -6.722656 6.640625 -6.859375 C 6.335938 -6.992188 5.960938 -7.070312 5.515625 -7.09375 C 5.066406 -7.125 4.578125 -7.132812 4.046875 -7.125 C 3.484375 -7.113281 2.910156 -7.113281 2.328125 -7.125 C 1.742188 -7.144531 1.179688 -7.234375 0.640625 -7.390625 C 0.109375 -7.546875 -0.363281 -7.820312 -0.78125 -8.21875 C -1.207031 -8.613281 -1.53125 -9.175781 -1.75 -9.90625 C -2 -10.71875 -1.976562 -11.484375 -1.6875 -12.203125 C -1.40625 -12.921875 -0.941406 -13.546875 -0.296875 -14.078125 C 0.335938 -14.609375 1.054688 -15 1.859375 -15.25 C 2.367188 -15.394531 2.921875 -15.488281 3.515625 -15.53125 C 4.109375 -15.582031 4.703125 -15.550781 5.296875 -15.4375 C 5.898438 -15.320312 6.4375 -15.085938 6.90625 -14.734375 C 7.15625 -14.554688 7.347656 -14.296875 7.484375 -13.953125 C 7.628906 -13.617188 7.570312 -13.257812 7.3125 -12.875 C 7.132812 -12.613281 6.875 -12.441406 6.53125 -12.359375 C 6.1875 -12.285156 5.878906 -12.3125 5.609375 -12.4375 C 5.222656 -12.71875 4.757812 -12.894531 4.21875 -12.96875 C 3.6875 -13.039062 3.113281 -12.984375 2.5 -12.796875 C 2.25 -12.722656 1.992188 -12.613281 1.734375 -12.46875 C 1.472656 -12.320312 1.265625 -12.125 1.109375 -11.875 C 0.953125 -11.625 0.9375 -11.289062 1.0625 -10.875 C 1.175781 -10.5 1.390625 -10.234375 1.703125 -10.078125 C 2.015625 -9.929688 2.398438 -9.847656 2.859375 -9.828125 C 3.316406 -9.816406 3.804688 -9.820312 4.328125 -9.84375 C 4.859375 -9.863281 5.40625 -9.859375 5.96875 -9.828125 C 6.53125 -9.804688 7.070312 -9.707031 7.59375 -9.53125 C 8.113281 -9.363281 8.570312 -9.085938 8.96875 -8.703125 C 9.375 -8.316406 9.691406 -7.757812 9.921875 -7.03125 C 10.171875 -6.195312 10.140625 -5.410156 9.828125 -4.671875 C 9.515625 -3.929688 9.03125 -3.296875 8.375 -2.765625 C 7.726562 -2.242188 7.015625 -1.863281 6.234375 -1.625 C 5.273438 -1.332031 4.253906 -1.207031 3.171875 -1.25 C 2.097656 -1.289062 1.113281 -1.640625 0.21875 -2.296875 Z M 0.21875 -2.296875 "/></g></g></g><g fill="#000000" fill-opacity="1"><g transform="translate(498.638471, 229.868772)"><g><path d="M 8.34375 -17.203125 C 8.78125 -17.335938 9.175781 -17.304688 9.53125 -17.109375 C 9.894531 -16.910156 10.144531 -16.59375 10.28125 -16.15625 L 13.4375 -5.71875 C 13.5625 -5.289062 13.53125 -4.890625 13.34375 -4.515625 C 13.15625 -4.140625 12.84375 -3.882812 12.40625 -3.75 C 11.976562 -3.625 11.582031 -3.664062 11.21875 -3.875 C 10.851562 -4.082031 10.609375 -4.398438 10.484375 -4.828125 L 10.125 -6.015625 L 10.71875 -5.96875 C 10.78125 -5.75 10.742188 -5.453125 10.609375 -5.078125 C 10.472656 -4.703125 10.253906 -4.304688 9.953125 -3.890625 C 9.648438 -3.484375 9.257812 -3.097656 8.78125 -2.734375 C 8.3125 -2.367188 7.765625 -2.09375 7.140625 -1.90625 C 6.003906 -1.5625 4.882812 -1.539062 3.78125 -1.84375 C 2.6875 -2.144531 1.710938 -2.726562 0.859375 -3.59375 C 0.015625 -4.457031 -0.609375 -5.554688 -1.015625 -6.890625 C -1.421875 -8.234375 -1.507812 -9.5 -1.28125 -10.6875 C -1.050781 -11.882812 -0.570312 -12.910156 0.15625 -13.765625 C 0.882812 -14.628906 1.796875 -15.226562 2.890625 -15.5625 C 3.597656 -15.769531 4.28125 -15.851562 4.9375 -15.8125 C 5.59375 -15.78125 6.1875 -15.664062 6.71875 -15.46875 C 7.25 -15.269531 7.6875 -15.039062 8.03125 -14.78125 C 8.375 -14.519531 8.578125 -14.273438 8.640625 -14.046875 L 7.875 -13.453125 L 7.328125 -15.265625 C 7.203125 -15.679688 7.234375 -16.078125 7.421875 -16.453125 C 7.609375 -16.828125 7.914062 -17.078125 8.34375 -17.203125 Z M 6.6875 -4.71875 C 7.40625 -4.9375 7.976562 -5.304688 8.40625 -5.828125 C 8.84375 -6.359375 9.117188 -6.976562 9.234375 -7.6875 C 9.347656 -8.40625 9.285156 -9.15625 9.046875 -9.9375 C 8.804688 -10.726562 8.441406 -11.382812 7.953125 -11.90625 C 7.460938 -12.4375 6.890625 -12.800781 6.234375 -13 C 5.585938 -13.207031 4.90625 -13.203125 4.1875 -12.984375 C 3.476562 -12.765625 2.90625 -12.390625 2.46875 -11.859375 C 2.03125 -11.335938 1.753906 -10.71875 1.640625 -10 C 1.523438 -9.289062 1.585938 -8.539062 1.828125 -7.75 C 2.066406 -6.96875 2.429688 -6.3125 2.921875 -5.78125 C 3.410156 -5.257812 3.984375 -4.894531 4.640625 -4.6875 C 5.296875 -4.488281 5.976562 -4.5 6.6875 -4.71875 Z M 6.6875 -4.71875 "/></g></g></g><g fill="#000000" fill-opacity="1"><g transform="translate(514.127215, 225.185329)"><g><path d="M 3.078125 -0.9375 C 2.648438 -0.800781 2.25 -0.835938 1.875 -1.046875 C 1.507812 -1.253906 1.265625 -1.570312 1.140625 -2 L -1.9375 -12.1875 C -2.070312 -12.613281 -2.039062 -13.007812 -1.84375 -13.375 C -1.65625 -13.75 -1.347656 -14.003906 -0.921875 -14.140625 C -0.492188 -14.265625 -0.0976562 -14.222656 0.265625 -14.015625 C 0.640625 -13.816406 0.894531 -13.503906 1.03125 -13.078125 L 1.734375 -10.75 L 1.046875 -12.359375 C 1.117188 -12.804688 1.25 -13.222656 1.4375 -13.609375 C 1.632812 -14.003906 1.882812 -14.359375 2.1875 -14.671875 C 2.488281 -14.984375 2.832031 -15.253906 3.21875 -15.484375 C 3.601562 -15.710938 4 -15.890625 4.40625 -16.015625 C 4.894531 -16.160156 5.347656 -16.144531 5.765625 -15.96875 C 6.191406 -15.789062 6.460938 -15.515625 6.578125 -15.140625 C 6.742188 -14.597656 6.722656 -14.160156 6.515625 -13.828125 C 6.304688 -13.503906 6.039062 -13.296875 5.71875 -13.203125 C 5.40625 -13.109375 5.097656 -13.078125 4.796875 -13.109375 C 4.503906 -13.148438 4.195312 -13.117188 3.875 -13.015625 C 3.582031 -12.929688 3.300781 -12.769531 3.03125 -12.53125 C 2.769531 -12.300781 2.554688 -12.003906 2.390625 -11.640625 C 2.234375 -11.273438 2.140625 -10.84375 2.109375 -10.34375 C 2.085938 -9.851562 2.164062 -9.316406 2.34375 -8.734375 L 4.109375 -2.890625 C 4.234375 -2.460938 4.195312 -2.0625 4 -1.6875 C 3.8125 -1.3125 3.503906 -1.0625 3.078125 -0.9375 Z M 3.078125 -0.9375 "/></g></g></g><g fill="#000000" fill-opacity="1"><g transform="translate(524.831216, 221.948683)"><g><path d="M 3.078125 -0.9375 C 2.648438 -0.800781 2.25 -0.835938 1.875 -1.046875 C 1.507812 -1.253906 1.265625 -1.570312 1.140625 -2 L -1.9375 -12.1875 C -2.070312 -12.613281 -2.039062 -13.007812 -1.84375 -13.375 C -1.65625 -13.75 -1.347656 -14.003906 -0.921875 -14.140625 C -0.492188 -14.265625 -0.0976562 -14.222656 0.265625 -14.015625 C 0.640625 -13.816406 0.894531 -13.503906 1.03125 -13.078125 L 1.734375 -10.75 L 1.046875 -12.359375 C 1.117188 -12.804688 1.25 -13.222656 1.4375 -13.609375 C 1.632812 -14.003906 1.882812 -14.359375 2.1875 -14.671875 C 2.488281 -14.984375 2.832031 -15.253906 3.21875 -15.484375 C 3.601562 -15.710938 4 -15.890625 4.40625 -16.015625 C 4.894531 -16.160156 5.347656 -16.144531 5.765625 -15.96875 C 6.191406 -15.789062 6.460938 -15.515625 6.578125 -15.140625 C 6.742188 -14.597656 6.722656 -14.160156 6.515625 -13.828125 C 6.304688 -13.503906 6.039062 -13.296875 5.71875 -13.203125 C 5.40625 -13.109375 5.097656 -13.078125 4.796875 -13.109375 C 4.503906 -13.148438 4.195312 -13.117188 3.875 -13.015625 C 3.582031 -12.929688 3.300781 -12.769531 3.03125 -12.53125 C 2.769531 -12.300781 2.554688 -12.003906 2.390625 -11.640625 C 2.234375 -11.273438 2.140625 -10.84375 2.109375 -10.34375 C 2.085938 -9.851562 2.164062 -9.316406 2.34375 -8.734375 L 4.109375 -2.890625 C 4.234375 -2.460938 4.195312 -2.0625 4 -1.6875 C 3.8125 -1.3125 3.503906 -1.0625 3.078125 -0.9375 Z M 3.078125 -0.9375 "/></g></g></g><g fill="#000000" fill-opacity="1"><g transform="translate(535.535217, 218.712038)"><g><path d="M 12.421875 -10.953125 C 12.835938 -9.597656 12.894531 -8.316406 12.59375 -7.109375 C 12.300781 -5.898438 11.738281 -4.851562 10.90625 -3.96875 C 10.070312 -3.09375 9.03125 -2.46875 7.78125 -2.09375 C 6.519531 -1.71875 5.296875 -1.660156 4.109375 -1.921875 C 2.921875 -2.191406 1.875 -2.75 0.96875 -3.59375 C 0.0625 -4.4375 -0.597656 -5.535156 -1.015625 -6.890625 C -1.421875 -8.234375 -1.476562 -9.507812 -1.1875 -10.71875 C -0.894531 -11.9375 -0.332031 -12.988281 0.5 -13.875 C 1.332031 -14.769531 2.378906 -15.40625 3.640625 -15.78125 C 4.890625 -16.15625 6.109375 -16.203125 7.296875 -15.921875 C 8.484375 -15.648438 9.53125 -15.085938 10.4375 -14.234375 C 11.351562 -13.390625 12.015625 -12.296875 12.421875 -10.953125 Z M 9.453125 -10.0625 C 9.203125 -10.90625 8.8125 -11.578125 8.28125 -12.078125 C 7.757812 -12.585938 7.160156 -12.929688 6.484375 -13.109375 C 5.816406 -13.285156 5.140625 -13.269531 4.453125 -13.0625 C 3.753906 -12.851562 3.175781 -12.488281 2.71875 -11.96875 C 2.257812 -11.445312 1.953125 -10.828125 1.796875 -10.109375 C 1.648438 -9.398438 1.703125 -8.625 1.953125 -7.78125 C 2.203125 -6.957031 2.585938 -6.285156 3.109375 -5.765625 C 3.640625 -5.253906 4.238281 -4.910156 4.90625 -4.734375 C 5.570312 -4.566406 6.253906 -4.585938 6.953125 -4.796875 C 7.640625 -5.003906 8.210938 -5.363281 8.671875 -5.875 C 9.140625 -6.394531 9.445312 -7.015625 9.59375 -7.734375 C 9.75 -8.460938 9.703125 -9.238281 9.453125 -10.0625 Z M 9.453125 -10.0625 "/></g></g></g><g fill="#000000" fill-opacity="1"><g transform="translate(550.925299, 214.058428)"><g><path d="M 4.359375 -2.96875 C 4.484375 -2.539062 4.445312 -2.132812 4.25 -1.75 C 4.050781 -1.375 3.738281 -1.125 3.3125 -1 C 2.894531 -0.875 2.503906 -0.914062 2.140625 -1.125 C 1.773438 -1.332031 1.53125 -1.648438 1.40625 -2.078125 L -3.203125 -17.3125 C -3.335938 -17.738281 -3.304688 -18.140625 -3.109375 -18.515625 C -2.910156 -18.890625 -2.597656 -19.144531 -2.171875 -19.28125 C -1.734375 -19.40625 -1.335938 -19.363281 -0.984375 -19.15625 C -0.628906 -18.945312 -0.382812 -18.628906 -0.25 -18.203125 Z M 4.359375 -2.96875 "/></g></g></g><g fill="#000000" fill-opacity="1"><g transform="translate(557.584474, 212.044845)"><g><path d="M 4.359375 -2.96875 C 4.484375 -2.539062 4.445312 -2.132812 4.25 -1.75 C 4.050781 -1.375 3.738281 -1.125 3.3125 -1 C 2.894531 -0.875 2.503906 -0.914062 2.140625 -1.125 C 1.773438 -1.332031 1.53125 -1.648438 1.40625 -2.078125 L -3.203125 -17.3125 C -3.335938 -17.738281 -3.304688 -18.140625 -3.109375 -18.515625 C -2.910156 -18.890625 -2.597656 -19.144531 -2.171875 -19.28125 C -1.734375 -19.40625 -1.335938 -19.363281 -0.984375 -19.15625 C -0.628906 -18.945312 -0.382812 -18.628906 -0.25 -18.203125 Z M 4.359375 -2.96875 "/></g></g></g><g fill="#000000" fill-opacity="1"><g transform="translate(564.243649, 210.031263)"><g><path d="M 12.421875 -10.953125 C 12.835938 -9.597656 12.894531 -8.316406 12.59375 -7.109375 C 12.300781 -5.898438 11.738281 -4.851562 10.90625 -3.96875 C 10.070312 -3.09375 9.03125 -2.46875 7.78125 -2.09375 C 6.519531 -1.71875 5.296875 -1.660156 4.109375 -1.921875 C 2.921875 -2.191406 1.875 -2.75 0.96875 -3.59375 C 0.0625 -4.4375 -0.597656 -5.535156 -1.015625 -6.890625 C -1.421875 -8.234375 -1.476562 -9.507812 -1.1875 -10.71875 C -0.894531 -11.9375 -0.332031 -12.988281 0.5 -13.875 C 1.332031 -14.769531 2.378906 -15.40625 3.640625 -15.78125 C 4.890625 -16.15625 6.109375 -16.203125 7.296875 -15.921875 C 8.484375 -15.648438 9.53125 -15.085938 10.4375 -14.234375 C 11.351562 -13.390625 12.015625 -12.296875 12.421875 -10.953125 Z M 9.453125 -10.0625 C 9.203125 -10.90625 8.8125 -11.578125 8.28125 -12.078125 C 7.757812 -12.585938 7.160156 -12.929688 6.484375 -13.109375 C 5.816406 -13.285156 5.140625 -13.269531 4.453125 -13.0625 C 3.753906 -12.851562 3.175781 -12.488281 2.71875 -11.96875 C 2.257812 -11.445312 1.953125 -10.828125 1.796875 -10.109375 C 1.648438 -9.398438 1.703125 -8.625 1.953125 -7.78125 C 2.203125 -6.957031 2.585938 -6.285156 3.109375 -5.765625 C 3.640625 -5.253906 4.238281 -4.910156 4.90625 -4.734375 C 5.570312 -4.566406 6.253906 -4.585938 6.953125 -4.796875 C 7.640625 -5.003906 8.210938 -5.363281 8.671875 -5.875 C 9.140625 -6.394531 9.445312 -7.015625 9.59375 -7.734375 C 9.75 -8.460938 9.703125 -9.238281 9.453125 -10.0625 Z M 9.453125 -10.0625 "/></g></g></g><g fill="#ebebeb" fill-opacity="1"><g transform="translate(365.51172, 578.006696)"><g><path d="M 5.453125 -19.734375 C 6.660156 -20.003906 7.78125 -20.019531 8.8125 -19.78125 C 9.84375 -19.550781 10.773438 -19.101562 11.609375 -18.4375 C 12.441406 -17.769531 13.140625 -16.9375 13.703125 -15.9375 C 14.273438 -14.945312 14.703125 -13.847656 14.984375 -12.640625 C 15.347656 -11.015625 15.382812 -9.46875 15.09375 -8 C 14.8125 -6.53125 14.203125 -5.273438 13.265625 -4.234375 C 12.335938 -3.203125 11.0625 -2.503906 9.4375 -2.140625 L 3.40625 -0.765625 C 2.976562 -0.671875 2.582031 -0.738281 2.21875 -0.96875 C 1.863281 -1.195312 1.640625 -1.53125 1.546875 -1.96875 L -1.75 -16.484375 C -1.84375 -16.921875 -1.773438 -17.316406 -1.546875 -17.671875 C -1.328125 -18.035156 -1.003906 -18.265625 -0.578125 -18.359375 Z M 8.515625 -4.96875 C 9.578125 -5.207031 10.378906 -5.675781 10.921875 -6.375 C 11.460938 -7.070312 11.785156 -7.90625 11.890625 -8.875 C 12.003906 -9.84375 11.945312 -10.851562 11.71875 -11.90625 C 11.53125 -12.695312 11.269531 -13.425781 10.9375 -14.09375 C 10.601562 -14.757812 10.1875 -15.328125 9.6875 -15.796875 C 9.1875 -16.265625 8.617188 -16.585938 7.984375 -16.765625 C 7.347656 -16.953125 6.632812 -16.957031 5.84375 -16.78125 L 1.4375 -15.78125 L 1.640625 -16.078125 L 4.4375 -3.765625 L 4.21875 -4 Z M 8.515625 -4.96875 "/></g></g></g><g fill="#ebebeb" fill-opacity="1"><g transform="translate(383.479491, 573.936459)"><g><path d="M 4.140625 -2.5625 C 4.234375 -2.125 4.171875 -1.722656 3.953125 -1.359375 C 3.734375 -1.003906 3.40625 -0.773438 2.96875 -0.671875 C 2.53125 -0.578125 2.132812 -0.644531 1.78125 -0.875 C 1.4375 -1.101562 1.21875 -1.4375 1.125 -1.875 L -1.234375 -12.25 C -1.328125 -12.6875 -1.265625 -13.082031 -1.046875 -13.4375 C -0.835938 -13.800781 -0.515625 -14.03125 -0.078125 -14.125 C 0.359375 -14.226562 0.753906 -14.164062 1.109375 -13.9375 C 1.460938 -13.707031 1.6875 -13.375 1.78125 -12.9375 Z M -0.484375 -15.765625 C -1.046875 -15.628906 -1.46875 -15.625 -1.75 -15.75 C -2.03125 -15.882812 -2.222656 -16.1875 -2.328125 -16.65625 L -2.4375 -17.140625 C -2.550781 -17.628906 -2.492188 -17.988281 -2.265625 -18.21875 C -2.046875 -18.445312 -1.671875 -18.625 -1.140625 -18.75 C -0.546875 -18.882812 -0.113281 -18.882812 0.15625 -18.75 C 0.4375 -18.625 0.628906 -18.328125 0.734375 -17.859375 L 0.84375 -17.375 C 0.957031 -16.894531 0.90625 -16.535156 0.6875 -16.296875 C 0.476562 -16.066406 0.0859375 -15.890625 -0.484375 -15.765625 Z M -0.484375 -15.765625 "/></g></g></g><g fill="#ebebeb" fill-opacity="1"><g transform="translate(389.410112, 572.592997)"><g><path d="M 0.390625 -2.28125 C 0.171875 -2.476562 0.03125 -2.765625 -0.03125 -3.140625 C -0.101562 -3.515625 0.0351562 -3.882812 0.390625 -4.25 C 0.617188 -4.476562 0.882812 -4.613281 1.1875 -4.65625 C 1.5 -4.695312 1.828125 -4.609375 2.171875 -4.390625 C 2.773438 -4.003906 3.375 -3.738281 3.96875 -3.59375 C 4.5625 -3.445312 5.265625 -3.460938 6.078125 -3.640625 C 6.316406 -3.722656 6.582031 -3.828125 6.875 -3.953125 C 7.164062 -4.078125 7.398438 -4.269531 7.578125 -4.53125 C 7.753906 -4.789062 7.789062 -5.140625 7.6875 -5.578125 C 7.601562 -5.953125 7.410156 -6.21875 7.109375 -6.375 C 6.816406 -6.53125 6.445312 -6.632812 6 -6.6875 C 5.550781 -6.75 5.0625 -6.789062 4.53125 -6.8125 C 3.976562 -6.84375 3.410156 -6.890625 2.828125 -6.953125 C 2.242188 -7.015625 1.691406 -7.140625 1.171875 -7.328125 C 0.648438 -7.515625 0.191406 -7.820312 -0.203125 -8.25 C -0.597656 -8.675781 -0.878906 -9.257812 -1.046875 -10 C -1.234375 -10.832031 -1.160156 -11.59375 -0.828125 -12.28125 C -0.492188 -12.976562 0.00390625 -13.570312 0.671875 -14.0625 C 1.347656 -14.550781 2.097656 -14.882812 2.921875 -15.0625 C 3.441406 -15.1875 4 -15.25 4.59375 -15.25 C 5.195312 -15.25 5.789062 -15.171875 6.375 -15.015625 C 6.96875 -14.859375 7.488281 -14.59375 7.9375 -14.21875 C 8.164062 -14.007812 8.335938 -13.726562 8.453125 -13.375 C 8.578125 -13.03125 8.492188 -12.679688 8.203125 -12.328125 C 8.003906 -12.066406 7.734375 -11.910156 7.390625 -11.859375 C 7.046875 -11.816406 6.742188 -11.867188 6.484375 -12.015625 C 6.109375 -12.328125 5.65625 -12.535156 5.125 -12.640625 C 4.601562 -12.753906 4.03125 -12.738281 3.40625 -12.59375 C 3.15625 -12.539062 2.890625 -12.445312 2.609375 -12.3125 C 2.335938 -12.1875 2.113281 -12.003906 1.9375 -11.765625 C 1.757812 -11.523438 1.71875 -11.195312 1.8125 -10.78125 C 1.894531 -10.394531 2.085938 -10.113281 2.390625 -9.9375 C 2.691406 -9.769531 3.070312 -9.660156 3.53125 -9.609375 C 4 -9.566406 4.488281 -9.535156 5 -9.515625 C 5.539062 -9.492188 6.085938 -9.445312 6.640625 -9.375 C 7.203125 -9.3125 7.738281 -9.175781 8.25 -8.96875 C 8.757812 -8.769531 9.203125 -8.460938 9.578125 -8.046875 C 9.953125 -7.628906 10.222656 -7.050781 10.390625 -6.3125 C 10.585938 -5.457031 10.5 -4.671875 10.125 -3.953125 C 9.757812 -3.242188 9.234375 -2.644531 8.546875 -2.15625 C 7.867188 -1.675781 7.132812 -1.347656 6.34375 -1.171875 C 5.351562 -0.953125 4.320312 -0.898438 3.25 -1.015625 C 2.1875 -1.140625 1.234375 -1.5625 0.390625 -2.28125 Z M 0.390625 -2.28125 "/></g></g></g><g fill="#ebebeb" fill-opacity="1"><g transform="translate(401.522657, 569.849144)"><g><path d="M 5.484375 -15.65625 C 6.660156 -15.914062 7.78125 -15.851562 8.84375 -15.46875 C 9.914062 -15.09375 10.84375 -14.441406 11.625 -13.515625 C 12.40625 -12.597656 12.945312 -11.453125 13.25 -10.078125 C 13.5625 -8.703125 13.566406 -7.429688 13.265625 -6.265625 C 12.960938 -5.109375 12.421875 -4.125 11.640625 -3.3125 C 10.859375 -2.507812 9.898438 -1.976562 8.765625 -1.71875 C 8.097656 -1.570312 7.441406 -1.535156 6.796875 -1.609375 C 6.148438 -1.691406 5.570312 -1.851562 5.0625 -2.09375 C 4.550781 -2.332031 4.132812 -2.59375 3.8125 -2.875 C 3.488281 -3.164062 3.300781 -3.425781 3.25 -3.65625 L 3.9375 -4.171875 L 5.4375 2.4375 C 5.53125 2.875 5.46875 3.269531 5.25 3.625 C 5.039062 3.988281 4.71875 4.21875 4.28125 4.3125 C 3.84375 4.414062 3.445312 4.351562 3.09375 4.125 C 2.75 3.90625 2.523438 3.566406 2.421875 3.109375 L -1.078125 -12.296875 C -1.171875 -12.734375 -1.109375 -13.128906 -0.890625 -13.484375 C -0.671875 -13.835938 -0.34375 -14.066406 0.09375 -14.171875 C 0.53125 -14.265625 0.921875 -14.195312 1.265625 -13.96875 C 1.617188 -13.738281 1.84375 -13.40625 1.9375 -12.96875 L 2.21875 -11.734375 L 1.75 -11.859375 C 1.695312 -12.085938 1.75 -12.378906 1.90625 -12.734375 C 2.070312 -13.097656 2.320312 -13.484375 2.65625 -13.890625 C 3 -14.296875 3.410156 -14.65625 3.890625 -14.96875 C 4.367188 -15.289062 4.898438 -15.519531 5.484375 -15.65625 Z M 5.75 -12.796875 C 5 -12.628906 4.390625 -12.296875 3.921875 -11.796875 C 3.453125 -11.304688 3.132812 -10.710938 2.96875 -10.015625 C 2.8125 -9.316406 2.820312 -8.566406 3 -7.765625 C 3.175781 -6.984375 3.488281 -6.300781 3.9375 -5.71875 C 4.394531 -5.144531 4.941406 -4.734375 5.578125 -4.484375 C 6.222656 -4.242188 6.921875 -4.207031 7.671875 -4.375 C 8.398438 -4.539062 8.988281 -4.867188 9.4375 -5.359375 C 9.894531 -5.859375 10.207031 -6.460938 10.375 -7.171875 C 10.539062 -7.890625 10.535156 -8.640625 10.359375 -9.421875 C 10.179688 -10.222656 9.863281 -10.90625 9.40625 -11.46875 C 8.945312 -12.03125 8.40625 -12.429688 7.78125 -12.671875 C 7.15625 -12.921875 6.476562 -12.960938 5.75 -12.796875 Z M 5.75 -12.796875 "/></g></g></g><g fill="#ebebeb" fill-opacity="1"><g transform="translate(417.304144, 566.274165)"><g><path d="M 13.171875 -10.046875 C 13.484375 -8.660156 13.445312 -7.375 13.0625 -6.1875 C 12.6875 -5.007812 12.050781 -4.007812 11.15625 -3.1875 C 10.257812 -2.363281 9.175781 -1.8125 7.90625 -1.53125 C 6.625 -1.238281 5.398438 -1.269531 4.234375 -1.625 C 3.066406 -1.976562 2.0625 -2.609375 1.21875 -3.515625 C 0.375 -4.421875 -0.203125 -5.566406 -0.515625 -6.953125 C -0.828125 -8.328125 -0.796875 -9.601562 -0.421875 -10.78125 C -0.0546875 -11.96875 0.570312 -12.972656 1.46875 -13.796875 C 2.363281 -14.628906 3.453125 -15.191406 4.734375 -15.484375 C 6.003906 -15.765625 7.222656 -15.722656 8.390625 -15.359375 C 9.554688 -15.003906 10.566406 -14.375 11.421875 -13.46875 C 12.273438 -12.5625 12.859375 -11.421875 13.171875 -10.046875 Z M 10.15625 -9.359375 C 9.957031 -10.210938 9.613281 -10.910156 9.125 -11.453125 C 8.644531 -12.003906 8.070312 -12.390625 7.40625 -12.609375 C 6.75 -12.835938 6.066406 -12.875 5.359375 -12.71875 C 4.648438 -12.550781 4.050781 -12.222656 3.5625 -11.734375 C 3.070312 -11.253906 2.722656 -10.660156 2.515625 -9.953125 C 2.304688 -9.253906 2.300781 -8.476562 2.5 -7.625 C 2.6875 -6.78125 3.023438 -6.082031 3.515625 -5.53125 C 4.003906 -4.976562 4.578125 -4.59375 5.234375 -4.375 C 5.890625 -4.15625 6.570312 -4.128906 7.28125 -4.296875 C 7.988281 -4.453125 8.585938 -4.769531 9.078125 -5.25 C 9.578125 -5.726562 9.925781 -6.320312 10.125 -7.03125 C 10.332031 -7.738281 10.34375 -8.515625 10.15625 -9.359375 Z M 10.15625 -9.359375 "/></g></g></g><g fill="#ebebeb" fill-opacity="1"><g transform="translate(432.985116, 562.721957)"><g><path d="M 5.71875 -15.703125 C 6.957031 -15.984375 7.957031 -15.9375 8.71875 -15.5625 C 9.488281 -15.1875 10.085938 -14.597656 10.515625 -13.796875 C 10.953125 -12.992188 11.289062 -12.0625 11.53125 -11 L 13 -4.578125 C 13.09375 -4.140625 13.03125 -3.738281 12.8125 -3.375 C 12.601562 -3.007812 12.28125 -2.78125 11.84375 -2.6875 C 11.40625 -2.582031 11.007812 -2.644531 10.65625 -2.875 C 10.300781 -3.113281 10.078125 -3.453125 9.984375 -3.890625 L 8.515625 -10.3125 C 8.398438 -10.863281 8.21875 -11.347656 7.96875 -11.765625 C 7.726562 -12.179688 7.390625 -12.476562 6.953125 -12.65625 C 6.523438 -12.832031 5.96875 -12.847656 5.28125 -12.703125 C 4.613281 -12.546875 4.078125 -12.28125 3.671875 -11.90625 C 3.273438 -11.539062 3.003906 -11.101562 2.859375 -10.59375 C 2.722656 -10.09375 2.710938 -9.566406 2.828125 -9.015625 L 4.296875 -2.59375 C 4.390625 -2.15625 4.328125 -1.753906 4.109375 -1.390625 C 3.898438 -1.035156 3.578125 -0.8125 3.140625 -0.71875 C 2.703125 -0.613281 2.304688 -0.675781 1.953125 -0.90625 C 1.597656 -1.144531 1.375 -1.484375 1.28125 -1.921875 L -1.078125 -12.296875 C -1.171875 -12.734375 -1.109375 -13.128906 -0.890625 -13.484375 C -0.671875 -13.835938 -0.34375 -14.066406 0.09375 -14.171875 C 0.53125 -14.265625 0.921875 -14.195312 1.265625 -13.96875 C 1.617188 -13.738281 1.84375 -13.40625 1.9375 -12.96875 L 2.1875 -11.875 L 1.796875 -11.875 C 1.890625 -12.195312 2.035156 -12.550781 2.234375 -12.9375 C 2.441406 -13.332031 2.707031 -13.71875 3.03125 -14.09375 C 3.351562 -14.46875 3.738281 -14.796875 4.1875 -15.078125 C 4.632812 -15.367188 5.144531 -15.578125 5.71875 -15.703125 Z M 5.71875 -15.703125 "/></g></g></g><g fill="#ebebeb" fill-opacity="1"><g transform="translate(447.96245, 559.329143)"><g><path d="M 4.140625 -2.5625 C 4.234375 -2.125 4.171875 -1.722656 3.953125 -1.359375 C 3.734375 -1.003906 3.40625 -0.773438 2.96875 -0.671875 C 2.53125 -0.578125 2.132812 -0.644531 1.78125 -0.875 C 1.4375 -1.101562 1.21875 -1.4375 1.125 -1.875 L -1.234375 -12.25 C -1.328125 -12.6875 -1.265625 -13.082031 -1.046875 -13.4375 C -0.835938 -13.800781 -0.515625 -14.03125 -0.078125 -14.125 C 0.359375 -14.226562 0.753906 -14.164062 1.109375 -13.9375 C 1.460938 -13.707031 1.6875 -13.375 1.78125 -12.9375 Z M -0.484375 -15.765625 C -1.046875 -15.628906 -1.46875 -15.625 -1.75 -15.75 C -2.03125 -15.882812 -2.222656 -16.1875 -2.328125 -16.65625 L -2.4375 -17.140625 C -2.550781 -17.628906 -2.492188 -17.988281 -2.265625 -18.21875 C -2.046875 -18.445312 -1.671875 -18.625 -1.140625 -18.75 C -0.546875 -18.882812 -0.113281 -18.882812 0.15625 -18.75 C 0.4375 -18.625 0.628906 -18.328125 0.734375 -17.859375 L 0.84375 -17.375 C 0.957031 -16.894531 0.90625 -16.535156 0.6875 -16.296875 C 0.476562 -16.066406 0.0859375 -15.890625 -0.484375 -15.765625 Z M -0.484375 -15.765625 "/></g></g></g><g fill="#ebebeb" fill-opacity="1"><g transform="translate(453.893071, 557.985681)"><g><path d="M 5.484375 -15.65625 C 6.660156 -15.914062 7.78125 -15.851562 8.84375 -15.46875 C 9.914062 -15.09375 10.84375 -14.441406 11.625 -13.515625 C 12.40625 -12.597656 12.945312 -11.453125 13.25 -10.078125 C 13.5625 -8.703125 13.566406 -7.429688 13.265625 -6.265625 C 12.960938 -5.109375 12.421875 -4.125 11.640625 -3.3125 C 10.859375 -2.507812 9.898438 -1.976562 8.765625 -1.71875 C 8.097656 -1.570312 7.441406 -1.535156 6.796875 -1.609375 C 6.148438 -1.691406 5.570312 -1.851562 5.0625 -2.09375 C 4.550781 -2.332031 4.132812 -2.59375 3.8125 -2.875 C 3.488281 -3.164062 3.300781 -3.425781 3.25 -3.65625 L 3.9375 -4.171875 L 4.34375 -2.328125 C 4.445312 -1.890625 4.390625 -1.492188 4.171875 -1.140625 C 3.960938 -0.785156 3.640625 -0.5625 3.203125 -0.46875 C 2.765625 -0.363281 2.367188 -0.421875 2.015625 -0.640625 C 1.660156 -0.867188 1.429688 -1.207031 1.328125 -1.65625 L -2.234375 -17.4375 C -2.335938 -17.875 -2.28125 -18.269531 -2.0625 -18.625 C -1.84375 -18.988281 -1.515625 -19.222656 -1.078125 -19.328125 C -0.640625 -19.421875 -0.25 -19.347656 0.09375 -19.109375 C 0.445312 -18.878906 0.675781 -18.546875 0.78125 -18.109375 L 2.21875 -11.734375 L 1.75 -11.859375 C 1.695312 -12.085938 1.75 -12.378906 1.90625 -12.734375 C 2.070312 -13.097656 2.320312 -13.484375 2.65625 -13.890625 C 3 -14.296875 3.410156 -14.65625 3.890625 -14.96875 C 4.367188 -15.289062 4.898438 -15.519531 5.484375 -15.65625 Z M 5.75 -12.796875 C 5 -12.628906 4.390625 -12.296875 3.921875 -11.796875 C 3.453125 -11.304688 3.132812 -10.710938 2.96875 -10.015625 C 2.8125 -9.316406 2.820312 -8.566406 3 -7.765625 C 3.175781 -6.984375 3.488281 -6.300781 3.9375 -5.71875 C 4.394531 -5.144531 4.941406 -4.734375 5.578125 -4.484375 C 6.222656 -4.242188 6.921875 -4.207031 7.671875 -4.375 C 8.398438 -4.539062 8.988281 -4.867188 9.4375 -5.359375 C 9.894531 -5.859375 10.207031 -6.460938 10.375 -7.171875 C 10.539062 -7.890625 10.535156 -8.640625 10.359375 -9.421875 C 10.179688 -10.222656 9.863281 -10.90625 9.40625 -11.46875 C 8.945312 -12.03125 8.40625 -12.429688 7.78125 -12.671875 C 7.15625 -12.921875 6.476562 -12.960938 5.75 -12.796875 Z M 5.75 -12.796875 "/></g></g></g><g fill="#ebebeb" fill-opacity="1"><g transform="translate(469.674558, 554.410703)"><g><path d="M 4.5625 -2.65625 C 4.65625 -2.21875 4.585938 -1.816406 4.359375 -1.453125 C 4.128906 -1.085938 3.800781 -0.859375 3.375 -0.765625 C 2.957031 -0.671875 2.570312 -0.738281 2.21875 -0.96875 C 1.863281 -1.195312 1.640625 -1.53125 1.546875 -1.96875 L -1.96875 -17.484375 C -2.070312 -17.921875 -2.007812 -18.320312 -1.78125 -18.6875 C -1.5625 -19.050781 -1.238281 -19.28125 -0.8125 -19.375 C -0.375 -19.476562 0.015625 -19.410156 0.359375 -19.171875 C 0.710938 -18.941406 0.941406 -18.609375 1.046875 -18.171875 Z M 4.5625 -2.65625 "/></g></g></g><g fill="#ebebeb" fill-opacity="1"><g transform="translate(476.459594, 552.873689)"><g><path d="M 8.03125 -1.5625 C 6.613281 -1.238281 5.3125 -1.253906 4.125 -1.609375 C 2.945312 -1.972656 1.957031 -2.601562 1.15625 -3.5 C 0.351562 -4.394531 -0.191406 -5.484375 -0.484375 -6.765625 C -0.816406 -8.273438 -0.800781 -9.628906 -0.4375 -10.828125 C -0.0703125 -12.035156 0.539062 -13.035156 1.40625 -13.828125 C 2.269531 -14.617188 3.253906 -15.140625 4.359375 -15.390625 C 5.210938 -15.585938 6.0625 -15.59375 6.90625 -15.40625 C 7.75 -15.226562 8.53125 -14.898438 9.25 -14.421875 C 9.976562 -13.941406 10.601562 -13.335938 11.125 -12.609375 C 11.65625 -11.878906 12.023438 -11.066406 12.234375 -10.171875 C 12.316406 -9.765625 12.234375 -9.398438 11.984375 -9.078125 C 11.734375 -8.765625 11.410156 -8.5625 11.015625 -8.46875 L 1.421875 -6.296875 L 0.078125 -8.640625 L 9.3125 -10.734375 L 8.859375 -10.109375 L 8.71875 -10.765625 C 8.570312 -11.242188 8.296875 -11.640625 7.890625 -11.953125 C 7.492188 -12.273438 7.039062 -12.5 6.53125 -12.625 C 6.019531 -12.75 5.503906 -12.75 4.984375 -12.625 C 4.484375 -12.507812 4.03125 -12.332031 3.625 -12.09375 C 3.21875 -11.863281 2.890625 -11.554688 2.640625 -11.171875 C 2.398438 -10.785156 2.25 -10.300781 2.1875 -9.71875 C 2.125 -9.144531 2.1875 -8.445312 2.375 -7.625 C 2.582031 -6.71875 2.941406 -5.988281 3.453125 -5.4375 C 3.972656 -4.894531 4.566406 -4.53125 5.234375 -4.34375 C 5.910156 -4.15625 6.582031 -4.132812 7.25 -4.28125 C 7.875 -4.425781 8.359375 -4.585938 8.703125 -4.765625 C 9.046875 -4.953125 9.3125 -5.144531 9.5 -5.34375 C 9.695312 -5.539062 9.875 -5.707031 10.03125 -5.84375 C 10.300781 -6.0625 10.570312 -6.203125 10.84375 -6.265625 C 11.207031 -6.347656 11.539062 -6.289062 11.84375 -6.09375 C 12.144531 -5.894531 12.335938 -5.628906 12.421875 -5.296875 C 12.515625 -4.847656 12.375 -4.382812 12 -3.90625 C 11.644531 -3.4375 11.101562 -2.972656 10.375 -2.515625 C 9.65625 -2.066406 8.875 -1.75 8.03125 -1.5625 Z M 8.03125 -1.5625 "/></g></g></g><g fill="#ebebeb" fill-opacity="1"><g transform="translate(491.286151, 549.515031)"><g/></g></g><g fill="#ebebeb" fill-opacity="1"><g transform="translate(498.322479, 547.921093)"><g><path d="M 5.59375 -15.671875 C 6.9375 -15.972656 8 -15.875 8.78125 -15.375 C 9.5625 -14.875 10.171875 -14.132812 10.609375 -13.15625 L 10.125 -13.28125 L 10.21875 -13.734375 C 10.34375 -14.160156 10.566406 -14.644531 10.890625 -15.1875 C 11.210938 -15.726562 11.632812 -16.222656 12.15625 -16.671875 C 12.675781 -17.117188 13.300781 -17.425781 14.03125 -17.59375 C 15.238281 -17.863281 16.21875 -17.804688 16.96875 -17.421875 C 17.71875 -17.046875 18.304688 -16.453125 18.734375 -15.640625 C 19.160156 -14.835938 19.492188 -13.90625 19.734375 -12.84375 L 21.203125 -6.421875 C 21.296875 -5.984375 21.234375 -5.582031 21.015625 -5.21875 C 20.796875 -4.863281 20.46875 -4.640625 20.03125 -4.546875 C 19.601562 -4.441406 19.210938 -4.503906 18.859375 -4.734375 C 18.503906 -4.972656 18.28125 -5.3125 18.1875 -5.75 L 16.71875 -12.171875 C 16.601562 -12.722656 16.425781 -13.207031 16.1875 -13.625 C 15.957031 -14.039062 15.628906 -14.335938 15.203125 -14.515625 C 14.785156 -14.703125 14.253906 -14.722656 13.609375 -14.578125 C 12.960938 -14.429688 12.445312 -14.175781 12.0625 -13.8125 C 11.675781 -13.445312 11.421875 -13.015625 11.296875 -12.515625 C 11.179688 -12.015625 11.179688 -11.488281 11.296875 -10.9375 L 12.765625 -4.515625 C 12.859375 -4.078125 12.796875 -3.675781 12.578125 -3.3125 C 12.359375 -2.957031 12.03125 -2.726562 11.59375 -2.625 C 11.15625 -2.53125 10.757812 -2.597656 10.40625 -2.828125 C 10.0625 -3.054688 9.84375 -3.390625 9.75 -3.828125 L 8.28125 -10.25 C 8.164062 -10.800781 7.984375 -11.285156 7.734375 -11.703125 C 7.492188 -12.117188 7.164062 -12.421875 6.75 -12.609375 C 6.34375 -12.796875 5.816406 -12.816406 5.171875 -12.671875 C 4.523438 -12.523438 4.003906 -12.265625 3.609375 -11.890625 C 3.222656 -11.523438 2.96875 -11.09375 2.84375 -10.59375 C 2.71875 -10.09375 2.710938 -9.566406 2.828125 -9.015625 L 4.296875 -2.59375 C 4.390625 -2.15625 4.328125 -1.753906 4.109375 -1.390625 C 3.898438 -1.035156 3.578125 -0.8125 3.140625 -0.71875 C 2.703125 -0.613281 2.304688 -0.675781 1.953125 -0.90625 C 1.597656 -1.144531 1.375 -1.484375 1.28125 -1.921875 L -1.078125 -12.296875 C -1.171875 -12.734375 -1.109375 -13.128906 -0.890625 -13.484375 C -0.671875 -13.835938 -0.34375 -14.066406 0.09375 -14.171875 C 0.53125 -14.265625 0.921875 -14.195312 1.265625 -13.96875 C 1.617188 -13.738281 1.84375 -13.40625 1.9375 -12.96875 L 2.1875 -11.875 L 1.796875 -11.875 C 1.890625 -12.195312 2.03125 -12.550781 2.21875 -12.9375 C 2.40625 -13.320312 2.660156 -13.703125 2.984375 -14.078125 C 3.316406 -14.460938 3.691406 -14.789062 4.109375 -15.0625 C 4.535156 -15.34375 5.03125 -15.546875 5.59375 -15.671875 Z M 5.59375 -15.671875 "/></g></g></g><g fill="#ebebeb" fill-opacity="1"><g transform="translate(521.492113, 542.672479)"><g><path d="M 8.5625 -16.078125 C 9 -16.179688 9.394531 -16.117188 9.75 -15.890625 C 10.101562 -15.660156 10.328125 -15.328125 10.421875 -14.890625 L 11.875 -8.5 C 12.269531 -6.71875 12.09375 -5.195312 11.34375 -3.9375 C 10.601562 -2.675781 9.296875 -1.835938 7.421875 -1.421875 C 5.566406 -0.992188 4.023438 -1.1875 2.796875 -2 C 1.578125 -2.820312 0.769531 -4.125 0.375 -5.90625 L -1.078125 -12.296875 C -1.171875 -12.734375 -1.109375 -13.128906 -0.890625 -13.484375 C -0.671875 -13.835938 -0.34375 -14.066406 0.09375 -14.171875 C 0.53125 -14.265625 0.921875 -14.195312 1.265625 -13.96875 C 1.617188 -13.738281 1.84375 -13.40625 1.9375 -12.96875 L 3.390625 -6.578125 C 3.617188 -5.554688 4.015625 -4.847656 4.578125 -4.453125 C 5.148438 -4.066406 5.890625 -3.976562 6.796875 -4.1875 C 7.722656 -4.394531 8.351562 -4.796875 8.6875 -5.390625 C 9.03125 -5.984375 9.085938 -6.789062 8.859375 -7.8125 L 7.40625 -14.203125 C 7.3125 -14.640625 7.367188 -15.035156 7.578125 -15.390625 C 7.796875 -15.753906 8.125 -15.984375 8.5625 -16.078125 Z M 8.5625 -16.078125 "/></g></g></g><g fill="#ebebeb" fill-opacity="1"><g transform="translate(536.243275, 539.3309)"><g><path d="M 8.5625 -16.078125 C 9 -16.179688 9.394531 -16.117188 9.75 -15.890625 C 10.101562 -15.660156 10.328125 -15.328125 10.421875 -14.890625 L 12.84375 -4.203125 C 13.195312 -2.660156 13.1875 -1.363281 12.8125 -0.3125 C 12.4375 0.726562 11.804688 1.554688 10.921875 2.171875 C 10.046875 2.796875 9.003906 3.242188 7.796875 3.515625 C 7.265625 3.640625 6.6875 3.722656 6.0625 3.765625 C 5.4375 3.816406 4.914062 3.8125 4.5 3.75 C 3.945312 3.644531 3.535156 3.445312 3.265625 3.15625 C 3.003906 2.875 2.890625 2.535156 2.921875 2.140625 C 2.960938 1.617188 3.128906 1.234375 3.421875 0.984375 C 3.710938 0.734375 4.054688 0.632812 4.453125 0.6875 C 4.742188 0.707031 5.128906 0.753906 5.609375 0.828125 C 6.085938 0.898438 6.609375 0.867188 7.171875 0.734375 C 7.941406 0.566406 8.5625 0.320312 9.03125 0 C 9.5 -0.332031 9.804688 -0.769531 9.953125 -1.3125 C 10.097656 -1.863281 10.078125 -2.566406 9.890625 -3.421875 L 9.5 -5.109375 L 10.171875 -4.625 C 10.003906 -4.007812 9.742188 -3.472656 9.390625 -3.015625 C 9.046875 -2.566406 8.601562 -2.179688 8.0625 -1.859375 C 7.519531 -1.535156 6.875 -1.289062 6.125 -1.125 C 5.226562 -0.914062 4.40625 -0.941406 3.65625 -1.203125 C 2.90625 -1.460938 2.257812 -1.914062 1.71875 -2.5625 C 1.175781 -3.21875 0.800781 -4.015625 0.59375 -4.953125 L -1.078125 -12.296875 C -1.171875 -12.734375 -1.109375 -13.128906 -0.890625 -13.484375 C -0.671875 -13.835938 -0.34375 -14.066406 0.09375 -14.171875 C 0.53125 -14.265625 0.921875 -14.195312 1.265625 -13.96875 C 1.617188 -13.738281 1.84375 -13.40625 1.9375 -12.96875 L 3.390625 -6.53125 C 3.640625 -5.4375 4.054688 -4.722656 4.640625 -4.390625 C 5.222656 -4.054688 5.941406 -3.988281 6.796875 -4.1875 C 7.390625 -4.320312 7.859375 -4.546875 8.203125 -4.859375 C 8.554688 -5.179688 8.789062 -5.585938 8.90625 -6.078125 C 9.019531 -6.566406 9.003906 -7.128906 8.859375 -7.765625 L 7.40625 -14.203125 C 7.3125 -14.640625 7.367188 -15.035156 7.578125 -15.390625 C 7.796875 -15.753906 8.125 -15.984375 8.5625 -16.078125 Z M 8.5625 -16.078125 "/></g></g></g><g fill="#ebebeb" fill-opacity="1"><g transform="translate(550.994438, 535.989321)"><g/></g></g><g fill="#ebebeb" fill-opacity="1"><g transform="translate(558.030766, 534.395382)"><g><path d="M 5.484375 -15.65625 C 6.660156 -15.914062 7.78125 -15.851562 8.84375 -15.46875 C 9.914062 -15.09375 10.84375 -14.441406 11.625 -13.515625 C 12.40625 -12.597656 12.945312 -11.453125 13.25 -10.078125 C 13.5625 -8.703125 13.566406 -7.429688 13.265625 -6.265625 C 12.960938 -5.109375 12.421875 -4.125 11.640625 -3.3125 C 10.859375 -2.507812 9.898438 -1.976562 8.765625 -1.71875 C 8.097656 -1.570312 7.441406 -1.535156 6.796875 -1.609375 C 6.148438 -1.691406 5.570312 -1.851562 5.0625 -2.09375 C 4.550781 -2.332031 4.132812 -2.59375 3.8125 -2.875 C 3.488281 -3.164062 3.300781 -3.425781 3.25 -3.65625 L 3.9375 -4.171875 L 5.4375 2.4375 C 5.53125 2.875 5.46875 3.269531 5.25 3.625 C 5.039062 3.988281 4.71875 4.21875 4.28125 4.3125 C 3.84375 4.414062 3.445312 4.351562 3.09375 4.125 C 2.75 3.90625 2.523438 3.566406 2.421875 3.109375 L -1.078125 -12.296875 C -1.171875 -12.734375 -1.109375 -13.128906 -0.890625 -13.484375 C -0.671875 -13.835938 -0.34375 -14.066406 0.09375 -14.171875 C 0.53125 -14.265625 0.921875 -14.195312 1.265625 -13.96875 C 1.617188 -13.738281 1.84375 -13.40625 1.9375 -12.96875 L 2.21875 -11.734375 L 1.75 -11.859375 C 1.695312 -12.085938 1.75 -12.378906 1.90625 -12.734375 C 2.070312 -13.097656 2.320312 -13.484375 2.65625 -13.890625 C 3 -14.296875 3.410156 -14.65625 3.890625 -14.96875 C 4.367188 -15.289062 4.898438 -15.519531 5.484375 -15.65625 Z M 5.75 -12.796875 C 5 -12.628906 4.390625 -12.296875 3.921875 -11.796875 C 3.453125 -11.304688 3.132812 -10.710938 2.96875 -10.015625 C 2.8125 -9.316406 2.820312 -8.566406 3 -7.765625 C 3.175781 -6.984375 3.488281 -6.300781 3.9375 -5.71875 C 4.394531 -5.144531 4.941406 -4.734375 5.578125 -4.484375 C 6.222656 -4.242188 6.921875 -4.207031 7.671875 -4.375 C 8.398438 -4.539062 8.988281 -4.867188 9.4375 -5.359375 C 9.894531 -5.859375 10.207031 -6.460938 10.375 -7.171875 C 10.539062 -7.890625 10.535156 -8.640625 10.359375 -9.421875 C 10.179688 -10.222656 9.863281 -10.90625 9.40625 -11.46875 C 8.945312 -12.03125 8.40625 -12.429688 7.78125 -12.671875 C 7.15625 -12.921875 6.476562 -12.960938 5.75 -12.796875 Z M 5.75 -12.796875 "/></g></g></g><g fill="#ebebeb" fill-opacity="1"><g transform="translate(573.812253, 530.820404)"><g><path d="M 3.140625 -0.71875 C 2.703125 -0.613281 2.304688 -0.675781 1.953125 -0.90625 C 1.597656 -1.144531 1.375 -1.484375 1.28125 -1.921875 L -1.078125 -12.296875 C -1.171875 -12.734375 -1.109375 -13.128906 -0.890625 -13.484375 C -0.671875 -13.835938 -0.34375 -14.066406 0.09375 -14.171875 C 0.53125 -14.265625 0.921875 -14.195312 1.265625 -13.96875 C 1.617188 -13.738281 1.84375 -13.40625 1.9375 -12.96875 L 2.46875 -10.609375 L 1.9375 -12.265625 C 2.019531 -12.703125 2.175781 -13.109375 2.40625 -13.484375 C 2.632812 -13.859375 2.90625 -14.191406 3.21875 -14.484375 C 3.539062 -14.773438 3.898438 -15.019531 4.296875 -15.21875 C 4.691406 -15.414062 5.097656 -15.5625 5.515625 -15.65625 C 6.015625 -15.769531 6.46875 -15.722656 6.875 -15.515625 C 7.289062 -15.304688 7.539062 -15.007812 7.625 -14.625 C 7.75 -14.070312 7.695312 -13.644531 7.46875 -13.34375 C 7.25 -13.039062 6.96875 -12.847656 6.625 -12.765625 C 6.3125 -12.691406 6.007812 -12.679688 5.71875 -12.734375 C 5.425781 -12.796875 5.113281 -12.789062 4.78125 -12.71875 C 4.488281 -12.644531 4.203125 -12.503906 3.921875 -12.296875 C 3.640625 -12.085938 3.40625 -11.800781 3.21875 -11.4375 C 3.03125 -11.070312 2.898438 -10.644531 2.828125 -10.15625 C 2.765625 -9.675781 2.800781 -9.140625 2.9375 -8.546875 L 4.296875 -2.59375 C 4.390625 -2.15625 4.328125 -1.753906 4.109375 -1.390625 C 3.898438 -1.035156 3.578125 -0.8125 3.140625 -0.71875 Z M 3.140625 -0.71875 "/></g></g></g><g fill="#ebebeb" fill-opacity="1"><g transform="translate(584.718564, 528.349799)"><g><path d="M 13.171875 -10.046875 C 13.484375 -8.660156 13.445312 -7.375 13.0625 -6.1875 C 12.6875 -5.007812 12.050781 -4.007812 11.15625 -3.1875 C 10.257812 -2.363281 9.175781 -1.8125 7.90625 -1.53125 C 6.625 -1.238281 5.398438 -1.269531 4.234375 -1.625 C 3.066406 -1.976562 2.0625 -2.609375 1.21875 -3.515625 C 0.375 -4.421875 -0.203125 -5.566406 -0.515625 -6.953125 C -0.828125 -8.328125 -0.796875 -9.601562 -0.421875 -10.78125 C -0.0546875 -11.96875 0.570312 -12.972656 1.46875 -13.796875 C 2.363281 -14.628906 3.453125 -15.191406 4.734375 -15.484375 C 6.003906 -15.765625 7.222656 -15.722656 8.390625 -15.359375 C 9.554688 -15.003906 10.566406 -14.375 11.421875 -13.46875 C 12.273438 -12.5625 12.859375 -11.421875 13.171875 -10.046875 Z M 10.15625 -9.359375 C 9.957031 -10.210938 9.613281 -10.910156 9.125 -11.453125 C 8.644531 -12.003906 8.070312 -12.390625 7.40625 -12.609375 C 6.75 -12.835938 6.066406 -12.875 5.359375 -12.71875 C 4.648438 -12.550781 4.050781 -12.222656 3.5625 -11.734375 C 3.070312 -11.253906 2.722656 -10.660156 2.515625 -9.953125 C 2.304688 -9.253906 2.300781 -8.476562 2.5 -7.625 C 2.6875 -6.78125 3.023438 -6.082031 3.515625 -5.53125 C 4.003906 -4.976562 4.578125 -4.59375 5.234375 -4.375 C 5.890625 -4.15625 6.570312 -4.128906 7.28125 -4.296875 C 7.988281 -4.453125 8.585938 -4.769531 9.078125 -5.25 C 9.578125 -5.726562 9.925781 -6.320312 10.125 -7.03125 C 10.332031 -7.738281 10.34375 -8.515625 10.15625 -9.359375 Z M 10.15625 -9.359375 "/></g></g></g><g fill="#ebebeb" fill-opacity="1"><g transform="translate(600.399525, 524.797593)"><g><path d="M 5.71875 -15.703125 C 6.957031 -15.984375 7.957031 -15.9375 8.71875 -15.5625 C 9.488281 -15.1875 10.085938 -14.597656 10.515625 -13.796875 C 10.953125 -12.992188 11.289062 -12.0625 11.53125 -11 L 13 -4.578125 C 13.09375 -4.140625 13.03125 -3.738281 12.8125 -3.375 C 12.601562 -3.007812 12.28125 -2.78125 11.84375 -2.6875 C 11.40625 -2.582031 11.007812 -2.644531 10.65625 -2.875 C 10.300781 -3.113281 10.078125 -3.453125 9.984375 -3.890625 L 8.515625 -10.3125 C 8.398438 -10.863281 8.21875 -11.347656 7.96875 -11.765625 C 7.726562 -12.179688 7.390625 -12.476562 6.953125 -12.65625 C 6.523438 -12.832031 5.96875 -12.847656 5.28125 -12.703125 C 4.613281 -12.546875 4.078125 -12.28125 3.671875 -11.90625 C 3.273438 -11.539062 3.003906 -11.101562 2.859375 -10.59375 C 2.722656 -10.09375 2.710938 -9.566406 2.828125 -9.015625 L 4.296875 -2.59375 C 4.390625 -2.15625 4.328125 -1.753906 4.109375 -1.390625 C 3.898438 -1.035156 3.578125 -0.8125 3.140625 -0.71875 C 2.703125 -0.613281 2.304688 -0.675781 1.953125 -0.90625 C 1.597656 -1.144531 1.375 -1.484375 1.28125 -1.921875 L -1.078125 -12.296875 C -1.171875 -12.734375 -1.109375 -13.128906 -0.890625 -13.484375 C -0.671875 -13.835938 -0.34375 -14.066406 0.09375 -14.171875 C 0.53125 -14.265625 0.921875 -14.195312 1.265625 -13.96875 C 1.617188 -13.738281 1.84375 -13.40625 1.9375 -12.96875 L 2.1875 -11.875 L 1.796875 -11.875 C 1.890625 -12.195312 2.035156 -12.550781 2.234375 -12.9375 C 2.441406 -13.332031 2.707031 -13.71875 3.03125 -14.09375 C 3.351562 -14.46875 3.738281 -14.796875 4.1875 -15.078125 C 4.632812 -15.367188 5.144531 -15.578125 5.71875 -15.703125 Z M 5.71875 -15.703125 "/></g></g></g><g fill="#ebebeb" fill-opacity="1"><g transform="translate(615.376871, 521.404777)"><g><path d="M -1.203125 -13.609375 L 4.75 -14.953125 C 5.15625 -15.046875 5.519531 -14.988281 5.84375 -14.78125 C 6.175781 -14.570312 6.390625 -14.269531 6.484375 -13.875 C 6.566406 -13.488281 6.503906 -13.132812 6.296875 -12.8125 C 6.085938 -12.488281 5.78125 -12.28125 5.375 -12.1875 L -0.578125 -10.84375 C -0.972656 -10.75 -1.335938 -10.804688 -1.671875 -11.015625 C -2.003906 -11.234375 -2.21875 -11.539062 -2.3125 -11.9375 C -2.394531 -12.320312 -2.328125 -12.671875 -2.109375 -12.984375 C -1.898438 -13.304688 -1.597656 -13.515625 -1.203125 -13.609375 Z M 0.78125 -17.359375 C 1.21875 -17.453125 1.601562 -17.382812 1.9375 -17.15625 C 2.28125 -16.925781 2.5 -16.59375 2.59375 -16.15625 L 5.125 -4.96875 C 5.1875 -4.726562 5.28125 -4.539062 5.40625 -4.40625 C 5.53125 -4.28125 5.679688 -4.203125 5.859375 -4.171875 C 6.035156 -4.148438 6.21875 -4.160156 6.40625 -4.203125 C 6.59375 -4.253906 6.757812 -4.332031 6.90625 -4.4375 C 7.0625 -4.539062 7.253906 -4.617188 7.484375 -4.671875 C 7.710938 -4.722656 7.945312 -4.660156 8.1875 -4.484375 C 8.425781 -4.316406 8.59375 -4.039062 8.6875 -3.65625 C 8.789062 -3.1875 8.617188 -2.742188 8.171875 -2.328125 C 7.734375 -1.910156 7.222656 -1.632812 6.640625 -1.5 C 6.285156 -1.425781 5.882812 -1.367188 5.4375 -1.328125 C 5 -1.296875 4.566406 -1.347656 4.140625 -1.484375 C 3.722656 -1.628906 3.332031 -1.90625 2.96875 -2.3125 C 2.601562 -2.71875 2.328125 -3.332031 2.140625 -4.15625 L -0.421875 -15.484375 C -0.515625 -15.921875 -0.445312 -16.316406 -0.21875 -16.671875 C 0.0078125 -17.023438 0.34375 -17.253906 0.78125 -17.359375 Z M 0.78125 -17.359375 "/></g></g></g><g fill="#ebebeb" fill-opacity="1"><g transform="translate(625.654951, 519.076485)"><g><path d="M 13.171875 -10.046875 C 13.484375 -8.660156 13.445312 -7.375 13.0625 -6.1875 C 12.6875 -5.007812 12.050781 -4.007812 11.15625 -3.1875 C 10.257812 -2.363281 9.175781 -1.8125 7.90625 -1.53125 C 6.625 -1.238281 5.398438 -1.269531 4.234375 -1.625 C 3.066406 -1.976562 2.0625 -2.609375 1.21875 -3.515625 C 0.375 -4.421875 -0.203125 -5.566406 -0.515625 -6.953125 C -0.828125 -8.328125 -0.796875 -9.601562 -0.421875 -10.78125 C -0.0546875 -11.96875 0.570312 -12.972656 1.46875 -13.796875 C 2.363281 -14.628906 3.453125 -15.191406 4.734375 -15.484375 C 6.003906 -15.765625 7.222656 -15.722656 8.390625 -15.359375 C 9.554688 -15.003906 10.566406 -14.375 11.421875 -13.46875 C 12.273438 -12.5625 12.859375 -11.421875 13.171875 -10.046875 Z M 10.15625 -9.359375 C 9.957031 -10.210938 9.613281 -10.910156 9.125 -11.453125 C 8.644531 -12.003906 8.070312 -12.390625 7.40625 -12.609375 C 6.75 -12.835938 6.066406 -12.875 5.359375 -12.71875 C 4.648438 -12.550781 4.050781 -12.222656 3.5625 -11.734375 C 3.070312 -11.253906 2.722656 -10.660156 2.515625 -9.953125 C 2.304688 -9.253906 2.300781 -8.476562 2.5 -7.625 C 2.6875 -6.78125 3.023438 -6.082031 3.515625 -5.53125 C 4.003906 -4.976562 4.578125 -4.59375 5.234375 -4.375 C 5.890625 -4.15625 6.570312 -4.128906 7.28125 -4.296875 C 7.988281 -4.453125 8.585938 -4.769531 9.078125 -5.25 C 9.578125 -5.726562 9.925781 -6.320312 10.125 -7.03125 C 10.332031 -7.738281 10.34375 -8.515625 10.15625 -9.359375 Z M 10.15625 -9.359375 "/></g></g></g><g fill="#ebebeb" fill-opacity="1"><g transform="translate(641.335934, 515.524274)"><g><path d="M 2.109375 -6.328125 C 1.535156 -6.191406 1.15625 -6.429688 0.96875 -7.046875 L -1.875 -16.15625 C -2.019531 -16.664062 -1.972656 -17.128906 -1.734375 -17.546875 C -1.503906 -17.972656 -1.140625 -18.238281 -0.640625 -18.34375 C -0.140625 -18.457031 0.304688 -18.375 0.703125 -18.09375 C 1.109375 -17.820312 1.34375 -17.421875 1.40625 -16.890625 L 2.796875 -7.46875 C 2.890625 -6.832031 2.660156 -6.453125 2.109375 -6.328125 Z M 3.203125 -0.71875 C 2.710938 -0.613281 2.304688 -0.660156 1.984375 -0.859375 C 1.671875 -1.066406 1.457031 -1.414062 1.34375 -1.90625 L 1.25 -2.328125 C 1.132812 -2.816406 1.175781 -3.21875 1.375 -3.53125 C 1.582031 -3.84375 1.929688 -4.050781 2.421875 -4.15625 L 2.734375 -4.234375 C 3.222656 -4.347656 3.625 -4.304688 3.9375 -4.109375 C 4.257812 -3.910156 4.476562 -3.566406 4.59375 -3.078125 L 4.6875 -2.65625 C 4.800781 -2.164062 4.753906 -1.757812 4.546875 -1.4375 C 4.347656 -1.125 4.003906 -0.910156 3.515625 -0.796875 Z M 3.203125 -0.71875 "/></g></g></g></svg>