<svg xmlns="http://www.w3.org/2000/svg" xmlns:xlink="http://www.w3.org/1999/xlink" width="500" zoomAndPan="magnify" viewBox="0 0 375 374.999991" height="500" preserveAspectRatio="xMidYMid meet" version="1.0"><path fill="#f1bc19" d="M 291.789062 41.828125 C 291.289062 41.828125 290.808594 41.925781 290.347656 42.117188 C 289.886719 42.304688 289.480469 42.578125 289.125 42.929688 C 288.773438 43.285156 288.5 43.691406 288.3125 44.152344 C 288.121094 44.613281 288.023438 45.09375 288.023438 45.59375 C 288.023438 46.09375 288.121094 46.574219 288.3125 47.035156 C 288.5 47.496094 288.773438 47.902344 289.125 48.253906 C 289.480469 48.609375 289.886719 48.878906 290.347656 49.070312 C 290.808594 49.261719 291.289062 49.359375 291.789062 49.359375 C 292.289062 49.359375 292.769531 49.261719 293.230469 49.070312 C 293.691406 48.878906 294.097656 48.609375 294.449219 48.253906 C 294.804688 47.902344 295.074219 47.496094 295.265625 47.035156 C 295.457031 46.574219 295.554688 46.09375 295.554688 45.59375 C 295.554688 45.09375 295.457031 44.613281 295.265625 44.152344 C 295.074219 43.691406 294.804688 43.285156 294.449219 42.929688 C 294.097656 42.578125 293.691406 42.304688 293.230469 42.117188 C 292.769531 41.925781 292.289062 41.828125 291.789062 41.828125 Z M 291.789062 41.828125 " fill-opacity="1" fill-rule="nonzero"/><path fill="#e6edb7" d="M 190.152344 45.59375 C 187.871094 45.59375 185.59375 45.648438 183.316406 45.761719 C 181.039062 45.871094 178.765625 46.039062 176.5 46.265625 C 174.230469 46.488281 171.96875 46.765625 169.714844 47.101562 C 167.460938 47.433594 165.214844 47.824219 162.976562 48.269531 C 160.742188 48.714844 158.519531 49.214844 156.308594 49.765625 C 154.097656 50.320312 151.902344 50.929688 149.71875 51.589844 C 147.539062 52.253906 145.375 52.96875 143.226562 53.734375 C 141.082031 54.503906 138.957031 55.324219 136.851562 56.195312 C 134.746094 57.066406 132.660156 57.992188 130.601562 58.964844 C 128.539062 59.941406 126.503906 60.964844 124.492188 62.039062 C 122.484375 63.113281 120.5 64.238281 118.546875 65.410156 C 116.589844 66.582031 114.664062 67.800781 112.769531 69.066406 C 110.875 70.332031 109.011719 71.644531 107.179688 73.003906 C 105.351562 74.359375 103.554688 75.761719 101.792969 77.207031 C 100.03125 78.65625 98.304688 80.144531 96.613281 81.675781 C 94.925781 83.203125 93.277344 84.777344 91.664062 86.386719 C 90.050781 88 88.480469 89.648438 86.949219 91.339844 C 85.417969 93.027344 83.929688 94.753906 82.484375 96.515625 C 81.039062 98.277344 79.636719 100.074219 78.277344 101.90625 C 76.921875 103.734375 75.609375 105.597656 74.34375 107.496094 C 73.074219 109.390625 71.855469 111.316406 70.683594 113.269531 C 69.511719 115.226562 68.390625 117.207031 67.316406 119.21875 C 66.242188 121.226562 65.214844 123.265625 64.242188 125.324219 C 63.265625 127.386719 62.34375 129.46875 61.472656 131.574219 C 60.597656 133.679688 59.777344 135.804688 59.011719 137.953125 C 58.242188 140.097656 57.527344 142.261719 56.867188 144.445312 C 56.203125 146.625 55.597656 148.820312 55.042969 151.03125 C 54.488281 153.242188 53.988281 155.46875 53.546875 157.703125 C 53.101562 159.9375 52.710938 162.183594 52.375 164.4375 C 52.042969 166.691406 51.761719 168.953125 51.539062 171.222656 C 51.316406 173.492188 51.148438 175.765625 51.035156 178.039062 C 50.925781 180.316406 50.871094 182.59375 50.871094 184.875 C 50.871094 187.15625 50.925781 189.433594 51.035156 191.710938 C 51.148438 193.984375 51.316406 196.257812 51.539062 198.527344 C 51.761719 200.796875 52.042969 203.058594 52.375 205.3125 C 52.710938 207.566406 53.101562 209.8125 53.546875 212.046875 C 53.988281 214.28125 54.488281 216.507812 55.042969 218.71875 C 55.597656 220.929688 56.203125 223.125 56.867188 225.304688 C 57.527344 227.488281 58.242188 229.652344 59.011719 231.796875 C 59.777344 233.945312 60.597656 236.070312 61.472656 238.175781 C 62.34375 240.28125 63.265625 242.363281 64.242188 244.425781 C 65.214844 246.484375 66.242188 248.523438 67.316406 250.53125 C 68.390625 252.542969 69.511719 254.523438 70.683594 256.480469 C 71.855469 258.433594 73.074219 260.359375 74.34375 262.253906 C 75.609375 264.152344 76.921875 266.015625 78.277344 267.84375 C 79.636719 269.675781 81.039062 271.472656 82.484375 273.234375 C 83.929688 274.996094 85.417969 276.722656 86.949219 278.410156 C 88.480469 280.101562 90.050781 281.75 91.664062 283.363281 C 93.277344 284.972656 94.925781 286.546875 96.613281 288.074219 C 98.304688 289.605469 100.03125 291.09375 101.792969 292.542969 C 103.554688 293.988281 105.351562 295.390625 107.179688 296.746094 C 109.011719 298.105469 110.875 299.417969 112.769531 300.683594 C 114.664062 301.949219 116.589844 303.167969 118.546875 304.339844 C 120.5 305.511719 122.484375 306.636719 124.492188 307.710938 C 126.503906 308.785156 128.539062 309.808594 130.601562 310.785156 C 132.660156 311.757812 134.746094 312.683594 136.851562 313.554688 C 138.957031 314.425781 141.082031 315.246094 143.226562 316.015625 C 145.375 316.78125 147.539062 317.496094 149.71875 318.160156 C 151.902344 318.820312 154.097656 319.429688 156.308594 319.984375 C 158.519531 320.535156 160.742188 321.035156 162.976562 321.480469 C 165.214844 321.925781 167.460938 322.316406 169.714844 322.648438 C 171.96875 322.984375 174.230469 323.261719 176.5 323.484375 C 178.765625 323.710938 181.039062 323.875 183.316406 323.988281 C 185.59375 324.101562 187.871094 324.15625 190.152344 324.15625 C 192.429688 324.15625 194.707031 324.101562 196.984375 323.988281 C 199.261719 323.875 201.535156 323.710938 203.804688 323.484375 C 206.070312 323.261719 208.332031 322.984375 210.585938 322.648438 C 212.84375 322.316406 215.085938 321.925781 217.324219 321.480469 C 219.558594 321.035156 221.78125 320.535156 223.992188 319.984375 C 226.203125 319.429688 228.402344 318.820312 230.582031 318.160156 C 232.761719 317.496094 234.925781 316.78125 237.074219 316.015625 C 239.21875 315.246094 241.34375 314.425781 243.453125 313.554688 C 245.558594 312.683594 247.640625 311.757812 249.703125 310.785156 C 251.761719 309.808594 253.796875 308.785156 255.808594 307.710938 C 257.816406 306.636719 259.800781 305.511719 261.753906 304.339844 C 263.710938 303.167969 265.636719 301.949219 267.53125 300.683594 C 269.425781 299.417969 271.289062 298.105469 273.121094 296.746094 C 274.953125 295.390625 276.75 293.988281 278.511719 292.542969 C 280.273438 291.09375 281.996094 289.605469 283.6875 288.074219 C 285.375 286.546875 287.027344 284.972656 288.636719 283.363281 C 290.25 281.75 291.820312 280.101562 293.351562 278.410156 C 294.882812 276.722656 296.371094 274.996094 297.816406 273.234375 C 299.261719 271.472656 300.664062 269.675781 302.023438 267.84375 C 303.378906 266.015625 304.691406 264.152344 305.960938 262.253906 C 307.226562 260.359375 308.445312 258.433594 309.617188 256.480469 C 310.789062 254.523438 311.910156 252.542969 312.984375 250.53125 C 314.0625 248.523438 315.085938 246.484375 316.058594 244.425781 C 317.035156 242.363281 317.957031 240.28125 318.832031 238.175781 C 319.703125 236.070312 320.523438 233.945312 321.289062 231.796875 C 322.058594 229.652344 322.773438 227.488281 323.433594 225.304688 C 324.097656 223.125 324.703125 220.929688 325.257812 218.71875 C 325.8125 216.507812 326.3125 214.28125 326.757812 212.046875 C 327.199219 209.8125 327.589844 207.566406 327.925781 205.3125 C 328.257812 203.058594 328.539062 200.796875 328.761719 198.527344 C 328.984375 196.257812 329.152344 193.984375 329.265625 191.710938 C 329.375 189.433594 329.433594 187.15625 329.433594 184.875 C 329.433594 182.59375 329.375 180.316406 329.265625 178.039062 C 329.152344 175.765625 328.984375 173.492188 328.761719 171.222656 C 328.539062 168.953125 328.257812 166.691406 327.925781 164.4375 C 327.589844 162.183594 327.199219 159.9375 326.757812 157.703125 C 326.3125 155.46875 325.8125 153.242188 325.257812 151.03125 C 324.703125 148.820312 324.097656 146.625 323.433594 144.445312 C 322.773438 142.261719 322.058594 140.097656 321.289062 137.953125 C 320.523438 135.804688 319.703125 133.679688 318.832031 131.574219 C 317.957031 129.46875 317.035156 127.386719 316.058594 125.324219 C 315.085938 123.265625 314.0625 121.226562 312.984375 119.21875 C 311.910156 117.207031 310.789062 115.226562 309.617188 113.269531 C 308.445312 111.316406 307.226562 109.390625 305.960938 107.496094 C 304.691406 105.597656 303.378906 103.734375 302.023438 101.90625 C 300.664062 100.074219 299.261719 98.277344 297.816406 96.515625 C 296.371094 94.753906 294.882812 93.027344 293.351562 91.339844 C 291.820312 89.648438 290.25 88 288.636719 86.386719 C 287.027344 84.777344 285.375 83.203125 283.6875 81.675781 C 281.996094 80.144531 280.273438 78.65625 278.511719 77.207031 C 276.75 75.761719 274.953125 74.359375 273.121094 73.003906 C 271.289062 71.644531 269.425781 70.332031 267.53125 69.066406 C 265.636719 67.800781 263.710938 66.582031 261.753906 65.410156 C 259.800781 64.238281 257.816406 63.113281 255.808594 62.039062 C 253.796875 60.964844 251.761719 59.941406 249.703125 58.964844 C 247.640625 57.992188 245.558594 57.066406 243.453125 56.195312 C 241.34375 55.324219 239.21875 54.503906 237.074219 53.734375 C 234.925781 52.96875 232.761719 52.253906 230.582031 51.589844 C 228.402344 50.929688 226.203125 50.320312 223.992188 49.765625 C 221.78125 49.214844 219.558594 48.714844 217.324219 48.269531 C 215.085938 47.824219 212.84375 47.433594 210.585938 47.101562 C 208.332031 46.765625 206.070312 46.488281 203.804688 46.265625 C 201.535156 46.039062 199.261719 45.871094 196.984375 45.761719 C 194.707031 45.648438 192.429688 45.59375 190.152344 45.59375 Z M 190.152344 45.59375 " fill-opacity="1" fill-rule="nonzero"/><path fill="#f1bc19" d="M 314.375 38.066406 C 313.386719 38.066406 312.40625 38.160156 311.4375 38.355469 C 310.46875 38.546875 309.527344 38.832031 308.613281 39.210938 C 307.699219 39.589844 306.832031 40.054688 306.007812 40.601562 C 305.1875 41.152344 304.425781 41.777344 303.726562 42.476562 C 303.027344 43.175781 302.40625 43.933594 301.855469 44.757812 C 301.304688 45.578125 300.84375 46.445312 300.464844 47.359375 C 300.085938 48.273438 299.800781 49.214844 299.605469 50.183594 C 299.414062 51.152344 299.316406 52.132812 299.316406 53.121094 C 299.316406 54.109375 299.414062 55.089844 299.605469 56.058594 C 299.800781 57.03125 300.085938 57.972656 300.464844 58.882812 C 300.84375 59.796875 301.304688 60.664062 301.855469 61.488281 C 302.40625 62.308594 303.027344 63.070312 303.726562 63.769531 C 304.425781 64.46875 305.1875 65.09375 306.007812 65.640625 C 306.832031 66.191406 307.699219 66.65625 308.613281 67.035156 C 309.527344 67.410156 310.46875 67.699219 311.4375 67.890625 C 312.40625 68.082031 313.386719 68.179688 314.375 68.179688 C 315.363281 68.179688 316.34375 68.082031 317.3125 67.890625 C 318.28125 67.699219 319.222656 67.410156 320.136719 67.035156 C 321.050781 66.65625 321.917969 66.191406 322.742188 65.640625 C 323.5625 65.09375 324.324219 64.46875 325.023438 63.769531 C 325.722656 63.070312 326.34375 62.308594 326.894531 61.488281 C 327.445312 60.664062 327.90625 59.796875 328.285156 58.882812 C 328.664062 57.972656 328.949219 57.03125 329.144531 56.058594 C 329.335938 55.089844 329.433594 54.109375 329.433594 53.121094 C 329.433594 52.132812 329.335938 51.152344 329.144531 50.183594 C 328.949219 49.214844 328.664062 48.273438 328.285156 47.359375 C 327.90625 46.445312 327.445312 45.578125 326.894531 44.757812 C 326.34375 43.933594 325.722656 43.175781 325.023438 42.476562 C 324.324219 41.777344 323.5625 41.152344 322.742188 40.601562 C 321.917969 40.054688 321.050781 39.589844 320.136719 39.210938 C 319.222656 38.832031 318.28125 38.546875 317.3125 38.355469 C 316.34375 38.160156 315.363281 38.066406 314.375 38.066406 Z M 314.375 38.066406 " fill-opacity="1" fill-rule="nonzero"/><path fill="#88ae45" d="M 329.433594 79.472656 C 328.9375 79.472656 328.449219 79.519531 327.964844 79.617188 C 327.480469 79.714844 327.007812 79.855469 326.550781 80.046875 C 326.09375 80.234375 325.660156 80.46875 325.25 80.742188 C 324.839844 81.015625 324.457031 81.328125 324.109375 81.679688 C 323.757812 82.027344 323.445312 82.40625 323.171875 82.820312 C 322.898438 83.230469 322.664062 83.664062 322.476562 84.121094 C 322.289062 84.578125 322.144531 85.046875 322.046875 85.53125 C 321.953125 86.015625 321.902344 86.507812 321.902344 87 C 321.902344 87.496094 321.953125 87.984375 322.046875 88.46875 C 322.144531 88.953125 322.289062 89.425781 322.476562 89.882812 C 322.664062 90.339844 322.898438 90.773438 323.171875 91.183594 C 323.445312 91.59375 323.757812 91.976562 324.109375 92.324219 C 324.457031 92.675781 324.839844 92.988281 325.25 93.261719 C 325.660156 93.535156 326.09375 93.769531 326.550781 93.957031 C 327.007812 94.144531 327.480469 94.289062 327.964844 94.386719 C 328.449219 94.480469 328.9375 94.53125 329.433594 94.53125 C 329.925781 94.53125 330.417969 94.480469 330.902344 94.386719 C 331.386719 94.289062 331.855469 94.144531 332.3125 93.957031 C 332.769531 93.769531 333.203125 93.535156 333.613281 93.261719 C 334.027344 92.988281 334.40625 92.675781 334.757812 92.324219 C 335.105469 91.976562 335.417969 91.59375 335.691406 91.183594 C 335.96875 90.773438 336.199219 90.339844 336.386719 89.882812 C 336.578125 89.425781 336.71875 88.953125 336.816406 88.46875 C 336.914062 87.984375 336.960938 87.496094 336.960938 87 C 336.960938 86.507812 336.914062 86.015625 336.816406 85.53125 C 336.71875 85.046875 336.578125 84.578125 336.386719 84.121094 C 336.199219 83.664062 335.96875 83.230469 335.691406 82.820312 C 335.417969 82.40625 335.105469 82.027344 334.757812 81.679688 C 334.40625 81.328125 334.027344 81.015625 333.613281 80.742188 C 333.203125 80.46875 332.769531 80.234375 332.3125 80.046875 C 331.855469 79.855469 331.386719 79.714844 330.902344 79.617188 C 330.417969 79.519531 329.925781 79.472656 329.433594 79.472656 Z M 329.433594 79.472656 " fill-opacity="1" fill-rule="nonzero"/><path fill="#fbcd59" d="M 306.847656 275.21875 C 306.351562 275.21875 305.863281 275.269531 305.378906 275.363281 C 304.894531 275.460938 304.421875 275.605469 303.964844 275.792969 C 303.507812 275.980469 303.074219 276.214844 302.664062 276.488281 C 302.253906 276.761719 301.871094 277.074219 301.523438 277.425781 C 301.171875 277.773438 300.859375 278.15625 300.585938 278.566406 C 300.3125 278.976562 300.078125 279.410156 299.890625 279.867188 C 299.703125 280.324219 299.558594 280.792969 299.460938 281.28125 C 299.367188 281.765625 299.316406 282.253906 299.316406 282.75 C 299.316406 283.242188 299.367188 283.734375 299.460938 284.21875 C 299.558594 284.703125 299.703125 285.171875 299.890625 285.628906 C 300.078125 286.085938 300.3125 286.519531 300.585938 286.929688 C 300.859375 287.34375 301.171875 287.722656 301.523438 288.070312 C 301.871094 288.421875 302.253906 288.734375 302.664062 289.007812 C 303.074219 289.28125 303.507812 289.515625 303.964844 289.703125 C 304.421875 289.894531 304.894531 290.035156 305.378906 290.132812 C 305.863281 290.230469 306.351562 290.277344 306.847656 290.277344 C 307.339844 290.277344 307.832031 290.230469 308.316406 290.132812 C 308.800781 290.035156 309.269531 289.894531 309.726562 289.703125 C 310.183594 289.515625 310.617188 289.28125 311.027344 289.007812 C 311.441406 288.734375 311.820312 288.421875 312.167969 288.070312 C 312.519531 287.722656 312.832031 287.34375 313.105469 286.929688 C 313.378906 286.519531 313.613281 286.085938 313.800781 285.628906 C 313.992188 285.171875 314.132812 284.703125 314.230469 284.21875 C 314.328125 283.734375 314.375 283.242188 314.375 282.75 C 314.375 282.253906 314.328125 281.765625 314.230469 281.28125 C 314.132812 280.792969 313.992188 280.324219 313.800781 279.867188 C 313.613281 279.410156 313.378906 278.976562 313.105469 278.566406 C 312.832031 278.15625 312.519531 277.773438 312.167969 277.425781 C 311.820312 277.074219 311.441406 276.761719 311.027344 276.488281 C 310.617188 276.214844 310.183594 275.980469 309.726562 275.792969 C 309.269531 275.605469 308.800781 275.460938 308.316406 275.363281 C 307.832031 275.269531 307.339844 275.21875 306.847656 275.21875 Z M 58.398438 218.753906 C 57.410156 218.753906 56.429688 218.851562 55.460938 219.042969 C 54.492188 219.238281 53.550781 219.523438 52.636719 219.902344 C 51.722656 220.277344 50.855469 220.742188 50.03125 221.292969 C 49.210938 221.839844 48.449219 222.464844 47.75 223.164062 C 47.050781 223.863281 46.425781 224.625 45.878906 225.445312 C 45.328125 226.269531 44.863281 227.136719 44.488281 228.050781 C 44.109375 228.964844 43.824219 229.90625 43.628906 230.875 C 43.4375 231.84375 43.339844 232.824219 43.339844 233.8125 C 43.339844 234.800781 43.4375 235.78125 43.628906 236.75 C 43.824219 237.71875 44.109375 238.660156 44.488281 239.574219 C 44.863281 240.488281 45.328125 241.355469 45.878906 242.175781 C 46.425781 243 47.050781 243.761719 47.75 244.460938 C 48.449219 245.15625 49.210938 245.78125 50.03125 246.332031 C 50.855469 246.878906 51.722656 247.34375 52.636719 247.722656 C 53.550781 248.101562 54.492188 248.386719 55.460938 248.578125 C 56.429688 248.773438 57.410156 248.871094 58.398438 248.871094 C 59.386719 248.871094 60.367188 248.773438 61.335938 248.578125 C 62.304688 248.386719 63.246094 248.101562 64.160156 247.722656 C 65.074219 247.34375 65.941406 246.878906 66.761719 246.332031 C 67.585938 245.78125 68.347656 245.15625 69.046875 244.460938 C 69.746094 243.761719 70.367188 243 70.917969 242.175781 C 71.46875 241.355469 71.929688 240.488281 72.308594 239.574219 C 72.6875 238.660156 72.972656 237.71875 73.167969 236.75 C 73.359375 235.78125 73.457031 234.800781 73.457031 233.8125 C 73.457031 232.824219 73.359375 231.84375 73.167969 230.875 C 72.972656 229.90625 72.6875 228.964844 72.308594 228.050781 C 71.929688 227.136719 71.46875 226.269531 70.917969 225.445312 C 70.367188 224.625 69.746094 223.863281 69.046875 223.164062 C 68.347656 222.464844 67.585938 221.839844 66.761719 221.292969 C 65.941406 220.742188 65.074219 220.277344 64.160156 219.902344 C 63.246094 219.523438 62.304688 219.238281 61.335938 219.042969 C 60.367188 218.851562 59.386719 218.753906 58.398438 218.753906 Z M 58.398438 218.753906 " fill-opacity="1" fill-rule="nonzero"/><path fill="#88ae45" d="M 96.042969 316.628906 C 95.546875 316.628906 95.058594 316.675781 94.574219 316.773438 C 94.089844 316.867188 93.617188 317.011719 93.160156 317.199219 C 92.703125 317.390625 92.269531 317.621094 91.859375 317.898438 C 91.449219 318.171875 91.066406 318.484375 90.71875 318.832031 C 90.367188 319.183594 90.054688 319.5625 89.78125 319.972656 C 89.507812 320.386719 89.273438 320.820312 89.085938 321.277344 C 88.898438 321.730469 88.753906 322.203125 88.65625 322.6875 C 88.5625 323.171875 88.511719 323.664062 88.511719 324.15625 C 88.511719 324.652344 88.5625 325.140625 88.65625 325.625 C 88.753906 326.109375 88.898438 326.582031 89.085938 327.039062 C 89.273438 327.496094 89.507812 327.929688 89.78125 328.339844 C 90.054688 328.75 90.367188 329.128906 90.71875 329.480469 C 91.066406 329.828125 91.449219 330.140625 91.859375 330.417969 C 92.269531 330.691406 92.703125 330.921875 93.160156 331.113281 C 93.617188 331.300781 94.089844 331.445312 94.574219 331.539062 C 95.058594 331.636719 95.546875 331.683594 96.042969 331.683594 C 96.535156 331.683594 97.027344 331.636719 97.511719 331.539062 C 97.996094 331.445312 98.464844 331.300781 98.921875 331.113281 C 99.378906 330.921875 99.8125 330.691406 100.222656 330.417969 C 100.636719 330.140625 101.015625 329.828125 101.367188 329.480469 C 101.714844 329.128906 102.027344 328.75 102.300781 328.339844 C 102.578125 327.929688 102.808594 327.496094 102.996094 327.039062 C 103.1875 326.582031 103.328125 326.109375 103.425781 325.625 C 103.523438 325.140625 103.570312 324.652344 103.570312 324.15625 C 103.570312 323.664062 103.523438 323.171875 103.425781 322.6875 C 103.328125 322.203125 103.1875 321.730469 102.996094 321.277344 C 102.808594 320.820312 102.578125 320.386719 102.300781 319.972656 C 102.027344 319.5625 101.714844 319.183594 101.367188 318.832031 C 101.015625 318.484375 100.636719 318.171875 100.222656 317.898438 C 99.8125 317.621094 99.378906 317.390625 98.921875 317.199219 C 98.464844 317.011719 97.996094 316.867188 97.511719 316.773438 C 97.027344 316.675781 96.535156 316.628906 96.042969 316.628906 Z M 96.042969 316.628906 " fill-opacity="1" fill-rule="nonzero"/><path fill="#ffffff" d="M 71.574219 181.109375 C 70.957031 181.109375 70.34375 181.171875 69.738281 181.292969 C 69.132812 181.410156 68.542969 181.589844 67.972656 181.828125 C 67.402344 182.0625 66.859375 182.351562 66.34375 182.695312 C 65.832031 183.039062 65.355469 183.429688 64.917969 183.867188 C 64.480469 184.304688 64.089844 184.777344 63.75 185.292969 C 63.40625 185.808594 63.113281 186.347656 62.878906 186.921875 C 62.640625 187.492188 62.464844 188.078125 62.34375 188.6875 C 62.222656 189.292969 62.164062 189.902344 62.164062 190.523438 C 62.164062 191.140625 62.222656 191.75 62.34375 192.359375 C 62.464844 192.964844 62.640625 193.550781 62.878906 194.121094 C 63.113281 194.695312 63.40625 195.234375 63.75 195.75 C 64.089844 196.265625 64.480469 196.738281 64.917969 197.175781 C 65.355469 197.613281 65.832031 198.003906 66.34375 198.347656 C 66.859375 198.691406 67.402344 198.980469 67.972656 199.214844 C 68.542969 199.453125 69.132812 199.632812 69.738281 199.75 C 70.34375 199.871094 70.957031 199.933594 71.574219 199.933594 C 72.191406 199.933594 72.804688 199.871094 73.410156 199.75 C 74.015625 199.632812 74.605469 199.453125 75.175781 199.214844 C 75.746094 198.980469 76.289062 198.691406 76.800781 198.347656 C 77.316406 198.003906 77.789062 197.613281 78.226562 197.175781 C 78.664062 196.738281 79.054688 196.265625 79.398438 195.75 C 79.742188 195.234375 80.03125 194.695312 80.269531 194.121094 C 80.503906 193.550781 80.683594 192.964844 80.804688 192.359375 C 80.925781 191.75 80.984375 191.140625 80.984375 190.523438 C 80.984375 189.902344 80.925781 189.292969 80.804688 188.6875 C 80.683594 188.078125 80.503906 187.492188 80.269531 186.921875 C 80.03125 186.347656 79.742188 185.808594 79.398438 185.292969 C 79.054688 184.78125 78.664062 184.304688 78.226562 183.867188 C 77.789062 183.429688 77.316406 183.039062 76.800781 182.695312 C 76.289062 182.351562 75.746094 182.0625 75.175781 181.828125 C 74.605469 181.589844 74.015625 181.410156 73.410156 181.292969 C 72.804688 181.171875 72.191406 181.109375 71.574219 181.109375 Z M 301.199219 117.117188 C 300.828125 117.117188 300.460938 117.152344 300.097656 117.226562 C 299.734375 117.296875 299.382812 117.402344 299.039062 117.546875 C 298.695312 117.6875 298.371094 117.863281 298.0625 118.066406 C 297.753906 118.273438 297.46875 118.507812 297.207031 118.769531 C 296.945312 119.03125 296.710938 119.316406 296.503906 119.625 C 296.296875 119.933594 296.125 120.257812 295.984375 120.601562 C 295.839844 120.945312 295.734375 121.296875 295.660156 121.660156 C 295.589844 122.023438 295.554688 122.390625 295.554688 122.761719 C 295.554688 123.132812 295.589844 123.5 295.660156 123.863281 C 295.734375 124.226562 295.839844 124.582031 295.984375 124.921875 C 296.125 125.265625 296.296875 125.589844 296.503906 125.898438 C 296.710938 126.207031 296.945312 126.492188 297.207031 126.753906 C 297.46875 127.019531 297.753906 127.25 298.0625 127.457031 C 298.371094 127.664062 298.695312 127.835938 299.039062 127.980469 C 299.382812 128.121094 299.734375 128.230469 300.097656 128.300781 C 300.460938 128.375 300.828125 128.410156 301.199219 128.410156 C 301.570312 128.410156 301.9375 128.375 302.300781 128.300781 C 302.664062 128.230469 303.019531 128.121094 303.359375 127.980469 C 303.703125 127.835938 304.027344 127.664062 304.335938 127.457031 C 304.644531 127.25 304.929688 127.019531 305.191406 126.753906 C 305.453125 126.492188 305.6875 126.207031 305.894531 125.898438 C 306.101562 125.589844 306.273438 125.265625 306.417969 124.921875 C 306.558594 124.582031 306.664062 124.226562 306.738281 123.863281 C 306.808594 123.5 306.847656 123.132812 306.847656 122.761719 C 306.847656 122.390625 306.808594 122.023438 306.738281 121.660156 C 306.664062 121.296875 306.558594 120.945312 306.417969 120.601562 C 306.273438 120.257812 306.101562 119.933594 305.894531 119.625 C 305.6875 119.316406 305.453125 119.03125 305.191406 118.769531 C 304.929688 118.507812 304.644531 118.273438 304.335938 118.066406 C 304.027344 117.863281 303.703125 117.6875 303.359375 117.546875 C 303.019531 117.402344 302.664062 117.296875 302.300781 117.226562 C 301.9375 117.152344 301.570312 117.117188 301.199219 117.117188 Z M 301.199219 117.117188 " fill-opacity="1" fill-rule="nonzero"/><path fill="#edf7f5" d="M 137.5 280.113281 C 126.472656 280.113281 117.5 271.585938 117.5 261.109375 L 117.5 108.640625 C 117.5 98.164062 126.46875 89.636719 137.5 89.636719 L 219.433594 89.636719 L 270.332031 138.296875 L 270.332031 261.109375 C 270.332031 271.585938 261.363281 280.113281 250.332031 280.113281 Z M 137.5 280.113281 " fill-opacity="1" fill-rule="nonzero"/><path fill="#472b29" d="M 218.371094 92.273438 L 243.085938 115.898438 L 267.695312 139.425781 L 267.695312 261.109375 C 267.695312 270.132812 259.910156 277.476562 250.332031 277.476562 L 137.5 277.476562 C 127.925781 277.476562 120.132812 270.132812 120.132812 261.109375 L 120.132812 108.640625 C 120.132812 99.617188 127.921875 92.273438 137.5 92.273438 L 218.371094 92.273438 M 220.488281 87 L 137.5 87 C 125.046875 87 114.863281 96.734375 114.863281 108.640625 L 114.863281 261.109375 C 114.863281 273.011719 125.046875 282.75 137.5 282.75 L 250.335938 282.75 C 262.785156 282.75 272.96875 273.015625 272.96875 261.109375 L 272.96875 137.171875 C 252.554688 117.664062 240.898438 106.511719 220.488281 87 Z M 220.488281 87 " fill-opacity="1" fill-rule="nonzero"/><path fill="#85cfcc" d="M 218.382812 91.546875 L 218.382812 121.640625 C 218.382812 132.609375 227.402344 141.585938 238.429688 141.585938 L 269.203125 141.585938 " fill-opacity="1" fill-rule="nonzero"/><path fill="#472b29" d="M 269.203125 143.46875 L 238.429688 143.46875 C 226.335938 143.46875 216.5 133.675781 216.5 121.640625 L 216.5 91.546875 L 220.265625 91.546875 L 220.265625 121.640625 C 220.265625 131.601562 228.414062 139.703125 238.429688 139.703125 L 269.203125 139.703125 Z M 269.203125 143.46875 " fill-opacity="1" fill-rule="nonzero"/><path fill="#472b29" d="M 180.738281 104.882812 L 159.09375 104.882812 C 158.574219 104.882812 158.152344 104.460938 158.152344 103.941406 C 158.152344 103.421875 158.574219 103 159.09375 103 L 180.738281 103 C 181.257812 103 181.679688 103.421875 181.679688 103.941406 C 181.679688 104.460938 181.257812 104.882812 180.738281 104.882812 Z M 180.738281 104.882812 " fill-opacity="1" fill-rule="nonzero"/><path fill="#472b29" d="M 245.460938 266.75 L 142.371094 266.75 C 136.023438 266.75 130.863281 261.625 130.863281 255.324219 L 130.863281 114.425781 C 130.863281 108.125 136.023438 103 142.371094 103 L 150.625 103 C 151.144531 103 151.566406 103.421875 151.566406 103.941406 C 151.566406 104.460938 151.144531 104.882812 150.625 104.882812 L 142.371094 104.882812 C 137.0625 104.882812 132.746094 109.167969 132.746094 114.425781 L 132.746094 255.324219 C 132.746094 260.582031 137.0625 264.867188 142.371094 264.867188 L 245.464844 264.867188 C 250.773438 264.867188 255.089844 260.582031 255.089844 255.324219 L 255.089844 213.109375 C 255.089844 212.589844 255.511719 212.167969 256.03125 212.167969 C 256.550781 212.167969 256.972656 212.589844 256.972656 213.109375 L 256.972656 255.324219 C 256.96875 261.625 251.808594 266.75 245.460938 266.75 Z M 245.460938 266.75 " fill-opacity="1" fill-rule="nonzero"/><path fill="#472b29" d="M 256.027344 202.753906 C 255.507812 202.753906 255.085938 202.335938 255.085938 201.816406 L 255.085938 182.992188 C 255.085938 182.472656 255.507812 182.050781 256.027344 182.050781 C 256.546875 182.050781 256.96875 182.472656 256.96875 182.992188 L 256.96875 201.816406 C 256.96875 202.335938 256.546875 202.753906 256.027344 202.753906 Z M 256.027344 202.753906 " fill-opacity="1" fill-rule="nonzero"/><path fill="#472b29" d="M 256.027344 178.601562 C 255.507812 178.601562 255.085938 178.179688 255.085938 177.660156 L 255.085938 169.1875 C 255.085938 168.667969 255.507812 168.246094 256.027344 168.246094 C 256.546875 168.246094 256.96875 168.667969 256.96875 169.1875 L 256.96875 177.660156 C 256.96875 178.179688 256.546875 178.601562 256.027344 178.601562 Z M 256.027344 178.601562 " fill-opacity="1" fill-rule="nonzero"/><path fill="#472b29" d="M 199.5625 138.761719 L 150.625 138.761719 C 150.105469 138.761719 149.683594 138.339844 149.683594 137.820312 C 149.683594 137.300781 150.105469 136.878906 150.625 136.878906 L 199.5625 136.878906 C 200.082031 136.878906 200.503906 137.300781 200.503906 137.820312 C 200.503906 138.339844 200.082031 138.761719 199.5625 138.761719 Z M 199.5625 138.761719 " fill-opacity="1" fill-rule="nonzero"/><path fill="#472b29" d="M 180.738281 150.054688 L 150.625 150.054688 C 150.105469 150.054688 149.683594 149.632812 149.683594 149.113281 C 149.683594 148.59375 150.105469 148.171875 150.625 148.171875 L 180.738281 148.171875 C 181.257812 148.171875 181.679688 148.59375 181.679688 149.113281 C 181.679688 149.632812 181.257812 150.054688 180.738281 150.054688 Z M 180.738281 150.054688 " fill-opacity="1" fill-rule="nonzero"/><path fill="#472b29" d="M 195.796875 161.347656 L 150.625 161.347656 C 150.105469 161.347656 149.683594 160.925781 149.683594 160.40625 C 149.683594 159.886719 150.105469 159.464844 150.625 159.464844 L 195.796875 159.464844 C 196.316406 159.464844 196.738281 159.886719 196.738281 160.40625 C 196.738281 160.925781 196.316406 161.347656 195.796875 161.347656 Z M 195.796875 161.347656 " fill-opacity="1" fill-rule="nonzero"/><path fill="#472b29" d="M 207.089844 150.054688 L 188.269531 150.054688 C 187.75 150.054688 187.328125 149.632812 187.328125 149.113281 C 187.328125 148.59375 187.75 148.171875 188.269531 148.171875 L 207.089844 148.171875 C 207.609375 148.171875 208.03125 148.59375 208.03125 149.113281 C 208.03125 149.632812 207.609375 150.054688 207.089844 150.054688 Z M 207.089844 150.054688 " fill-opacity="1" fill-rule="nonzero"/><path fill="#f15b6c" d="M 113.386719 238.707031 C 107.351562 238.707031 102.441406 233.796875 102.441406 227.761719 L 102.441406 190.929688 C 102.441406 184.890625 107.351562 179.984375 113.386719 179.984375 L 210.449219 179.984375 C 216.488281 179.984375 221.394531 184.894531 221.394531 190.929688 L 221.394531 227.761719 C 221.394531 233.800781 216.488281 238.707031 210.449219 238.707031 Z M 113.386719 238.707031 " fill-opacity="1" fill-rule="nonzero"/><path fill="#472b29" d="M 210.449219 182.617188 C 215.03125 182.617188 218.761719 186.347656 218.761719 190.929688 L 218.761719 227.757812 C 218.761719 232.339844 215.035156 236.070312 210.449219 236.070312 L 113.386719 236.070312 C 108.804688 236.070312 105.074219 232.339844 105.074219 227.757812 L 105.074219 190.929688 C 105.074219 186.347656 108.804688 182.617188 113.386719 182.617188 L 210.449219 182.617188 M 210.449219 177.347656 L 113.386719 177.347656 C 105.886719 177.347656 99.804688 183.425781 99.804688 190.929688 L 99.804688 227.757812 C 99.804688 235.261719 105.886719 241.339844 113.386719 241.339844 L 210.453125 241.339844 C 217.949219 241.339844 224.03125 235.261719 224.03125 227.757812 L 224.03125 190.929688 C 224.03125 183.425781 217.949219 177.347656 210.449219 177.347656 Z M 210.449219 177.347656 " fill-opacity="1" fill-rule="nonzero"/><path fill="#ffffff" d="M 129.527344 213.554688 L 129.527344 224.871094 L 122.90625 224.871094 L 122.90625 192.757812 L 135.4375 192.757812 C 137.847656 192.757812 139.96875 193.199219 141.796875 194.082031 C 143.628906 194.96875 145.035156 196.21875 146.019531 197.84375 C 147.007812 199.46875 147.5 201.316406 147.5 203.390625 C 147.5 206.539062 146.425781 209.019531 144.269531 210.835938 C 142.117188 212.65625 139.136719 213.5625 135.328125 213.5625 L 129.527344 213.5625 Z M 129.527344 208.195312 L 135.4375 208.195312 C 137.1875 208.195312 138.519531 207.785156 139.4375 206.960938 C 140.355469 206.136719 140.816406 204.960938 140.816406 203.429688 C 140.816406 201.855469 140.351562 200.582031 139.425781 199.613281 C 138.5 198.640625 137.21875 198.140625 135.585938 198.113281 L 129.523438 198.113281 L 129.523438 208.195312 Z M 152.042969 224.871094 L 152.042969 192.757812 L 161.925781 192.757812 C 164.75 192.757812 167.273438 193.394531 169.503906 194.667969 C 171.730469 195.9375 173.472656 197.746094 174.722656 200.089844 C 175.96875 202.4375 176.59375 205.101562 176.59375 208.085938 L 176.59375 209.566406 C 176.59375 212.550781 175.980469 215.203125 174.753906 217.527344 C 173.527344 219.851562 171.796875 221.652344 169.558594 222.933594 C 167.324219 224.210938 164.800781 224.859375 161.992188 224.875 L 152.042969 224.875 Z M 158.660156 198.117188 L 158.660156 219.554688 L 161.863281 219.554688 C 164.453125 219.554688 166.429688 218.710938 167.792969 217.019531 C 169.160156 215.328125 169.859375 212.910156 169.890625 209.761719 L 169.890625 208.0625 C 169.890625 204.800781 169.214844 202.328125 167.863281 200.640625 C 166.511719 198.953125 164.53125 198.113281 161.929688 198.113281 L 158.660156 198.113281 Z M 200.726562 211.75 L 188.019531 211.75 L 188.019531 224.871094 L 181.402344 224.871094 L 181.402344 192.757812 L 202.3125 192.757812 L 202.3125 198.117188 L 188.019531 198.117188 L 188.019531 206.410156 L 200.726562 206.410156 Z M 200.726562 211.75 " fill-opacity="1" fill-rule="nonzero"/></svg>