<svg xmlns="http://www.w3.org/2000/svg" xmlns:xlink="http://www.w3.org/1999/xlink" width="500" zoomAndPan="magnify" viewBox="0 0 375 374.999991" height="500" preserveAspectRatio="xMidYMid meet" version="1.0"><defs><clipPath id="7d7697fd38"><path d="M 16.085938 28.882812 L 366 28.882812 L 366 331.132812 L 16.085938 331.132812 Z M 16.085938 28.882812 " clip-rule="nonzero"/></clipPath></defs><path fill="#597548" d="M 205.707031 214.074219 C 215.5625 227.460938 215.5625 245.738281 205.707031 259.125 C 195.855469 245.738281 195.855469 227.460938 205.707031 214.074219 Z M 236.507812 198.675781 C 257.449219 198.800781 274.367188 215.871094 274.246094 236.816406 C 274.121094 257.761719 257.015625 274.648438 236.074219 274.523438 C 229.132812 274.492188 222.378906 272.539062 216.492188 268.945312 C 231.363281 249.953125 231.363281 223.246094 216.492188 204.253906 C 222.441406 200.566406 229.503906 198.644531 236.507812 198.675781 Z M 174.910156 198.675781 C 182.035156 198.613281 188.976562 200.535156 195.050781 204.253906 C 180.175781 223.246094 180.175781 249.953125 195.050781 268.945312 C 177.140625 279.882812 153.839844 274.277344 142.933594 256.398438 C 131.96875 238.550781 137.542969 215.191406 155.453125 204.253906 C 161.339844 200.660156 168.03125 198.738281 174.910156 198.675781 Z M 235.578125 187.148438 C 262.84375 186.777344 285.335938 208.589844 285.707031 235.917969 C 286.082031 263.214844 264.265625 285.648438 237 286.019531 C 209.675781 286.390625 187.242188 264.578125 186.871094 237.28125 C 186.621094 225.910156 190.527344 214.816406 197.527344 205.894531 C 199.882812 207.566406 201.988281 209.519531 203.847656 211.6875 C 190.15625 229.628906 193.5625 255.28125 211.472656 269.007812 C 229.378906 282.703125 255.160156 279.296875 268.851562 261.355469 C 282.546875 243.417969 279.140625 217.761719 261.105469 204.035156 C 247.535156 193.65625 228.882812 192.820312 214.507812 201.960938 C 212.523438 199.761719 210.417969 197.714844 208.1875 195.886719 C 216.242188 190.308594 225.722656 187.273438 235.578125 187.148438 Z M 175.53125 187.148438 C 202.796875 187.335938 224.792969 209.644531 224.546875 236.941406 C 224.546875 247.96875 220.703125 258.660156 213.886719 267.304688 C 211.59375 265.601562 209.488281 263.648438 207.566406 261.511719 C 221.324219 243.570312 217.914062 217.917969 200.007812 204.191406 C 182.035156 190.464844 156.320312 193.902344 142.625 211.8125 C 128.867188 229.753906 132.277344 255.40625 150.308594 269.132812 C 163.941406 279.511719 182.53125 280.347656 196.910156 271.238281 C 198.953125 273.4375 201.0625 275.453125 203.230469 277.3125 C 180.796875 292.804688 150 287.132812 134.507812 264.640625 C 119.078125 242.144531 124.65625 211.378906 147.148438 195.886719 C 155.453125 190.15625 165.429688 187.117188 175.53125 187.148438 Z M 250.015625 164.097656 L 260.859375 164.097656 L 245.429688 185.011719 C 244.625 184.855469 243.878906 184.734375 243.074219 184.640625 Z M 225.539062 164.097656 L 246.917969 164.097656 L 240.039062 184.328125 C 237.4375 184.144531 235.019531 184.144531 232.417969 184.328125 Z M 211.59375 164.097656 L 222.441406 164.097656 L 229.503906 184.640625 C 228.699219 184.734375 227.953125 184.855469 227.148438 185.011719 Z M 216.988281 148.046875 L 221.386719 161.152344 L 210.976562 161.152344 Z M 255.59375 148.046875 L 261.601562 161.152344 L 251.128906 161.152344 Z M 236.257812 146.652344 L 246.359375 161.152344 L 226.652344 161.152344 Z M 238.984375 145.539062 L 253.175781 145.539062 L 248.464844 159.203125 Z M 219.21875 145.539062 L 233.46875 145.539062 L 224.113281 159.667969 Z M 218.226562 142.5625 C 216.988281 142.53125 215.808594 143.277344 215.1875 144.484375 L 207.691406 161.0625 C 207.132812 162.082031 207.132812 163.324219 207.691406 164.34375 L 223.429688 185.664062 C 216.863281 187.273438 210.726562 190.09375 205.273438 193.996094 C 181.726562 177.140625 149.070312 182.5625 132.152344 206.082031 C 115.296875 229.597656 120.6875 262.347656 144.238281 279.203125 C 162.515625 292.246094 186.992188 292.246094 205.273438 279.203125 C 228.761719 296.058594 261.480469 290.636719 278.335938 267.117188 C 295.1875 243.601562 289.796875 210.851562 266.25 193.996094 C 260.734375 190.09375 254.664062 187.273438 248.09375 185.664062 L 263.832031 164.34375 C 264.390625 163.324219 264.390625 162.082031 263.832031 161.0625 L 256.210938 144.484375 C 255.59375 143.277344 254.414062 142.53125 253.175781 142.5625 L 218.226562 142.5625 " fill-opacity="1" fill-rule="nonzero"/><path stroke-linecap="butt" transform="matrix(0.793184, 0, 0, -0.793184, 16.5215, 331.404969)" fill="none" stroke-linejoin="miter" d="M 238.514036 147.923738 C 250.939234 131.046547 250.939234 108.003542 238.514036 91.126351 C 226.093763 108.003542 226.093763 131.046547 238.514036 147.923738 Z M 277.345857 167.337186 C 303.747555 167.179593 325.076739 145.658343 324.924071 119.25172 C 324.766478 92.845097 303.200905 71.555311 276.799207 71.712903 C 268.047889 71.752302 259.532959 74.214687 252.111329 78.745477 C 270.859933 102.689714 270.859933 136.360375 252.111329 160.304612 C 259.611756 164.953596 268.515742 167.376584 277.345857 167.337186 Z M 199.68714 167.337186 C 208.669922 167.415982 217.421241 164.992994 225.07926 160.304612 C 206.325731 136.360375 206.325731 102.689714 225.07926 78.745477 C 202.499184 64.956117 173.122924 72.023164 159.372963 94.563842 C 145.54913 117.065121 152.576779 146.515253 175.156855 160.304612 C 182.578485 164.835402 191.014618 167.258389 199.68714 167.337186 Z M 276.173761 181.870185 C 310.548664 182.338039 338.905496 154.838116 339.37335 120.384417 C 339.846128 85.970116 312.346205 57.687155 277.966378 57.219302 C 243.517603 56.751449 215.234642 84.251371 214.766789 118.665672 C 214.451604 133.001681 219.376375 146.988031 228.201565 158.236208 C 231.171202 156.128406 233.830578 153.666021 236.169845 150.932773 C 218.908522 128.313299 223.202922 95.972326 245.782998 78.66668 C 268.358149 61.400433 300.861639 65.694833 318.122962 88.314307 C 335.38921 110.928856 331.094809 143.274754 308.357141 160.580399 C 291.248486 173.665516 267.732703 174.719418 249.609545 163.195453 C 247.107762 165.968099 244.45331 168.548679 241.641266 170.853472 C 251.796144 177.886045 263.748563 181.712593 276.173761 181.870185 Z M 200.470178 181.870185 C 234.845081 181.633796 262.576468 153.508428 262.266207 119.094127 C 262.266207 105.191498 257.420232 91.712399 248.826507 80.813881 C 245.935666 82.961081 243.281214 85.423466 240.858227 88.117316 C 258.203271 110.73679 253.903946 143.077763 231.328795 160.383409 C 208.669922 177.689055 176.250154 173.355256 158.983906 150.77518 C 141.638862 128.155706 145.938187 95.814734 168.670931 78.509088 C 185.858382 65.423971 209.295368 64.37007 227.423451 75.854636 C 229.999106 73.08199 232.658483 70.540808 235.391731 68.196617 C 207.10877 48.664974 168.281874 55.815742 148.750231 84.172575 C 129.297385 112.534332 136.329959 151.32183 164.686791 170.853472 C 175.156855 178.078111 187.73472 181.909583 200.470178 181.870185 Z M 294.375715 210.93126 L 308.04688 210.93126 L 288.594034 184.564035 C 287.579531 184.761026 286.6389 184.913694 285.624397 185.031888 Z M 263.517099 210.93126 L 290.470372 210.93126 L 281.79785 185.42587 C 278.517952 185.657334 275.469519 185.657334 272.189621 185.42587 Z M 245.935666 210.93126 L 259.611756 210.93126 L 268.515742 185.031888 C 267.501239 184.913694 266.560608 184.761026 265.546105 184.564035 Z M 252.736775 231.167145 L 258.282067 214.644537 L 245.157552 214.644537 Z M 301.408289 231.167145 L 308.982587 214.644537 L 295.779275 214.644537 Z M 277.030671 232.925288 L 289.76613 214.644537 L 264.920659 214.644537 Z M 280.468162 234.328848 L 298.359855 234.328848 L 292.420581 217.101998 Z M 255.548819 234.328848 L 273.514385 234.328848 L 261.719558 216.515951 Z M 254.297927 238.081524 C 252.736775 238.120922 251.249494 237.18029 250.466455 235.658536 L 241.01582 214.757807 C 240.311577 213.472442 240.311577 211.906365 241.01582 210.620999 L 260.857723 183.741598 C 252.579182 181.712593 244.842367 178.156908 237.967386 173.237061 C 208.280866 194.487449 167.109778 187.651867 145.780594 157.999819 C 124.530207 128.352697 131.326391 87.063415 161.017837 65.813028 C 184.060841 49.369217 214.919457 49.369217 237.967386 65.813028 C 267.580035 44.56264 308.829919 51.398222 330.080306 81.05027 C 351.325769 110.697392 344.529585 151.986674 314.843064 173.237061 C 307.889287 178.156908 300.236193 181.712593 291.952728 183.741598 L 311.794631 210.620999 C 312.498873 211.906365 312.498873 213.472442 311.794631 214.757807 L 302.186402 235.658536 C 301.408289 237.18029 299.921008 238.120922 298.359855 238.081524 Z M 254.297927 238.081524 " stroke="#040606" stroke-width="1.122" stroke-opacity="1" stroke-miterlimit="4"/><path fill="#597548" d="M 247.660156 136.148438 L 253.050781 130.726562 C 253.609375 130.140625 253.609375 129.179688 253.050781 128.621094 C 252.433594 128.03125 251.503906 128.03125 250.945312 128.621094 L 245.554688 134.042969 C 244.933594 134.632812 244.933594 135.5625 245.554688 136.148438 C 246.109375 136.738281 247.039062 136.738281 247.660156 136.148438 " fill-opacity="1" fill-rule="nonzero"/><path stroke-linecap="butt" transform="matrix(0.793184, 0, 0, -0.793184, 16.5215, 331.404969)" fill="none" stroke-linejoin="miter" d="M 291.406078 246.167998 L 298.202263 253.00358 C 298.906505 253.742296 298.906505 254.95379 298.202263 255.658032 C 297.424149 256.401672 296.252053 256.401672 295.547811 255.658032 L 288.751627 248.822449 C 287.968588 248.078809 287.968588 246.906714 288.751627 246.167998 C 289.450944 245.424357 290.62304 245.424357 291.406078 246.167998 Z M 291.406078 246.167998 " stroke="#040606" stroke-width="0.593" stroke-opacity="1" stroke-miterlimit="4"/><path fill="#597548" d="M 226.777344 134.042969 L 221.386719 128.621094 C 220.828125 128.03125 219.898438 128.03125 219.277344 128.621094 C 218.722656 129.179688 218.722656 130.140625 219.277344 130.726562 L 224.671875 136.148438 C 225.289062 136.738281 226.21875 136.738281 226.777344 136.148438 C 227.398438 135.5625 227.398438 134.632812 226.777344 134.042969 " fill-opacity="1" fill-rule="nonzero"/><path stroke-linecap="butt" transform="matrix(0.793184, 0, 0, -0.793184, 16.5215, 331.404969)" fill="none" stroke-linejoin="miter" d="M 265.078252 248.822449 L 258.282067 255.658032 C 257.577825 256.401672 256.40573 256.401672 255.622691 255.658032 C 254.923373 254.95379 254.923373 253.742296 255.622691 253.00358 L 262.4238 246.167998 C 263.201914 245.424357 264.374009 245.424357 265.078252 246.167998 C 265.86129 246.906714 265.86129 248.078809 265.078252 248.822449 Z M 265.078252 248.822449 " stroke="#040606" stroke-width="0.593" stroke-opacity="1" stroke-miterlimit="4"/><g clip-path="url(#7d7697fd38)"><path fill="#597548" d="M 61.632812 96.894531 L 355.234375 96.894531 L 355.234375 317.09375 C 355.234375 319.046875 353.625 320.628906 351.640625 320.660156 L 65.226562 320.660156 C 63.246094 320.628906 61.757812 319.046875 61.757812 317.09375 Z M 74.273438 75.421875 L 271.085938 75.421875 C 274.058594 75.484375 276.414062 77.960938 276.414062 80.9375 C 276.289062 83.789062 273.933594 86.082031 271.085938 86.140625 L 74.273438 86.140625 C 71.300781 86.082031 68.945312 83.601562 68.945312 80.660156 C 69.070312 77.777344 71.425781 75.484375 74.273438 75.421875 Z M 339.742188 75.390625 C 342.71875 75.515625 344.949219 77.902344 344.949219 80.78125 C 345.195312 83.757812 342.84375 86.296875 339.867188 86.484375 C 336.769531 86.667969 334.414062 84.375 334.167969 81.402344 C 334.167969 81.183594 334.167969 81 334.167969 80.78125 C 334.167969 77.808594 336.644531 75.390625 339.496094 75.390625 C 339.621094 75.390625 339.621094 75.390625 339.742188 75.390625 Z M 318.800781 75.390625 C 319.046875 75.390625 319.171875 75.390625 319.417969 75.390625 C 322.269531 75.515625 324.5 77.902344 324.5 80.78125 C 324.253906 83.757812 321.773438 85.988281 318.800781 85.800781 C 316.074219 85.617188 313.964844 83.476562 313.71875 80.78125 C 313.71875 77.902344 315.949219 75.515625 318.921875 75.390625 Z M 298.351562 75.390625 C 298.472656 75.390625 298.597656 75.390625 298.84375 75.390625 C 301.820312 75.515625 304.050781 77.902344 304.050781 80.78125 C 303.804688 83.757812 301.078125 85.925781 298.226562 85.648438 C 295.625 85.398438 293.515625 83.355469 293.269531 80.78125 C 293.269531 77.902344 295.5 75.515625 298.472656 75.390625 Z M 30.773438 39.605469 L 317.3125 39.605469 C 319.292969 39.636719 320.78125 41.246094 320.78125 43.199219 L 320.78125 64.671875 L 64.730469 64.671875 C 56.800781 64.703125 50.355469 71.117188 50.355469 78.984375 L 50.355469 284.871094 L 30.773438 284.871094 C 28.667969 284.839844 27.179688 283.230469 27.179688 281.277344 L 27.179688 43.199219 C 27.179688 41.339844 28.542969 39.761719 30.527344 39.636719 Z M 30.773438 28.882812 C 22.964844 28.882812 16.523438 35.296875 16.523438 43.199219 L 16.523438 281.277344 C 16.523438 289.179688 22.964844 295.59375 30.773438 295.59375 L 50.480469 295.59375 L 50.480469 317.09375 C 50.480469 324.996094 56.925781 331.378906 64.730469 331.410156 L 351.269531 331.410156 C 359.078125 331.378906 365.523438 324.996094 365.523438 317.09375 L 365.523438 78.984375 C 365.523438 71.117188 359.078125 64.703125 351.269531 64.671875 L 331.6875 64.671875 L 331.6875 43.199219 C 331.6875 35.265625 325.242188 28.882812 317.4375 28.882812 C 317.3125 28.882812 317.3125 28.882812 317.3125 28.882812 L 30.773438 28.882812 " fill-opacity="1" fill-rule="nonzero"/></g></svg>