<svg xmlns="http://www.w3.org/2000/svg" xmlns:xlink="http://www.w3.org/1999/xlink" width="500" zoomAndPan="magnify" viewBox="0 0 375 374.999991" height="500" preserveAspectRatio="xMidYMid meet" version="1.0"><defs><clipPath id="88040298e1"><path d="M 20.53125 20.53125 L 354.28125 20.53125 L 354.28125 354.28125 L 20.53125 354.28125 Z M 20.53125 20.53125 " clip-rule="nonzero"/></clipPath><clipPath id="47381ea7e0"><path d="M 168.394531 349.195312 L 207.503906 349.195312 L 207.503906 322.730469 C 207.503906 321.476562 208.410156 320.40625 209.648438 320.199219 C 230.035156 316.804688 249.679688 308.570312 266.453125 296.378906 C 267.472656 295.632812 268.886719 295.746094 269.777344 296.640625 L 288.371094 315.234375 L 316.027344 287.578125 L 297.300781 268.855469 C 296.414062 267.96875 296.296875 266.570312 297.027344 265.546875 C 309.078125 248.675781 317.148438 228.964844 320.371094 208.546875 C 320.570312 207.300781 321.644531 206.378906 322.910156 206.378906 L 349.195312 206.378906 L 349.195312 167.273438 L 322.730469 167.273438 C 321.476562 167.273438 320.402344 166.363281 320.199219 165.125 C 316.804688 144.738281 308.566406 125.09375 296.375 108.324219 C 295.632812 107.300781 295.746094 105.890625 296.636719 104.996094 L 315.230469 86.402344 L 287.578125 58.746094 L 268.855469 77.472656 C 267.96875 78.359375 266.566406 78.476562 265.546875 77.746094 C 248.675781 65.695312 228.964844 57.625 208.546875 54.402344 C 207.300781 54.203125 206.378906 53.128906 206.378906 51.867188 L 206.378906 25.578125 L 167.269531 25.578125 L 167.269531 52.050781 C 167.269531 53.304688 166.363281 54.378906 165.125 54.585938 C 144.746094 57.976562 125.105469 66.210938 108.328125 78.402344 C 107.304688 79.144531 105.894531 79.035156 105 78.140625 L 86.402344 59.542969 L 58.746094 87.195312 L 77.476562 105.921875 C 78.363281 106.8125 78.480469 108.210938 77.75 109.230469 C 65.695312 126.105469 57.621094 145.8125 54.398438 166.226562 C 54.203125 167.476562 53.125 168.394531 51.863281 168.394531 L 25.578125 168.394531 L 25.578125 207.5 L 52.042969 207.5 C 53.296875 207.5 54.371094 208.410156 54.574219 209.648438 C 57.96875 230.035156 66.207031 249.679688 78.398438 266.453125 C 79.140625 267.472656 79.027344 268.886719 78.136719 269.777344 L 59.542969 288.371094 L 87.195312 316.027344 L 105.917969 297.300781 C 106.804688 296.414062 108.207031 296.300781 109.226562 297.027344 C 126.097656 309.078125 145.808594 317.148438 166.226562 320.371094 C 167.472656 320.570312 168.394531 321.644531 168.394531 322.910156 Z M 210.070312 354.332031 L 165.824219 354.332031 C 164.40625 354.332031 163.257812 353.179688 163.257812 351.761719 L 163.257812 325.085938 C 143.542969 321.644531 124.535156 313.859375 108.023438 302.460938 L 89.011719 321.476562 C 88.046875 322.4375 86.34375 322.4375 85.378906 321.476562 L 54.09375 290.1875 C 53.089844 289.183594 53.089844 287.558594 54.09375 286.554688 L 72.964844 267.683594 C 61.425781 251.265625 53.484375 232.324219 49.882812 212.640625 L 23.011719 212.640625 C 21.59375 212.640625 20.441406 211.488281 20.441406 210.070312 L 20.441406 165.824219 C 20.441406 164.40625 21.59375 163.257812 23.011719 163.257812 L 49.683594 163.257812 C 53.121094 143.550781 60.914062 124.542969 72.316406 108.027344 L 53.300781 89.011719 C 52.816406 88.53125 52.546875 87.878906 52.546875 87.195312 C 52.546875 86.511719 52.816406 85.863281 53.300781 85.378906 L 84.585938 54.09375 C 85.589844 53.089844 87.214844 53.089844 88.21875 54.09375 L 107.09375 72.96875 C 123.519531 61.433594 142.460938 53.492188 162.132812 49.894531 L 162.136719 23.011719 C 162.136719 21.59375 163.285156 20.445312 164.703125 20.445312 L 208.949219 20.441406 C 210.367188 20.441406 211.515625 21.59375 211.515625 23.011719 L 211.515625 49.6875 C 231.230469 53.128906 250.238281 60.914062 266.75 72.316406 L 285.761719 53.300781 C 286.726562 52.335938 288.429688 52.335938 289.394531 53.300781 L 320.679688 84.585938 C 321.683594 85.585938 321.683594 87.214844 320.679688 88.21875 L 301.808594 107.089844 C 313.347656 123.507812 321.289062 142.453125 324.890625 162.136719 L 351.761719 162.136719 C 353.179688 162.136719 354.332031 163.285156 354.332031 164.703125 L 354.332031 208.949219 C 354.332031 210.367188 353.179688 211.515625 351.761719 211.515625 L 325.085938 211.515625 C 321.648438 231.230469 313.859375 250.238281 302.460938 266.75 L 321.472656 285.761719 C 321.957031 286.242188 322.226562 286.898438 322.226562 287.578125 C 322.226562 288.261719 321.957031 288.914062 321.472656 289.394531 L 290.1875 320.679688 C 289.183594 321.683594 287.558594 321.683594 286.554688 320.679688 L 267.683594 301.808594 C 251.265625 313.347656 232.320312 321.289062 212.636719 324.890625 L 212.636719 351.761719 C 212.636719 353.179688 211.488281 354.332031 210.070312 354.332031 Z M 210.070312 354.332031 " clip-rule="evenodd"/></clipPath><clipPath id="d493af2882"><path d="M 152 115 L 223 115 L 223 186 L 152 186 Z M 152 115 " clip-rule="nonzero"/></clipPath><clipPath id="cf7df681d3"><path d="M 187.386719 120.945312 C 170.96875 120.945312 157.609375 134.300781 157.609375 150.722656 C 157.609375 167.140625 170.96875 180.496094 187.386719 180.496094 C 203.804688 180.496094 217.164062 167.140625 217.164062 150.722656 C 217.164062 134.300781 203.804688 120.945312 187.386719 120.945312 Z M 187.386719 185.632812 C 168.136719 185.632812 152.472656 169.972656 152.472656 150.722656 C 152.472656 131.46875 168.136719 115.808594 187.386719 115.808594 C 206.636719 115.804688 222.300781 131.46875 222.300781 150.722656 C 222.300781 169.972656 206.636719 185.632812 187.386719 185.632812 Z M 187.386719 185.632812 " clip-rule="evenodd"/></clipPath><clipPath id="f30445f765"><path d="M 118 188 L 257 188 L 257 259 L 118 259 Z M 118 188 " clip-rule="nonzero"/></clipPath><clipPath id="7f0cdfb211"><path d="M 123.328125 253.832031 L 251.445312 253.832031 L 251.445312 233.691406 C 251.445312 212.566406 235.257812 195.105469 214.359375 193.378906 C 207.695312 201.492188 197.941406 206.121094 187.386719 206.121094 C 176.832031 206.121094 167.078125 201.496094 160.414062 193.378906 C 139.515625 195.105469 123.328125 212.570312 123.328125 233.691406 Z M 254.011719 258.964844 L 120.761719 258.964844 C 119.34375 258.964844 118.191406 257.816406 118.191406 256.398438 L 118.191406 233.691406 C 118.191406 209.390625 137.199219 189.390625 161.460938 188.160156 C 162.304688 188.113281 163.125 188.496094 163.640625 189.171875 C 169.328125 196.679688 177.984375 200.984375 187.386719 200.984375 C 196.789062 200.984375 205.445312 196.679688 211.132812 189.171875 C 211.648438 188.496094 212.460938 188.113281 213.3125 188.160156 C 237.574219 189.390625 256.582031 209.390625 256.582031 233.691406 L 256.582031 256.398438 C 256.582031 257.816406 255.429688 258.96875 254.011719 258.964844 Z M 254.011719 258.964844 " clip-rule="evenodd"/></clipPath><clipPath id="9945adb781"><path d="M 68 68 L 306 68 L 306 306 L 68 306 Z M 68 68 " clip-rule="nonzero"/></clipPath><clipPath id="24e5099189"><path d="M 187.386719 74.023438 C 124.878906 74.023438 74.023438 124.878906 74.023438 187.386719 C 74.023438 249.894531 124.878906 300.75 187.386719 300.75 C 249.894531 300.75 300.746094 249.894531 300.746094 187.386719 C 300.746094 124.878906 249.894531 74.027344 187.386719 74.023438 Z M 187.386719 305.886719 C 122.046875 305.886719 68.890625 252.726562 68.890625 187.386719 C 68.890625 122.046875 122.046875 68.890625 187.386719 68.890625 C 252.726562 68.890625 305.882812 122.046875 305.882812 187.386719 C 305.882812 252.726562 252.726562 305.886719 187.386719 305.886719 Z M 187.386719 305.886719 " clip-rule="evenodd"/></clipPath><clipPath id="8f5a2c10eb"><path d="M 151.003906 79.253906 L 260 79.253906 L 260 233 L 151.003906 233 Z M 151.003906 79.253906 " clip-rule="nonzero"/></clipPath><clipPath id="2eec66fc7e"><path d="M 151.003906 115 L 259 115 L 259 213 L 151.003906 213 Z M 151.003906 115 " clip-rule="nonzero"/></clipPath></defs><g clip-path="url(#88040298e1)"><g clip-path="url(#47381ea7e0)"><path fill="#18795b" d="M 20.53125 20.53125 L 20.53125 354.28125 L 354.28125 354.28125 L 354.28125 20.53125 Z M 20.53125 20.53125 " fill-opacity="1" fill-rule="nonzero"/></g></g><g clip-path="url(#d493af2882)"><g clip-path="url(#cf7df681d3)"><path fill="#18795b" d="M 152.472656 115.804688 L 152.472656 185.632812 L 222.300781 185.632812 L 222.300781 115.804688 Z M 152.472656 115.804688 " fill-opacity="1" fill-rule="nonzero"/></g></g><g clip-path="url(#f30445f765)"><g clip-path="url(#7f0cdfb211)"><path fill="#18795b" d="M 118.191406 188.113281 L 118.191406 258.96875 L 256.582031 258.96875 L 256.582031 188.113281 Z M 118.191406 188.113281 " fill-opacity="1" fill-rule="nonzero"/></g></g><g clip-path="url(#9945adb781)"><g clip-path="url(#24e5099189)"><path fill="#18795b" d="M 68.890625 68.890625 L 68.890625 305.886719 L 305.882812 305.886719 L 305.882812 68.890625 Z M 68.890625 68.890625 " fill-opacity="1" fill-rule="nonzero"/></g></g><g clip-path="url(#8f5a2c10eb)"><path fill="#c1ff72" d="M 248.132812 142.703125 L 259.148438 136.171875 L 259.335938 136.261719 C 259.378906 136.28125 259.425781 136.289062 259.46875 136.289062 C 259.582031 136.289062 259.695312 136.222656 259.746094 136.113281 C 259.816406 135.960938 259.75 135.777344 259.597656 135.703125 L 259.324219 135.574219 L 256.058594 126.4375 L 256.175781 126.355469 C 256.316406 126.261719 256.347656 126.070312 256.25 125.929688 C 256.152344 125.792969 255.960938 125.757812 255.824219 125.855469 L 255.679688 125.957031 L 248.570312 122.625 L 248.554688 122.449219 C 248.542969 122.320312 248.460938 122.214844 248.34375 122.179688 C 248.242188 122.117188 248.105469 122.117188 248.003906 122.1875 L 247.859375 122.289062 L 240.75 118.957031 L 240.734375 118.78125 C 240.71875 118.613281 240.574219 118.488281 240.402344 118.5 C 240.234375 118.515625 240.109375 118.664062 240.121094 118.832031 L 240.128906 118.914062 L 230.953125 122.277344 L 230.679688 122.148438 C 230.523438 122.074219 230.34375 122.140625 230.269531 122.296875 C 230.199219 122.449219 230.265625 122.632812 230.417969 122.703125 L 230.605469 122.792969 L 232.632812 135.433594 C 231.636719 137.5625 231.589844 139.890625 232.320312 141.941406 C 228.578125 140.90625 224.761719 140.515625 221.015625 140.710938 C 216.464844 126.15625 202.878906 115.589844 186.824219 115.589844 C 167.039062 115.589844 151.003906 131.628906 151.003906 151.410156 C 151.003906 171.191406 167.039062 187.226562 186.824219 187.226562 C 187.441406 187.226562 188.054688 187.210938 188.667969 187.179688 C 191.566406 196.425781 198.179688 204.472656 207.644531 208.910156 C 225.554688 217.304688 246.882812 209.59375 255.28125 191.679688 C 262.796875 175.648438 257.394531 156.882812 243.332031 147.101562 C 245.378906 146.351562 247.136719 144.828125 248.132812 142.703125 M 187.246094 180.460938 C 187.105469 180.464844 186.964844 180.46875 186.824219 180.46875 C 170.800781 180.46875 157.765625 167.433594 157.765625 151.410156 C 157.765625 135.386719 170.800781 122.351562 186.824219 122.351562 C 199.449219 122.351562 210.21875 130.449219 214.21875 141.722656 C 204.113281 144.234375 195.179688 151.109375 190.414062 161.273438 C 187.503906 167.488281 186.53125 174.109375 187.246094 180.460938 Z M 196.535156 164.144531 C 200.375 155.957031 207.570312 150.394531 215.714844 148.320312 C 215.824219 149.335938 215.878906 150.367188 215.878906 151.410156 C 215.878906 164.96875 206.542969 176.386719 193.960938 179.578125 C 193.40625 174.460938 194.195312 169.136719 196.535156 164.144531 Z M 249.160156 188.8125 C 242.359375 203.320312 225.023438 209.589844 210.511719 202.789062 C 203.195312 199.359375 197.976562 193.25 195.472656 186.175781 C 211.074219 182.304688 222.640625 168.210938 222.640625 151.410156 C 222.640625 150.0625 222.5625 148.734375 222.417969 147.425781 C 226.695312 147.355469 231.054688 148.230469 235.179688 150.167969 C 249.6875 156.96875 255.960938 174.304688 249.160156 188.8125 Z M 221.210938 109.949219 L 228.632812 111.335938 L 221.210938 112.726562 L 219.824219 120.144531 L 218.4375 112.726562 L 211.015625 111.335938 L 218.4375 109.949219 L 219.824219 102.53125 Z M 233.101562 95.425781 L 221.503906 93.257812 L 233.101562 91.085938 L 235.269531 79.492188 L 237.441406 91.085938 L 249.035156 93.257812 L 237.441406 95.425781 L 235.269531 107.023438 Z M 168.621094 203.496094 L 161.199219 204.886719 L 159.8125 212.304688 L 158.425781 204.886719 L 151.003906 203.496094 L 158.425781 202.109375 L 159.8125 194.6875 L 161.199219 202.109375 Z M 180.0625 216.773438 L 191.660156 218.941406 L 180.0625 221.113281 L 177.894531 232.707031 L 175.722656 221.113281 L 164.128906 218.941406 L 175.722656 216.773438 L 177.894531 205.175781 Z M 180.0625 216.773438 " fill-opacity="1" fill-rule="nonzero"/></g><g clip-path="url(#2eec66fc7e)"><path fill="#18795b" d="M 243.332031 147.101562 C 245.378906 146.351562 247.136719 144.828125 248.132812 142.703125 L 243.296875 140.433594 L 243.273438 140.46875 C 243.214844 140.558594 243.117188 140.609375 243.015625 140.609375 C 242.957031 140.609375 242.898438 140.59375 242.847656 140.558594 C 242.71875 140.476562 242.679688 140.308594 242.742188 140.171875 L 238.027344 137.964844 C 237.976562 138.074219 237.871094 138.140625 237.753906 138.140625 C 237.722656 138.140625 237.691406 138.136719 237.660156 138.128906 C 237.5 138.078125 237.410156 137.90625 237.460938 137.742188 L 237.472656 137.703125 L 236.277344 137.144531 L 232.632812 135.433594 C 231.636719 137.5625 231.589844 139.890625 232.320312 141.941406 C 228.578125 140.90625 224.761719 140.515625 221.015625 140.710938 C 216.464844 126.15625 202.878906 115.589844 186.824219 115.589844 C 167.039062 115.589844 151.003906 131.628906 151.003906 151.410156 C 151.003906 171.191406 167.039062 187.226562 186.824219 187.226562 C 187.441406 187.226562 188.054688 187.210938 188.667969 187.179688 C 191.566406 196.425781 198.179688 204.472656 207.644531 208.910156 C 225.554688 217.304688 246.882812 209.59375 255.28125 191.679688 C 262.796875 175.648438 257.394531 156.882812 243.332031 147.101562 Z M 187.246094 180.460938 C 187.105469 180.464844 186.964844 180.46875 186.824219 180.46875 C 170.800781 180.46875 157.765625 167.433594 157.765625 151.410156 C 157.765625 135.386719 170.800781 122.351562 186.824219 122.351562 C 199.449219 122.351562 210.21875 130.449219 214.21875 141.722656 C 204.113281 144.234375 195.179688 151.109375 190.414062 161.273438 C 187.503906 167.488281 186.53125 174.109375 187.246094 180.460938 Z M 196.535156 164.144531 C 200.375 155.957031 207.570312 150.394531 215.714844 148.320312 C 215.824219 149.335938 215.878906 150.367188 215.878906 151.410156 C 215.878906 164.96875 206.542969 176.386719 193.960938 179.578125 C 193.40625 174.460938 194.195312 169.136719 196.535156 164.144531 Z M 249.160156 188.8125 C 242.359375 203.320312 225.023438 209.589844 210.511719 202.789062 C 203.195312 199.359375 197.976562 193.25 195.472656 186.175781 C 211.074219 182.304688 222.640625 168.210938 222.640625 151.410156 C 222.640625 150.0625 222.5625 148.734375 222.417969 147.425781 C 226.695312 147.355469 231.054688 148.230469 235.179688 150.167969 C 249.6875 156.96875 255.960938 174.304688 249.160156 188.8125 Z M 249.160156 188.8125 " fill-opacity="1" fill-rule="nonzero"/></g><path fill="#70af0c" d="M 259.597656 135.703125 L 259.324219 135.574219 L 249.5625 131 L 256.058594 126.4375 L 256.175781 126.355469 C 256.316406 126.261719 256.347656 126.070312 256.25 125.929688 C 256.152344 125.792969 255.960938 125.757812 255.824219 125.855469 L 255.679688 125.957031 L 249.214844 130.496094 L 248.570312 122.625 L 248.554688 122.449219 C 248.542969 122.320312 248.460938 122.214844 248.34375 122.179688 C 248.242188 122.117188 248.105469 122.117188 248.003906 122.1875 L 247.859375 122.289062 L 241.394531 126.828125 L 240.75 118.957031 L 240.734375 118.78125 C 240.71875 118.613281 240.574219 118.488281 240.402344 118.5 C 240.234375 118.515625 240.109375 118.664062 240.121094 118.832031 L 240.128906 118.914062 L 240.785156 126.882812 L 230.953125 122.277344 L 230.679688 122.148438 C 230.523438 122.074219 230.34375 122.140625 230.269531 122.296875 C 230.199219 122.449219 230.265625 122.632812 230.417969 122.703125 L 230.605469 122.792969 L 240.691406 127.519531 L 237.472656 137.703125 L 237.460938 137.742188 C 237.410156 137.902344 237.5 138.074219 237.660156 138.128906 C 237.691406 138.136719 237.722656 138.140625 237.753906 138.140625 C 237.871094 138.140625 237.976562 138.070312 238.027344 137.964844 C 238.035156 137.953125 238.042969 137.941406 238.046875 137.925781 L 241.25 127.78125 L 248.507812 131.183594 L 242.757812 140.136719 C 242.75 140.148438 242.746094 140.160156 242.742188 140.171875 C 242.679688 140.308594 242.71875 140.476562 242.847656 140.558594 C 242.898438 140.589844 242.957031 140.609375 243.015625 140.609375 C 243.117188 140.609375 243.214844 140.558594 243.273438 140.464844 L 243.296875 140.433594 L 249.066406 131.445312 L 259.148438 136.171875 L 259.335938 136.257812 C 259.378906 136.28125 259.425781 136.289062 259.46875 136.289062 C 259.582031 136.289062 259.695312 136.222656 259.746094 136.113281 C 259.816406 135.957031 259.75 135.777344 259.597656 135.703125 Z M 241.742188 127.335938 L 247.980469 122.953125 L 248.605469 130.550781 Z M 241.742188 127.335938 " fill-opacity="1" fill-rule="nonzero"/></svg>