<svg xmlns="http://www.w3.org/2000/svg" xmlns:xlink="http://www.w3.org/1999/xlink" width="500" zoomAndPan="magnify" viewBox="0 0 375 374.999991" height="500" preserveAspectRatio="xMidYMid meet" version="1.0"><defs><clipPath id="d36d91a3ea"><path d="M 110 107 L 158 107 L 158 141 L 110 141 Z M 110 107 " clip-rule="nonzero"/></clipPath><clipPath id="7c7680da1f"><path d="M 77.355469 5.144531 L 318.394531 20.074219 L 297.480469 357.679688 L 56.441406 342.746094 Z M 77.355469 5.144531 " clip-rule="nonzero"/></clipPath><clipPath id="7dcf56729d"><path d="M 77.355469 5.144531 L 318.394531 20.074219 L 297.480469 357.679688 L 56.441406 342.746094 Z M 77.355469 5.144531 " clip-rule="nonzero"/></clipPath><clipPath id="0dfb362bf9"><path d="M 175 130 L 279 130 L 279 150 L 175 150 Z M 175 130 " clip-rule="nonzero"/></clipPath><clipPath id="60a6ae2107"><path d="M 77.355469 5.144531 L 318.394531 20.074219 L 297.480469 357.679688 L 56.441406 342.746094 Z M 77.355469 5.144531 " clip-rule="nonzero"/></clipPath><clipPath id="91aba84cf5"><path d="M 77.355469 5.144531 L 318.394531 20.074219 L 297.480469 357.679688 L 56.441406 342.746094 Z M 77.355469 5.144531 " clip-rule="nonzero"/></clipPath><clipPath id="9bbbb71548"><path d="M 107 162 L 155 162 L 155 195 L 107 195 Z M 107 162 " clip-rule="nonzero"/></clipPath><clipPath id="3ea2111c83"><path d="M 77.355469 5.144531 L 318.394531 20.074219 L 297.480469 357.679688 L 56.441406 342.746094 Z M 77.355469 5.144531 " clip-rule="nonzero"/></clipPath><clipPath id="2a6cc57a53"><path d="M 77.355469 5.144531 L 318.394531 20.074219 L 297.480469 357.679688 L 56.441406 342.746094 Z M 77.355469 5.144531 " clip-rule="nonzero"/></clipPath><clipPath id="7da55973d1"><path d="M 171 184 L 275 184 L 275 204 L 171 204 Z M 171 184 " clip-rule="nonzero"/></clipPath><clipPath id="bb53ff821f"><path d="M 77.355469 5.144531 L 318.394531 20.074219 L 297.480469 357.679688 L 56.441406 342.746094 Z M 77.355469 5.144531 " clip-rule="nonzero"/></clipPath><clipPath id="5400818aba"><path d="M 77.355469 5.144531 L 318.394531 20.074219 L 297.480469 357.679688 L 56.441406 342.746094 Z M 77.355469 5.144531 " clip-rule="nonzero"/></clipPath><clipPath id="c625bf031c"><path d="M 103 216 L 151 216 L 151 249 L 103 249 Z M 103 216 " clip-rule="nonzero"/></clipPath><clipPath id="d0a0478a1c"><path d="M 77.355469 5.144531 L 318.394531 20.074219 L 297.480469 357.679688 L 56.441406 342.746094 Z M 77.355469 5.144531 " clip-rule="nonzero"/></clipPath><clipPath id="5a32022050"><path d="M 77.355469 5.144531 L 318.394531 20.074219 L 297.480469 357.679688 L 56.441406 342.746094 Z M 77.355469 5.144531 " clip-rule="nonzero"/></clipPath><clipPath id="069deddb55"><path d="M 168 239 L 272 239 L 272 258 L 168 258 Z M 168 239 " clip-rule="nonzero"/></clipPath><clipPath id="d88b5adfa1"><path d="M 77.355469 5.144531 L 318.394531 20.074219 L 297.480469 357.679688 L 56.441406 342.746094 Z M 77.355469 5.144531 " clip-rule="nonzero"/></clipPath><clipPath id="5cb875b20c"><path d="M 77.355469 5.144531 L 318.394531 20.074219 L 297.480469 357.679688 L 56.441406 342.746094 Z M 77.355469 5.144531 " clip-rule="nonzero"/></clipPath><clipPath id="6c89cd9894"><path d="M 100 270 L 148 270 L 148 304 L 100 304 Z M 100 270 " clip-rule="nonzero"/></clipPath><clipPath id="30baa64e7e"><path d="M 77.355469 5.144531 L 318.394531 20.074219 L 297.480469 357.679688 L 56.441406 342.746094 Z M 77.355469 5.144531 " clip-rule="nonzero"/></clipPath><clipPath id="856c925888"><path d="M 77.355469 5.144531 L 318.394531 20.074219 L 297.480469 357.679688 L 56.441406 342.746094 Z M 77.355469 5.144531 " clip-rule="nonzero"/></clipPath><clipPath id="ad17b67e17"><path d="M 165 293 L 268 293 L 268 312 L 165 312 Z M 165 293 " clip-rule="nonzero"/></clipPath><clipPath id="eec47fccfe"><path d="M 77.355469 5.144531 L 318.394531 20.074219 L 297.480469 357.679688 L 56.441406 342.746094 Z M 77.355469 5.144531 " clip-rule="nonzero"/></clipPath><clipPath id="eda2401a67"><path d="M 77.355469 5.144531 L 318.394531 20.074219 L 297.480469 357.679688 L 56.441406 342.746094 Z M 77.355469 5.144531 " clip-rule="nonzero"/></clipPath><clipPath id="8997cc74f6"><path d="M 57 37 L 315 37 L 315 356 L 57 356 Z M 57 37 " clip-rule="nonzero"/></clipPath><clipPath id="522266ee7f"><path d="M 77.355469 5.144531 L 318.394531 20.074219 L 297.480469 357.679688 L 56.441406 342.746094 Z M 77.355469 5.144531 " clip-rule="nonzero"/></clipPath><clipPath id="fbb2190878"><path d="M 77.355469 5.144531 L 318.394531 20.074219 L 297.480469 357.679688 L 56.441406 342.746094 Z M 77.355469 5.144531 " clip-rule="nonzero"/></clipPath><clipPath id="0d389e09c7"><path d="M 170 13 L 222 13 L 222 65 L 170 65 Z M 170 13 " clip-rule="nonzero"/></clipPath><clipPath id="fee32fa061"><path d="M 77.355469 5.144531 L 318.394531 20.074219 L 297.480469 357.679688 L 56.441406 342.746094 Z M 77.355469 5.144531 " clip-rule="nonzero"/></clipPath><clipPath id="8edaa7fd13"><path d="M 77.355469 5.144531 L 318.394531 20.074219 L 297.480469 357.679688 L 56.441406 342.746094 Z M 77.355469 5.144531 " clip-rule="nonzero"/></clipPath></defs><g clip-path="url(#d36d91a3ea)"><g clip-path="url(#7c7680da1f)"><g clip-path="url(#7dcf56729d)"><path fill="#18795b" d="M 118.722656 117.894531 C 118.480469 117.671875 118.105469 117.671875 117.867188 117.894531 C 116.503906 119.175781 112.269531 123.148438 110.828125 124.5 C 110.699219 124.621094 110.628906 124.785156 110.628906 124.957031 C 110.628906 125.132812 110.699219 125.296875 110.828125 125.417969 C 113.246094 127.683594 123.910156 137.691406 126.644531 140.257812 C 127.011719 140.597656 127.578125 140.613281 127.960938 140.289062 C 132.0625 136.800781 153.71875 118.378906 157.378906 115.257812 C 157.515625 115.140625 157.601562 114.976562 157.605469 114.796875 C 157.613281 114.617188 157.550781 114.445312 157.421875 114.316406 C 156.117188 112.972656 152.519531 109.28125 151.285156 108.019531 C 151.046875 107.777344 150.667969 107.757812 150.40625 107.972656 C 147.550781 110.378906 132.230469 123.265625 128.835938 126.121094 C 128.453125 126.441406 127.894531 126.425781 127.527344 126.089844 C 125.664062 124.359375 120.285156 119.347656 118.722656 117.894531 Z M 118.722656 117.894531 " fill-opacity="1" fill-rule="evenodd"/></g></g></g><g clip-path="url(#0dfb362bf9)"><g clip-path="url(#60a6ae2107)"><g clip-path="url(#91aba84cf5)"><path fill="#18795b" d="M 278.019531 137.667969 C 278.03125 137.472656 277.964844 137.285156 277.839844 137.140625 C 277.710938 137 277.535156 136.910156 277.339844 136.898438 C 268.714844 136.363281 185.382812 131.203125 176.753906 130.667969 C 176.5625 130.65625 176.375 130.722656 176.230469 130.847656 C 176.085938 130.976562 176 131.152344 175.988281 131.347656 C 175.851562 133.542969 175.441406 140.121094 175.308594 142.3125 C 175.296875 142.503906 175.359375 142.695312 175.488281 142.835938 C 175.613281 142.980469 175.792969 143.070312 175.984375 143.082031 C 184.613281 143.617188 267.945312 148.777344 276.570312 149.3125 C 276.765625 149.324219 276.953125 149.257812 277.097656 149.132812 C 277.242188 149.003906 277.328125 148.824219 277.339844 148.632812 C 277.476562 146.441406 277.882812 139.863281 278.019531 137.667969 Z M 278.019531 137.667969 " fill-opacity="1" fill-rule="evenodd"/></g></g></g><g clip-path="url(#9bbbb71548)"><g clip-path="url(#3ea2111c83)"><g clip-path="url(#2a6cc57a53)"><path fill="#18795b" d="M 115.367188 172.074219 C 115.125 171.851562 114.75 171.851562 114.507812 172.074219 C 113.148438 173.355469 108.914062 177.328125 107.46875 178.679688 C 107.34375 178.796875 107.273438 178.964844 107.273438 179.136719 C 107.273438 179.3125 107.34375 179.476562 107.472656 179.597656 C 109.886719 181.863281 120.554688 191.871094 123.289062 194.4375 C 123.65625 194.777344 124.222656 194.792969 124.605469 194.46875 C 128.707031 190.980469 150.363281 172.558594 154.023438 169.4375 C 154.160156 169.320312 154.242188 169.15625 154.25 168.976562 C 154.257812 168.796875 154.195312 168.625 154.066406 168.496094 C 152.761719 167.152344 149.164062 163.460938 147.929688 162.195312 C 147.691406 161.953125 147.308594 161.9375 147.050781 162.152344 C 144.195312 164.558594 128.875 177.445312 125.476562 180.300781 C 125.09375 180.621094 124.539062 180.605469 124.171875 180.265625 C 122.308594 178.535156 116.929688 173.527344 115.367188 172.074219 Z M 115.367188 172.074219 " fill-opacity="1" fill-rule="evenodd"/></g></g></g><g clip-path="url(#7da55973d1)"><g clip-path="url(#bb53ff821f)"><g clip-path="url(#5400818aba)"><path fill="#18795b" d="M 274.664062 191.839844 C 274.675781 191.648438 274.609375 191.460938 274.484375 191.316406 C 274.355469 191.171875 274.179688 191.085938 273.984375 191.074219 C 265.359375 190.539062 182.027344 185.375 173.398438 184.84375 C 173.207031 184.828125 173.019531 184.894531 172.875 185.023438 C 172.730469 185.148438 172.644531 185.328125 172.628906 185.519531 C 172.496094 187.714844 172.085938 194.296875 171.953125 196.488281 C 171.941406 196.679688 172.003906 196.867188 172.132812 197.011719 C 172.257812 197.15625 172.4375 197.242188 172.628906 197.253906 C 181.257812 197.789062 264.589844 202.953125 273.214844 203.484375 C 273.410156 203.5 273.597656 203.433594 273.742188 203.304688 C 273.882812 203.179688 273.972656 203 273.984375 202.808594 C 274.121094 200.617188 274.527344 194.035156 274.664062 191.839844 Z M 274.664062 191.839844 " fill-opacity="1" fill-rule="evenodd"/></g></g></g><g clip-path="url(#c625bf031c)"><g clip-path="url(#d0a0478a1c)"><g clip-path="url(#5a32022050)"><path fill="#18795b" d="M 112.011719 226.25 C 111.769531 226.027344 111.394531 226.027344 111.152344 226.25 C 109.792969 227.53125 105.558594 231.5 104.113281 232.855469 C 103.984375 232.972656 103.917969 233.136719 103.917969 233.3125 C 103.914062 233.488281 103.988281 233.652344 104.117188 233.769531 C 106.53125 236.035156 117.195312 246.042969 119.933594 248.609375 C 120.300781 248.953125 120.867188 248.96875 121.25 248.644531 C 125.351562 245.152344 147.007812 226.730469 150.667969 223.613281 C 150.804688 223.492188 150.886719 223.328125 150.894531 223.152344 C 150.898438 222.972656 150.839844 222.796875 150.710938 222.667969 C 149.402344 221.324219 145.808594 217.632812 144.574219 216.371094 C 144.335938 216.128906 143.953125 216.109375 143.695312 216.328125 C 140.835938 218.730469 125.519531 231.617188 122.121094 234.472656 C 121.738281 234.792969 121.183594 234.777344 120.816406 234.441406 C 118.953125 232.714844 113.574219 227.707031 112.011719 226.25 Z M 112.011719 226.25 " fill-opacity="1" fill-rule="evenodd"/></g></g></g><g clip-path="url(#069deddb55)"><g clip-path="url(#d88b5adfa1)"><g clip-path="url(#5cb875b20c)"><path fill="#18795b" d="M 271.308594 246.019531 C 271.320312 245.828125 271.253906 245.640625 271.128906 245.496094 C 271 245.351562 270.820312 245.265625 270.628906 245.25 C 262.003906 244.71875 178.667969 239.554688 170.042969 239.019531 C 169.851562 239.007812 169.664062 239.074219 169.519531 239.203125 C 169.375 239.328125 169.285156 239.507812 169.273438 239.699219 C 169.140625 241.894531 168.730469 248.476562 168.59375 250.667969 C 168.582031 250.859375 168.648438 251.046875 168.777344 251.191406 C 168.902344 251.335938 169.082031 251.421875 169.273438 251.433594 C 177.902344 251.96875 261.234375 257.132812 269.859375 257.664062 C 270.054688 257.675781 270.242188 257.613281 270.386719 257.484375 C 270.527344 257.359375 270.617188 257.179688 270.628906 256.988281 C 270.765625 254.796875 271.171875 248.214844 271.308594 246.019531 Z M 271.308594 246.019531 " fill-opacity="1" fill-rule="evenodd"/></g></g></g><g clip-path="url(#6c89cd9894)"><g clip-path="url(#30baa64e7e)"><g clip-path="url(#856c925888)"><path fill="#18795b" d="M 108.65625 280.429688 C 108.414062 280.203125 108.039062 280.207031 107.796875 280.429688 C 106.433594 281.710938 102.203125 285.679688 100.757812 287.035156 C 100.628906 287.152344 100.5625 287.316406 100.5625 287.492188 C 100.558594 287.664062 100.632812 287.828125 100.761719 287.949219 C 103.175781 290.214844 113.839844 300.222656 116.578125 302.789062 C 116.945312 303.132812 117.511719 303.148438 117.894531 302.824219 C 121.992188 299.332031 143.648438 280.910156 147.3125 277.789062 C 147.449219 277.671875 147.53125 277.507812 147.539062 277.332031 C 147.542969 277.152344 147.480469 276.976562 147.355469 276.847656 C 146.046875 275.503906 142.449219 271.8125 141.214844 270.550781 C 140.980469 270.308594 140.597656 270.289062 140.335938 270.507812 C 137.480469 272.910156 122.164062 285.796875 118.765625 288.652344 C 118.382812 288.972656 117.828125 288.957031 117.460938 288.621094 C 115.597656 286.890625 110.214844 281.878906 108.65625 280.429688 Z M 108.65625 280.429688 " fill-opacity="1" fill-rule="evenodd"/></g></g></g><g clip-path="url(#ad17b67e17)"><g clip-path="url(#eec47fccfe)"><g clip-path="url(#eda2401a67)"><path fill="#18795b" d="M 267.953125 300.199219 C 267.964844 300.007812 267.898438 299.820312 267.769531 299.675781 C 267.644531 299.53125 267.464844 299.441406 267.273438 299.429688 C 258.648438 298.898438 175.3125 293.734375 166.6875 293.199219 C 166.492188 293.1875 166.304688 293.253906 166.164062 293.382812 C 166.019531 293.507812 165.929688 293.6875 165.917969 293.878906 C 165.78125 296.074219 165.375 302.65625 165.238281 304.84375 C 165.226562 305.039062 165.292969 305.226562 165.421875 305.371094 C 165.546875 305.511719 165.726562 305.601562 165.917969 305.613281 C 174.542969 306.148438 257.878906 311.308594 266.503906 311.84375 C 266.695312 311.855469 266.886719 311.789062 267.027344 311.664062 C 267.171875 311.539062 267.261719 311.359375 267.273438 311.164062 C 267.410156 308.96875 267.816406 302.390625 267.953125 300.199219 Z M 267.953125 300.199219 " fill-opacity="1" fill-rule="evenodd"/></g></g></g><g clip-path="url(#8997cc74f6)"><g clip-path="url(#522266ee7f)"><g clip-path="url(#fbb2190878)"><path fill="#18795b" d="M 314.582031 82.28125 C 314.59375 82.03125 314.601562 81.777344 314.609375 81.527344 C 314.804688 70.839844 305.839844 61.621094 295.695312 60.902344 C 283.851562 60.128906 272.003906 59.359375 260.152344 58.597656 L 260.628906 50.867188 C 260.816406 47.867188 258.535156 45.285156 255.535156 45.097656 C 246.882812 44.5625 228.941406 43.453125 209.324219 42.238281 C 207.933594 48.519531 202.152344 53.046875 195.527344 52.636719 C 188.902344 52.226562 183.71875 47.019531 183.117188 40.613281 C 163.5 39.398438 145.558594 38.285156 136.910156 37.75 C 133.90625 37.566406 131.324219 39.847656 131.140625 42.847656 L 130.660156 50.574219 C 118.8125 49.867188 106.960938 49.164062 95.101562 48.476562 C 83.886719 47.882812 74.457031 57 73.722656 67.359375 C 68.183594 152.125 62.929688 236.90625 57.96875 321.699219 C 57.386719 332.742188 66.371094 342.328125 76.855469 343.078125 C 143.710938 347.410156 210.578125 351.550781 277.453125 355.503906 C 277.660156 355.515625 277.871094 355.527344 278.082031 355.527344 C 288.738281 355.792969 298.085938 346.933594 298.832031 336.617188 C 304.273438 251.847656 309.523438 167.074219 314.582031 82.28125 Z M 286.039062 335.75 C 285.746094 339.773438 282.050781 342.886719 278.207031 342.707031 C 211.34375 339.210938 144.535156 334.617188 77.71875 330.289062 C 73.691406 330 70.582031 326.304688 70.761719 322.457031 C 75.242188 237.671875 80.96875 152.953125 86.507812 68.230469 C 86.800781 64.125 90.558594 61.046875 94.441406 61.277344 C 106.3125 62.011719 118.1875 62.738281 130.058594 63.464844 C 130.800781 71.070312 136.976562 77.226562 144.847656 77.714844 C 169.746094 79.257812 217.8125 82.234375 242.710938 83.777344 C 250.605469 84.265625 257.507812 78.886719 259.164062 71.398438 C 271.050781 72.148438 282.9375 72.914062 294.820312 73.691406 C 298.839844 73.976562 301.960938 77.664062 301.78125 81.519531 C 297.398438 166.3125 291.480469 251.019531 286.039062 335.75 Z M 286.039062 335.75 " fill-opacity="1" fill-rule="evenodd"/></g></g></g><g clip-path="url(#0d389e09c7)"><g clip-path="url(#fee32fa061)"><g clip-path="url(#8edaa7fd13)"><path fill="#18795b" d="M 197.929688 13.765625 C 212.050781 14.640625 222.804688 26.8125 221.929688 40.933594 C 221.054688 55.054688 208.882812 65.808594 194.761719 64.933594 C 180.640625 64.058594 169.886719 51.886719 170.761719 37.765625 C 171.636719 23.644531 183.8125 12.890625 197.929688 13.765625 Z M 197.167969 26.074219 C 204.496094 26.527344 210.082031 32.851562 209.625 40.179688 C 209.171875 47.507812 202.851562 53.089844 195.523438 52.636719 C 188.195312 52.183594 182.609375 45.859375 183.0625 38.53125 C 183.515625 31.203125 189.839844 25.621094 197.167969 26.074219 Z M 197.167969 26.074219 " fill-opacity="1" fill-rule="evenodd"/></g></g></g></svg>