<svg xmlns="http://www.w3.org/2000/svg" xmlns:xlink="http://www.w3.org/1999/xlink" width="500" zoomAndPan="magnify" viewBox="0 0 375 374.999991" height="500" preserveAspectRatio="xMidYMid meet" version="1.0"><defs><clipPath id="33b49cf414"><path d="M 140 33 L 312 33 L 312 102 L 140 102 Z M 140 33 " clip-rule="nonzero"/></clipPath><clipPath id="b5b94f02d9"><path d="M 141.789062 29.800781 L 314.757812 79.621094 L 232.972656 363.578125 L 60.003906 313.757812 Z M 141.789062 29.800781 " clip-rule="nonzero"/></clipPath><clipPath id="22af3659eb"><path d="M 141.789062 29.800781 L 314.757812 79.621094 L 232.972656 363.578125 L 60.003906 313.757812 Z M 141.789062 29.800781 " clip-rule="nonzero"/></clipPath><clipPath id="8fe459ba00"><path d="M 77 52 L 177 52 L 177 298 L 77 298 Z M 77 52 " clip-rule="nonzero"/></clipPath><clipPath id="b978b83b5e"><path d="M 141.789062 29.800781 L 314.757812 79.621094 L 232.972656 363.578125 L 60.003906 313.757812 Z M 141.789062 29.800781 " clip-rule="nonzero"/></clipPath><clipPath id="924eae45c5"><path d="M 141.789062 29.800781 L 314.757812 79.621094 L 232.972656 363.578125 L 60.003906 313.757812 Z M 141.789062 29.800781 " clip-rule="nonzero"/></clipPath><clipPath id="3d33e6d081"><path d="M 197 95 L 298 95 L 298 341 L 197 341 Z M 197 95 " clip-rule="nonzero"/></clipPath><clipPath id="09962eaa04"><path d="M 141.789062 29.800781 L 314.757812 79.621094 L 232.972656 363.578125 L 60.003906 313.757812 Z M 141.789062 29.800781 " clip-rule="nonzero"/></clipPath><clipPath id="62312ade81"><path d="M 141.789062 29.800781 L 314.757812 79.621094 L 232.972656 363.578125 L 60.003906 313.757812 Z M 141.789062 29.800781 " clip-rule="nonzero"/></clipPath><clipPath id="1d2944804c"><path d="M 82 116 L 256 116 L 256 338 L 82 338 Z M 82 116 " clip-rule="nonzero"/></clipPath><clipPath id="50228529e3"><path d="M 141.789062 29.800781 L 314.757812 79.621094 L 232.972656 363.578125 L 60.003906 313.757812 Z M 141.789062 29.800781 " clip-rule="nonzero"/></clipPath><clipPath id="b99fa3f4af"><path d="M 141.789062 29.800781 L 314.757812 79.621094 L 232.972656 363.578125 L 60.003906 313.757812 Z M 141.789062 29.800781 " clip-rule="nonzero"/></clipPath><clipPath id="c3ff4afefa"><path d="M 63 291 L 235 291 L 235 360 L 63 360 Z M 63 291 " clip-rule="nonzero"/></clipPath><clipPath id="d557f02929"><path d="M 141.789062 29.800781 L 314.757812 79.621094 L 232.972656 363.578125 L 60.003906 313.757812 Z M 141.789062 29.800781 " clip-rule="nonzero"/></clipPath><clipPath id="9d602351f3"><path d="M 141.789062 29.800781 L 314.757812 79.621094 L 232.972656 363.578125 L 60.003906 313.757812 Z M 141.789062 29.800781 " clip-rule="nonzero"/></clipPath></defs><g clip-path="url(#33b49cf414)"><g clip-path="url(#b5b94f02d9)"><g clip-path="url(#22af3659eb)"><path fill="#18795b" d="M 153.382812 38.847656 C 152.085938 38.753906 150.789062 39.03125 149.617188 39.660156 C 147.996094 40.539062 146.808594 41.992188 146.28125 43.761719 C 145.1875 47.410156 147.269531 51.265625 150.917969 52.355469 L 297.304688 96.128906 C 300.953125 97.222656 304.8125 95.140625 305.902344 91.496094 C 306.992188 87.84375 304.910156 83.988281 301.261719 82.898438 L 301.265625 82.898438 L 154.875 39.125 C 154.382812 38.976562 153.882812 38.882812 153.382812 38.847656 Z M 298.40625 101.667969 C 297.535156 101.601562 296.664062 101.445312 295.792969 101.1875 L 149.40625 57.414062 C 142.96875 55.488281 139.300781 48.683594 141.226562 42.25 C 142.15625 39.132812 144.246094 36.5625 147.109375 35.019531 C 149.976562 33.472656 153.269531 33.136719 156.386719 34.066406 L 302.773438 77.839844 C 309.210938 79.765625 312.878906 86.570312 310.957031 93.003906 C 309.292969 98.574219 303.976562 102.070312 298.40625 101.667969 " fill-opacity="1" fill-rule="nonzero"/></g></g></g><g clip-path="url(#8fe459ba00)"><g clip-path="url(#b978b83b5e)"><g clip-path="url(#924eae45c5)"><path fill="#18795b" d="M 79.898438 297.921875 C 79.683594 297.90625 79.464844 297.863281 79.25 297.792969 C 77.867188 297.324219 77.125 295.832031 77.589844 294.453125 C 100.484375 226.304688 136.554688 210.011719 162.894531 198.117188 C 164.539062 197.375 166.152344 196.644531 167.730469 195.917969 C 169.34375 195.179688 170.5625 193.777344 171.074219 192.078125 C 171.585938 190.378906 171.34375 188.535156 170.410156 187.027344 C 154.882812 161.960938 131.421875 124.078125 149.296875 54.722656 C 149.660156 53.3125 151.105469 52.460938 152.511719 52.828125 C 153.921875 53.191406 154.769531 54.628906 154.40625 56.042969 C 137.09375 123.214844 159.84375 159.945312 174.898438 184.25 C 176.628906 187.046875 177.074219 190.453125 176.125 193.597656 C 175.179688 196.746094 172.921875 199.339844 169.933594 200.710938 C 168.347656 201.441406 166.722656 202.175781 165.066406 202.925781 C 138.195312 215.0625 104.753906 230.167969 82.589844 296.128906 C 82.199219 297.296875 81.070312 298.007812 79.898438 297.921875 " fill-opacity="1" fill-rule="nonzero"/></g></g></g><g clip-path="url(#3d33e6d081)"><g clip-path="url(#09962eaa04)"><g clip-path="url(#62312ade81)"><path fill="#18795b" d="M 222.941406 340.703125 C 222.78125 340.691406 222.625 340.664062 222.46875 340.625 C 221.054688 340.261719 220.207031 338.820312 220.574219 337.410156 C 238.078125 269.6875 215.789062 235.378906 199.515625 210.328125 L 199.007812 209.542969 C 197.105469 206.617188 196.640625 203.035156 197.730469 199.714844 C 198.738281 196.636719 201.015625 194.121094 203.976562 192.808594 C 205.976562 191.921875 208.035156 191.042969 210.148438 190.136719 C 236.769531 178.734375 269.898438 164.546875 292.390625 97.320312 C 292.851562 95.9375 294.351562 95.1875 295.730469 95.65625 C 297.113281 96.117188 297.859375 97.613281 297.394531 98.992188 C 274.152344 168.46875 238.359375 183.796875 212.226562 194.988281 C 210.136719 195.878906 208.09375 196.753906 206.113281 197.636719 C 204.492188 198.351562 203.296875 199.675781 202.742188 201.363281 C 202.152344 203.152344 202.40625 205.089844 203.433594 206.671875 L 203.9375 207.453125 C 219.800781 231.867188 243.765625 268.757812 225.679688 338.730469 C 225.359375 339.984375 224.1875 340.792969 222.941406 340.703125 " fill-opacity="1" fill-rule="nonzero"/></g></g></g><g clip-path="url(#1d2944804c)"><g clip-path="url(#50228529e3)"><g clip-path="url(#b99fa3f4af)"><path fill="#18795b" d="M 220.136719 337.167969 L 82.832031 296.113281 C 83.378906 294.78125 83.992188 293.667969 84.621094 293.171875 C 114.527344 269.539062 150.597656 262.75 164.980469 264.890625 L 179.417969 216.617188 C 183.367188 203.40625 181.539062 189.136719 174.359375 177.359375 C 165.996094 163.632812 155.488281 141.355469 151.78125 116.460938 C 154.832031 116.867188 159.648438 118.632812 162.175781 120.117188 C 169.117188 124.203125 174.171875 130.808594 180.507812 135.78125 C 188.421875 142.003906 198.378906 145.570312 208.4375 145.800781 C 215.519531 145.964844 222.550781 144.523438 229.632812 144.390625 C 236.714844 144.253906 244.273438 145.65625 249.40625 150.542969 C 250.90625 151.972656 254.308594 154.460938 255.425781 156.238281 C 239.691406 172.148438 220.527344 182.582031 207.566406 188.449219 C 194.75 194.253906 185.160156 205.429688 181.132812 218.910156 L 167.246094 265.347656 C 167.386719 265.386719 167.53125 265.425781 167.675781 265.46875 C 178.722656 268.769531 206.328125 298.453125 220.019531 333.855469 C 220.304688 334.589844 220.300781 335.804688 220.136719 337.167969 " fill-opacity="1" fill-rule="nonzero"/></g></g></g><g clip-path="url(#c3ff4afefa)"><g clip-path="url(#d557f02929)"><g clip-path="url(#9d602351f3)"><path fill="#18795b" d="M 76.175781 297.046875 C 74.878906 296.953125 73.582031 297.230469 72.410156 297.859375 C 70.785156 298.738281 69.601562 300.191406 69.070312 301.957031 C 68.542969 303.726562 68.734375 305.597656 69.609375 307.21875 C 70.488281 308.839844 71.941406 310.023438 73.710938 310.550781 L 220.097656 354.328125 L 220.101562 354.328125 C 221.863281 354.859375 223.734375 354.664062 225.355469 353.789062 C 226.980469 352.914062 228.164062 351.457031 228.695312 349.691406 C 229.222656 347.921875 229.03125 346.054688 228.15625 344.433594 C 227.28125 342.808594 225.824219 341.625 224.054688 341.09375 L 77.667969 297.320312 C 77.175781 297.175781 76.675781 297.082031 76.175781 297.046875 Z M 221.21875 359.867188 C 220.335938 359.804688 219.457031 359.644531 218.585938 359.382812 L 72.199219 315.609375 C 69.082031 314.675781 66.511719 312.585938 64.96875 309.722656 C 63.421875 306.863281 63.085938 303.566406 64.019531 300.449219 C 64.949219 297.332031 67.039062 294.761719 69.902344 293.214844 C 72.769531 291.671875 76.0625 291.335938 79.179688 292.265625 L 225.566406 336.039062 C 228.683594 336.972656 231.253906 339.0625 232.796875 341.925781 C 234.34375 344.792969 234.683594 348.085938 233.75 351.203125 C 232.816406 354.320312 230.726562 356.886719 227.863281 358.429688 C 225.792969 359.546875 223.503906 360.035156 221.21875 359.867188 " fill-opacity="1" fill-rule="nonzero"/></g></g></g></svg>