<svg xmlns="http://www.w3.org/2000/svg" xmlns:xlink="http://www.w3.org/1999/xlink" width="500" zoomAndPan="magnify" viewBox="0 0 375 374.999991" height="500" preserveAspectRatio="xMidYMid meet" version="1.0"><defs><clipPath id="515247325c"><path d="M 155 42 L 356.46875 42 L 356.46875 239 L 155 239 Z M 155 42 " clip-rule="nonzero"/></clipPath><clipPath id="161dc7b921"><path d="M 155 29 L 356.46875 29 L 356.46875 199 L 155 199 Z M 155 29 " clip-rule="nonzero"/></clipPath><clipPath id="683b8004e8"><path d="M 203 20.707031 L 309 20.707031 L 309 134 L 203 134 Z M 203 20.707031 " clip-rule="nonzero"/></clipPath></defs><g clip-path="url(#515247325c)"><path fill="#18795b" d="M 160.773438 100.292969 C 160.839844 103.839844 155.191406 103.90625 155.257812 100.292969 L 155.257812 60.503906 C 155.191406 56.957031 160.839844 56.890625 160.773438 60.503906 Z M 255.523438 48.550781 C 251.320312 48.289062 252.304688 42.25 256.378906 43.035156 C 260.644531 43.300781 259.59375 49.339844 255.523438 48.550781 Z M 351.195312 60.503906 C 351.128906 57.023438 356.773438 56.890625 356.710938 60.503906 L 356.710938 221.179688 C 356.710938 230.765625 348.828125 238.578125 339.308594 238.578125 L 186.839844 238.578125 C 185.332031 238.578125 184.082031 237.332031 184.082031 235.820312 C 184.082031 234.308594 185.332031 233.0625 186.839844 233.0625 L 339.242188 233.0625 C 345.808594 233.0625 351.128906 227.679688 351.128906 221.179688 L 351.128906 60.503906 Z M 351.195312 60.503906 " fill-opacity="1" fill-rule="evenodd"/></g><g clip-path="url(#161dc7b921)"><path fill="#18795b" d="M 196.035156 136.40625 C 193.667969 133.78125 197.871094 130.039062 200.171875 132.796875 L 250.007812 190.121094 C 253.621094 193.992188 258.414062 194.058594 262.023438 190.054688 L 351.195312 87.425781 L 351.195312 55.050781 C 351.195312 51.769531 349.75 49.273438 347.515625 47.371094 C 342.394531 42.378906 323.023438 38.375 316.328125 35.683594 C 313.765625 34.828125 311.074219 35.683594 309.367188 37.71875 C 308.382812 39.359375 307.066406 41.394531 304.902344 40.34375 C 301.222656 38.308594 304.902344 34.039062 307.132812 32.332031 C 313.960938 25.832031 329.460938 34.960938 339.636719 37.257812 C 348.171875 39.949219 356.644531 45.007812 356.710938 54.988281 L 356.710938 88.410156 C 356.710938 89.066406 356.445312 89.65625 356.050781 90.183594 L 265.898438 193.992188 C 260.121094 200.101562 251.910156 200.230469 246.066406 193.992188 C 246.066406 193.992188 196.035156 136.40625 196.035156 136.40625 Z M 282.640625 91.890625 C 274.105469 105.085938 267.144531 115.332031 255.984375 126.820312 C 246.660156 117.039062 236.480469 104.234375 228.339844 92.347656 C 209.886719 84.929688 252.109375 131.089844 254.078125 132.730469 C 255.128906 133.78125 256.902344 133.78125 257.953125 132.730469 C 270.429688 120.253906 278.046875 109.222656 287.238281 94.910156 C 289.207031 91.890625 284.546875 88.867188 282.640625 91.890625 Z M 208.378906 36.734375 C 205.949219 31.414062 199.511719 28.523438 193.996094 30.429688 C 185.921875 33.582031 167.207031 37.257812 160.839844 43.234375 C 157.488281 46.1875 155.257812 49.996094 155.257812 55.050781 L 155.257812 88.472656 C 154.929688 90.183594 162.675781 97.535156 163.464844 98.980469 C 165.761719 101.671875 169.964844 98.0625 167.601562 95.367188 L 160.707031 87.488281 L 160.707031 55.050781 C 160.707031 51.835938 162.152344 49.339844 164.382812 47.371094 C 169.570312 42.511719 188.875 38.308594 195.574219 35.683594 C 198.59375 34.632812 202.007812 36.207031 203.320312 39.03125 C 204.832031 42.3125 209.953125 39.949219 208.378906 36.734375 Z M 208.378906 36.734375 " fill-opacity="1" fill-rule="evenodd"/></g><path fill="#18795b" d="M 253.226562 130.761719 C 253.160156 127.214844 258.804688 127.148438 258.742188 130.761719 L 258.742188 235.886719 C 258.804688 239.433594 253.160156 239.496094 253.226562 235.886719 Z M 253.226562 130.761719 " fill-opacity="1" fill-rule="evenodd"/><g clip-path="url(#683b8004e8)"><path fill="#18795b" d="M 223.808594 95.367188 C 221.773438 92.480469 226.371094 89.261719 228.339844 92.28125 C 236.480469 104.167969 246.660156 117.039062 255.984375 126.820312 C 267.144531 115.332031 274.105469 105.085938 282.640625 91.890625 C 300.371094 84.074219 262.484375 129.25 258.085938 132.535156 C 257.035156 133.78125 255.128906 133.847656 254.011719 132.664062 C 244.230469 122.816406 232.476562 108.109375 223.808594 95.367188 Z M 307.988281 37.914062 C 307.988281 41.460938 302.472656 41.460938 302.472656 37.914062 C 303.128906 32.464844 301.160156 26.292969 294.722656 26.292969 L 217.175781 26.292969 C 212.910156 26.292969 209.429688 29.773438 209.429688 33.976562 C 209.429688 36.207031 210.085938 40.738281 206.671875 40.671875 C 203.257812 40.738281 203.980469 36.207031 203.914062 33.976562 C 203.980469 26.6875 209.886719 20.777344 217.175781 20.777344 L 294.789062 20.777344 C 303.980469 20.710938 309.167969 29.445312 307.988281 37.914062 Z M 307.988281 37.914062 " fill-opacity="1" fill-rule="evenodd"/></g><path fill="#18795b" d="M 237.792969 84.863281 C 240.945312 83.222656 243.507812 88.210938 240.289062 89.789062 L 214.878906 102.59375 C 205.292969 107.777344 192.554688 103.640625 187.433594 94.253906 C 182.769531 87.949219 185.527344 63.390625 184.871094 55.972656 C 184.28125 41 201.746094 30.167969 214.878906 37.453125 L 240.289062 50.257812 C 243.441406 51.835938 241.011719 56.824219 237.792969 55.183594 L 212.382812 42.378906 C 207.523438 39.949219 202.207031 40.148438 197.542969 42.96875 C 192.882812 45.859375 190.320312 50.457031 190.320312 55.90625 L 190.320312 84.074219 C 190.058594 92.152344 197.019531 99.046875 204.898438 99.375 C 210.542969 100.425781 232.542969 86.832031 237.792969 84.863281 Z M 237.792969 84.863281 " fill-opacity="1" fill-rule="evenodd"/><path fill="#18795b" d="M 271.675781 89.789062 C 268.457031 88.210938 270.953125 83.222656 274.171875 84.863281 L 299.582031 97.667969 C 306.675781 101.542969 316.0625 98.390625 319.871094 91.429688 C 323.222656 86.898438 321.121094 61.421875 321.644531 55.90625 C 321.644531 53.148438 320.988281 50.652344 319.808594 48.421875 C 316 41.527344 306.675781 38.441406 299.582031 42.3125 L 274.171875 55.117188 C 272.792969 55.773438 271.152344 55.25 270.496094 53.871094 C 269.835938 52.492188 270.363281 50.851562 271.742188 50.195312 L 297.152344 37.390625 C 306.738281 32.136719 319.480469 36.339844 324.664062 45.726562 C 329.328125 52.03125 326.570312 76.589844 327.226562 84.007812 C 327.226562 87.621094 326.375 91.035156 324.730469 93.988281 C 319.675781 103.445312 306.804688 107.714844 297.152344 102.460938 Z M 271.675781 89.789062 " fill-opacity="1" fill-rule="evenodd"/><path fill="#18795b" d="M 255.984375 43.035156 C 291.441406 43.628906 291.375 96.355469 255.984375 96.945312 C 220.527344 96.355469 220.589844 43.691406 255.984375 43.035156 Z M 271.152344 54.855469 C 250.863281 35.222656 221.183594 64.96875 240.816406 85.191406 C 261.039062 104.757812 290.785156 75.078125 271.152344 54.855469 Z M 271.152344 54.855469 " fill-opacity="1" fill-rule="evenodd"/><path fill="#18795b" d="M 73.507812 171.339844 C 74.753906 187.425781 76.460938 212.707031 65.757812 226.234375 C 58.667969 234.703125 52.035156 245.078125 45.601562 258.410156 C 39.167969 271.804688 32.929688 288.21875 26.625 308.574219 C 25.441406 312.382812 25.902344 316.324219 27.542969 319.605469 C 30.367188 327.878906 50.65625 331.226562 57.421875 334.511719 C 89.398438 345.804688 105.355469 351.519531 120.980469 351.519531 C 136.609375 351.519531 152.628906 345.871094 184.542969 334.511719 L 206.078125 326.960938 C 213.566406 324.332031 217.703125 316.257812 215.339844 308.640625 C 204.832031 275.613281 195.046875 249.414062 176.203125 226.300781 C 165.5 212.707031 167.207031 187.425781 168.457031 171.273438 C 168.585938 170.160156 169.308594 169.238281 170.292969 168.910156 C 180.996094 165.234375 188.285156 156.566406 192.289062 145.929688 C 196.753906 131.8125 200.5625 106.464844 185.855469 97.46875 C 169.507812 93.003906 140.023438 111.914062 128.136719 124.65625 C 126.300781 126.691406 123.738281 127.804688 120.980469 127.804688 C 118.15625 127.804688 115.53125 126.625 113.691406 124.523438 C 101.808594 111.851562 72.390625 93.003906 56.105469 97.535156 C 41.332031 106.464844 45.207031 131.878906 49.605469 145.996094 C 53.613281 156.566406 60.902344 165.300781 71.601562 168.976562 C 72.785156 169.238281 73.507812 170.289062 73.507812 171.339844 Z M 68.058594 204.304688 C 69.371094 194.257812 68.976562 182.765625 68.1875 173.441406 C 40.808594 162.214844 32.796875 121.238281 47.175781 97.339844 C 65.300781 79.28125 102.597656 105.808594 117.699219 120.714844 C 119.273438 122.683594 122.492188 122.816406 124.132812 120.847656 C 139.234375 105.875 176.664062 79.28125 194.851562 97.339844 C 209.230469 121.238281 201.222656 162.214844 173.839844 173.441406 C 172.855469 188.019531 171.277344 210.605469 180.472656 222.6875 C 187.890625 231.488281 194.71875 242.253906 201.351562 256.042969 C 207.917969 269.703125 214.289062 286.378906 220.589844 306.933594 C 222.234375 312.121094 221.574219 317.503906 219.34375 322.035156 C 215.667969 332.476562 195.179688 335.691406 186.445312 339.632812 C 121.574219 362.679688 120.523438 362.679688 55.648438 339.632812 L 34.109375 332.082031 C 23.800781 328.535156 18.21875 317.375 21.4375 307 C 32.140625 273.25 42.316406 246.390625 61.621094 222.753906 C 65.101562 218.550781 67.074219 211.855469 68.058594 204.304688 Z M 68.058594 204.304688 " fill-opacity="1" fill-rule="evenodd"/><path fill="#18795b" d="M 100.035156 168.121094 C 101.480469 167.664062 103.054688 168.453125 103.515625 169.894531 C 103.976562 171.339844 103.1875 172.917969 101.742188 173.375 C 95.964844 175.214844 89.398438 176.265625 83.621094 176.265625 C 79.484375 175.738281 67.335938 176.394531 68.1875 170.617188 C 68.648438 169.171875 70.222656 168.386719 71.667969 168.910156 C 80.730469 171.929688 90.90625 171.011719 100.035156 168.121094 Z M 100.035156 168.121094 " fill-opacity="1" fill-rule="evenodd"/><path fill="#18795b" d="M 140.351562 173.375 C 136.9375 172.324219 138.644531 167.007812 142.058594 168.121094 C 151.1875 171.011719 161.363281 171.929688 170.425781 168.84375 C 171.871094 168.386719 173.445312 169.109375 173.90625 170.550781 C 174.363281 171.996094 173.644531 173.574219 172.199219 174.03125 C 162.019531 177.511719 150.660156 176.59375 140.351562 173.375 Z M 140.351562 173.375 " fill-opacity="1" fill-rule="evenodd"/></svg>