<svg xmlns="http://www.w3.org/2000/svg" xmlns:xlink="http://www.w3.org/1999/xlink" width="500" zoomAndPan="magnify" viewBox="0 0 375 374.999991" height="500" preserveAspectRatio="xMidYMid meet" version="1.0"><defs><clipPath id="ff51ffd839"><path d="M 43.957031 21.058594 L 337.207031 21.058594 L 337.207031 354 L 43.957031 354 Z M 43.957031 21.058594 " clip-rule="nonzero"/></clipPath></defs><path fill="#ffffff" d="M 327.714844 70.082031 L 327.714844 265.777344 C 327.714844 287.394531 310.191406 304.914062 288.574219 304.914062 L 92.878906 70.082031 C 92.878906 48.464844 110.402344 30.941406 132.019531 30.941406 L 288.574219 30.941406 C 310.191406 30.941406 327.714844 48.464844 327.714844 70.082031 Z M 327.714844 70.082031 " fill-opacity="1" fill-rule="nonzero"/><path fill="#c1ff72" d="M 288.574219 109.21875 L 288.574219 255.992188 C 288.472656 255.984375 53.808594 275.542969 53.738281 275.5625 L 53.738281 109.21875 C 53.738281 87.601562 71.261719 70.082031 92.878906 70.082031 L 249.433594 70.082031 C 271.054688 70.082031 288.574219 87.601562 288.574219 109.21875 Z M 288.574219 109.21875 " fill-opacity="1" fill-rule="nonzero"/><path fill="#ffffff" d="M 180.941406 158.144531 C 180.941406 158.785156 180.910156 159.425781 180.847656 160.0625 C 180.785156 160.699219 180.691406 161.332031 180.566406 161.960938 C 180.441406 162.589844 180.285156 163.210938 180.097656 163.824219 C 179.914062 164.4375 179.699219 165.042969 179.453125 165.632812 C 179.207031 166.226562 178.933594 166.804688 178.632812 167.371094 C 178.328125 167.933594 178 168.484375 177.644531 169.015625 C 177.289062 169.550781 176.90625 170.0625 176.5 170.558594 C 176.09375 171.054688 175.664062 171.527344 175.210938 171.980469 C 174.757812 172.433594 174.28125 172.863281 173.789062 173.273438 C 173.292969 173.679688 172.777344 174.058594 172.246094 174.414062 C 171.710938 174.773438 171.164062 175.101562 170.597656 175.402344 C 170.03125 175.707031 169.453125 175.980469 168.863281 176.222656 C 168.269531 176.46875 167.667969 176.683594 167.054688 176.871094 C 166.441406 177.058594 165.820312 177.210938 165.191406 177.335938 C 164.5625 177.460938 163.929688 177.558594 163.289062 177.621094 C 162.652344 177.683594 162.011719 177.714844 161.371094 177.714844 C 160.730469 177.714844 160.09375 177.683594 159.453125 177.621094 C 158.816406 177.558594 158.183594 177.460938 157.554688 177.335938 C 156.925781 177.210938 156.304688 177.058594 155.691406 176.871094 C 155.078125 176.683594 154.476562 176.46875 153.882812 176.222656 C 153.292969 175.980469 152.710938 175.707031 152.148438 175.402344 C 151.582031 175.101562 151.03125 174.773438 150.5 174.414062 C 149.96875 174.058594 149.453125 173.679688 148.957031 173.273438 C 148.460938 172.863281 147.988281 172.433594 147.535156 171.980469 C 147.082031 171.527344 146.652344 171.054688 146.246094 170.558594 C 145.839844 170.0625 145.457031 169.550781 145.101562 169.015625 C 144.746094 168.484375 144.414062 167.933594 144.113281 167.371094 C 143.8125 166.804688 143.539062 166.226562 143.292969 165.632812 C 143.046875 165.042969 142.832031 164.4375 142.644531 163.824219 C 142.460938 163.210938 142.304688 162.589844 142.179688 161.960938 C 142.054688 161.332031 141.960938 160.699219 141.898438 160.0625 C 141.835938 159.425781 141.804688 158.785156 141.804688 158.144531 C 141.804688 157.503906 141.835938 156.863281 141.898438 156.226562 C 141.960938 155.589844 142.054688 154.953125 142.179688 154.328125 C 142.304688 153.699219 142.460938 153.078125 142.644531 152.464844 C 142.832031 151.851562 143.046875 151.246094 143.292969 150.65625 C 143.539062 150.0625 143.8125 149.484375 144.113281 148.917969 C 144.414062 148.355469 144.746094 147.804688 145.101562 147.273438 C 145.457031 146.738281 145.839844 146.226562 146.246094 145.730469 C 146.652344 145.234375 147.082031 144.757812 147.535156 144.304688 C 147.988281 143.851562 148.460938 143.421875 148.957031 143.015625 C 149.453125 142.609375 149.96875 142.230469 150.5 141.871094 C 151.03125 141.515625 151.582031 141.1875 152.148438 140.886719 C 152.710938 140.582031 153.292969 140.308594 153.882812 140.0625 C 154.476562 139.820312 155.078125 139.601562 155.691406 139.417969 C 156.304688 139.230469 156.925781 139.074219 157.554688 138.949219 C 158.183594 138.824219 158.816406 138.730469 159.453125 138.667969 C 160.09375 138.605469 160.730469 138.574219 161.371094 138.574219 C 162.011719 138.574219 162.652344 138.605469 163.289062 138.667969 C 163.929688 138.730469 164.5625 138.824219 165.191406 138.949219 C 165.820312 139.074219 166.441406 139.230469 167.054688 139.417969 C 167.667969 139.601562 168.269531 139.820312 168.863281 140.0625 C 169.453125 140.308594 170.03125 140.582031 170.597656 140.886719 C 171.164062 141.1875 171.710938 141.515625 172.246094 141.871094 C 172.777344 142.230469 173.292969 142.609375 173.789062 143.015625 C 174.28125 143.421875 174.757812 143.851562 175.210938 144.304688 C 175.664062 144.757812 176.09375 145.234375 176.5 145.730469 C 176.90625 146.226562 177.289062 146.738281 177.644531 147.273438 C 178 147.804688 178.328125 148.355469 178.632812 148.917969 C 178.933594 149.484375 179.207031 150.0625 179.453125 150.65625 C 179.699219 151.246094 179.914062 151.851562 180.097656 152.464844 C 180.285156 153.078125 180.441406 153.699219 180.566406 154.328125 C 180.691406 154.953125 180.785156 155.589844 180.847656 156.226562 C 180.910156 156.863281 180.941406 157.503906 180.941406 158.144531 Z M 180.941406 158.144531 " fill-opacity="1" fill-rule="nonzero"/><path fill="#ffffff" d="M 161.371094 246.207031 L 220.082031 187.5 L 288.574219 255.992188 L 288.574219 304.914062 C 288.574219 326.535156 271.054688 344.054688 249.433594 344.054688 L 92.878906 344.054688 C 71.261719 344.054688 53.738281 326.535156 53.738281 304.914062 L 53.738281 275.5625 L 122.234375 207.066406 Z M 161.371094 246.207031 " fill-opacity="1" fill-rule="nonzero"/><g clip-path="url(#ff51ffd839)"><path fill="#18795b" d="M 288.574219 21.15625 L 132.019531 21.15625 C 108.097656 21.15625 88.148438 38.414062 83.929688 61.132812 C 61.214844 65.351562 43.957031 85.300781 43.957031 109.21875 C 43.957031 124.824219 43.957031 295.851562 43.957031 304.914062 C 43.957031 331.890625 65.902344 353.839844 92.878906 353.839844 L 249.433594 353.839844 C 273.355469 353.839844 293.304688 336.582031 297.523438 313.867188 C 320.238281 309.648438 337.5 289.695312 337.5 265.777344 L 337.5 70.082031 C 337.5 43.105469 315.550781 21.15625 288.574219 21.15625 Z M 92.878906 79.867188 L 249.433594 79.867188 C 265.621094 79.867188 278.789062 93.035156 278.789062 109.21875 L 278.789062 232.371094 L 227 180.582031 C 223.179688 176.757812 216.984375 176.757812 213.160156 180.582031 L 161.371094 232.371094 L 129.152344 200.148438 C 125.332031 196.328125 119.136719 196.328125 115.3125 200.148438 L 63.523438 251.9375 L 63.523438 109.21875 C 63.523438 93.035156 76.691406 79.867188 92.878906 79.867188 Z M 249.433594 334.269531 L 92.878906 334.269531 C 76.691406 334.269531 63.523438 321.101562 63.523438 304.914062 L 63.523438 279.613281 L 122.234375 220.90625 L 193.59375 292.265625 C 197.414062 296.085938 203.609375 296.085938 207.429688 292.265625 C 211.253906 288.445312 211.253906 282.25 207.429688 278.425781 L 175.210938 246.207031 L 220.082031 201.335938 L 278.789062 260.042969 L 278.789062 304.914062 C 278.789062 321.101562 265.621094 334.269531 249.433594 334.269531 Z M 317.929688 265.777344 C 317.929688 278.53125 309.75 289.410156 298.359375 293.449219 C 298.359375 285.289062 298.359375 117.460938 298.359375 109.21875 C 298.359375 82.242188 276.410156 60.296875 249.433594 60.296875 L 104.347656 60.296875 C 108.386719 48.90625 119.261719 40.726562 132.019531 40.726562 L 288.574219 40.726562 C 304.761719 40.726562 317.929688 53.894531 317.929688 70.082031 Z M 317.929688 265.777344 " fill-opacity="1" fill-rule="nonzero"/></g><path fill="#18795b" d="M 161.371094 187.5 C 177.558594 187.5 190.726562 174.332031 190.726562 158.144531 C 190.726562 141.957031 177.558594 128.789062 161.371094 128.789062 C 145.1875 128.789062 132.019531 141.957031 132.019531 158.144531 C 132.019531 174.332031 145.1875 187.5 161.371094 187.5 Z M 161.371094 148.359375 C 166.769531 148.359375 171.15625 152.75 171.15625 158.144531 C 171.15625 163.539062 166.769531 167.929688 161.371094 167.929688 C 155.976562 167.929688 151.585938 163.539062 151.585938 158.144531 C 151.585938 152.75 155.976562 148.359375 161.371094 148.359375 Z M 161.371094 148.359375 " fill-opacity="1" fill-rule="nonzero"/></svg>