<svg xmlns="http://www.w3.org/2000/svg" xmlns:xlink="http://www.w3.org/1999/xlink" width="500" zoomAndPan="magnify" viewBox="0 0 375 374.999991" height="500" preserveAspectRatio="xMidYMid meet" version="1.0"><defs><clipPath id="ac37832011"><path d="M 24.484375 37.5 L 363.484375 37.5 L 363.484375 337.5 L 24.484375 337.5 Z M 24.484375 37.5 " clip-rule="nonzero"/></clipPath></defs><g clip-path="url(#ac37832011)"><path fill="#18795b" d="M 212.03125 337.441406 L 95.386719 337.441406 C 93.242188 337.441406 91.503906 335.703125 91.503906 333.558594 L 91.503906 115.1875 L 63.179688 115.1875 C 52.492188 115.1875 42.820312 110.855469 35.816406 103.855469 C 28.816406 96.851562 24.484375 87.175781 24.484375 76.492188 C 24.484375 65.804688 28.816406 56.128906 35.816406 49.125 C 42.820312 42.125 52.492188 37.792969 63.179688 37.792969 L 276.546875 37.792969 C 286.476562 37.792969 295.5 41.851562 302.039062 48.390625 C 308.578125 54.929688 312.636719 63.953125 312.636719 73.882812 L 312.636719 163.085938 C 312.636719 163.671875 312.507812 164.230469 312.273438 164.730469 C 312.53125 164.839844 312.792969 164.953125 313.050781 165.074219 C 315.917969 166.417969 318.605469 168.601562 320.707031 171.1875 C 322.824219 173.796875 324.375 176.839844 324.949219 179.878906 C 325.574219 183.191406 325.066406 186.488281 322.9375 189.269531 L 322.058594 189.914062 L 298.09375 198.679688 L 352.425781 198.679688 C 355.484375 198.679688 358.273438 199.9375 360.304688 201.960938 L 360.3125 201.957031 C 362.332031 203.976562 363.589844 206.769531 363.589844 209.84375 L 363.589844 233 C 363.589844 235.144531 361.847656 236.882812 359.707031 236.882812 L 353.65625 236.882812 L 353.65625 315.621094 C 353.65625 321.628906 351.203125 327.082031 347.25 331.035156 C 343.296875 334.988281 337.84375 337.441406 331.835938 337.441406 Z M 130.183594 211.550781 C 129.175781 210.539062 129.175781 208.898438 130.183594 207.890625 C 131.195312 206.878906 132.832031 206.878906 133.84375 207.890625 L 139.316406 213.359375 L 150.355469 200.484375 C 151.28125 199.402344 152.910156 199.273438 153.996094 200.203125 C 155.078125 201.128906 155.207031 202.757812 154.277344 203.84375 L 141.535156 218.707031 C 141.460938 218.804688 141.378906 218.902344 141.289062 218.992188 C 140.277344 220.003906 138.636719 220.003906 137.628906 218.992188 Z M 130.183594 151.492188 C 129.175781 150.484375 129.175781 148.84375 130.183594 147.832031 C 131.195312 146.824219 132.832031 146.824219 133.84375 147.832031 L 139.316406 153.304688 L 150.355469 140.429688 C 151.28125 139.34375 152.910156 139.21875 153.996094 140.144531 C 155.078125 141.070312 155.207031 142.703125 154.277344 143.785156 L 141.535156 158.648438 C 141.460938 158.75 141.378906 158.84375 141.289062 158.9375 C 140.277344 159.945312 138.636719 159.945312 137.628906 158.9375 Z M 128.507812 91.210938 C 127.496094 90.199219 127.496094 88.5625 128.507812 87.550781 C 129.515625 86.539062 131.15625 86.539062 132.167969 87.550781 L 137.636719 93.023438 L 148.679688 80.144531 C 149.605469 79.0625 151.234375 78.933594 152.316406 79.863281 C 153.402344 80.789062 153.527344 82.417969 152.601562 83.503906 L 139.859375 98.367188 C 139.785156 98.464844 139.699219 98.5625 139.609375 98.652344 C 138.597656 99.664062 136.960938 99.664062 135.949219 98.652344 Z M 304.933594 163.773438 C 304.894531 163.546875 304.871094 163.320312 304.871094 163.085938 L 304.871094 73.882812 C 304.871094 66.097656 301.683594 59.015625 296.546875 53.878906 C 291.414062 48.746094 284.332031 45.558594 276.546875 45.558594 L 85.488281 45.558594 C 86.605469 46.441406 87.667969 47.386719 88.671875 48.390625 C 95.210938 54.929688 99.269531 63.953125 99.269531 73.882812 L 99.269531 329.675781 L 195.367188 329.675781 C 192.152344 325.875 190.210938 320.964844 190.210938 315.621094 L 190.210938 236.882812 L 184.160156 236.882812 C 182.019531 236.882812 180.277344 235.144531 180.277344 233 L 180.277344 209.84375 C 180.277344 206.769531 181.535156 203.976562 183.554688 201.957031 C 183.640625 201.867188 183.730469 201.785156 183.824219 201.710938 C 185.828125 199.832031 188.511719 198.679688 191.441406 198.679688 L 245.769531 198.679688 L 221.808594 189.914062 L 220.925781 189.269531 C 218.804688 186.488281 218.292969 183.191406 218.917969 179.878906 C 219.492188 176.839844 221.042969 173.796875 223.160156 171.1875 C 225.261719 168.601562 227.949219 166.417969 230.816406 165.074219 C 234.269531 163.457031 237.996094 163.035156 241.378906 164.507812 L 242.070312 165.019531 L 271.136719 198.679688 L 272.730469 198.679688 L 301.796875 165.019531 L 302.488281 164.507812 C 303.285156 164.160156 304.105469 163.917969 304.933594 163.773438 Z M 277.84375 198.679688 L 286.824219 198.679688 L 320.167969 186.480469 C 321.296875 184.746094 321.539062 182.691406 321.140625 180.59375 C 320.691406 178.203125 319.433594 175.757812 317.703125 173.628906 C 315.953125 171.476562 313.746094 169.671875 311.414062 168.578125 C 309.058594 167.472656 306.59375 167.109375 304.417969 167.90625 Z M 257.039062 198.679688 L 266.023438 198.679688 L 239.449219 167.90625 C 237.273438 167.109375 234.808594 167.472656 232.457031 168.578125 C 230.121094 169.671875 227.914062 171.476562 226.164062 173.628906 C 224.433594 175.757812 223.175781 178.203125 222.726562 180.59375 C 222.328125 182.691406 222.570312 184.746094 223.699219 186.480469 Z M 194.058594 229.117188 L 244.332031 229.117188 L 244.332031 206.445312 L 191.441406 206.445312 C 190.570312 206.445312 189.78125 206.769531 189.1875 207.296875 L 189.046875 207.445312 C 188.429688 208.0625 188.042969 208.914062 188.042969 209.84375 L 188.042969 229.117188 Z M 197.976562 236.882812 L 197.976562 315.621094 C 197.976562 319.484375 199.558594 322.996094 202.105469 325.546875 C 204.65625 328.09375 208.167969 329.675781 212.03125 329.675781 L 253.414062 329.675781 L 253.414062 236.882812 Z M 257.296875 236.882812 L 257.296875 329.675781 L 286.570312 329.675781 L 286.570312 236.882812 Z M 290.453125 236.882812 L 290.453125 329.675781 L 331.835938 329.675781 C 335.699219 329.675781 339.210938 328.09375 341.761719 325.546875 C 344.308594 322.996094 345.890625 319.484375 345.890625 315.621094 L 345.890625 236.882812 Z M 349.742188 229.117188 L 355.820312 229.117188 L 355.820312 209.84375 C 355.820312 208.914062 355.4375 208.0625 354.820312 207.445312 L 354.828125 207.4375 L 354.820312 207.429688 C 354.214844 206.820312 353.363281 206.445312 352.425781 206.445312 L 299.535156 206.445312 L 299.535156 229.117188 Z M 295.652344 206.445312 L 248.214844 206.445312 L 248.214844 229.117188 L 295.652344 229.117188 Z M 91.503906 107.421875 L 91.503906 73.882812 C 91.503906 66.097656 88.316406 59.015625 83.179688 53.878906 C 78.046875 48.746094 70.964844 45.558594 63.179688 45.558594 C 54.636719 45.558594 46.90625 49.019531 41.308594 54.617188 C 35.710938 60.214844 32.25 67.949219 32.25 76.492188 C 32.25 85.03125 35.710938 92.765625 41.308594 98.363281 C 46.90625 103.960938 54.636719 107.421875 63.179688 107.421875 Z M 142.164062 185.078125 C 148.953125 185.078125 155.101562 187.828125 159.550781 192.277344 C 164 196.726562 166.75 202.875 166.75 209.664062 C 166.75 216.453125 164 222.597656 159.550781 227.046875 C 155.101562 231.496094 148.953125 234.25 142.164062 234.25 C 135.375 234.25 129.230469 231.496094 124.78125 227.046875 C 120.332031 222.597656 117.578125 216.453125 117.578125 209.664062 C 117.578125 202.875 120.332031 196.726562 124.78125 192.277344 C 129.230469 187.828125 135.378906 185.078125 142.164062 185.078125 Z M 156.804688 195.023438 C 153.058594 191.277344 147.882812 188.960938 142.164062 188.960938 C 136.449219 188.960938 131.273438 191.277344 127.527344 195.023438 C 123.78125 198.769531 121.460938 203.945312 121.460938 209.664062 C 121.460938 215.378906 123.78125 220.554688 127.527344 224.304688 C 131.273438 228.046875 136.449219 230.367188 142.164062 230.367188 C 147.882812 230.367188 153.058594 228.046875 156.804688 224.304688 C 160.550781 220.554688 162.867188 215.378906 162.867188 209.664062 C 162.867188 203.945312 160.550781 198.769531 156.804688 195.023438 Z M 222.929688 152.195312 C 221.5 152.195312 220.339844 151.035156 220.339844 149.609375 C 220.339844 148.175781 221.5 147.019531 222.929688 147.019531 L 260.820312 147.019531 C 262.25 147.019531 263.410156 148.175781 263.410156 149.609375 C 263.410156 151.035156 262.25 152.195312 260.820312 152.195312 Z M 186.386719 152.195312 C 184.957031 152.195312 183.796875 151.035156 183.796875 149.609375 C 183.796875 148.175781 184.957031 147.019531 186.386719 147.019531 L 212.328125 147.019531 C 213.757812 147.019531 214.914062 148.175781 214.914062 149.609375 C 214.914062 151.035156 213.757812 152.195312 212.328125 152.195312 Z M 142.164062 125.019531 C 148.953125 125.019531 155.101562 127.773438 159.550781 132.222656 C 164 136.671875 166.75 142.816406 166.75 149.605469 C 166.75 156.394531 164 162.542969 159.550781 166.988281 C 155.101562 171.441406 148.953125 174.191406 142.164062 174.191406 C 135.375 174.191406 129.230469 171.441406 124.78125 166.988281 C 120.332031 162.542969 117.578125 156.394531 117.578125 149.605469 C 117.578125 142.816406 120.332031 136.671875 124.78125 132.222656 C 129.230469 127.773438 135.378906 125.019531 142.164062 125.019531 Z M 156.804688 134.964844 C 153.058594 131.21875 147.882812 128.902344 142.164062 128.902344 C 136.449219 128.902344 131.273438 131.21875 127.527344 134.964844 C 123.78125 138.710938 121.460938 143.890625 121.460938 149.605469 C 121.460938 155.324219 123.78125 160.5 127.527344 164.246094 C 131.273438 167.992188 136.449219 170.308594 142.164062 170.308594 C 147.882812 170.308594 153.058594 167.992188 156.804688 164.246094 C 160.550781 160.5 162.867188 155.324219 162.867188 149.605469 C 162.867188 143.890625 160.550781 138.710938 156.804688 134.964844 Z M 245.9375 92.136719 C 244.507812 92.136719 243.347656 90.980469 243.347656 89.550781 C 243.347656 88.121094 244.507812 86.960938 245.9375 86.960938 L 260.820312 86.960938 C 262.25 86.960938 263.410156 88.121094 263.410156 89.550781 C 263.410156 90.980469 262.25 92.136719 260.820312 92.136719 Z M 186.386719 92.136719 C 184.957031 92.136719 183.796875 90.980469 183.796875 89.550781 C 183.796875 88.121094 184.957031 86.960938 186.386719 86.960938 L 233.078125 86.960938 C 234.507812 86.960938 235.667969 88.121094 235.667969 89.550781 C 235.667969 90.980469 234.507812 92.136719 233.078125 92.136719 Z M 142.164062 64.960938 C 148.953125 64.960938 155.101562 67.714844 159.550781 72.164062 C 164 76.613281 166.75 82.761719 166.75 89.546875 C 166.75 96.335938 164 102.484375 159.550781 106.933594 C 155.101562 111.382812 148.953125 114.136719 142.164062 114.136719 C 135.375 114.136719 129.230469 111.382812 124.78125 106.933594 C 120.332031 102.484375 117.578125 96.335938 117.578125 89.546875 C 117.578125 82.761719 120.332031 76.613281 124.78125 72.164062 C 129.230469 67.714844 135.375 64.960938 142.164062 64.960938 Z M 156.804688 74.910156 C 153.058594 71.164062 147.882812 68.847656 142.164062 68.847656 C 136.449219 68.847656 131.273438 71.164062 127.527344 74.910156 C 123.78125 78.65625 121.460938 83.832031 121.460938 89.546875 C 121.460938 95.265625 123.78125 100.441406 127.527344 104.1875 C 131.273438 107.933594 136.449219 110.253906 142.164062 110.253906 C 147.882812 110.253906 153.058594 107.933594 156.804688 104.1875 C 160.550781 100.441406 162.867188 95.265625 162.867188 89.546875 C 162.867188 83.832031 160.550781 78.65625 156.804688 74.910156 Z M 156.804688 74.910156 " fill-opacity="1" fill-rule="nonzero"/></g></svg>