<svg xmlns="http://www.w3.org/2000/svg" xmlns:xlink="http://www.w3.org/1999/xlink" width="500" zoomAndPan="magnify" viewBox="0 0 375 374.999991" height="500" preserveAspectRatio="xMidYMid meet" version="1.0"><defs><clipPath id="98e81562a4"><path d="M 89 26 L 291 26 L 291 350.128906 L 89 350.128906 Z M 89 26 " clip-rule="nonzero"/></clipPath></defs><g clip-path="url(#98e81562a4)"><path fill="#18795b" d="M 276.421875 66.9375 C 263.324219 46.210938 233.28125 24.605469 188.425781 26.078125 C 147.78125 27.417969 116.761719 43.199219 101.101562 70.511719 C 86.398438 96.160156 78.632812 144.742188 125.136719 230.539062 C 134.679688 248.148438 147.261719 267.191406 159.785156 284.515625 C 144.578125 288.25 128.878906 296.660156 124.773438 308.5 C 122.101562 316.203125 124.367188 324.210938 131.507812 332.300781 C 142.386719 344.632812 164.117188 350.304688 186.332031 350.304688 C 206.933594 350.304688 227.957031 345.425781 241.113281 336.464844 C 253.359375 328.125 256.890625 317.253906 251.058594 305.859375 C 247.253906 298.4375 233.503906 288.96875 220.707031 284.582031 C 244.359375 247.023438 276.445312 191.804688 284.773438 159.726562 C 290.238281 138.652344 296.425781 98.574219 276.421875 66.9375 Z M 245.398438 308.757812 C 249.703125 317.167969 247.058594 324.722656 237.53125 331.210938 C 212.675781 348.140625 155.070312 349.40625 136.277344 328.09375 C 130.765625 321.851562 128.914062 315.960938 130.777344 310.585938 C 134.304688 300.425781 150.023438 293.007812 163.867188 290.109375 C 173.257812 302.839844 182.425781 314.40625 190.042969 323.453125 C 190.644531 324.171875 191.539062 324.585938 192.472656 324.585938 C 192.496094 324.585938 192.519531 324.585938 192.542969 324.585938 C 193.503906 324.5625 194.40625 324.109375 194.992188 323.34375 C 197.695312 319.835938 206.285156 307.25 217.199219 290.121094 C 230.171875 294.125 242.824219 303.738281 245.398438 308.757812 Z M 278.617188 158.128906 C 266.90625 203.257812 206.945312 295.496094 192.300781 316.242188 C 173.734375 293.824219 147.464844 258.398438 130.726562 227.511719 C 95.023438 161.636719 86.6875 108.441406 106.617188 73.675781 C 121.140625 48.34375 150.269531 33.695312 188.636719 32.429688 C 190.035156 32.382812 191.414062 32.363281 192.78125 32.363281 C 232.691406 32.363281 259.292969 51.730469 271.050781 70.332031 C 289.773438 99.945312 283.828125 138.050781 278.617188 158.128906 Z M 195.089844 46.535156 C 190.835938 45.980469 176.410156 45.78125 160.929688 51.445312 C 140.222656 59.023438 125.414062 74.316406 118.089844 95.667969 C 109.042969 122.046875 111.230469 147.125 124.253906 166.28125 C 137.167969 185.285156 159.5 196.453125 187.132812 197.734375 C 188.328125 197.789062 189.523438 197.816406 190.710938 197.816406 C 210.257812 197.816406 228.449219 190.351562 242.261719 176.578125 C 255.566406 163.308594 264.171875 144.777344 265.863281 125.730469 C 268.691406 93.871094 251.855469 54.011719 195.089844 46.535156 Z M 259.53125 125.167969 C 256.546875 158.746094 230.277344 193.347656 187.425781 191.382812 C 161.839844 190.199219 141.273438 180.015625 129.511719 162.707031 C 117.640625 145.246094 115.71875 122.171875 124.105469 97.730469 C 141.078125 48.222656 193.742188 52.769531 194.261719 52.839844 C 246.566406 59.730469 262.109375 96.109375 259.53125 125.167969 Z M 201.21875 86.597656 C 195.074219 88.789062 190.546875 92.957031 188.132812 98.449219 C 184.621094 93.855469 178.492188 88.296875 168.402344 87.617188 C 157.339844 86.867188 148.492188 91.566406 144.132812 100.492188 C 139.328125 110.335938 141.148438 123.003906 148.558594 131.300781 C 159.234375 143.246094 178.597656 154.976562 186.867188 159.984375 C 188.128906 160.753906 189.101562 161.339844 189.6875 161.71875 C 190.210938 162.054688 190.808594 162.222656 191.410156 162.222656 C 192.019531 162.222656 192.632812 162.046875 193.164062 161.695312 C 202.777344 155.335938 234.328125 132.875 236.605469 110.9375 C 237.347656 103.808594 235 97.4375 229.628906 92 C 223.042969 85.34375 211.09375 83.070312 201.21875 86.597656 Z M 230.28125 110.28125 C 228.382812 128.582031 200.382812 149.085938 191.335938 155.261719 C 190.980469 155.042969 190.585938 154.804688 190.160156 154.546875 C 182.136719 149.6875 163.339844 138.300781 153.300781 127.0625 C 147.65625 120.746094 146.203125 110.742188 149.847656 103.28125 C 152.824219 97.1875 158.570312 93.894531 166.136719 93.894531 C 166.738281 93.894531 167.351562 93.917969 167.976562 93.957031 C 179.171875 94.714844 184.035156 103.386719 185.863281 106.652344 C 186.527344 107.839844 187.644531 109.828125 190.03125 109.324219 C 191.445312 109.027344 192.453125 107.875 192.601562 106.375 C 193.445312 97.414062 199.703125 93.886719 203.355469 92.582031 C 210.898438 89.886719 220.25 91.558594 225.109375 96.46875 C 229.132812 100.542969 230.824219 105.0625 230.28125 110.28125 Z M 230.28125 110.28125 " fill-opacity="1" fill-rule="nonzero"/></g></svg>